<svg width="270" height="270" viewBox="0 0 270 270" fill="none" xmlns="http://www.w3.org/2000/svg">
<g clip-path="url(#clip0_154_1321)">
<path d="M214.078 187.199L117.365 242.91C115.436 244.028 112.065 243.886 109.841 242.595L19.3627 190.542C17.1391 189.251 16.8954 187.31 18.8246 186.193L115.537 130.481C117.467 129.364 120.838 129.506 123.061 130.796L213.53 182.86C215.753 184.15 215.997 186.091 214.068 187.209L214.078 187.199Z" fill="#8EA7FF"/>
<path d="M214.078 191.243L117.365 246.955C115.436 248.072 112.065 247.93 109.841 246.64L19.3627 194.586C17.1391 193.295 16.8954 191.355 18.8246 190.237L115.537 134.525C117.467 133.408 120.838 133.55 123.061 134.84L213.53 186.904C215.753 188.195 215.997 190.135 214.068 191.253L214.078 191.243Z" fill="white"/>
<path d="M114.096 244.089C112.542 244.089 110.897 243.713 109.618 242.971L19.1496 190.908C17.8397 190.156 17.0884 189.119 17.0884 188.073C17.0884 187.179 17.6265 186.376 18.6013 185.807L115.314 130.085C117.355 128.907 120.929 129.039 123.274 130.4L213.743 182.464C215.053 183.226 215.804 184.252 215.804 185.299C215.804 186.193 215.266 186.996 214.281 187.565L117.568 243.286C116.634 243.825 115.385 244.089 114.085 244.089H114.096ZM118.807 130.146C117.66 130.146 116.563 130.38 115.751 130.847L19.0379 186.559C18.3271 186.965 17.9514 187.494 17.9514 188.073C17.9514 188.804 18.5403 189.566 19.576 190.166L110.044 242.23C112.156 243.449 115.334 243.581 117.142 242.545L213.855 186.823C214.565 186.417 214.941 185.888 214.941 185.309C214.941 184.577 214.352 183.815 213.316 183.216L122.848 131.152C121.691 130.481 120.208 130.136 118.807 130.136V130.146Z" fill="#141516"/>
<path d="M268.339 187.168L209.458 221.187C208.443 221.776 206.666 221.705 205.488 221.024L157.756 193.559C156.578 192.879 156.456 191.852 157.472 191.263L216.352 157.245C217.368 156.655 219.145 156.727 220.322 157.407L268.054 184.872C269.232 185.553 269.354 186.579 268.339 187.168Z" fill="#8EA7FF"/>
<path d="M268.187 189.861L209.306 223.879C208.291 224.469 206.514 224.397 205.336 223.717L157.604 196.252C156.426 195.571 156.304 194.545 157.32 193.956L216.2 159.937C217.216 159.348 218.992 159.419 220.17 160.1L267.902 187.565C269.08 188.245 269.202 189.272 268.187 189.861Z" fill="white"/>
<path d="M207.722 222.02C206.869 222.02 205.975 221.806 205.265 221.4L157.533 193.935C156.781 193.498 156.345 192.889 156.345 192.269C156.345 191.72 156.67 191.233 157.248 190.897L216.139 156.879C217.297 156.208 219.226 156.279 220.536 157.042L268.268 184.506C269.019 184.943 269.456 185.553 269.456 186.173C269.456 186.721 269.131 187.209 268.552 187.544L209.661 221.563C209.133 221.867 208.443 222.02 207.722 222.02ZM218.068 157.275C217.5 157.275 216.962 157.387 216.566 157.611L157.675 191.629C157.462 191.751 157.208 191.964 157.208 192.249C157.208 192.553 157.492 192.899 157.969 193.173L205.701 220.638C206.737 221.237 208.362 221.309 209.245 220.8L268.136 186.782C268.349 186.66 268.603 186.447 268.603 186.162C268.603 185.858 268.318 185.512 267.841 185.238L220.109 157.773C219.53 157.438 218.779 157.265 218.068 157.265V157.275Z" fill="#141516"/>
<path d="M209.139 204.305L209.271 196.979H269.604L269.523 204.112C269.543 204.295 269.523 204.112 269.502 204.295C269.36 205.352 268.538 206.439 267.035 207.303L244.525 220.319C241.519 222.056 236.97 222.249 234.371 220.735L210.876 207.15C209.566 206.399 208.997 205.352 209.139 204.285V204.305Z" fill="#499DD1"/>
<path d="M209.139 204.305L209.271 196.979H269.604L269.523 204.112C269.543 204.295 269.523 204.112 269.502 204.295C269.36 205.352 268.538 206.439 267.035 207.303L244.525 220.319C241.519 222.056 236.97 222.249 234.371 220.746L210.876 207.161C209.566 206.409 208.997 205.362 209.139 204.295V204.305Z" fill="white"/>
<path d="M238.778 222.158C237.052 222.158 235.407 221.812 234.168 221.101L210.673 207.516C209.292 206.713 208.591 205.535 208.743 204.285L208.815 197.172L270 196.593L269.919 204.122C269.919 204.183 269.939 204.275 269.888 204.376C269.706 205.606 268.771 206.764 267.228 207.648L244.718 220.664C243.022 221.64 240.849 222.148 238.778 222.148V222.158ZM209.657 197.376L209.535 204.356C209.414 205.301 209.962 206.185 211.079 206.825L234.574 220.41C237.062 221.853 241.438 221.66 244.332 219.994L266.842 206.978C268.182 206.205 268.985 205.24 269.117 204.265C269.117 204.224 269.127 204.183 269.137 204.153V204.122L269.208 197.386H209.657V197.376Z" fill="#0D1857"/>
<path d="M210.967 200.028L234.463 213.613C237.062 215.116 241.611 214.934 244.616 213.196L267.127 200.18C270.132 198.443 270.457 195.811 267.858 194.307L244.362 180.722C241.763 179.218 237.214 179.401 234.209 181.139L211.698 194.155C208.693 195.892 208.368 198.524 210.967 200.028Z" fill="white"/>
<path d="M210.734 202.751L234.229 216.336C236.828 217.84 241.377 217.657 244.383 215.919L266.893 202.903C269.899 201.166 270.223 198.534 267.624 197.03L244.129 183.445C241.529 181.942 236.981 182.124 233.975 183.872L211.465 196.888C208.459 198.626 208.134 201.257 210.734 202.761V202.751Z" fill="#FABCBC"/>
<path d="M238.869 215.015C237.143 215.015 235.498 214.669 234.26 213.958L210.764 200.373C209.505 199.641 208.815 198.615 208.815 197.477C208.815 196.136 209.789 194.805 211.495 193.809L234.006 180.793C237.113 178.995 241.844 178.812 244.555 180.377L268.051 193.962C269.31 194.693 270 195.719 270 196.857C270 198.199 269.025 199.53 267.32 200.525L244.809 213.541C243.113 214.517 240.941 215.025 238.869 215.025V215.015ZM239.956 180.092C238.027 180.092 235.996 180.56 234.412 181.484L211.901 194.5C210.449 195.343 209.617 196.431 209.617 197.477C209.617 198.321 210.175 199.103 211.18 199.682L234.676 213.267C237.163 214.71 241.54 214.517 244.433 212.851L266.944 199.835C268.396 198.991 269.239 197.904 269.239 196.857C269.239 196.014 268.68 195.232 267.675 194.653L244.18 181.068C243.053 180.417 241.55 180.102 239.966 180.102L239.956 180.092Z" fill="#0D1857"/>
<path d="M238.91 214.629V221.772L242.463 221.213L246.921 219.11L268.264 206.49L269.604 204.844V196.99L268.731 199.256L264.131 201.958L242.524 214.111L238.91 214.629Z" fill="#0D1857"/>
<path d="M235.376 214.06V221.233L232.757 220.024V212.871L235.376 214.06Z" fill="#0D1857"/>
<path d="M210.541 199.916V206.703L209.515 205.931L208.774 201.287L209.119 197.375L210.541 199.916Z" fill="#0D1857"/>
<path d="M257.612 196.359C254.597 195.486 249.713 194.52 246.647 196.288C246.058 196.624 245.55 196.918 245.103 197.182L243.245 196.359C243.276 195.699 242.971 195.028 242.311 194.449L238.676 191.167C238.595 191.086 238.503 191.005 238.402 190.923L238.331 190.862C238.107 190.69 237.864 190.517 237.59 190.354C234.767 188.719 230.198 188.719 227.365 190.344C224.542 191.97 224.532 194.612 227.365 196.248C227.629 196.4 227.923 196.542 228.218 196.664L228.33 196.715C228.492 196.786 228.665 196.847 228.837 196.898L234.452 198.991C235.447 199.377 236.605 199.56 237.752 199.54L239.174 200.617C238.727 200.871 238.229 201.165 237.64 201.501C234.564 203.269 236.209 206.104 237.711 207.841C238.402 208.644 240.24 208.817 241.336 208.187L249.611 203.421L249.967 203.218L258.212 198.473C259.308 197.843 259.004 196.776 257.623 196.38L257.612 196.359Z" fill="white"/>
<path d="M236.757 206.317C237.082 206.866 237.468 207.384 237.854 207.831C238.544 208.634 240.382 208.806 241.479 208.176L249.754 203.411L250.109 203.208L255.866 199.895C252.952 199.245 249.276 198.889 246.799 200.312C246.21 200.647 245.702 200.942 245.256 201.206L243.398 200.383C243.428 199.723 243.123 199.052 242.463 198.473L238.828 195.191C238.747 195.11 238.656 195.028 238.554 194.947L238.483 194.886C238.26 194.713 238.016 194.541 237.742 194.378C234.919 192.742 230.35 192.742 227.517 194.368C227.02 194.652 226.614 194.978 226.289 195.313C226.614 195.648 227.01 195.973 227.507 196.258C227.771 196.41 228.066 196.553 228.36 196.674L228.472 196.725C228.634 196.796 228.807 196.857 228.98 196.908L234.594 199.001C235.589 199.387 236.747 199.57 237.894 199.55L239.316 200.627C238.869 200.881 238.372 201.176 237.783 201.511C236.808 202.07 236.31 202.73 236.128 203.442C236.696 203.543 237.295 203.584 237.884 203.574L239.306 204.651C238.859 204.905 238.361 205.199 237.773 205.535C237.336 205.789 237.011 206.053 236.747 206.347L236.757 206.317Z" fill="#F14C4C"/>
<path d="M227.355 192.285C230.178 190.659 234.757 190.659 237.58 192.295C237.854 192.458 238.097 192.63 238.321 192.803L238.392 192.864C238.493 192.945 238.575 193.027 238.666 193.108L242.301 196.39C242.961 196.969 243.276 197.63 243.235 198.3L245.093 199.123C245.54 198.869 246.048 198.575 246.637 198.229C249.703 196.461 254.587 197.426 257.602 198.3C257.785 198.351 257.948 198.422 258.1 198.493L258.202 198.432C259.298 197.802 258.994 196.735 257.613 196.339C254.597 195.465 249.713 194.5 246.647 196.268C246.058 196.603 245.55 196.898 245.103 197.162L243.245 196.339C243.276 195.679 242.971 195.008 242.311 194.429L238.676 191.147C238.595 191.066 238.504 190.984 238.402 190.903L238.331 190.842C238.108 190.669 237.864 190.497 237.59 190.334C234.767 188.698 230.198 188.698 227.365 190.324C225.517 191.391 224.888 192.884 225.456 194.246C225.761 193.525 226.39 192.834 227.365 192.275L227.355 192.285Z" fill="#0D1857"/>
<path d="M237.62 203.431C238.199 203.096 238.707 202.812 239.154 202.547V200.596C239.154 200.596 237.671 201.46 237.641 201.46H237.631C235.894 202.466 235.661 203.807 236.067 205.098C236.3 204.488 236.778 203.909 237.631 203.421L237.62 203.431Z" fill="#0D1857"/>
<path d="M257.704 196.044C254.282 195.049 249.551 194.236 246.484 196.004L245.083 196.807L243.57 196.136C243.54 195.608 243.337 195.1 242.961 194.642C242.839 194.49 242.687 194.337 242.524 194.195L238.9 190.923C238.808 190.832 238.717 190.751 238.615 190.669L238.453 190.527L238.361 190.446H238.341C238.138 190.304 237.945 190.172 237.742 190.06C234.838 188.373 230.107 188.373 227.192 190.05C227.091 190.111 227.01 190.172 226.918 190.232C226.817 190.293 226.725 190.354 226.634 190.415C226.553 190.476 226.472 190.537 226.39 190.608C226.279 190.7 226.177 190.791 226.076 190.883C226.025 190.934 225.974 190.974 225.923 191.025C225.619 191.34 225.375 191.675 225.213 192.031V192.051C225.121 192.214 225.06 192.387 225.02 192.559C225.02 192.59 225.009 192.62 224.999 192.641C224.959 192.813 224.938 192.976 224.928 193.149C224.928 193.159 224.928 193.179 224.928 193.189C224.928 193.21 224.928 193.24 224.928 193.26C224.928 193.636 225.009 194.002 225.152 194.358L225.497 194.998C225.883 195.557 226.461 196.065 227.203 196.502C227.304 196.563 227.406 196.613 227.517 196.674L228.208 196.989C228.38 197.061 228.553 197.122 228.726 197.182L234.341 199.276C235.325 199.652 236.463 199.855 237.641 199.845L238.575 200.556C238.483 200.607 238.382 200.668 238.26 200.739C237.976 200.911 237.681 201.074 237.569 201.135L237.488 201.176C237.417 201.216 237.356 201.267 237.295 201.308C237.214 201.359 237.123 201.419 237.052 201.47C236.981 201.521 236.899 201.582 236.838 201.633C236.737 201.714 236.635 201.806 236.544 201.887C236.483 201.948 236.432 201.999 236.381 202.06C236.3 202.151 236.229 202.243 236.158 202.334C236.128 202.385 236.087 202.436 236.057 202.476C235.975 202.598 235.904 202.73 235.843 202.872C235.823 202.913 235.813 202.954 235.793 202.994C235.752 203.106 235.711 203.218 235.691 203.33C235.681 203.381 235.661 203.431 235.65 203.492C235.65 203.513 235.65 203.533 235.64 203.543C235.64 203.584 235.64 203.635 235.64 203.675C235.62 203.807 235.61 203.95 235.61 204.082C235.61 204.153 235.61 204.224 235.62 204.285C235.62 204.417 235.64 204.549 235.671 204.681C235.681 204.752 235.701 204.823 235.721 204.894C235.742 204.986 235.752 205.077 235.782 205.169L236.107 205.972C236.483 206.734 237.001 207.435 237.488 208.004C238.29 208.928 240.291 209.142 241.529 208.42L258.405 198.696C258.557 198.605 258.699 198.503 258.811 198.392C259.125 198.097 259.268 197.731 259.227 197.355C259.186 197.05 259.034 196.776 258.78 196.542C258.526 196.309 258.171 196.116 257.745 195.994L257.704 196.044ZM225.578 193.362C225.578 193.26 225.578 193.169 225.588 193.067C225.588 193.037 225.588 193.006 225.588 192.976C225.598 192.895 225.619 192.813 225.649 192.722C225.659 192.681 225.669 192.641 225.68 192.59C225.7 192.519 225.73 192.458 225.761 192.387C225.781 192.336 225.801 192.275 225.832 192.224C225.862 192.173 225.893 192.122 225.923 192.082C225.964 192.011 226.005 191.939 226.055 191.868C226.076 191.848 226.096 191.828 226.106 191.797C226.431 191.37 226.908 190.964 227.507 190.619C230.239 189.044 234.676 189.054 237.397 190.629C237.63 190.761 237.864 190.923 238.097 191.106L238.168 191.167C238.26 191.238 238.341 191.32 238.432 191.401L242.067 194.683C242.21 194.805 242.331 194.937 242.433 195.069C242.748 195.465 242.91 195.892 242.88 196.329V196.532C242.758 196.4 242.626 196.278 242.494 196.156L238.869 192.884C238.778 192.793 238.686 192.712 238.585 192.63L238.321 192.407H238.3C238.097 192.265 237.904 192.133 237.701 192.021C234.798 190.334 230.066 190.334 227.152 192.011C226.472 192.407 225.923 192.874 225.537 193.382L225.578 193.362ZM242.941 196.573L245.124 197.538L246.809 196.563C249.835 194.825 254.82 195.882 257.521 196.664C257.816 196.746 258.059 196.867 258.232 197.01C258.405 197.152 258.506 197.304 258.526 197.467C258.557 197.701 258.394 197.924 258.08 198.127C257.958 198.077 257.826 198.026 257.694 197.985C254.272 196.989 249.541 196.177 246.474 197.945L245.073 198.747L243.56 198.077C243.53 197.548 243.316 197.03 242.941 196.573ZM236.26 203.696C236.26 203.696 236.26 203.655 236.27 203.635C236.29 203.533 236.31 203.431 236.351 203.34L236.371 203.299C236.412 203.198 236.453 203.096 236.513 202.994V202.974C236.585 202.873 236.656 202.771 236.727 202.669C236.808 202.558 236.899 202.466 236.991 202.364C237.214 202.151 237.478 201.948 237.793 201.775L238.828 201.176V202.364L237.458 203.147C237.102 203.35 236.798 203.574 236.544 203.817C236.432 203.929 236.321 204.041 236.229 204.163C236.229 204 236.229 203.848 236.26 203.696ZM237.955 207.607C237.366 206.927 236.727 206.033 236.422 205.118C236.656 204.58 237.113 204.102 237.793 203.716L239.488 202.74V200.79V200.434L239.265 200.271L237.844 199.194H237.732C236.595 199.215 235.498 199.032 234.554 198.666L228.929 196.573C228.776 196.522 228.634 196.471 228.482 196.41L228.34 196.349C228.025 196.217 227.751 196.085 227.528 195.953C226.695 195.475 226.116 194.896 225.822 194.266C226.126 193.626 226.705 193.037 227.528 192.559C230.259 190.984 234.696 190.995 237.417 192.569C237.651 192.702 237.884 192.864 238.118 193.047L238.189 193.108C238.28 193.179 238.361 193.26 238.453 193.342L242.088 196.624C242.656 197.121 242.941 197.68 242.91 198.26V198.483L245.124 199.469L246.809 198.493C249.764 196.786 254.597 197.762 257.338 198.544L241.164 207.861C240.22 208.41 238.534 208.258 237.955 207.587V207.607Z" fill="#0D1857"/>
<path d="M54.2855 127.842V97.4813C54.2855 97.1257 54.58 96.8311 54.9354 96.8311H70.9577C71.2115 96.8311 71.4248 97.0343 71.4248 97.2984V127.913C71.3131 128.299 71.2725 128.451 70.8866 128.675L64.2969 132.485C63.505 132.942 62.1038 132.892 61.19 132.353L55.047 128.807C54.5698 128.533 54.2957 128.258 54.2957 127.842H54.2855Z" fill="white"/>
<path d="M64.2868 107.297L69.8306 104.096V129.61L62.845 133.044V107.612C63.3831 107.622 63.9009 107.531 64.2868 107.307V107.297Z" fill="#8EA7FF"/>
<path d="M60.9564 132.739L54.8135 129.193C54.3566 128.929 53.8387 128.543 53.8387 127.842V97.4814C53.8387 96.8819 54.3363 96.384 54.9353 96.384H70.9577C71.4552 96.384 71.8715 96.7905 71.8715 97.2985V127.913L71.8512 128.035C71.7192 128.492 71.6278 128.756 71.11 129.061L64.5203 132.871C64.0939 133.115 63.5253 133.237 62.9465 133.237C62.2561 133.237 61.5453 133.064 60.9666 132.739H60.9564ZM54.9353 97.2782C54.8236 97.2782 54.7323 97.3696 54.7323 97.4814V127.842C54.7323 127.974 54.7729 128.136 55.2603 128.421L61.4032 131.967C62.185 132.414 63.4034 132.475 64.0634 132.099L70.6531 128.289C70.8764 128.157 70.8866 128.147 70.9678 127.842L70.9475 97.2782H54.9252H54.9353Z" fill="#141516"/>
<path d="M64.2867 101.474L70.8764 97.6641C71.6684 97.2069 71.577 96.4042 70.653 95.8657L64.5101 92.3196C63.5861 91.7912 62.1951 91.7302 61.4031 92.1875L54.8134 95.9978C54.0215 96.455 54.1129 97.2577 55.0368 97.7962L61.1797 101.342C62.1037 101.871 63.4948 101.932 64.2867 101.474Z" fill="white"/>
<path d="M54.722 99.4525C54.722 99.4525 54.7728 99.4119 54.8134 99.3916L61.4031 95.5813C62.1951 95.124 63.5963 95.1748 64.5101 95.7134L70.653 99.2595C70.7748 99.3306 70.8764 99.4017 70.9678 99.4728V100.987C70.9678 100.987 70.917 101.038 70.8764 101.058L64.2867 104.868C63.4947 105.325 62.0935 105.275 61.1797 104.736L55.0368 101.19C54.915 101.119 54.8134 101.048 54.722 100.977V99.4627V99.4525Z" fill="#8EA7FF"/>
<path d="M60.9563 101.729L54.8134 98.1824C54.1839 97.8166 53.8285 97.3086 53.8285 96.7802C53.8285 96.3128 54.1026 95.8963 54.59 95.6118L61.1797 91.8015C62.1138 91.2629 63.6775 91.3137 64.7334 91.9335L70.8763 95.4797C71.5059 95.8454 71.8612 96.3535 71.8612 96.8818C71.8612 97.3492 71.5871 97.7658 71.0997 98.0503L64.5101 101.861C64.0836 102.104 63.515 102.226 62.9363 102.226C62.2458 102.226 61.5249 102.054 60.9563 101.729ZM61.6264 92.5737L55.0368 96.384C54.9149 96.4551 54.722 96.5973 54.722 96.7802C54.722 96.9326 54.8642 97.1765 55.2601 97.4102L61.4031 100.956C62.1849 101.403 63.4033 101.464 64.0633 101.088L70.653 97.2781C70.7748 97.207 70.9677 97.0647 70.9677 96.8818C70.9677 96.7294 70.8256 96.4856 70.4296 96.2519L64.2867 92.7058C63.8501 92.4517 63.2815 92.3197 62.7433 92.3197C62.3169 92.3197 61.9107 92.4009 61.6264 92.5737Z" fill="#141516"/>
<path d="M68.9878 136.062V127.324C68.9878 126.968 69.2822 126.673 69.6376 126.673H85.66C85.9138 126.673 86.127 126.877 86.127 127.141V136.133C86.0153 136.519 85.9747 136.672 85.5889 136.895L78.9992 140.705C78.2072 141.163 76.806 141.112 75.8922 140.573L69.7493 137.027C69.2721 136.753 68.998 136.478 68.998 136.062H68.9878Z" fill="white"/>
<path d="M78.9892 137.139L84.533 133.938V137.82L77.5474 141.254V137.444C78.0855 137.454 78.6135 137.362 78.9892 137.139Z" fill="#8EA7FF"/>
<path d="M75.6588 140.959L69.5159 137.413C69.059 137.149 68.5411 136.763 68.5411 136.062V127.324C68.5411 126.724 69.0386 126.226 69.6377 126.226H85.6601C86.1576 126.226 86.5739 126.633 86.5739 127.141V136.133L86.5536 136.255C86.4216 136.712 86.3302 136.976 85.8124 137.281L79.2227 141.092C78.7962 141.335 78.2276 141.457 77.6489 141.457C76.9584 141.457 76.2477 141.285 75.6689 140.959H75.6588ZM69.6377 127.131C69.526 127.131 69.4346 127.222 69.4346 127.334V136.072C69.4346 136.204 69.4753 136.367 69.9626 136.651L76.1055 140.197C76.8874 140.644 78.1058 140.705 78.7658 140.329L85.3555 136.519C85.5788 136.387 85.589 136.377 85.6702 136.072L85.6499 127.141H69.6276L69.6377 127.131Z" fill="#141516"/>
<path d="M78.989 131.327L85.5787 127.517C86.3707 127.059 86.2793 126.257 85.3553 125.718L79.2124 122.172C78.2884 121.644 76.8974 121.583 76.1054 122.04L69.5157 125.85C68.7237 126.308 68.8151 127.11 69.7391 127.649L75.882 131.195C76.806 131.723 78.197 131.784 78.989 131.327Z" fill="white"/>
<path d="M69.4244 129.295C69.4244 129.295 69.4752 129.254 69.5158 129.224L76.1055 125.413C76.8975 124.956 78.2987 125.007 79.2125 125.545L85.3554 129.091C85.4772 129.163 85.5788 129.234 85.6702 129.305V130.819C85.6702 130.819 85.6194 130.87 85.5788 130.89L78.9891 134.7C78.1971 135.157 76.7959 135.107 75.8821 134.568L69.7392 131.022C69.6174 130.951 69.5158 130.88 69.4244 130.809V129.295Z" fill="#8EA7FF"/>
<path d="M75.6587 131.581L69.5158 128.035C68.8863 127.669 68.5309 127.161 68.5309 126.633C68.5309 126.165 68.805 125.749 69.2924 125.464L75.8821 121.654C76.8162 121.115 78.3799 121.166 79.4358 121.786L85.5787 125.332C86.2083 125.698 86.5636 126.206 86.5636 126.734C86.5636 127.202 86.2895 127.618 85.8021 127.903L79.2125 131.713C78.786 131.957 78.2174 132.079 77.6386 132.079C76.9482 132.079 76.2375 131.906 75.6587 131.581ZM76.3288 122.426L69.7392 126.236C69.6173 126.307 69.4244 126.45 69.4244 126.633C69.4244 126.785 69.5666 127.029 69.9625 127.263L76.1055 130.809C76.8873 131.256 78.1057 131.317 78.7657 130.941L85.3554 127.13C85.4772 127.059 85.6701 126.917 85.6701 126.734C85.6701 126.582 85.528 126.338 85.132 126.104L78.9891 122.558C78.5525 122.304 77.9839 122.172 77.4457 122.172C77.0193 122.172 76.6131 122.253 76.3187 122.426H76.3288Z" fill="#141516"/>
<path d="M75.2076 190.43V183.053L61.4393 184.547L50.3212 178.186C46.9603 176.266 41.3657 176.378 37.8323 178.44L19.6168 189.069L0.375732 191.152V198.183C0.375732 198.356 0.375732 198.528 0.385886 198.701V198.742C0.507729 199.9 1.30986 201.008 2.80244 201.861L25.2621 214.704C28.623 216.625 34.2176 216.513 37.751 214.45L54.6669 204.574L64.2214 210.04C64.2214 210.04 68.2828 206.352 68.2422 202.379V196.649L72.456 194.19C74.2633 193.133 75.1771 191.771 75.1974 190.44L75.2076 190.43Z" fill="#F78F8F"/>
<path d="M66.1505 183.693L65.4601 183.297L61.815 183.693L50.6968 177.333C49.6205 176.723 48.3208 176.337 46.9298 176.134C45.3357 176.367 43.8025 176.845 42.5435 177.587L24.3279 188.215L5.08691 190.298V197.329C5.08691 197.502 5.08691 197.675 5.09707 197.847V197.888C5.21891 199.046 6.02104 200.154 7.51362 201.007L29.9733 213.851C31.0496 214.46 32.3493 214.846 33.7403 215.05C35.3344 214.816 36.8676 214.338 38.1267 213.597L55.0425 203.72L57.2357 204.97L59.3781 203.72L66.0896 207.561C67.2471 206.118 68.6483 203.873 68.628 201.526V195.795L72.8417 193.336C74.6491 192.279 75.5629 190.918 75.5832 189.587V182.677L66.1505 183.704V183.693Z" fill="white"/>
<path d="M61.5408 184.547L50.4227 178.186C47.0618 176.266 41.4672 176.378 37.9338 178.44L19.7183 189.069L13.6769 189.719L31.202 199.057V216.056C33.5677 216.056 35.9944 215.527 37.8525 214.45L54.7684 204.574L64.3229 210.04C64.3229 210.04 68.3843 206.352 68.3437 202.379V196.649L72.5575 194.19C74.3648 193.133 75.2786 191.771 75.2989 190.44V183.064L61.5307 184.557L61.5408 184.547Z" fill="#141516"/>
<path d="M31.1411 216.431C28.9174 216.431 26.7446 215.964 25.0895 215.019L2.62983 202.176C1.19817 201.353 0.294504 200.245 0.0711252 199.026H0.0203573V198.721C5.01648e-05 198.528 5.01648e-05 198.335 0.0203573 198.142V190.806L19.5051 188.693L37.6495 178.105C41.2845 175.981 47.0517 175.87 50.5141 177.851L61.5206 184.151L75.5833 182.627V190.43C75.563 191.964 74.5273 193.407 72.659 194.504L68.6382 196.852V202.745C68.425 206.687 64.658 210.162 64.4854 210.315L64.2823 210.498L54.6771 205.001L37.944 214.765C36.0452 215.873 33.5678 216.431 31.1309 216.431H31.1411ZM0.761568 198.66V198.691C0.873258 199.758 1.66524 200.774 2.99536 201.526L25.4551 214.369C28.7042 216.228 34.1465 216.116 37.5683 214.115L54.6771 204.127L64.1808 209.563C64.9728 208.78 67.9173 205.641 67.8869 202.369V201.993V196.425L72.2834 193.854C73.9079 192.899 74.8218 191.68 74.8319 190.42V183.46L61.3581 184.923L61.2464 184.862L50.1283 178.501C46.8791 176.642 41.4368 176.754 38.015 178.755L19.6574 189.434L0.751415 191.477V198.162C0.751415 198.345 0.751415 198.498 0.761568 198.64V198.66Z" fill="#141516"/>
<path d="M37.8322 167.03L3.1171 187.29C-0.416345 189.353 -0.558495 192.584 2.81249 194.505L25.2722 207.348C28.633 209.268 34.2277 209.156 37.7611 207.094L54.677 197.217L64.2315 202.684C64.2315 202.684 71.9279 195.704 66.0388 190.582L72.466 186.833C75.9995 184.771 76.1416 181.539 72.7706 179.619L50.3109 166.776C46.9501 164.855 41.3555 164.967 37.822 167.03H37.8322Z" fill="white"/>
<path d="M74.7913 184.76C74.3953 184.059 73.7353 183.399 72.7707 182.85L50.311 170.007C46.9502 168.086 41.3555 168.198 37.8221 170.261L3.11716 190.521C2.00027 191.172 1.2286 191.934 0.791992 192.747C1.18798 193.448 1.84796 194.108 2.81255 194.657L25.2723 207.5C28.6331 209.42 34.2277 209.309 37.7612 207.246L54.677 197.37L64.2315 202.836C64.2315 202.836 67.237 200.113 68.0594 196.821C67.765 195.795 67.1456 194.769 66.049 193.813L67.7142 192.838C67.3588 192.117 66.8309 191.405 66.049 190.725L72.4762 186.975C73.5931 186.325 74.3648 185.563 74.8014 184.75L74.7913 184.76Z" fill="#8EA7FF"/>
<path d="M31.141 209.095C28.9174 209.095 26.7445 208.628 25.0895 207.683L2.62978 194.84C0.934129 193.875 0 192.544 0 191.101C0 189.546 1.03567 188.083 2.93438 186.975L37.6495 166.715C41.2844 164.591 47.0517 164.479 50.514 166.461L72.9738 179.304C74.6593 180.269 75.5934 181.6 75.5934 183.043C75.5934 184.598 74.5577 186.061 72.659 187.169L66.6684 190.664C67.9579 191.924 68.6179 193.397 68.628 195.023C68.6686 199.128 64.6478 202.816 64.4752 202.979L64.2721 203.162L54.6669 197.665L37.9338 207.429C36.035 208.537 33.5576 209.095 31.1207 209.095H31.141ZM44.4524 165.78C42.1576 165.78 39.8122 166.308 38.0251 167.355L3.31007 187.616C1.67534 188.571 0.751365 189.831 0.751365 191.091C0.751365 192.259 1.5535 193.356 2.99531 194.179L25.455 207.023C28.7042 208.882 34.1465 208.77 37.5682 206.769L54.677 196.781L64.1808 202.217C64.9727 201.434 67.9274 198.284 67.8868 195.013C67.8665 193.448 67.1659 192.056 65.7952 190.857L65.3992 190.511L72.2732 186.498C73.9079 185.543 74.8319 184.283 74.8319 183.023C74.8319 181.854 74.0297 180.757 72.5879 179.934L50.1282 167.091C48.5747 166.207 46.5338 165.77 44.4422 165.77L44.4524 165.78Z" fill="#141516"/>
<path d="M30.2171 190.918C32.6235 192.3 32.522 194.606 29.9937 196.09C27.4655 197.573 23.465 197.644 21.0484 196.272C18.642 194.891 18.7436 192.584 21.2718 191.101C23.8 189.627 27.8006 189.546 30.2171 190.918Z" fill="white"/>
<path d="M30.2171 192.92C32.6235 194.301 32.522 196.608 29.9937 198.091C27.4655 199.565 23.465 199.646 21.0484 198.274C18.642 196.893 18.7436 194.586 21.2718 193.103C23.8 191.629 27.8006 191.548 30.2171 192.92Z" fill="#F14C4C"/>
<path d="M25.2519 197.614C23.6375 197.614 22.0637 197.279 20.8656 196.588C19.6268 195.876 18.9364 194.891 18.9364 193.814C18.9364 192.666 19.6979 191.578 21.089 190.766C23.7187 189.231 27.902 189.15 30.3998 190.583C31.6385 191.294 32.329 192.28 32.329 193.357C32.329 194.505 31.5674 195.592 30.1764 196.405C28.8057 197.208 27.0085 197.614 25.2418 197.614H25.2519ZM26.0134 190.308C24.3889 190.308 22.7338 190.684 21.4646 191.426C20.3274 192.086 19.6776 192.96 19.6878 193.824C19.6878 194.617 20.2462 195.379 21.2413 195.948C23.536 197.258 27.3842 197.187 29.8109 195.765C30.9481 195.104 31.5878 194.23 31.5878 193.367C31.5878 192.574 31.0293 191.812 30.0343 191.243C28.9377 190.613 27.4959 190.308 26.0134 190.308Z" fill="#141516"/>
<path d="M42.3709 183.815C44.7773 185.197 44.6758 187.504 42.1476 188.987C39.6193 190.461 35.6188 190.542 33.2023 189.17C30.7857 187.798 30.8974 185.482 33.4256 183.998C35.9539 182.525 39.9544 182.444 42.3709 183.815Z" fill="white"/>
<path d="M42.3709 185.817C44.7773 187.199 44.6758 189.505 42.1475 190.989C39.6193 192.462 35.6188 192.544 33.2022 191.172C30.7958 189.79 30.8974 187.483 33.4256 186C35.9538 184.527 39.9544 184.445 42.3709 185.817Z" fill="#F14C4C"/>
<path d="M37.416 190.511C35.8016 190.511 34.2278 190.176 33.0296 189.485C31.7909 188.774 31.1005 187.788 31.1005 186.711C31.1005 185.563 31.862 184.476 33.253 183.663C35.8828 182.129 40.0661 182.047 42.574 183.48C43.8127 184.191 44.5032 185.177 44.5032 186.254C44.5032 187.402 43.7417 188.489 42.3506 189.302C40.9799 190.105 39.1827 190.511 37.4261 190.511H37.416ZM38.1775 183.206C36.5529 183.206 34.8979 183.582 33.6287 184.323C32.4915 184.984 31.8518 185.858 31.8518 186.721C31.8518 187.514 32.4103 188.276 33.4053 188.845C35.7102 190.156 39.5482 190.085 41.9749 188.662C43.1121 188.002 43.762 187.128 43.7518 186.264C43.7518 185.472 43.1934 184.71 42.1983 184.141C41.1017 183.511 39.6599 183.206 38.1877 183.206H38.1775Z" fill="#141516"/>
<path d="M54.535 176.713C56.9414 178.095 56.8399 180.401 54.3116 181.885C51.7834 183.358 47.7829 183.439 45.3663 182.068C42.9498 180.696 43.0615 178.379 45.5897 176.896C48.1179 175.422 52.1184 175.341 54.535 176.713Z" fill="white"/>
<path d="M54.535 178.725C56.9414 180.107 56.8398 182.413 54.3116 183.897C51.7834 185.37 47.7828 185.451 45.3663 184.08C42.9599 182.698 43.0614 180.391 45.5897 178.908C48.1179 177.435 52.1184 177.353 54.535 178.725Z" fill="#F14C4C"/>
<path d="M49.5801 183.419C47.9656 183.419 46.3918 183.084 45.1937 182.393C43.955 181.682 43.2645 180.696 43.2645 179.619C43.2645 178.471 44.026 177.384 45.4171 176.571C48.0469 175.036 52.22 174.955 54.7381 176.388C55.9768 177.099 56.6672 178.085 56.6672 179.162C56.6672 180.31 55.9057 181.397 54.5147 182.21C53.144 183.013 51.3468 183.419 49.5902 183.419H49.5801ZM50.3416 176.114C48.717 176.114 47.062 176.489 45.7928 177.231C44.6556 177.892 44.0159 178.765 44.0159 179.629C44.0159 180.422 44.5743 181.184 45.5694 181.753C47.8641 183.063 51.7123 182.992 54.139 181.57C55.2762 180.909 55.926 180.036 55.9159 179.172C55.9159 178.379 55.3574 177.617 54.3624 177.048C53.2658 176.418 51.824 176.114 50.3517 176.114H50.3416Z" fill="#141516"/>
<path d="M54.6771 197.512V204.472C54.6771 204.533 54.7076 204.584 54.7584 204.614L63.9778 209.888C64.0895 209.949 64.2316 209.868 64.2316 209.746V202.786C64.2316 202.725 64.2012 202.674 64.1504 202.643L54.931 197.37C54.8193 197.309 54.6771 197.39 54.6771 197.512Z" fill="#F78F8F"/>
<path d="M58.434 199.25V203.73C58.434 203.791 58.4644 203.842 58.5152 203.873L64.3941 207.236V202.755C64.3941 202.694 64.3636 202.643 64.3129 202.613L58.434 199.25Z" fill="white"/>
<path d="M64.0691 210.284C63.9777 210.284 63.8864 210.264 63.795 210.213L54.5755 204.94C54.4029 204.838 54.3014 204.665 54.3014 204.472V197.512C54.3014 197.319 54.4029 197.136 54.5755 197.045C54.738 196.943 54.9512 196.943 55.1137 197.045L64.3331 202.318C64.5057 202.42 64.6073 202.592 64.6073 202.786V209.746C64.6073 209.939 64.5057 210.122 64.3331 210.213C64.2519 210.264 64.1504 210.284 64.059 210.284H64.0691ZM55.0528 204.35L63.8559 209.39V202.907L55.0528 197.868V204.35Z" fill="#141516"/>
<path d="M223.206 68.4191L136.809 18.5703C135.774 17.9708 134.606 17.9403 133.601 18.3264C133.53 18.3569 130.473 19.6575 129.752 19.9623C129.681 19.9928 129.671 20.0842 129.732 20.135L131.215 21.3238L93.9002 170.007C93.4027 171.978 94.2759 174.03 96.0325 175.046L181.81 224.54L181.749 226.744C181.749 226.744 181.779 226.795 181.8 226.775L186.277 224.824C187.059 224.336 187.679 223.564 187.922 222.568L225.338 73.469C225.836 71.4978 224.963 69.4453 223.206 68.4292V68.4191Z" fill="#141516"/>
<path d="M181.759 227.242L181.333 226.978V226.704L181.383 224.763L95.8294 175.402C93.9205 174.295 92.956 172.029 93.4941 169.885L130.727 21.4763L129.458 20.4603C129.316 20.3485 129.235 20.1554 129.265 19.9725C129.285 19.7896 129.407 19.6372 129.58 19.5559L130.057 19.3527C131.174 18.8752 133.387 17.9302 133.448 17.9099C134.636 17.4527 135.936 17.5543 137.033 18.1842L223.429 68.0331C225.338 69.1406 226.303 71.4064 225.765 73.5402L188.349 222.64C188.085 223.686 187.435 224.58 186.511 225.159L181.759 227.232V227.242ZM130.433 20.1351L131.702 21.1512L94.3267 170.098C93.8799 171.866 94.6719 173.746 96.2559 174.65L182.257 224.265L182.206 226.104L186.115 224.408C186.795 223.981 187.313 223.27 187.516 222.436L224.932 73.337C225.379 71.569 224.587 69.6893 223.003 68.7748L136.606 18.926C135.743 18.4281 134.707 18.3468 133.773 18.7126C133.682 18.7532 131.55 19.6576 130.443 20.1249L130.433 20.1351Z" fill="#141516"/>
<path d="M178.632 226.501L92.2351 176.652C90.4785 175.636 89.6053 173.583 90.1029 171.612L127.519 22.5127C128.128 20.1046 130.859 18.9463 133.012 20.1859L219.409 70.0347C221.165 71.0508 222.038 73.1033 221.541 75.0745L184.125 224.174C183.516 226.582 180.784 227.74 178.632 226.501Z" fill="#8EA7FF"/>
<path d="M221.632 73.4081C221.348 73.1236 221.033 72.8594 220.678 72.646L134.281 22.7972C132.129 21.5576 129.397 22.7159 128.788 25.124L91.3721 174.223C91.2502 174.721 91.2096 175.229 91.2604 175.727C91.5447 176.012 91.8595 176.276 92.2148 176.489L178.612 226.338C180.764 227.578 183.495 226.419 184.105 224.011L221.521 74.9119C221.642 74.414 221.683 73.906 221.632 73.4081Z" fill="white"/>
<path d="M180.49 227.435C179.769 227.435 179.058 227.242 178.409 226.877L92.0118 177.028C90.1029 175.92 89.1383 173.654 89.6765 171.51L127.103 22.4111C127.427 21.1308 128.301 20.1046 129.519 19.5864C130.738 19.0682 132.088 19.1495 133.225 19.8099L219.622 69.6587C221.531 70.7663 222.495 73.0321 221.957 75.1659L184.541 224.265C184.216 225.546 183.343 226.572 182.125 227.09C181.597 227.314 181.049 227.425 180.49 227.425V227.435ZM178.845 226.125C179.749 226.653 180.825 226.714 181.79 226.308C182.754 225.901 183.455 225.078 183.709 224.062L221.125 74.9627C221.571 73.1947 220.779 71.3149 219.196 70.4005L132.799 20.5517C131.895 20.0335 130.819 19.9623 129.854 20.3688C128.89 20.7752 128.189 21.5982 127.935 22.6041L90.5192 171.704C90.0725 173.471 90.8644 175.351 92.4484 176.256L178.845 226.104V226.125Z" fill="#141516"/>
<path d="M96.2864 170.434L132.118 28.02C132.332 27.1766 133.296 26.7702 134.048 27.2071L214.078 73.3574C215.053 73.9163 215.54 75.0644 215.266 76.1618L179.434 218.575C179.221 219.419 178.256 219.825 177.505 219.388L97.4744 173.238C96.4996 172.669 96.0122 171.531 96.2864 170.434Z" fill="#8EA7FF"/>
<path d="M94.012 169.946L130.727 23.9961L209.499 69.8619L172.773 215.811L94.012 169.946Z" fill="white"/>
<path d="M178.165 219.998C177.86 219.998 177.566 219.916 177.291 219.764L97.261 173.614C96.1238 172.953 95.5552 171.612 95.8699 170.332L131.702 27.908C131.834 27.3695 132.21 26.9428 132.717 26.7294C133.225 26.516 133.783 26.5465 134.261 26.8208L214.291 72.9711C215.428 73.6316 215.997 74.9728 215.682 76.2531L179.85 218.667C179.718 219.205 179.353 219.632 178.845 219.845C178.622 219.937 178.398 219.988 178.165 219.988V219.998ZM96.7025 170.535C96.4791 171.439 96.8751 172.394 97.6874 172.862L177.718 219.012C177.962 219.154 178.246 219.165 178.5 219.063C178.754 218.951 178.946 218.738 179.007 218.463L214.839 76.0498C215.063 75.1455 214.667 74.1904 213.854 73.723L133.824 27.5727C133.58 27.4305 133.296 27.4203 133.042 27.5219C132.788 27.6337 132.595 27.8471 132.524 28.1214L96.6924 170.535H96.7025Z" fill="#141516"/>
<path d="M208.266 133.881L185.924 223.286L186.505 223.432L208.847 134.027L208.266 133.881Z" fill="white"/>
<path d="M215.628 104.744L213.536 113.05L214.117 113.196L216.209 104.891L215.628 104.744Z" fill="white"/>
<path d="M212.686 116.715L210.586 125.019L211.167 125.166L213.267 116.862L212.686 116.715Z" fill="white"/>
<path d="M221.307 84.6256L220.718 84.4833L223.308 74.1803C223.866 71.4877 221.602 69.8518 221.5 69.7807L148.78 27.8268L149.085 27.3086L221.825 69.2828C221.957 69.3742 224.536 71.2235 223.886 74.3226L221.297 84.6357L221.307 84.6256Z" fill="white"/>
<path d="M135.433 19.4287L135.134 19.948L145.02 25.6532L145.319 25.1339L135.433 19.4287Z" fill="white"/>
<path d="M171.87 157.844C170.164 156.859 169.321 154.857 169.798 152.947L170.489 150.214C170.865 148.72 172.57 147.999 173.9 148.781L194.055 160.537L195.213 155.934L175.17 144.33C173.464 143.345 172.621 141.343 173.098 139.433L173.789 136.7C174.164 135.206 175.87 134.485 177.2 135.267L197.436 147.074L198.635 142.319L178.602 130.725C176.896 129.74 176.053 127.738 176.53 125.828L177.221 123.094C177.596 121.601 179.302 120.879 180.632 121.662L200.868 133.469L202.026 128.866L181.901 117.222C180.196 116.236 179.353 114.234 179.83 112.324L180.521 109.591C180.896 108.097 182.602 107.376 183.932 108.158L204.249 120.016L205.448 115.26L176.561 98.6577C174.855 97.6721 174.012 95.6705 174.489 93.7602L175.18 91.027C175.555 89.5334 177.261 88.812 178.591 89.5943L207.681 106.4L215.276 76.2126C215.55 75.1152 215.063 73.967 214.088 73.4082L134.058 27.2579C133.306 26.821 132.342 27.2274 132.129 28.0708L96.2966 170.484C96.0225 171.582 96.5099 172.73 97.4846 173.289L177.515 219.439C178.266 219.876 179.231 219.47 179.444 218.626L191.832 169.397L171.88 157.844H171.87Z" fill="white"/>
<path d="M173.088 161.39C171.382 160.405 170.539 158.403 171.017 156.493L171.707 153.76C172.083 152.266 173.789 151.545 175.119 152.327L195.274 164.083L196.431 159.48L176.388 147.877C174.682 146.891 173.839 144.889 174.317 142.979L175.007 140.246C175.383 138.752 177.088 138.031 178.419 138.813L198.655 150.62L199.853 145.865L179.82 134.271C178.114 133.286 177.271 131.284 177.748 129.374L178.439 126.641C178.815 125.147 180.52 124.426 181.851 125.208L202.087 137.015L203.244 132.412L183.12 120.768C181.414 119.782 180.571 117.78 181.048 115.87L181.739 113.137C182.115 111.643 183.82 110.922 185.15 111.704L205.468 123.562L206.666 118.807L177.779 102.204C176.073 101.218 175.23 99.2166 175.708 97.3064L176.398 94.5731C176.774 93.0795 178.48 92.3581 179.81 93.1405L208.9 109.946L216.495 79.7587C216.769 78.6614 216.281 77.5132 215.307 76.9543L135.276 30.8041C134.525 30.3671 133.56 30.7736 133.347 31.6169L97.5149 174.03C97.2408 175.128 97.7281 176.276 98.7029 176.835L178.733 222.985C179.485 223.422 180.449 223.016 180.663 222.172L193.05 172.943L173.098 161.39H173.088Z" fill="#8EA7FF"/>
<path d="M178.165 220.049C177.86 220.049 177.566 219.967 177.292 219.815L97.2612 173.665C96.124 173.004 95.5554 171.653 95.8702 170.383L131.702 27.9591C131.834 27.4205 132.21 26.9938 132.718 26.7804C133.225 26.567 133.784 26.5975 134.261 26.8719L214.291 73.0221C215.429 73.6826 215.997 75.0238 215.682 76.3041L207.945 107.051L155.218 76.68C154.7 76.3752 154.091 76.3346 153.532 76.5683C152.984 76.802 152.578 77.2694 152.436 77.8485L151.745 80.5818C151.309 82.2989 152.08 84.1177 153.614 85.0017L205.925 115.037L204.513 120.656L160.548 95.2438C160.031 94.939 159.421 94.9085 158.873 95.132C158.325 95.3657 157.919 95.8331 157.777 96.4123L157.086 99.1455C156.66 100.863 157.421 102.681 158.954 103.565L202.503 128.642L201.122 134.119L157.249 108.747C156.731 108.443 156.121 108.412 155.573 108.636C155.025 108.869 154.619 109.337 154.477 109.916L153.786 112.649C153.35 114.366 154.121 116.185 155.654 117.069L199.122 142.095L197.711 147.714L153.837 122.343C153.319 122.038 152.71 121.997 152.162 122.231C151.613 122.465 151.207 122.932 151.065 123.511L150.375 126.244C149.938 127.962 150.71 129.78 152.243 130.664L195.71 155.7L194.329 161.177L150.537 135.856C150.019 135.552 149.41 135.511 148.862 135.745C148.313 135.978 147.907 136.446 147.765 137.025L147.075 139.758C146.638 141.475 147.41 143.294 148.943 144.178L192.319 169.163L192.238 169.478L179.85 218.708C179.718 219.246 179.353 219.673 178.845 219.886C178.622 219.978 178.398 220.028 178.165 220.028V220.049ZM133.388 27.5018C133.276 27.5018 133.154 27.5221 133.042 27.5729C132.789 27.6847 132.596 27.8981 132.525 28.1724L96.6926 170.586C96.4692 171.49 96.8652 172.445 97.6775 172.913L177.708 219.063C177.952 219.205 178.236 219.216 178.49 219.114C178.744 219.002 178.937 218.789 178.997 218.514L191.304 169.6L148.486 144.94C146.628 143.863 145.694 141.648 146.212 139.565L146.902 136.832C147.115 135.989 147.694 135.308 148.496 134.972C149.298 134.637 150.192 134.688 150.943 135.135L193.751 159.877L194.695 156.137L151.796 131.426C149.938 130.349 149.004 128.134 149.522 126.051L150.212 123.318C150.425 122.475 151.004 121.794 151.806 121.459C152.608 121.123 153.502 121.174 154.253 121.621L197.142 146.413L198.117 142.532L155.218 117.821C153.36 116.744 152.426 114.529 152.943 112.446L153.634 109.713C153.847 108.869 154.426 108.189 155.228 107.853C156.03 107.518 156.924 107.579 157.675 108.016L200.564 132.808L201.508 129.069L158.518 104.317C156.66 103.24 155.726 101.025 156.243 98.9423L156.934 96.2091C157.147 95.3657 157.726 94.6849 158.528 94.3496C159.33 94.0143 160.224 94.0651 160.975 94.5122L203.945 119.355L204.92 115.474L153.167 85.7638C151.309 84.6867 150.375 82.4717 150.892 80.3887L151.583 77.6555C151.796 76.8121 152.375 76.1313 153.177 75.796C153.979 75.4607 154.873 75.5115 155.624 75.9586L207.356 105.75L214.809 76.111C215.033 75.2067 214.637 74.2516 213.824 73.7842L133.794 27.6339C133.662 27.5526 133.509 27.512 133.357 27.512L133.388 27.5018Z" fill="#141516"/>
<path d="M82.8635 209.055V190.176C82.8635 189.82 83.158 189.526 83.5134 189.526H99.5357C99.7895 189.526 100.003 189.729 100.003 189.993V209.126C99.8911 209.512 99.8505 209.664 99.4646 209.888L92.875 213.698C92.083 214.155 90.6818 214.105 89.768 213.566L83.625 210.02C83.1478 209.746 82.8737 209.471 82.8737 209.055H82.8635Z" fill="white"/>
<path d="M92.8647 199.981L98.4085 196.781V210.813L91.4229 214.247V200.296C91.961 200.306 92.4788 200.215 92.8647 199.991V199.981Z" fill="#8EA7FF"/>
<path d="M89.5344 213.952L83.3915 210.406C82.9346 210.142 82.4167 209.756 82.4167 209.055V190.176C82.4167 189.576 82.9143 189.079 83.5133 189.079H99.5357C100.033 189.079 100.45 189.485 100.45 189.993V209.126L100.429 209.248C100.297 209.705 100.206 209.969 99.688 210.274L93.0983 214.084C92.6719 214.328 92.1033 214.45 91.5245 214.45C90.8341 214.45 90.1233 214.277 89.5446 213.952H89.5344ZM83.5133 189.973C83.4016 189.973 83.3103 190.064 83.3103 190.176V209.055C83.3103 209.187 83.3509 209.349 83.8383 209.634L89.9812 213.18C90.763 213.627 91.9814 213.688 92.6414 213.312L99.2311 209.502C99.4545 209.37 99.4646 209.36 99.5458 209.055L99.5255 189.973H83.5032H83.5133Z" fill="#141516"/>
<path d="M92.8645 194.169L99.4542 190.359C100.246 189.901 100.155 189.099 99.2308 188.56L93.0879 185.014C92.1639 184.486 90.7729 184.425 89.9809 184.882L83.3912 188.692C82.5992 189.15 82.6906 189.952 83.6146 190.491L89.7575 194.037C90.6815 194.565 92.0725 194.626 92.8645 194.169Z" fill="white"/>
<path d="M83.3 192.137C83.3 192.137 83.3508 192.086 83.3914 192.066L89.9811 188.255C90.7731 187.798 92.1743 187.849 93.0881 188.387L99.231 191.934C99.3529 192.005 99.4544 192.076 99.5458 192.147V193.661C99.5458 193.661 99.495 193.712 99.4544 193.732L92.8647 197.542C92.0727 198 90.6715 197.949 89.7577 197.41L83.6148 193.864C83.493 193.793 83.3914 193.722 83.3 193.651V192.137Z" fill="#8EA7FF"/>
<path d="M89.5343 194.423L83.3914 190.877C82.7619 190.511 82.4065 190.003 82.4065 189.475C82.4065 189.007 82.6806 188.591 83.168 188.306L89.7577 184.496C90.6918 183.958 92.2555 184.008 93.3114 184.628L99.4543 188.174C100.084 188.54 100.439 189.048 100.439 189.576C100.439 190.044 100.165 190.46 99.6777 190.745L93.0881 194.555C92.6616 194.799 92.093 194.921 91.5142 194.921C90.8238 194.921 90.1131 194.748 89.5343 194.423ZM90.2044 185.268L83.6148 189.079C83.4929 189.15 83.3 189.292 83.3 189.475C83.3 189.627 83.4422 189.871 83.8381 190.105L89.9811 193.651C90.7629 194.098 91.9813 194.159 92.6413 193.783L99.231 189.973C99.3528 189.902 99.5457 189.759 99.5457 189.576C99.5457 189.424 99.4036 189.18 99.0076 188.946L92.8647 185.4C92.4281 185.146 91.8595 185.014 91.3213 185.014C90.8949 185.014 90.4887 185.096 90.1943 185.268H90.2044Z" fill="#141516"/>
<path d="M97.241 217.519V204.005C97.241 203.649 97.5354 203.354 97.8908 203.354H113.913C114.167 203.354 114.38 203.558 114.38 203.822V217.59C114.269 217.976 114.228 218.128 113.842 218.352L107.252 222.162C106.46 222.619 105.059 222.569 104.145 222.03L98.0025 218.484C97.5253 218.21 97.2511 217.935 97.2511 217.519H97.241Z" fill="white"/>
<path d="M107.242 213.82L112.786 210.62V219.277L105.8 222.711V214.125C106.338 214.135 106.856 214.044 107.242 213.82Z" fill="#8EA7FF"/>
<path d="M103.912 222.426L97.7689 218.88C97.312 218.616 96.7942 218.23 96.7942 217.529V204.015C96.7942 203.416 97.2917 202.918 97.8908 202.918H113.913C114.411 202.918 114.827 203.324 114.827 203.832V217.6L114.807 217.722C114.675 218.179 114.583 218.443 114.065 218.748L107.476 222.559C107.049 222.802 106.481 222.924 105.902 222.924C105.212 222.924 104.491 222.752 103.922 222.426H103.912ZM97.8908 203.822C97.7791 203.822 97.6877 203.913 97.6877 204.025V217.539C97.6877 217.671 97.7283 217.834 98.2157 218.118L104.359 221.664C105.14 222.111 106.359 222.172 107.019 221.796L113.609 217.986C113.832 217.854 113.842 217.844 113.923 217.539L113.903 203.832H97.8806L97.8908 203.822Z" fill="#141516"/>
<path d="M107.242 208.008L113.832 204.198C114.624 203.741 114.532 202.938 113.608 202.399L107.466 198.853C106.542 198.325 105.151 198.264 104.359 198.721L97.7689 202.531C96.9769 202.989 97.0683 203.791 97.9923 204.33L104.135 207.876C105.059 208.404 106.45 208.465 107.242 208.008Z" fill="white"/>
<path d="M97.6777 205.976C97.6777 205.976 97.7285 205.935 97.7691 205.915L104.359 202.105C105.151 201.647 106.552 201.698 107.466 202.237L113.609 205.783C113.731 205.854 113.832 205.925 113.923 205.996V207.51C113.923 207.51 113.873 207.561 113.832 207.581L107.242 211.392C106.45 211.849 105.049 211.798 104.135 211.26L97.9925 207.713C97.8707 207.642 97.7691 207.571 97.6777 207.5V205.986V205.976Z" fill="#8EA7FF"/>
<path d="M103.912 208.262L97.7688 204.716C97.1393 204.35 96.7839 203.842 96.7839 203.314C96.7839 202.847 97.0581 202.43 97.5455 202.145L104.135 198.335C105.069 197.797 106.633 197.847 107.689 198.467L113.832 202.013C114.461 202.379 114.817 202.887 114.817 203.416C114.817 203.883 114.543 204.3 114.055 204.584L107.465 208.394C107.039 208.638 106.47 208.76 105.892 208.76C105.201 208.76 104.48 208.587 103.912 208.262ZM104.582 199.107L97.9922 202.918C97.8704 202.989 97.6774 203.131 97.6774 203.314C97.6774 203.466 97.8196 203.71 98.2156 203.944L104.359 207.49C105.14 207.937 106.359 207.998 107.019 207.622L113.608 203.812C113.73 203.741 113.923 203.598 113.923 203.416C113.923 203.263 113.781 203.019 113.385 202.786L107.242 199.239C106.806 198.985 106.237 198.853 105.699 198.853C105.272 198.853 104.866 198.935 104.572 199.107H104.582Z" fill="#141516"/>
<path d="M111.385 225.79V166.257C111.385 165.902 111.679 165.607 112.035 165.607H128.057C128.311 165.607 128.524 165.81 128.524 166.075V225.861C128.412 226.247 128.372 226.399 127.986 226.623L121.396 230.433C120.604 230.89 119.203 230.839 118.289 230.301L112.146 226.755C111.669 226.48 111.395 226.206 111.395 225.79H111.385Z" fill="white"/>
<path d="M121.396 176.073L126.94 172.872V227.547L119.954 230.982V176.378C120.492 176.388 121.01 176.296 121.396 176.073Z" fill="#8EA7FF"/>
<path d="M118.066 230.687L111.923 227.141C111.466 226.877 110.948 226.491 110.948 225.79V166.258C110.948 165.658 111.446 165.16 112.045 165.16H128.067C128.565 165.16 128.981 165.567 128.981 166.075V225.861L128.961 225.983C128.829 226.44 128.737 226.704 128.219 227.009L121.63 230.819C121.203 231.063 120.635 231.185 120.056 231.185C119.366 231.185 118.655 231.012 118.076 230.687H118.066ZM112.045 166.054C111.933 166.054 111.842 166.146 111.842 166.258V225.79C111.842 225.922 111.882 226.084 112.37 226.369L118.513 229.915C119.294 230.362 120.513 230.423 121.173 230.047L127.763 226.237C127.986 226.105 127.996 226.094 128.077 225.79L128.057 166.054H112.035H112.045Z" fill="#141516"/>
<path d="M121.396 170.251L127.986 166.44C128.778 165.983 128.686 165.18 127.762 164.642L121.619 161.096C120.695 160.567 119.304 160.506 118.512 160.964L111.923 164.774C111.131 165.231 111.222 166.034 112.146 166.572L118.289 170.118C119.213 170.647 120.604 170.708 121.396 170.251Z" fill="white"/>
<path d="M111.832 168.229C111.832 168.229 111.882 168.188 111.923 168.157L118.513 164.347C119.305 163.89 120.706 163.941 121.62 164.479L127.763 168.025C127.884 168.096 127.986 168.168 128.077 168.249V169.763C128.077 169.763 128.027 169.814 127.986 169.834L121.396 173.644C120.604 174.101 119.203 174.051 118.289 173.512L112.146 169.966C112.024 169.895 111.923 169.824 111.832 169.753V168.239V168.229Z" fill="#8EA7FF"/>
<path d="M118.066 170.515L111.923 166.969C111.293 166.603 110.938 166.095 110.938 165.566C110.938 165.099 111.212 164.682 111.7 164.398L118.289 160.588C119.223 160.049 120.787 160.1 121.843 160.72L127.986 164.266C128.615 164.632 128.971 165.14 128.971 165.668C128.971 166.135 128.697 166.552 128.209 166.836L121.62 170.647C121.193 170.891 120.625 171.013 120.046 171.013C119.355 171.013 118.634 170.84 118.066 170.515ZM118.736 161.36L112.146 165.17C112.024 165.241 111.832 165.383 111.832 165.566C111.832 165.719 111.974 165.963 112.37 166.196L118.513 169.742C119.294 170.19 120.513 170.25 121.173 169.875L127.762 166.064C127.884 165.993 128.077 165.851 128.077 165.668C128.077 165.516 127.935 165.272 127.539 165.038L121.396 161.492C120.96 161.238 120.391 161.106 119.853 161.106C119.426 161.106 119.02 161.187 118.726 161.36H118.736Z" fill="#141516"/>
<path d="M126.3 234.375V216.492C126.3 216.137 126.585 215.842 126.95 215.842H142.972C143.226 215.842 143.44 216.045 143.44 216.309V234.446C143.338 234.833 143.287 234.985 142.912 235.208L136.322 239.019C135.53 239.476 134.129 239.425 133.215 238.887L127.072 235.341C126.595 235.066 126.321 234.792 126.321 234.375H126.3Z" fill="white"/>
<path d="M136.312 226.298L141.856 223.097V236.123L134.88 239.557V226.602C135.418 226.613 135.936 226.521 136.322 226.298H136.312Z" fill="#8EA7FF"/>
<path d="M132.971 239.273L126.828 235.727C126.371 235.463 125.854 235.076 125.854 234.375V216.492C125.854 215.893 126.341 215.395 126.95 215.395H142.972C143.47 215.395 143.886 215.801 143.886 216.309V234.568C143.744 235.026 143.643 235.29 143.125 235.595L136.535 239.405C136.109 239.649 135.54 239.771 134.961 239.771C134.271 239.771 133.55 239.598 132.981 239.273H132.971ZM126.94 216.289C126.828 216.289 126.737 216.381 126.737 216.492V234.375C126.737 234.507 126.777 234.67 127.265 234.955L133.408 238.501C134.19 238.948 135.408 239.009 136.068 238.633L142.658 234.822C142.881 234.69 142.891 234.68 142.972 234.375L142.952 216.289H126.93H126.94Z" fill="#141516"/>
<path d="M136.312 220.485L142.901 216.675C143.693 216.218 143.602 215.415 142.678 214.877L136.535 211.331C135.611 210.802 134.22 210.741 133.428 211.198L126.838 215.009C126.046 215.466 126.138 216.269 127.062 216.807L133.205 220.353C134.129 220.882 135.52 220.943 136.312 220.485Z" fill="white"/>
<path d="M126.747 218.453C126.747 218.453 126.798 218.402 126.838 218.392L133.428 214.582C134.22 214.125 135.621 214.176 136.535 214.714L142.678 218.26C142.8 218.331 142.901 218.402 142.993 218.474V219.988C142.993 219.988 142.942 220.038 142.901 220.059L136.311 223.869C135.52 224.326 134.118 224.275 133.205 223.737L127.062 220.191C126.94 220.12 126.838 220.049 126.747 219.977V218.463V218.453Z" fill="#8EA7FF"/>
<path d="M132.971 220.74L126.828 217.193C126.199 216.828 125.843 216.32 125.843 215.791C125.843 215.324 126.117 214.907 126.605 214.623L133.194 210.812C134.129 210.274 135.692 210.325 136.748 210.945L142.891 214.491C143.521 214.856 143.876 215.364 143.876 215.893C143.876 216.36 143.602 216.777 143.114 217.061L136.525 220.872C136.098 221.115 135.53 221.237 134.951 221.237C134.261 221.237 133.54 221.065 132.971 220.74ZM133.641 211.585L127.052 215.395C126.93 215.466 126.737 215.608 126.737 215.791C126.737 215.944 126.879 216.187 127.275 216.421L133.418 219.967C134.2 220.414 135.418 220.475 136.078 220.099L142.668 216.289C142.79 216.218 142.983 216.076 142.983 215.893C142.983 215.74 142.84 215.497 142.444 215.263L136.301 211.717C135.865 211.463 135.296 211.331 134.758 211.331C134.332 211.331 133.926 211.412 133.631 211.585H133.641Z" fill="#141516"/>
<path d="M141.216 242.738V199.26C141.216 198.904 141.511 198.609 141.866 198.609H157.888C158.142 198.609 158.355 198.813 158.355 199.077V242.809C158.244 243.195 158.203 243.347 157.817 243.571L151.227 247.381C150.436 247.838 149.034 247.788 148.12 247.249L141.978 243.703C141.5 243.429 141.226 243.154 141.226 242.738H141.216Z" fill="white"/>
<path d="M151.227 209.075L156.771 205.874V244.495L149.785 247.93V209.38C150.324 209.39 150.841 209.298 151.227 209.075Z" fill="#8EA7FF"/>
<path d="M147.897 247.635L141.754 244.089C141.297 243.825 140.779 243.439 140.779 242.737V199.259C140.779 198.66 141.277 198.162 141.876 198.162H157.898C158.396 198.162 158.812 198.569 158.812 199.077V242.809L158.792 242.931C158.66 243.388 158.568 243.652 158.051 243.957L151.461 247.767C151.034 248.011 150.466 248.133 149.887 248.133C149.197 248.133 148.486 247.96 147.907 247.635H147.897ZM141.876 199.066C141.764 199.066 141.673 199.158 141.673 199.27V242.748C141.673 242.88 141.713 243.042 142.201 243.327L148.344 246.873C149.126 247.32 150.344 247.381 151.004 247.005L157.594 243.195C157.817 243.063 157.827 243.052 157.908 242.748L157.888 199.077H141.866L141.876 199.066Z" fill="#141516"/>
<path d="M151.227 203.253L157.817 199.442C158.609 198.985 158.518 198.183 157.594 197.644L151.451 194.098C150.527 193.57 149.136 193.509 148.344 193.966L141.754 197.776C140.962 198.233 141.053 199.036 141.977 199.575L148.12 203.121C149.044 203.649 150.435 203.71 151.227 203.253Z" fill="white"/>
<path d="M141.663 201.231C141.663 201.231 141.714 201.19 141.754 201.17L148.344 197.359C149.136 196.902 150.537 196.953 151.451 197.491L157.594 201.038C157.716 201.109 157.817 201.18 157.909 201.251V202.765C157.909 202.765 157.858 202.816 157.817 202.836L151.228 206.646C150.436 207.104 149.034 207.053 148.121 206.514L141.978 202.968C141.856 202.897 141.754 202.826 141.663 202.755V201.241V201.231Z" fill="#8EA7FF"/>
<path d="M147.897 203.517L141.754 199.971C141.125 199.605 140.769 199.097 140.769 198.569C140.769 198.101 141.043 197.685 141.531 197.4L148.12 193.59C149.055 193.051 150.618 193.102 151.674 193.722L157.817 197.268C158.447 197.634 158.802 198.142 158.802 198.67C158.802 199.138 158.528 199.554 158.041 199.839L151.451 203.649C151.024 203.893 150.456 204.015 149.877 204.015C149.187 204.015 148.466 203.842 147.897 203.517ZM148.567 194.362L141.978 198.172C141.856 198.243 141.663 198.386 141.663 198.569C141.663 198.721 141.805 198.965 142.201 199.199L148.344 202.745C149.126 203.192 150.344 203.253 151.004 202.877L157.594 199.066C157.716 198.995 157.909 198.853 157.909 198.67C157.909 198.518 157.766 198.274 157.37 198.04L151.227 194.494C150.791 194.24 150.222 194.108 149.684 194.108C149.258 194.108 148.852 194.189 148.557 194.362H148.567Z" fill="#141516"/>
<path d="M155.675 251.384V221.024C155.675 220.668 155.969 220.374 156.325 220.374H172.347C172.601 220.374 172.814 220.577 172.814 220.841V251.456C172.702 251.842 172.662 251.994 172.276 252.218L165.686 256.028C164.894 256.485 163.493 256.434 162.579 255.896L156.436 252.35C155.959 252.075 155.685 251.801 155.685 251.384H155.675Z" fill="white"/>
<path d="M165.676 230.84L171.22 227.639V253.153L164.234 256.587V231.155C164.772 231.165 165.29 231.073 165.676 230.85V230.84Z" fill="#8EA7FF"/>
<path d="M162.346 256.282L156.203 252.736C155.746 252.472 155.228 252.086 155.228 251.385V221.024C155.228 220.425 155.726 219.927 156.325 219.927H172.347C172.844 219.927 173.261 220.333 173.261 220.841V251.456L173.24 251.578C173.108 252.035 173.017 252.299 172.499 252.604L165.91 256.414C165.483 256.658 164.915 256.78 164.336 256.78C163.645 256.78 162.935 256.607 162.356 256.282H162.346ZM156.325 220.821C156.213 220.821 156.122 220.912 156.122 221.024V251.385C156.122 251.517 156.162 251.679 156.65 251.964L162.792 255.51C163.574 255.957 164.793 256.018 165.453 255.642L172.042 251.832C172.266 251.7 172.276 251.689 172.357 251.385L172.337 220.821H156.314H156.325Z" fill="#141516"/>
<path d="M165.676 225.017L172.266 221.207C173.058 220.75 172.966 219.947 172.042 219.408L165.899 215.862C164.975 215.334 163.584 215.273 162.792 215.73L156.203 219.54C155.411 219.998 155.502 220.8 156.426 221.339L162.569 224.885C163.493 225.413 164.884 225.474 165.676 225.017Z" fill="white"/>
<path d="M156.112 222.995C156.112 222.995 156.162 222.955 156.203 222.934L162.793 219.124C163.585 218.667 164.986 218.718 165.9 219.256L172.043 222.802C172.164 222.873 172.266 222.944 172.357 223.016V224.53C172.357 224.53 172.307 224.58 172.266 224.601L165.676 228.411C164.884 228.868 163.483 228.817 162.569 228.279L156.426 224.733C156.304 224.662 156.203 224.59 156.112 224.519V223.005V222.995Z" fill="#8EA7FF"/>
<path d="M162.346 225.271L156.203 221.725C155.573 221.359 155.218 220.851 155.218 220.323C155.218 219.856 155.492 219.439 155.979 219.154L162.569 215.344C163.503 214.806 165.067 214.856 166.123 215.476L172.266 219.022C172.895 219.388 173.251 219.896 173.251 220.425C173.251 220.892 172.976 221.309 172.489 221.593L165.899 225.403C165.473 225.647 164.904 225.769 164.326 225.769C163.635 225.769 162.914 225.596 162.346 225.271ZM163.016 216.116L156.426 219.927C156.304 219.998 156.111 220.14 156.111 220.323C156.111 220.475 156.253 220.719 156.649 220.953L162.792 224.499C163.574 224.946 164.793 225.007 165.453 224.631L172.042 220.821C172.164 220.75 172.357 220.607 172.357 220.425C172.357 220.272 172.215 220.028 171.819 219.795L165.676 216.248C165.239 215.994 164.671 215.862 164.133 215.862C163.706 215.862 163.3 215.944 163.006 216.116H163.016Z" fill="#141516"/>
<path d="M170.377 259.605V250.866C170.377 250.511 170.672 250.216 171.027 250.216H187.049C187.303 250.216 187.516 250.419 187.516 250.683V259.676C187.405 260.062 187.364 260.214 186.978 260.438L180.389 264.248C179.597 264.705 178.195 264.655 177.282 264.116L171.139 260.57C170.661 260.296 170.387 260.021 170.387 259.605H170.377Z" fill="white"/>
<path d="M180.378 260.682L185.922 257.481V261.362L178.937 264.797V260.986C179.475 260.997 179.992 260.905 180.378 260.682Z" fill="#8EA7FF"/>
<path d="M177.048 264.502L170.905 260.956C170.448 260.692 169.93 260.306 169.93 259.605V250.866C169.93 250.267 170.428 249.769 171.027 249.769H187.049C187.547 249.769 187.963 250.175 187.963 250.684V259.676L187.943 259.798C187.811 260.255 187.719 260.519 187.202 260.824L180.612 264.634C180.186 264.878 179.617 265 179.038 265C178.348 265 177.637 264.827 177.058 264.502H177.048ZM171.027 250.673C170.915 250.673 170.824 250.765 170.824 250.877V259.615C170.824 259.747 170.865 259.91 171.352 260.194L177.495 263.74C178.277 264.187 179.495 264.248 180.155 263.872L186.745 260.062C186.968 259.93 186.978 259.92 187.059 259.615L187.039 250.684H171.017L171.027 250.673Z" fill="#141516"/>
<path d="M180.378 254.87L186.968 251.059C187.76 250.602 187.669 249.799 186.745 249.261L180.602 245.715C179.678 245.186 178.287 245.125 177.495 245.583L170.905 249.393C170.113 249.85 170.205 250.653 171.128 251.191L177.271 254.738C178.195 255.266 179.586 255.327 180.378 254.87Z" fill="white"/>
<path d="M170.814 252.837C170.814 252.837 170.865 252.797 170.905 252.766L177.495 248.956C178.287 248.499 179.688 248.55 180.602 249.088L186.745 252.634C186.867 252.705 186.968 252.776 187.06 252.858V254.372C187.06 254.372 187.009 254.423 186.968 254.443L180.379 258.253C179.587 258.71 178.185 258.66 177.272 258.121L171.129 254.575C171.007 254.504 170.905 254.433 170.814 254.362V252.848V252.837Z" fill="#8EA7FF"/>
<path d="M177.048 255.124L170.905 251.578C170.276 251.212 169.92 250.704 169.92 250.175C169.92 249.708 170.194 249.292 170.682 249.007L177.271 245.197C178.205 244.658 179.769 244.709 180.825 245.329L186.968 248.875C187.598 249.241 187.953 249.749 187.953 250.277C187.953 250.745 187.679 251.161 187.191 251.446L180.602 255.256C180.175 255.5 179.607 255.622 179.028 255.622C178.337 255.622 177.627 255.449 177.048 255.124ZM177.718 245.969L171.128 249.779C171.007 249.85 170.814 249.993 170.814 250.175C170.814 250.328 170.956 250.572 171.352 250.805L177.495 254.352C178.277 254.799 179.495 254.86 180.155 254.484L186.745 250.673C186.866 250.602 187.059 250.46 187.059 250.277C187.059 250.125 186.917 249.881 186.521 249.647L180.378 246.101C179.942 245.847 179.373 245.715 178.835 245.715C178.409 245.715 178.002 245.796 177.708 245.969H177.718Z" fill="#141516"/>
<path d="M168.6 187.483L168.204 186.975C167.981 186.66 167.961 186.254 168.164 185.939L168.631 185.187L165.757 185.827L165.371 185.4C165.138 185.126 165.077 184.76 165.209 184.435L166.234 181.864L161.747 183.673C161.3 183.856 160.782 183.663 160.569 183.226C160.355 182.789 160.508 182.261 160.924 182.017L162.437 181.123C162.447 178.318 161.635 176.357 160.528 174.975C158.03 178.968 154.466 183.358 150.618 183.896C148.354 184.211 146.283 183.216 144.435 180.95C141.663 177.536 142.698 174.924 143.561 173.675C145.856 170.342 151.969 168.919 156.913 170.555C158.132 170.962 159.218 171.521 160.142 172.232C160.975 170.779 161.655 169.417 162.143 168.35C162.335 167.924 162.833 167.741 163.259 167.924C163.706 168.117 163.909 168.635 163.706 169.072C163.28 169.996 162.498 171.602 161.442 173.421C163.158 175.3 164.092 177.841 164.143 180.848L167.818 179.365L168.275 179.781C168.549 180.056 168.641 180.462 168.499 180.808L167.341 183.703L170.621 182.972L171.017 183.47C171.24 183.785 171.26 184.201 171.057 184.516L170.6 185.268L172.966 184.74C173.921 184.13 175.89 182.596 175.86 181.173C175.85 180.543 175.413 179.924 174.57 179.344C174.205 179.09 174.083 178.613 174.296 178.227C174.54 177.78 175.129 177.637 175.545 177.932C176.875 178.857 177.556 179.934 177.576 181.153C177.627 183.896 174.124 186.05 173.728 186.294L173.575 186.386L173.433 186.406L168.6 187.483ZM152.537 171.602C149.359 171.602 146.293 172.74 144.973 174.66C143.663 176.55 144.678 178.542 145.765 179.873C147.217 181.661 148.719 182.433 150.375 182.2C153.553 181.763 156.832 177.678 159.259 173.736C158.274 172.953 157.218 172.476 156.375 172.201C155.157 171.795 153.837 171.612 152.547 171.612L152.537 171.602Z" fill="white"/>
<path d="M163.645 166.674C163.31 166.532 163.087 166.186 163.127 165.82C163.178 165.343 163.148 164.774 163.077 164.266C163.016 163.829 163.3 163.422 163.737 163.321C164.234 163.209 164.711 163.544 164.782 164.052C164.853 164.601 164.904 165.312 164.833 165.993C164.772 166.562 164.163 166.897 163.645 166.674Z" fill="white"/>
<path d="M168.6 191.365C168.275 191.009 168.296 190.45 168.661 190.135C170.326 188.692 173.647 186.132 175.505 186.945C175.901 187.117 176.347 187.473 176.571 188.215C176.723 188.733 176.307 189.261 175.758 189.261H175.708C175.332 189.261 175.038 189.007 174.906 188.652C174.875 188.57 174.845 188.53 174.814 188.52C174.205 188.255 171.91 189.597 169.788 191.436C169.443 191.741 168.915 191.7 168.6 191.365Z" fill="white"/>
<path d="M167.646 185.756L167.25 185.248C167.026 184.933 167.006 184.526 167.209 184.211L167.676 183.46L164.803 184.1L164.417 183.673C164.183 183.399 164.122 183.033 164.254 182.708L165.28 180.137L160.792 181.946C160.345 182.128 159.827 181.935 159.614 181.498C159.401 181.062 159.553 180.533 159.969 180.289L161.482 179.395C161.493 176.591 160.68 174.63 159.574 173.248C157.076 177.241 153.512 181.631 149.664 182.169C147.399 182.484 145.328 181.488 143.48 179.222C140.708 175.808 141.744 173.197 142.607 171.947C144.902 168.615 151.014 167.192 155.959 168.828C157.177 169.234 158.264 169.793 159.188 170.505C160.02 169.052 160.701 167.69 161.188 166.623C161.381 166.196 161.878 166.013 162.305 166.196C162.752 166.389 162.955 166.908 162.752 167.345C162.325 168.269 161.543 169.875 160.487 171.693C162.203 173.573 163.137 176.113 163.188 179.121L166.864 177.637L167.321 178.054C167.595 178.328 167.686 178.735 167.544 179.08L166.387 181.976L169.666 181.244L170.062 181.742C170.286 182.057 170.306 182.474 170.103 182.789L169.646 183.541L172.012 183.012C172.966 182.403 174.936 180.869 174.905 179.446C174.895 178.816 174.459 178.196 173.616 177.617C173.25 177.363 173.129 176.885 173.342 176.499C173.585 176.052 174.174 175.91 174.591 176.205C175.921 177.129 176.601 178.206 176.621 179.426C176.672 182.169 173.169 184.323 172.773 184.567L172.621 184.659L172.479 184.679L167.646 185.756ZM151.583 169.875C148.405 169.875 145.338 171.013 144.018 172.933C142.708 174.823 143.724 176.814 144.81 178.145C146.262 179.934 147.765 180.706 149.42 180.472C152.598 180.035 155.878 175.951 158.304 172.008C157.319 171.226 156.263 170.748 155.421 170.474C154.202 170.068 152.882 169.885 151.593 169.885L151.583 169.875Z" fill="#141516"/>
<path d="M162.691 164.946C162.355 164.804 162.132 164.459 162.173 164.093C162.224 163.615 162.193 163.046 162.122 162.538C162.061 162.101 162.345 161.695 162.782 161.593C163.279 161.482 163.757 161.817 163.828 162.325C163.899 162.874 163.95 163.585 163.879 164.266C163.818 164.835 163.208 165.17 162.691 164.946Z" fill="#141516"/>
<path d="M167.646 189.647C167.321 189.292 167.341 188.733 167.707 188.418C169.372 186.975 172.692 184.415 174.55 185.227C174.946 185.4 175.393 185.756 175.616 186.498C175.768 187.016 175.352 187.544 174.804 187.544H174.753C174.377 187.544 174.083 187.28 173.951 186.934C173.921 186.853 173.89 186.813 173.86 186.802C173.25 186.538 170.956 187.879 168.834 189.718C168.488 190.023 167.96 189.983 167.646 189.647Z" fill="#141516"/>
</g>
<defs>
<clipPath id="clip0_154_1321">
<rect width="270" height="259" fill="white" transform="translate(0 6)"/>
</clipPath>
</defs>
</svg>
