<svg width="284" height="285" viewBox="0 0 284 285" fill="none" xmlns="http://www.w3.org/2000/svg">
<path d="M88.1315 101.673L43.3771 127.014L1.41992 102.362L46.1743 76.9774L88.1315 101.63V101.673ZM44.0657 115.226L67.6908 101.845L45.5288 88.809L21.9037 102.19L44.0657 115.226Z" fill="white"/>
<path d="M88.0026 106.664L43.2482 132.005L1.29102 107.352L46.0024 82.0112L87.9596 106.664H88.0026ZM43.9368 120.217L67.5619 106.836L45.3999 93.7998L21.7747 107.18L43.9368 120.217Z" fill="#FABCBC"/>
<path d="M1.42012 102.362L1.29102 114.71L43.2482 139.362L43.4204 127.015L1.42012 102.362Z" fill="white"/>
<path d="M88.1315 101.673L88.0024 114.021L43.248 139.362L43.4202 127.015L88.1315 101.673Z" fill="#141516"/>
<path d="M45.5286 88.8091L45.3564 101.157L56.9323 107.912L67.6906 101.845L45.5286 88.8091Z" fill="white"/>
<path d="M21.8604 102.19L45.5285 88.8091L45.3564 101.157L32.4895 108.428L21.8604 102.19Z" fill="#141516"/>
<path d="M70.2734 101.845L46.8204 88.0777L45.5294 87.3032L44.2384 88.0346L19.3223 102.147L44.0663 116.689L70.2734 101.845ZM56.9332 106.449L46.6483 100.426L46.7774 91.0463L65.1525 101.845L56.9762 106.492L56.9332 106.449ZM24.4432 102.19L44.1954 91.0033L44.0663 100.383L32.4904 106.965L24.4432 102.233V102.19ZM35.0724 108.428L45.3573 102.577L54.3512 107.869L44.0663 113.72L35.0724 108.428Z" fill="#141516"/>
<path d="M44.5392 140.137L89.2936 114.796L89.4227 102.448V100.985L88.1747 100.254L46.1745 75.5146L1.42009 100.856L0.129099 101.587V103.05L0 115.398L41.9572 140.051L43.2482 140.782L44.5392 140.051V140.137ZM86.8407 103.868L86.7116 113.247L44.5822 137.125L44.7113 127.746L61.236 118.367L86.8407 103.825V103.868ZM4.00207 102.362L46.1314 78.4833L85.5497 101.63L59.8159 116.215L43.4203 125.509L8.64964 105.115L4.00207 102.405V102.362ZM2.58198 113.935L2.71108 104.556L22.0329 115.914L42.1294 127.703L42.0003 137.082L2.58198 113.978V113.935Z" fill="#141516"/>
<path d="M69.0934 218.459L69.5237 192.645H282.58L282.279 217.814C282.365 218.459 282.279 217.814 282.193 218.459C281.72 222.202 278.793 226.031 273.5 229.086L194.018 274.993C183.389 281.145 167.338 281.791 158.172 276.499L75.2041 228.527C70.5995 225.859 68.577 222.202 69.0934 218.416V218.459Z" fill="#EE1F1F"/>
<path d="M69.0934 218.459L69.5237 192.645H282.58L282.279 217.814C282.365 218.459 282.279 217.814 282.193 218.459C281.72 222.202 278.793 226.031 273.5 229.086L194.018 274.993C183.389 281.145 167.338 281.791 158.172 276.499L75.2041 228.57C70.5995 225.902 68.577 222.245 69.0934 218.459Z" fill="white"/>
<path d="M173.706 281.403C167.596 281.403 161.786 280.156 157.44 277.66L74.5153 229.774C69.6525 226.935 67.1566 222.804 67.716 218.373L67.9742 193.29L284 191.268L283.699 217.857C283.699 218.072 283.742 218.416 283.57 218.76C282.924 223.106 279.611 227.193 274.189 230.334L194.707 276.24C188.725 279.682 181.022 281.489 173.706 281.489V281.403ZM70.9005 194.021L70.4701 218.631C70.0398 221.987 71.9763 225.085 75.8923 227.365L158.817 275.294C167.596 280.371 183.045 279.725 193.286 273.788L272.769 227.881C277.502 225.171 280.342 221.729 280.773 218.287C280.773 218.158 280.816 217.986 280.859 217.9V217.814L281.117 194.064H70.9005V194.021Z" fill="#141516"/>
<path d="M75.5486 203.358L158.473 251.286C167.682 256.578 183.734 255.933 194.32 249.781L273.802 203.874C284.431 197.721 285.55 188.471 276.384 183.179L193.459 135.25C184.25 129.958 168.199 130.604 157.613 136.756L78.1305 182.663C67.5014 188.772 66.3825 198.066 75.5486 203.358Z" fill="white"/>
<path d="M74.6882 212.952L157.613 260.881C166.822 266.173 182.873 265.528 193.459 259.375L272.941 213.468C283.571 207.316 284.69 198.066 275.523 192.774L192.599 144.845C183.39 139.553 167.338 140.198 156.752 146.351L77.2702 192.257C66.641 198.367 65.5222 207.66 74.6882 212.952Z" fill="#C7D3FF"/>
<path d="M174.051 256.234C167.94 256.234 162.131 254.987 157.785 252.491L74.8599 204.562C70.4275 201.981 67.9746 198.367 67.9746 194.366C67.9746 189.633 71.4173 184.943 77.4419 181.458L156.924 135.552C167.897 129.227 184.594 128.539 194.148 134.046L277.072 181.975C281.505 184.556 283.957 188.17 283.957 192.171C283.957 196.904 280.515 201.594 274.49 205.079L195.008 250.985C189.027 254.427 181.324 256.234 174.008 256.234H174.051ZM177.881 133.056C171.082 133.056 163.895 134.734 158.301 137.961L78.8189 183.868C73.698 186.836 70.7287 190.665 70.7287 194.366C70.7287 197.334 72.6652 200.088 76.237 202.153L159.162 250.082C167.94 255.159 183.432 254.513 193.631 248.576L273.113 202.669C278.234 199.701 281.203 195.871 281.203 192.171C281.203 189.203 279.267 186.449 275.695 184.384L192.77 136.455C188.811 134.175 183.475 133.056 177.881 133.056Z" fill="#141516"/>
<path d="M174.18 254.857V280.027L186.702 278.047L202.495 270.647L277.846 226.16L282.58 220.352V192.602L279.482 200.647L263.258 210.155L186.961 253.05L174.18 254.857Z" fill="#141516"/>
<path d="M161.7 252.878V278.177L152.491 273.874V248.662L161.7 252.878Z" fill="#141516"/>
<path d="M74.0416 202.97V226.892L70.4268 224.181L67.8018 207.789L69.0067 194.021L74.0416 202.97Z" fill="#141516"/>
<path d="M240.235 190.407C229.606 187.31 212.35 183.911 201.506 190.149C199.44 191.354 197.633 192.386 196.04 193.29L189.456 190.364C189.585 188.041 188.467 185.675 186.143 183.653L173.319 172.079C173.018 171.778 172.716 171.477 172.372 171.219L172.114 171.004C171.339 170.401 170.479 169.799 169.489 169.197C159.548 163.431 143.368 163.431 133.384 169.153C123.401 174.876 123.401 184.212 133.384 189.977C134.331 190.536 135.321 191.01 136.397 191.44L136.784 191.612C137.386 191.87 137.946 192.085 138.548 192.257L158.386 199.615C161.872 200.948 165.96 201.594 170.005 201.551L175.04 205.337C173.448 206.24 171.684 207.273 169.661 208.434C158.817 214.673 164.626 224.655 169.919 230.807C172.372 233.647 178.827 234.249 182.7 232.055L211.92 215.232L213.168 214.501L242.258 197.765C246.131 195.527 245.055 191.784 240.192 190.364L240.235 190.407Z" fill="white"/>
<path d="M133.427 176.037C143.411 170.315 159.548 170.315 169.532 176.08C170.522 176.64 171.339 177.242 172.157 177.887L172.415 178.103C172.759 178.404 173.06 178.662 173.362 178.963L186.186 190.537C188.509 192.559 189.628 194.925 189.499 197.248L196.083 200.174C197.675 199.27 199.483 198.238 201.548 197.033C212.35 190.795 229.606 194.194 240.278 197.291C240.924 197.463 241.526 197.722 242.042 197.98L242.387 197.765C246.26 195.527 245.184 191.784 240.321 190.364C229.692 187.267 212.436 183.868 201.591 190.106C199.526 191.311 197.718 192.344 196.126 193.247L189.542 190.321C189.671 187.998 188.552 185.632 186.229 183.61L173.405 172.036C173.104 171.735 172.802 171.434 172.458 171.176L172.2 170.961C171.425 170.358 170.565 169.756 169.575 169.154C159.634 163.388 143.454 163.388 133.47 169.111C126.972 172.854 124.734 178.146 126.714 182.964C127.79 180.426 130.027 177.973 133.47 175.994L133.427 176.037Z" fill="#141516"/>
<path d="M169.661 215.361C171.726 214.2 173.491 213.167 175.04 212.264V205.38C175.04 205.38 169.79 208.435 169.704 208.435H169.661C163.55 212.006 162.732 216.695 164.153 221.256C164.97 219.105 166.648 217.082 169.661 215.361Z" fill="#141516"/>
<path d="M240.536 189.289C228.444 185.761 211.747 182.921 200.903 189.16L195.954 191.999L190.618 189.633C190.532 187.783 189.8 185.976 188.466 184.384C188.036 183.825 187.52 183.308 186.917 182.792L174.136 171.262C173.792 170.961 173.491 170.659 173.147 170.358L172.544 169.842L172.243 169.584H172.157C171.468 169.067 170.737 168.594 170.048 168.207C159.806 162.27 143.066 162.227 132.782 168.164C132.437 168.379 132.136 168.594 131.792 168.809C131.448 169.024 131.103 169.24 130.802 169.455C130.501 169.67 130.2 169.885 129.941 170.143C129.554 170.444 129.167 170.788 128.823 171.09C128.65 171.262 128.478 171.434 128.306 171.606C127.23 172.725 126.37 173.929 125.767 175.177V175.263C125.466 175.865 125.251 176.468 125.079 177.07C125.079 177.156 125.036 177.285 124.993 177.371C124.863 177.973 124.777 178.576 124.734 179.178C124.734 179.221 124.734 179.264 124.734 179.35C124.734 179.436 124.734 179.522 124.734 179.608C124.734 180.942 125.036 182.233 125.552 183.481L126.757 185.761C128.134 187.74 130.157 189.547 132.782 191.053C133.126 191.268 133.513 191.44 133.9 191.655L136.31 192.774C136.913 193.032 137.515 193.247 138.118 193.462L157.956 200.819C161.399 202.153 165.444 202.841 169.618 202.841L172.931 205.337C172.63 205.509 172.243 205.724 171.813 205.982C170.78 206.584 169.79 207.187 169.36 207.402L169.058 207.574C168.8 207.703 168.628 207.875 168.37 208.047C168.069 208.219 167.767 208.435 167.509 208.607C167.251 208.779 166.993 208.994 166.735 209.209C166.347 209.51 166.046 209.811 165.702 210.112C165.487 210.328 165.315 210.5 165.142 210.715C164.841 211.016 164.583 211.36 164.368 211.704C164.239 211.876 164.11 212.049 164.024 212.221C163.722 212.651 163.464 213.124 163.249 213.597C163.163 213.727 163.12 213.899 163.077 214.028C162.948 214.415 162.819 214.802 162.69 215.189C162.646 215.361 162.603 215.577 162.56 215.749C162.56 215.835 162.56 215.878 162.517 215.964C162.517 216.136 162.517 216.265 162.517 216.437C162.474 216.91 162.431 217.384 162.431 217.9C162.431 218.158 162.431 218.373 162.474 218.631C162.474 219.105 162.56 219.578 162.646 220.051C162.69 220.309 162.776 220.524 162.819 220.782C162.905 221.127 162.948 221.428 163.034 221.772L164.196 224.612C165.487 227.279 167.337 229.774 169.058 231.797C171.856 235.066 178.956 235.798 183.302 233.259L242.903 198.969C243.463 198.668 243.936 198.281 244.323 197.894C245.442 196.861 245.958 195.57 245.786 194.237C245.657 193.161 245.098 192.214 244.194 191.354C243.29 190.536 242.042 189.848 240.536 189.418V189.289ZM127.101 179.824C127.101 179.479 127.101 179.135 127.144 178.791C127.144 178.662 127.144 178.576 127.144 178.447C127.187 178.146 127.273 177.844 127.359 177.543C127.359 177.414 127.445 177.242 127.488 177.07C127.575 176.812 127.661 176.597 127.79 176.339C127.876 176.123 127.962 175.951 128.048 175.736C128.134 175.564 128.263 175.392 128.349 175.22C128.521 174.962 128.65 174.704 128.823 174.445C128.866 174.359 128.952 174.273 128.995 174.187C130.157 172.681 131.835 171.262 133.943 170.057C143.583 164.507 159.247 164.55 168.886 170.1C169.704 170.573 170.522 171.133 171.339 171.821L171.597 172.036C171.899 172.294 172.2 172.552 172.501 172.854L185.325 184.427C185.841 184.857 186.272 185.331 186.616 185.761C187.735 187.138 188.294 188.643 188.208 190.192V190.881C187.778 190.407 187.347 189.977 186.831 189.547L174.05 178.016C173.706 177.715 173.405 177.371 173.06 177.113L172.157 176.339H172.114C171.425 175.865 170.694 175.392 170.005 174.962C159.763 169.024 143.023 168.981 132.739 174.919C130.329 176.296 128.392 177.93 127.058 179.78L127.101 179.824ZM188.38 191.139L196.083 194.538L202.065 191.096C212.737 184.943 230.337 188.686 239.891 191.44C240.924 191.741 241.784 192.171 242.387 192.645C242.989 193.118 243.376 193.677 243.42 194.28C243.506 195.097 242.946 195.915 241.87 196.603C241.44 196.388 240.967 196.259 240.493 196.087C228.401 192.559 211.704 189.719 200.86 195.958L195.911 198.797L190.575 196.431C190.489 194.538 189.714 192.731 188.38 191.096V191.139ZM164.798 216.265C164.798 216.265 164.798 216.136 164.798 216.05C164.884 215.706 164.97 215.361 165.056 215.017V214.845C165.228 214.458 165.401 214.114 165.616 213.77V213.683C165.874 213.296 166.089 212.952 166.39 212.608C166.692 212.221 166.993 211.876 167.337 211.532C168.112 210.758 169.058 210.069 170.177 209.424L173.835 207.316V211.489L169.015 214.243C167.767 214.974 166.692 215.749 165.788 216.609C165.401 216.996 165.013 217.384 164.669 217.814C164.669 217.254 164.669 216.695 164.755 216.179L164.798 216.265ZM170.78 230.076C168.714 227.666 166.476 224.526 165.358 221.299C166.175 219.406 167.81 217.728 170.177 216.351L176.159 212.909V206.025V204.777L175.384 204.175L170.349 200.389H169.962C165.917 200.475 162.044 199.83 158.73 198.539L138.849 191.139C138.333 190.967 137.816 190.795 137.3 190.58L136.784 190.364C135.665 189.891 134.718 189.418 133.9 188.945C130.974 187.267 128.909 185.202 127.876 183.007C128.952 180.77 131.017 178.662 133.9 176.984C143.54 171.434 159.204 171.477 168.843 177.027C169.661 177.5 170.479 178.06 171.296 178.748L171.554 178.963C171.856 179.221 172.157 179.479 172.458 179.78L185.282 191.354C187.304 193.118 188.294 195.097 188.208 197.119V197.937L195.997 201.422L201.979 197.98C212.436 191.956 229.477 195.398 239.159 198.152L182.054 231.022C178.698 232.958 172.759 232.442 170.737 230.033L170.78 230.076Z" fill="#141516"/>
<path d="M280.183 32.1327L273.986 34.0257C271.878 31.9176 269.296 29.9385 266.154 28.0884C249.199 18.1929 223.552 17.1173 208.877 25.6791L149.018 60.4425L130.901 65.9496V80.3197H130.944C131.203 86.7303 135.893 93.442 144.93 98.691C161.885 108.587 187.533 109.662 202.207 101.1L270.285 61.5181C276.826 57.689 280.054 52.6122 280.183 47.2772V32.0897V32.1327Z" fill="white"/>
<path d="M177.291 108.931C165.629 108.931 153.408 106.091 143.854 100.498C135.592 95.6793 130.17 89.6559 128.879 83.1592V64.4438L148.158 58.5925L207.845 23.9581C223.078 15.0521 249.673 16.1707 267.187 26.3674C269.984 28.0023 272.437 29.8093 274.546 31.7454L282.249 32.692L282.12 48.9551C281.431 54.5912 277.644 59.6251 271.318 63.3251L203.197 102.907C196.269 106.952 187.017 108.931 177.291 108.931ZM132.924 79.5022V80.2766C133.182 86.214 137.916 92.3234 145.92 96.97C162.273 106.521 187.06 107.597 201.131 99.3793L269.253 59.7972C274.933 56.4843 278.031 52.1389 278.118 47.2771V34.8862L273.384 36.306L272.523 35.4455C270.501 33.4234 268.005 31.5303 265.122 29.8524C248.769 20.301 223.982 19.2254 209.91 27.443L149.621 62.4216L132.924 67.4985V79.5022Z" fill="#141516"/>
<path d="M270.242 47.1911L202.164 86.7732C187.49 95.335 161.842 94.2594 144.887 84.3639C127.932 74.4683 126.082 59.496 140.756 50.8911L208.834 11.3089C223.508 2.74715 249.156 3.82275 266.111 13.7183C283.066 23.6138 284.917 38.5862 270.242 47.1911Z" fill="#C7D3FF"/>
<path d="M266.154 21.5487C249.199 11.6532 223.552 10.5776 208.877 19.1394L140.799 58.7216C135.721 61.6902 132.666 65.4333 131.461 69.4776C133.01 74.7696 137.486 80.0615 144.887 84.3639C161.842 94.2595 187.49 95.3351 202.164 86.7733L270.243 47.1911C275.32 44.2225 278.376 40.4794 279.581 36.4351C278.032 31.1431 273.556 25.8512 266.154 21.5487Z" fill="white"/>
<path d="M177.291 94.5606C165.629 94.5606 153.408 91.721 143.854 86.1279C134.301 80.5348 128.836 73.0055 128.836 65.4333C128.836 59.0227 132.709 53.2575 139.766 49.1272L207.888 9.54499C223.121 0.638996 249.716 1.7146 267.23 11.9543C276.784 17.5475 282.249 25.0767 282.249 32.6489C282.249 39.0595 278.376 44.8248 271.318 48.9551L203.24 88.5373C196.312 92.5815 187.06 94.5606 177.334 94.5606H177.291ZM233.751 7.56588C224.8 7.56588 216.279 9.37289 209.91 13.116L141.789 52.6982C136.065 56.054 132.881 60.5716 132.881 65.4763C132.881 71.5427 137.615 77.8243 145.877 82.643C162.23 92.1943 187.017 93.2699 201.088 85.0523L269.21 45.4701C274.933 42.1142 278.118 37.5967 278.118 32.692C278.118 26.6256 273.384 20.344 265.122 15.5253C256.128 10.2764 244.638 7.6089 233.751 7.6089V7.56588Z" fill="#141516"/>
<path d="M256.644 27.3139C269.08 34.499 269.08 46.1155 256.644 53.3005C244.207 60.4855 224.068 60.4855 211.674 53.3005C199.238 46.1155 199.238 34.499 211.674 27.3139C224.111 20.1289 244.25 20.1289 256.644 27.3139Z" fill="#F14C4C"/>
<path d="M234.137 52.0959C225.617 52.0959 217.096 50.2458 210.641 46.5027C203.971 42.6736 200.313 37.4246 200.313 31.7455C200.313 26.0663 203.971 20.8604 210.641 16.9882C223.594 9.50199 244.681 9.50199 257.677 16.9882C264.347 20.8173 268.004 26.0663 268.004 31.7455C268.004 37.4246 264.347 42.6306 257.677 46.5027C251.179 50.2458 242.658 52.1389 234.18 52.1389L234.137 52.0959ZM234.137 15.3963C226.348 15.3963 218.559 17.1173 212.664 20.5162C207.328 23.6139 204.359 27.5721 204.359 31.7455C204.359 35.9188 207.328 39.877 212.664 42.9747C224.498 49.8156 243.777 49.8156 255.611 42.9747C260.947 39.877 263.916 35.9188 263.916 31.7455C263.916 27.5721 260.99 23.6139 255.611 20.5162C249.672 17.1173 241.926 15.3963 234.137 15.3963Z" fill="#141516"/>
<path d="M188.695 92.5386V105.876L200.314 102.133L275.966 57.8181L281.044 48.0947L279.581 38.2852L205.521 84.8372L188.695 92.5386Z" fill="#141516"/>
<path d="M176.474 92.5385V107.511L166.662 106.909V91.764L176.474 92.5385Z" fill="#141516"/>
<path d="M237.58 54.9784C239.086 55.8389 239.086 57.2156 237.58 58.0761C236.074 58.9366 233.664 58.9366 232.201 58.0761C230.695 57.2156 230.695 55.8389 232.201 54.9784C233.707 54.1179 236.117 54.1179 237.58 54.9784Z" fill="#4F5157"/>
<path d="M251.652 46.8469C253.158 47.7074 253.158 49.0842 251.652 49.9446C250.146 50.8051 247.736 50.8051 246.273 49.9446C244.767 49.0842 244.767 47.7074 246.273 46.8469C247.779 45.9864 250.189 45.9864 251.652 46.8469Z" fill="#4F5157"/>
<path d="M265.724 38.7583C267.23 39.6188 267.23 40.9955 265.724 41.856C264.217 42.7165 261.808 42.7165 260.344 41.856C258.838 40.9955 258.838 39.6188 260.344 38.7583C261.851 37.8978 264.26 37.8978 265.724 38.7583Z" fill="#4F5157"/>
<path d="M223.509 46.8469C225.015 47.7074 225.015 49.0842 223.509 49.9446C222.003 50.8051 219.593 50.8051 218.13 49.9446C216.623 49.0842 216.623 47.7074 218.13 46.8469C219.636 45.9864 222.046 45.9864 223.509 46.8469Z" fill="#4F5157"/>
<path d="M237.58 38.7583C239.086 39.6188 239.086 40.9955 237.58 41.856C236.074 42.7165 233.664 42.7165 232.201 41.856C230.695 40.9955 230.695 39.6188 232.201 38.7583C233.707 37.8978 236.117 37.8978 237.58 38.7583Z" fill="#4F5157"/>
<path d="M251.652 30.6268C253.158 31.4873 253.158 32.8641 251.652 33.7245C250.146 34.585 247.736 34.585 246.273 33.7245C244.767 32.8641 244.767 31.4873 246.273 30.6268C247.779 29.7663 250.189 29.7663 251.652 30.6268Z" fill="#4F5157"/>
<path d="M209.436 38.7583C210.943 39.6188 210.943 40.9955 209.436 41.856C207.93 42.7165 205.52 42.7165 204.057 41.856C202.551 40.9955 202.551 39.6188 204.057 38.7583C205.564 37.8978 207.973 37.8978 209.436 38.7583Z" fill="#4F5157"/>
<path d="M223.509 30.6268C225.015 31.4873 225.015 32.8641 223.509 33.7245C222.003 34.585 219.593 34.585 218.13 33.7245C216.623 32.8641 216.623 31.4873 218.13 30.6268C219.636 29.7663 222.046 29.7663 223.509 30.6268Z" fill="#4F5157"/>
<path d="M237.58 22.4952C239.086 23.3557 239.086 24.7325 237.58 25.593C236.074 26.4534 233.664 26.4534 232.201 25.593C230.695 24.7325 230.695 23.3557 232.201 22.4952C233.707 21.6347 236.117 21.6347 237.58 22.4952Z" fill="#4F5157"/>
</svg>
