<svg width="284" height="285" viewBox="0 0 284 285" fill="none" xmlns="http://www.w3.org/2000/svg">
<path d="M274.876 92.8723L263.967 92.8297C263.903 92.7021 263.84 92.5746 263.797 92.4257V84.2817L259.757 86.2592C259.183 85.6213 258.588 84.9834 257.928 84.3668L265.626 79.9227C267.072 79.0721 267.072 77.7112 265.626 76.8819L253.399 69.8437C251.953 69.0144 249.593 69.0144 248.126 69.8437L240.428 74.309C236.048 72.7993 231.349 71.6723 226.522 70.9706L226.586 64.6341C226.586 63.4433 224.948 62.4864 222.886 62.4652L205.62 62.4014C203.557 62.4014 201.877 63.3582 201.877 64.549L201.813 70.9068C196.816 71.6086 191.947 72.7568 187.439 74.3303L179.763 69.9075C178.317 69.0782 175.957 69.0782 174.49 69.9075L162.284 76.967C160.838 77.7963 160.838 79.1784 162.284 80.0077L169.96 84.4306C169.344 85.0259 168.77 85.6213 168.217 86.238L163.985 83.899V92.4257L153.268 92.3832C151.206 92.3832 149.526 93.3401 149.526 94.5096L149.398 104.482C149.398 105.673 151.036 106.63 153.098 106.651L164.007 106.694C165.219 109.628 167.217 112.456 169.982 115.093L162.263 119.558C160.817 120.409 160.817 121.77 162.263 122.599L174.49 129.637C175.936 130.466 178.296 130.466 179.763 129.637L187.439 125.193C191.798 126.724 196.455 127.83 201.282 128.531L201.218 134.783C201.218 135.974 202.855 136.931 204.918 136.952L222.184 137.016C224.247 137.016 225.926 136.059 225.926 134.868L225.99 128.638C231.051 127.936 235.963 126.788 240.556 125.193L248.296 129.658C249.742 130.488 252.102 130.488 253.569 129.658L265.775 122.599C267.221 121.77 267.221 120.387 265.775 119.558L258.035 115.093C260.671 112.562 262.606 109.883 263.818 107.098L274.727 107.14C276.789 107.14 278.469 106.183 278.469 105.014L278.597 95.0411C278.597 93.8504 276.959 92.8935 274.897 92.8723H274.876ZM195.115 88.8747C205.535 82.857 222.418 82.857 232.816 88.8747C236.346 90.916 238.685 93.3826 239.812 95.9767L238.047 96.8486L203.111 105.567L187.716 97.0399C188.651 94.0418 191.097 91.1924 195.094 88.8747H195.115Z" fill="white"/>
<path d="M222.184 137.802H222.162L204.896 137.739C203.344 137.739 201.919 137.249 201.111 136.42C200.643 135.931 200.388 135.378 200.388 134.783L200.431 129.212C195.88 128.51 191.521 127.447 187.481 126.065L180.103 130.339C178.402 131.317 175.744 131.317 174.042 130.339L161.816 123.3C160.859 122.748 160.327 121.94 160.327 121.089C160.327 120.239 160.859 119.431 161.816 118.878L168.62 114.944C166.324 112.605 164.58 110.117 163.432 107.502L153.055 107.459C151.503 107.459 150.078 106.949 149.27 106.141C148.802 105.652 148.547 105.099 148.569 104.503L148.696 94.5307C148.696 92.8934 150.695 91.5963 153.225 91.5963H153.247L163.177 91.6388V82.5592L168.046 85.2597C168.237 85.0471 168.45 84.8345 168.641 84.6218L161.88 80.7093C160.923 80.1565 160.391 79.3484 160.391 78.4979C160.391 77.6473 160.944 76.8393 161.88 76.2865L174.085 69.2269C175.786 68.2488 178.444 68.2488 180.145 69.2269L187.502 73.4796C191.734 72.0337 196.263 70.9493 201.005 70.2263L201.069 64.5489C201.069 62.9116 203.067 61.6145 205.598 61.6145H205.619L222.885 61.6783C224.437 61.6783 225.862 62.1674 226.67 62.9966C227.138 63.4857 227.393 64.0386 227.393 64.6339L227.351 70.2688C231.922 70.9705 236.303 72.0337 240.364 73.4159L247.764 69.1419C249.465 68.1637 252.123 68.1637 253.824 69.1419L266.051 76.1801C267.007 76.733 267.539 77.541 267.539 78.3916C267.539 79.2421 267.007 80.0501 266.051 80.603L259.267 84.5368C259.501 84.7919 259.757 85.0258 259.99 85.281L264.626 83.0271V92.0429L274.917 92.0854C276.47 92.0854 277.894 92.5957 278.702 93.4037C279.17 93.8928 279.425 94.4457 279.404 95.041L279.277 105.014C279.277 106.651 277.278 107.927 274.747 107.927H274.726L264.328 107.884C263.18 110.351 261.5 112.711 259.331 114.923L266.157 118.856C267.114 119.409 267.645 120.217 267.645 121.068C267.645 121.918 267.092 122.726 266.157 123.279L253.952 130.339C252.25 131.317 249.592 131.317 247.891 130.339L240.47 126.044C236.196 127.511 231.603 128.616 226.777 129.318L226.734 134.868C226.734 136.505 224.735 137.802 222.205 137.802H222.184ZM187.332 124.321L187.673 124.449C191.925 125.937 196.539 127.043 201.366 127.745L202.047 127.851L201.983 134.804C201.983 134.974 202.068 135.144 202.238 135.314C202.749 135.825 203.79 136.165 204.896 136.165L222.162 136.229C223.948 136.229 225.075 135.421 225.097 134.889L225.16 127.979L225.841 127.893C230.923 127.192 235.771 126.044 240.258 124.491L240.598 124.364L248.657 129.02C249.869 129.722 251.91 129.722 253.122 129.02L265.328 121.961C265.753 121.706 266.029 121.408 266.029 121.132C266.029 120.855 265.774 120.557 265.328 120.302L256.673 115.305L257.439 114.561C259.969 112.137 261.862 109.543 263.052 106.821L263.265 106.332L274.684 106.375H274.705C276.491 106.375 277.618 105.588 277.639 105.035L277.767 95.0623C277.767 94.8922 277.682 94.7221 277.512 94.552C277.001 94.0416 275.959 93.7014 274.854 93.7014L263.414 93.6589L262.967 92.4681V85.6L259.544 87.2798L259.14 86.8333C258.587 86.2166 257.992 85.6 257.354 84.9833L256.588 84.2391L265.2 79.2634C265.625 79.0082 265.88 78.7105 265.88 78.4341C265.88 78.1577 265.625 77.86 265.179 77.6048L252.952 70.5665C251.74 69.8648 249.699 69.8648 248.487 70.5665L240.47 75.202L240.13 75.0744C235.856 73.586 231.221 72.4803 226.372 71.7786L225.692 71.6722L225.756 64.6339C225.756 64.4638 225.671 64.2937 225.501 64.1236C224.99 63.6133 223.948 63.2731 222.843 63.2731L205.577 63.2093C203.79 63.2093 202.663 64.0173 202.642 64.5489L202.578 71.5872L201.898 71.6722C196.88 72.3739 192.095 73.5222 187.673 75.0532L187.332 75.1807L179.337 70.5665C178.125 69.8648 176.084 69.8648 174.872 70.5665L162.666 77.6261C162.241 77.8812 161.965 78.1789 161.965 78.4554C161.965 78.7318 162.22 79.0295 162.666 79.2846L171.257 84.2603L170.491 85.0046C169.896 85.5787 169.322 86.1741 168.812 86.7482L168.386 87.216L164.772 85.2172V93.2124L153.247 93.1698H153.225C151.439 93.1698 150.312 93.9566 150.291 94.5094L150.163 104.482C150.163 104.652 150.248 104.822 150.419 104.992C150.929 105.503 151.971 105.843 153.077 105.843L164.516 105.886L164.729 106.375C165.92 109.245 167.855 111.967 170.513 114.497L171.278 115.242L162.645 120.239C162.22 120.494 161.965 120.791 161.965 121.068C161.965 121.344 162.22 121.642 162.666 121.897L174.893 128.935C176.105 129.637 178.146 129.637 179.358 128.935L187.354 124.3L187.332 124.321ZM203.004 106.417L186.779 97.4438L186.971 96.8272C187.992 93.5313 190.671 90.5544 194.711 88.2154C205.321 82.0914 222.609 82.0914 233.219 88.2154C236.77 90.2567 239.301 92.8509 240.555 95.7002L240.853 96.4019L238.408 97.5927L203.004 106.438V106.417ZM188.693 96.6783L203.216 104.716L237.855 96.083L238.748 95.6364C237.557 93.3612 235.367 91.2774 232.411 89.5763C222.226 83.7075 205.683 83.7075 195.498 89.5763C192.053 91.5538 189.714 93.9991 188.693 96.6783Z" fill="#141516"/>
<path d="M161.196 55.9375V71.46L179.738 69.9078L178.888 58.7018L161.196 55.9375Z" fill="white"/>
<path d="M160.39 72.3318V56.2777C160.39 55.6185 160.985 55.1082 161.644 55.2145L179.633 58.0213L180.59 70.652L160.39 72.3318ZM161.984 56.8731V70.5882L178.868 69.1848L178.124 59.4035L161.963 56.8943L161.984 56.8731Z" fill="#141516"/>
<path d="M265.305 75.6916C256.587 75.6916 256.31 74.3307 256.204 73.7991C255.992 72.906 251.888 66.1442 248.166 60.2541L247.55 59.2972L267.453 54.9807V75.6916H266.666C266.198 75.6916 265.73 75.7128 265.305 75.7128V75.6916ZM257.714 73.3313C258.458 73.8204 262.243 74.118 265.858 74.0968V56.937L250.123 60.3392C252.377 63.8902 257.182 71.6302 257.735 73.31L257.714 73.3313Z" fill="#141516"/>
<path d="M238.746 62.4225L213.974 54.5549L186.353 66.3138L186.48 82.219L196.049 88.3855H196.091C206.234 83.0908 221.672 83.0908 231.814 88.3855H231.857L242.829 85.4936C242.829 85.4936 244.658 78.9019 243.701 72.8205L238.725 62.4438L238.746 62.4225Z" fill="white"/>
<path d="M231.984 89.1512L231.452 89.0661C221.48 83.8565 206.446 83.8565 196.474 89.0661L196.112 89.1512H195.878L195.623 89.0236L185.693 82.6232L185.544 65.7611L213.91 53.6833L239.299 61.7423L244.487 72.6506C245.465 78.8383 243.679 85.3875 243.594 85.664L243.466 86.1105L231.963 89.1512H231.984ZM213.974 83.5801C220.395 83.5801 226.796 84.8985 231.963 87.5352L242.19 84.8347C242.573 83.3037 243.7 77.9878 242.956 73.0546L238.172 63.0819L214.016 55.4057L187.16 66.8243L187.288 81.7514L196.133 87.4501C201.258 84.8772 207.616 83.5801 213.974 83.5801Z" fill="#141516"/>
<path d="M274.873 77.2649L263.795 80.1142C263.731 79.9866 263.859 92.5322 263.795 92.4046V107.077L274.703 107.119C276.766 107.119 278.446 106.162 278.446 104.993L278.573 79.4551C278.573 78.2643 276.936 77.3074 274.873 77.2862V77.2649Z" fill="white"/>
<path d="M274.725 107.927H274.704L263.008 107.885V91.7454C263.008 90.6397 263.008 88.2156 263.008 86.1955C262.994 81.7302 263.207 79.4479 263.646 79.3486L274.895 76.478C276.447 76.478 277.872 76.9884 278.68 77.7964C279.148 78.2854 279.403 78.8383 279.382 79.4337L279.254 104.971C279.254 106.63 277.255 107.906 274.725 107.906V107.927ZM264.582 106.29L274.682 106.332H274.704C276.49 106.332 277.617 105.546 277.638 104.993L277.765 79.4549C277.765 79.2848 277.68 79.1147 277.51 78.9446C277.021 78.4556 276.022 78.1153 274.959 78.0941L264.561 80.7733C264.561 81.8152 264.561 84.1117 264.561 86.1955C264.561 89.9167 264.667 91.6178 264.561 92.4258V106.29H264.582Z" fill="#141516"/>
<path d="M153.076 76.9668L164.175 79.8161C164.239 79.6886 164.112 92.2341 164.175 92.1066V106.779L153.246 106.821C151.183 106.821 149.503 105.864 149.482 104.695L149.354 79.157C149.354 77.9662 150.992 77.0093 153.054 76.9881L153.076 76.9668Z" fill="white"/>
<path d="M153.224 107.608C150.694 107.608 148.716 106.332 148.695 104.695L148.567 79.1361C148.567 78.5407 148.801 77.9879 149.269 77.4988C150.077 76.6695 151.502 76.1804 153.054 76.1592H153.245L164.345 79.0298C164.77 79.1148 164.969 81.3759 164.94 85.8129C164.94 87.8542 164.94 90.2995 164.94 91.4053V107.523L153.224 107.566H153.203L153.224 107.608ZM152.99 77.754C151.927 77.7752 150.928 78.1154 150.439 78.6045C150.268 78.7746 150.183 78.9447 150.183 79.1148L150.311 104.674C150.311 105.227 151.459 106.013 153.245 106.013H153.267L163.409 105.971L163.494 92.107C163.388 91.2989 163.409 89.5766 163.409 85.8342C163.409 83.7716 163.409 81.4751 163.409 80.4332L152.99 77.754Z" fill="#141516"/>
<path d="M201.236 128.532V134.294V134.826C201.236 135.995 202.895 136.952 204.936 136.952L222.202 137.016C224.265 137.016 225.945 136.059 225.945 134.868V112.052L201.236 111.457V128.51V128.532Z" fill="white"/>
<path d="M222.223 137.803H222.202L204.936 137.739C202.405 137.739 200.47 136.484 200.449 134.826V134.273C200.449 132.636 200.449 130.36 200.449 129.233V110.649L226.752 111.266V134.847C226.752 136.506 224.754 137.781 222.223 137.781V137.803ZM201.959 128.532C202.065 129.318 202.044 130.935 202.044 134.294V134.826C202.044 135.357 203.192 136.165 204.957 136.165L222.223 136.229C224.009 136.229 225.136 135.421 225.158 134.89V112.86L202.044 112.308L201.959 128.553V128.532Z" fill="#141516"/>
<path d="M175.021 98.6559L161.136 98.3157V106.715C161.136 106.715 161.136 120.558 161.136 121.11C161.136 121.663 161.497 122.216 162.22 122.641L174.447 129.68C175.893 130.509 178.253 130.509 179.72 129.68L187.396 125.236V102.42L175 98.6772L175.021 98.6559Z" fill="white"/>
<path d="M177.083 131.083C175.999 131.083 174.914 130.849 174.064 130.36L161.837 123.322C160.902 122.769 160.349 121.982 160.349 121.11V98.7622C160.349 98.0605 160.923 97.5076 161.624 97.5289L175.276 97.8904L188.247 101.803V125.661L180.166 130.339C179.316 130.828 178.231 131.083 177.126 131.083H177.083ZM161.922 99.1237V121.089C161.922 121.366 162.177 121.663 162.624 121.918L174.85 128.957C176.063 129.658 178.104 129.658 179.316 128.957L186.609 124.746V102.994L174.893 99.4426L161.943 99.1237H161.922Z" fill="#141516"/>
<path d="M253.035 98.5504L266.921 98.2102V106.609C266.921 106.609 266.921 120.452 266.921 121.005C266.921 121.558 266.559 122.111 265.836 122.536L253.61 129.574C252.142 130.403 249.803 130.403 248.336 129.574L240.639 125.13V102.314L253.035 98.5717V98.5504Z" fill="white"/>
<path d="M250.953 130.977C249.869 130.977 248.763 130.722 247.912 130.233L239.832 125.555V101.697L253.016 97.7421L266.327 97.4231C267.092 97.4231 267.709 98.0185 267.709 98.784V106.609C267.709 106.609 267.709 120.452 267.709 121.005C267.709 121.876 267.177 122.663 266.22 123.216L253.994 130.254C253.143 130.743 252.059 130.977 250.974 130.977H250.953ZM241.427 124.641L248.72 128.851C249.932 129.553 251.974 129.553 253.186 128.851L265.412 121.813C265.838 121.557 266.114 121.26 266.114 120.983C266.114 120.43 266.114 106.588 266.114 106.588V99.0179L253.164 99.3368L241.448 102.888V124.641H241.427Z" fill="#141516"/>
<path d="M253.397 47.0277C251.951 46.1985 249.591 46.1985 248.124 47.0277L240.426 51.4931C236.046 49.9834 231.347 48.8564 226.52 48.1547L226.584 41.8181C226.584 40.6274 224.946 39.6705 222.884 39.6492L205.618 39.5854C203.555 39.5854 201.875 40.5423 201.875 41.7331L201.811 48.0909C196.815 48.7926 191.945 49.9409 187.437 51.5144L179.761 47.0915C178.315 46.2623 175.955 46.2623 174.488 47.0915L162.282 54.1511C160.836 54.9804 160.836 56.3625 162.282 57.1918L169.959 61.6146C167.322 64.145 165.387 66.8243 164.175 69.6098L153.266 69.5673C151.204 69.5673 149.524 70.5241 149.524 71.6936L149.396 81.6663C149.396 82.8571 151.034 83.8139 153.096 83.8352L164.005 83.8777C165.217 86.8121 167.215 89.6402 169.98 92.2769L162.261 96.7423C160.815 97.5928 160.815 98.9537 162.261 99.783L174.488 106.821C175.934 107.651 178.294 107.651 179.761 106.821L187.437 102.377C191.796 103.908 196.453 105.014 201.28 105.716L201.216 111.967C201.216 113.158 202.853 114.115 204.916 114.136L222.182 114.2C224.245 114.2 225.925 113.243 225.925 112.052L225.988 105.822C231.049 105.12 235.961 103.972 240.554 102.377L248.294 106.843C249.74 107.672 252.1 107.672 253.567 106.843L265.773 99.783C267.219 98.9537 267.219 97.5716 265.773 96.7423L258.033 92.2769C260.669 89.7465 262.604 87.0673 263.816 84.2817L274.725 84.3243C276.787 84.3243 278.467 83.3674 278.467 82.1979L278.595 72.2252C278.595 71.0345 276.957 70.0776 274.895 70.0563L263.987 70.0138C262.775 67.0582 260.754 64.2088 257.948 61.5509L265.645 57.1067C267.091 56.2562 267.091 54.8953 265.645 54.066L253.419 47.0277H253.397ZM232.835 87.8328C222.416 93.8504 205.533 93.8504 195.135 87.8328C184.716 81.8152 184.716 72.0764 195.135 66.0588C205.554 60.0411 222.437 60.0411 232.835 66.0588C243.254 72.0764 243.254 81.8152 232.835 87.8328Z" fill="white"/>
<path d="M274.682 75.3935L263.774 75.351C262.562 72.3953 260.542 69.546 257.735 66.888L265.432 62.4439C266.878 61.5934 266.878 60.2325 265.432 59.4032L253.206 52.3649C251.76 51.5356 249.399 51.5356 247.932 52.3649L240.235 56.8303C235.854 55.3206 231.155 54.1936 226.328 53.4919L226.392 47.1553C226.392 45.9645 224.755 45.0077 222.692 44.9864L205.426 44.9226C203.364 44.9226 201.684 45.8795 201.684 47.0702L201.62 53.4281C196.623 54.1298 191.753 55.278 187.246 56.8515L179.569 52.4287C178.123 51.5994 175.763 51.5994 174.296 52.4287L162.091 59.4882C162.091 59.4882 162.048 59.5308 162.027 59.5308V62.4652C162.027 62.4652 162.069 62.5077 162.091 62.5077L169.767 66.9305C167.13 69.4609 165.195 72.1401 163.983 74.9257L153.075 74.8832C151.969 74.8832 150.991 75.1596 150.311 75.5849V88.5345C150.97 88.9172 151.884 89.1511 152.905 89.1511L163.813 89.1936C165.025 92.1068 167.024 94.9561 169.788 97.5928L162.069 102.058H162.027V105.056C162.027 105.056 162.048 105.078 162.069 105.099L174.296 112.137C175.742 112.966 178.102 112.966 179.569 112.137L187.246 107.693C191.605 109.224 197.197 110.585 202.003 111.308L201.939 117.559C201.939 118.75 202.662 119.452 204.724 119.452L221.991 119.516C224.053 119.516 225.733 118.559 225.733 117.368L225.797 111.138C230.857 110.436 235.769 109.288 240.362 107.693L248.102 112.158C249.548 112.988 251.909 112.988 253.376 112.158L265.581 105.099C267.027 104.27 267.027 102.887 265.581 102.058L257.841 97.5928C260.478 95.0624 262.413 92.3832 263.625 89.5976L274.533 89.6402C275.894 89.6402 277.085 89.2362 277.723 88.5983V76.2866C277.064 75.7337 275.958 75.3722 274.703 75.3722L274.682 75.3935ZM232.622 93.1699C222.203 99.1876 205.32 99.1876 194.922 93.1699C184.503 87.1523 184.503 77.4135 194.922 71.3959C205.341 65.3783 222.224 65.3783 232.622 71.3959C243.042 77.4135 243.042 87.1523 232.622 93.1699Z" fill="#B4C4FF"/>
<path d="M222.182 114.987H222.16L204.894 114.923C203.342 114.923 201.917 114.434 201.109 113.605C200.641 113.115 200.386 112.563 200.386 111.967L200.429 106.396C195.878 105.694 191.519 104.631 187.479 103.249L180.101 107.523C178.4 108.501 175.742 108.501 174.041 107.523L161.814 100.485C160.857 99.932 160.325 99.124 160.325 98.2734C160.325 97.4229 160.857 96.6149 161.814 96.062L168.618 92.1282C166.322 89.7892 164.578 87.3014 163.43 84.6859L153.053 84.6434C151.501 84.6434 150.076 84.1331 149.268 83.325C148.801 82.836 148.545 82.2831 148.567 81.6877L148.694 71.7151C148.694 70.0778 150.693 68.7807 153.223 68.7807H153.245L163.643 68.8232C164.791 66.3566 166.471 63.9963 168.64 61.7849L161.878 57.8724C160.921 57.3195 160.389 56.5115 160.389 55.661C160.389 54.8104 160.942 54.0024 161.878 53.4495L174.083 46.39C175.784 45.4119 178.442 45.4119 180.143 46.39L187.5 50.6427C191.732 49.1968 196.261 48.1124 201.003 47.3894L201.067 41.712C201.067 40.0747 203.065 38.7776 205.596 38.7776H205.617L222.883 38.8414C224.436 38.8414 225.86 39.3304 226.668 40.1597C227.136 40.6488 227.391 41.2016 227.391 41.797L227.349 47.4319C231.92 48.1336 236.301 49.1968 240.362 50.5789L247.762 46.3049C249.463 45.3268 252.121 45.3268 253.822 46.3049L266.049 53.3432C267.005 53.8961 267.537 54.7041 267.537 55.5546C267.537 56.4052 267.005 57.2132 266.049 57.7661L259.266 61.6999C261.583 64.0601 263.348 66.5692 264.518 69.2059L274.894 69.2485C276.447 69.2485 277.871 69.7588 278.679 70.5668C279.147 71.0559 279.402 71.6087 279.381 72.2041L279.253 82.1768C279.253 83.8141 277.255 85.0899 274.724 85.0899H274.703L264.305 85.0474C263.157 87.514 261.477 89.8743 259.308 92.0857L266.134 96.0195C267.09 96.5723 267.622 97.3804 267.622 98.2309C267.622 99.0814 267.069 99.8895 266.134 100.442L253.928 107.502C252.227 108.48 249.569 108.48 247.868 107.502L240.447 103.207C236.173 104.674 231.58 105.78 226.753 106.481L226.711 112.031C226.711 113.668 224.712 114.965 222.182 114.965V114.987ZM187.33 101.506L187.671 101.633C191.923 103.122 196.538 104.227 201.364 104.929L202.045 105.035L201.981 111.989C201.981 112.159 202.066 112.329 202.236 112.499C202.747 113.009 203.788 113.349 204.894 113.349L222.16 113.413C223.946 113.413 225.073 112.605 225.095 112.074L225.159 105.163L225.839 105.078C230.921 104.376 235.769 103.228 240.256 101.676L240.596 101.548L248.655 106.205C249.867 106.906 251.908 106.906 253.12 106.205L265.326 99.1452C265.751 98.8901 266.027 98.5924 266.027 98.316C266.027 98.0395 265.772 97.7418 265.326 97.4867L256.671 92.4897L257.437 91.7455C259.967 89.3214 261.86 86.7272 263.05 84.0055L263.263 83.5164L274.682 83.5589H274.703C276.489 83.5589 277.616 82.7722 277.637 82.2193L277.765 72.2467C277.765 72.0765 277.68 71.9064 277.51 71.7363C276.999 71.226 275.957 70.8858 274.852 70.8858L263.412 70.8433L263.199 70.3542C262.008 67.4623 260.031 64.7193 257.352 62.1677L256.586 61.4234L265.198 56.4477C265.623 56.1926 265.878 55.8949 265.878 55.6184C265.878 55.342 265.623 55.0443 265.177 54.7892L252.95 47.7509C251.738 47.0492 249.697 47.0492 248.485 47.7509L240.468 52.3864L240.128 52.2588C235.854 50.7703 231.219 49.6646 226.371 48.9629L225.69 48.8566L225.754 41.8183C225.754 41.6482 225.669 41.4781 225.499 41.308C224.988 40.7976 223.946 40.4574 222.841 40.4574L205.575 40.3936C203.788 40.3936 202.662 41.2016 202.64 41.7332L202.576 48.7715L201.896 48.8778C196.878 49.5795 192.093 50.7278 187.671 52.2588L187.33 52.3864L179.335 47.7721C178.123 47.0704 176.082 47.0704 174.87 47.7721L162.664 54.8317C162.239 55.0868 161.963 55.3845 161.963 55.661C161.963 55.9374 162.218 56.2351 162.664 56.4903L171.255 61.4447L170.49 62.1889C167.959 64.5917 166.067 67.2072 164.876 69.9289L164.663 70.418L153.245 70.3755H153.223C151.437 70.3755 150.31 71.1622 150.289 71.7151L150.161 81.6877C150.161 81.8578 150.246 82.028 150.417 82.1981C150.927 82.7084 151.969 83.0486 153.075 83.0486L164.514 83.0911L164.727 83.5802C165.918 86.4508 167.853 89.1726 170.511 91.7029L171.276 92.4472L162.643 97.4441C162.218 97.6993 161.963 97.997 161.963 98.2734C161.963 98.5499 162.218 98.8475 162.664 99.1027L174.891 106.141C176.103 106.843 178.144 106.843 179.356 106.141L187.352 101.506H187.33ZM213.974 93.1276C206.999 93.1276 200.025 91.5966 194.73 88.5346C189.435 85.4727 186.522 81.3688 186.522 76.9672C186.522 72.5656 189.435 68.4405 194.73 65.3997C205.341 59.2758 222.628 59.2758 233.239 65.3997C238.533 68.4617 241.447 72.5656 241.447 76.9672C241.447 81.3688 238.533 85.4939 233.239 88.5346C227.923 91.5966 220.948 93.1276 213.995 93.1276H213.974ZM213.974 62.359C207.297 62.359 200.599 63.8262 195.517 66.7606C190.733 69.5249 188.096 73.1397 188.096 76.9459C188.096 80.7521 190.733 84.3882 195.517 87.1312C205.702 93 222.245 93 232.431 87.1312C237.215 84.367 239.852 80.7521 239.852 76.9459C239.852 73.1397 237.215 69.5036 232.431 66.7606C227.349 63.8262 220.651 62.359 213.974 62.359Z" fill="#141516"/>
<path d="M225.158 106.332V128.638L241.425 125.087V102.887L225.158 106.332Z" fill="#141516"/>
<path d="M251.187 107.459V130.19L261.117 125.236L266.518 121.812L266.922 99.1238L254.291 106.417L251.187 107.459Z" fill="#141516"/>
<path d="M177.166 107.459V130.19L188.202 125.236V102.377L177.166 107.459Z" fill="#141516"/>
<path d="M210.614 61.6572V84.3669L199.621 86.472L196.112 88.3644L188.712 83.3462L186.777 75.9252L193.199 66.3352L210.614 61.6572Z" fill="#141516"/>
<path d="M214.782 61.5723V84.0905L222.161 85.1537V62.0188L214.782 61.5723Z" fill="#141516"/>
<path d="M266.666 55.9375V69.844C266.666 69.844 263.646 70.8221 262.711 67.3136C262.349 65.9527 257.99 61.296 257.99 61.296L266.666 55.9375Z" fill="#141516"/>
<path d="M164.962 84.3669H163.452V92.5747H164.962V84.3669Z" fill="#141516"/>
<path d="M258.415 91.873L264.582 84.3669V95.7218L258.415 91.873Z" fill="#141516"/>
<path d="M276.444 161.491H268.895C268.853 161.363 268.81 161.278 268.767 161.193V155.558L265.982 156.919C265.578 156.472 265.174 156.026 264.706 155.601L270.043 152.517C271.043 151.943 271.043 150.986 270.043 150.412L261.559 145.543C260.56 144.969 258.922 144.969 257.902 145.543L252.565 148.626C249.524 147.563 246.271 146.797 242.932 146.308L242.975 141.928C242.975 141.099 241.826 140.44 240.402 140.44L228.43 140.397C227.006 140.397 225.836 141.056 225.836 141.885L225.794 146.287C222.328 146.776 218.968 147.563 215.821 148.669L210.505 145.585C209.506 145.011 207.868 145.011 206.848 145.585L198.385 150.476C197.385 151.05 197.385 152.007 198.385 152.581L203.701 155.664C203.275 156.068 202.871 156.494 202.489 156.919L199.554 155.303V161.214H192.112C190.687 161.172 189.518 161.831 189.518 162.66L189.433 169.571C189.433 170.4 190.581 171.059 192.006 171.08H199.554C200.383 173.143 201.766 175.099 203.701 176.928L198.363 180.011C197.364 180.585 197.364 181.542 198.363 182.116L206.848 187.007C207.847 187.581 209.484 187.581 210.505 187.007L215.842 183.924C218.862 184.987 222.094 185.752 225.432 186.242L225.39 190.579C225.39 191.409 226.538 192.068 227.962 192.068L239.934 192.11C241.359 192.11 242.528 191.451 242.528 190.622L242.571 186.305C246.079 185.816 249.481 185.029 252.671 183.924L258.029 187.028C259.029 187.602 260.666 187.602 261.687 187.028L270.15 182.138C271.149 181.563 271.149 180.607 270.15 180.033L264.791 176.928C266.62 175.184 267.96 173.313 268.81 171.378H276.359C277.783 171.421 278.953 170.762 278.953 169.932L279.038 163.022C279.038 162.192 277.911 161.533 276.465 161.512L276.444 161.491ZM221.158 158.726C228.366 154.559 240.083 154.559 247.291 158.726C249.737 160.13 251.353 161.852 252.139 163.659L250.906 164.255L226.687 170.294L216.012 164.382C216.65 162.32 218.351 160.321 221.137 158.726H221.158Z" fill="white"/>
<path d="M239.933 192.621L227.961 192.578C226.877 192.578 225.899 192.238 225.346 191.664C225.027 191.324 224.835 190.941 224.857 190.516L224.899 186.667C221.752 186.178 218.733 185.434 215.926 184.477L210.823 187.432C209.653 188.113 207.803 188.113 206.613 187.432L198.128 182.563C197.469 182.18 197.086 181.627 197.086 181.032C197.086 180.437 197.469 179.884 198.107 179.501L202.828 176.779C201.233 175.163 200.042 173.42 199.234 171.612H192.047C190.962 171.57 189.984 171.23 189.431 170.655C189.112 170.315 188.942 169.932 188.942 169.507L189.027 162.596C189.027 161.448 190.41 160.576 192.153 160.576H199.064V154.304L202.445 156.175C202.572 156.026 202.721 155.877 202.849 155.728L198.15 153.007C197.49 152.624 197.108 152.071 197.108 151.476C197.108 150.88 197.49 150.327 198.15 149.945L206.613 145.054C207.782 144.373 209.632 144.373 210.823 145.054L215.926 148.01C218.86 147.01 222.007 146.245 225.282 145.756L225.325 141.822C225.325 140.674 226.707 139.802 228.45 139.802L240.422 139.844C241.506 139.844 242.484 140.185 243.037 140.759C243.356 141.099 243.548 141.482 243.526 141.907L243.484 145.819C246.652 146.308 249.693 147.031 252.5 147.988L257.624 145.011C258.794 144.331 260.644 144.331 261.834 145.011L270.319 149.881C270.978 150.263 271.36 150.816 271.36 151.412C271.36 152.007 270.978 152.56 270.34 152.943L265.641 155.664C265.811 155.835 265.981 156.005 266.13 156.175L269.34 154.601V160.853H276.464C277.548 160.895 278.526 161.236 279.079 161.81C279.398 162.15 279.568 162.533 279.568 162.958L279.483 169.869C279.483 171.017 278.101 171.889 276.357 171.889H269.128C268.32 173.569 267.172 175.206 265.662 176.737L270.404 179.48C271.063 179.863 271.446 180.415 271.446 181.011C271.446 181.606 271.063 182.159 270.404 182.542L261.941 187.432C260.75 188.113 258.921 188.113 257.73 187.432L252.585 184.456C249.629 185.476 246.439 186.242 243.101 186.731L243.058 190.579C243.058 191.728 241.676 192.6 239.933 192.6V192.621ZM215.777 183.265L216.011 183.35C218.967 184.37 222.156 185.157 225.495 185.646L225.963 185.71L225.92 190.537C225.92 190.643 225.984 190.771 226.09 190.898C226.452 191.26 227.153 191.494 227.919 191.494L239.89 191.536C241.123 191.536 241.91 190.983 241.91 190.601L241.953 185.795L242.421 185.731C245.95 185.242 249.31 184.456 252.414 183.371L252.648 183.286L258.241 186.518C259.07 187.007 260.495 187.007 261.345 186.518L269.808 181.627C270.106 181.457 270.297 181.245 270.297 181.053C270.297 180.862 270.127 180.649 269.808 180.479L263.812 177.013L264.343 176.503C266.087 174.823 267.405 173.016 268.235 171.144L268.384 170.804H276.315C277.548 170.825 278.335 170.294 278.335 169.911L278.42 163C278.42 162.894 278.356 162.767 278.25 162.639C277.91 162.277 277.187 162.044 276.421 162.044H268.49L268.192 161.193V156.43L265.811 157.599L265.534 157.281C265.151 156.855 264.747 156.43 264.301 156.005L263.769 155.494L269.744 152.028C270.042 151.858 270.234 151.646 270.212 151.454C270.212 151.263 270.042 151.05 269.723 150.88L261.239 146.011C260.41 145.522 258.985 145.522 258.134 146.011L252.563 149.222L252.329 149.137C249.374 148.116 246.163 147.35 242.803 146.861L242.336 146.798L242.378 141.928C242.378 141.822 242.314 141.694 242.208 141.567C241.846 141.205 241.145 140.971 240.379 140.971L228.408 140.929C227.175 140.929 226.388 141.482 226.388 141.864L226.345 146.755L225.877 146.819C222.411 147.308 219.073 148.095 216.011 149.158L215.777 149.243L210.227 146.053C209.398 145.564 207.973 145.564 207.123 146.053L198.66 150.944C198.362 151.114 198.171 151.327 198.171 151.518C198.171 151.709 198.341 151.922 198.66 152.092L204.614 155.537L204.082 156.047C203.657 156.451 203.274 156.855 202.913 157.259L202.615 157.599L200.106 156.217V161.746L192.111 161.703C190.877 161.703 190.091 162.256 190.091 162.639L190.006 169.55C190.006 169.656 190.069 169.784 190.176 169.911C190.516 170.273 191.239 170.507 192.004 170.507H199.936L200.085 170.868C200.914 172.846 202.253 174.738 204.103 176.503L204.635 177.013L198.66 180.479C198.362 180.649 198.171 180.862 198.192 181.053C198.192 181.245 198.362 181.457 198.681 181.627L207.165 186.497C208.016 186.986 209.419 186.986 210.27 186.497L215.82 183.286L215.777 183.265ZM226.643 170.847L215.394 164.616L215.522 164.191C216.224 161.895 218.095 159.832 220.902 158.216C228.259 153.963 240.23 153.963 247.588 158.216C250.054 159.641 251.798 161.427 252.67 163.404L252.882 163.894L251.181 164.723L226.643 170.847ZM216.734 164.106L226.792 169.677L250.798 163.702L251.415 163.383C250.586 161.81 249.076 160.364 247.014 159.173C239.954 155.09 228.472 155.112 221.433 159.173C219.052 160.555 217.436 162.235 216.713 164.106H216.734Z" fill="#141516"/>
<path d="M197.661 135.89V146.649L210.504 145.565L209.909 137.803L197.661 135.89Z" fill="white"/>
<path d="M197.108 147.244V136.123C197.108 135.655 197.512 135.315 197.98 135.379L210.462 137.314L211.121 146.075L197.13 147.244H197.108ZM198.214 136.527V146.032L209.909 145.054L209.399 138.271L198.193 136.527H198.214Z" fill="#141516"/>
<path d="M269.83 149.562C263.791 149.562 263.6 148.605 263.515 148.243C263.366 147.627 260.517 142.927 257.944 138.845L257.519 138.186L271.319 135.188V149.54H270.766C270.447 149.54 270.128 149.54 269.83 149.54V149.562ZM264.578 147.924C265.088 148.265 267.725 148.477 270.213 148.456V136.57L259.305 138.93C260.857 141.397 264.195 146.755 264.578 147.924Z" fill="#141516"/>
<path d="M251.413 140.376L234.232 134.933L215.095 143.077L215.18 154.091L221.814 158.365H221.857C228.874 154.687 239.591 154.687 246.608 158.365H246.65L254.262 156.366C254.262 156.366 255.538 151.795 254.858 147.585L251.413 140.397V140.376Z" fill="white"/>
<path d="M246.716 158.918L246.354 158.854C239.444 155.239 229.024 155.239 222.114 158.854L221.858 158.918H221.688L221.518 158.833L214.629 154.41L214.522 142.715L234.191 134.337L251.798 139.93L255.391 147.499C256.072 151.795 254.838 156.324 254.775 156.515L254.69 156.813L246.716 158.918ZM234.234 155.048C238.678 155.048 243.122 155.962 246.694 157.791L253.797 155.92C254.052 154.857 254.838 151.157 254.328 147.755L251.011 140.844L234.255 135.528L215.649 143.438L215.734 153.793L221.858 157.748C225.409 155.962 229.832 155.069 234.234 155.069V155.048Z" fill="#141516"/>
<path d="M276.443 150.668L268.767 152.645C268.767 152.645 268.809 161.257 268.767 161.151V171.315H276.315C277.74 171.357 278.909 170.698 278.909 169.869L278.994 152.156C278.994 151.327 277.867 150.668 276.422 150.646L276.443 150.668Z" fill="white"/>
<path d="M276.337 171.91L268.235 171.867V160.683C268.235 159.917 268.235 158.237 268.235 156.834C268.235 153.729 268.384 152.149 268.682 152.092L276.464 150.093C277.549 150.093 278.527 150.433 279.08 151.008C279.399 151.348 279.569 151.731 279.569 152.156L279.484 169.869C279.484 171.017 278.102 171.889 276.358 171.889L276.337 171.91ZM269.32 170.783H276.337C277.57 170.804 278.357 170.251 278.357 169.869L278.442 152.156C278.442 152.05 278.378 151.922 278.272 151.794C277.932 151.454 277.251 151.22 276.507 151.199L269.299 153.049C269.299 153.772 269.299 155.367 269.299 156.813C269.299 159.385 269.362 160.576 269.299 161.129V170.74L269.32 170.783Z" fill="#141516"/>
<path d="M192.027 150.455L199.724 152.433C199.724 152.433 199.682 161.044 199.724 160.938V171.102H192.155C190.73 171.145 189.56 170.486 189.539 169.656L189.454 151.944C189.454 151.114 190.602 150.455 192.027 150.434V150.455Z" fill="white"/>
<path d="M192.133 171.697C190.39 171.697 189.008 170.804 188.986 169.677L188.901 151.965C188.901 151.561 189.072 151.157 189.39 150.838C189.965 150.264 190.943 149.923 192.027 149.923H192.176L199.873 151.922C200.171 151.979 200.306 153.545 200.277 156.621C200.277 158.046 200.277 159.726 200.277 160.513V171.697L192.155 171.74L192.133 171.697ZM191.963 151.008C191.219 151.008 190.539 151.263 190.198 151.603C190.071 151.731 190.028 151.837 190.028 151.943L190.113 169.656C190.113 170.039 190.921 170.592 192.155 170.592H199.193L199.257 160.959C199.193 160.406 199.193 159.216 199.193 156.6C199.193 155.175 199.193 153.581 199.193 152.858L191.963 151.008Z" fill="#141516"/>
<path d="M225.413 186.199V190.197V190.579C225.413 191.387 226.561 192.047 227.986 192.068L239.957 192.11C241.382 192.11 242.552 191.451 242.552 190.622V174.802L225.413 174.398V186.22V186.199Z" fill="white"/>
<path d="M239.958 192.621L227.986 192.578C226.221 192.578 224.882 191.706 224.86 190.558V190.175C224.86 189.048 224.86 187.454 224.86 186.688V173.802L243.105 174.228V190.579C243.105 191.728 241.722 192.621 239.979 192.621H239.958ZM225.902 186.178C225.966 186.731 225.966 187.836 225.966 190.175V190.558C225.966 190.92 226.753 191.472 227.986 191.494L239.958 191.536C241.191 191.536 241.978 190.983 241.978 190.601V175.333L225.945 174.95L225.881 186.199L225.902 186.178Z" fill="#141516"/>
<path d="M207.229 165.489L197.618 165.255V171.081C197.618 171.081 197.618 180.671 197.618 181.054C197.618 181.437 197.873 181.819 198.384 182.117L206.868 186.986C207.867 187.561 209.505 187.561 210.525 186.986L215.862 183.903V168.104L207.272 165.51L207.229 165.489Z" fill="white"/>
<path d="M208.677 187.986C207.912 187.986 207.167 187.815 206.572 187.475L198.088 182.585C197.429 182.202 197.046 181.649 197.046 181.054V165.552C197.046 165.063 197.45 164.681 197.918 164.702L207.38 164.957L216.353 167.679V184.222L210.74 187.475C210.144 187.815 209.4 187.986 208.635 187.986H208.677ZM198.173 165.829V181.054C198.173 181.245 198.343 181.458 198.662 181.628L207.146 186.518C207.997 187.007 209.4 187.007 210.251 186.518L215.311 183.584V168.508L207.189 166.041L198.215 165.829H198.173Z" fill="#141516"/>
<path d="M261.304 165.425L270.937 165.191V171.017C270.937 171.017 270.937 180.607 270.937 180.99C270.937 181.373 270.681 181.755 270.171 182.053L261.687 186.922C260.688 187.497 259.05 187.497 258.03 186.922L252.692 183.839V168.04L261.283 165.446L261.304 165.425Z" fill="white"/>
<path d="M259.88 187.9C259.114 187.9 258.37 187.73 257.775 187.39L252.161 184.137V167.594L261.283 164.851L270.512 164.617C271.043 164.617 271.469 165.021 271.469 165.552V170.975C271.469 170.975 271.469 180.564 271.469 180.947C271.469 181.564 271.107 182.095 270.427 182.478L261.942 187.369C261.347 187.709 260.603 187.879 259.837 187.879L259.88 187.9ZM253.267 183.499L258.328 186.433C259.157 186.922 260.582 186.922 261.432 186.433L269.916 181.564C270.214 181.394 270.405 181.181 270.405 180.99C270.405 180.607 270.405 171.017 270.405 171.017V165.765L261.432 165.978L253.309 168.444V183.52L253.267 183.499Z" fill="#141516"/>
<path d="M261.559 129.701C260.56 129.127 258.923 129.127 257.902 129.701L252.565 132.785C249.524 131.722 246.271 130.956 242.932 130.467L242.975 126.087C242.975 125.257 241.827 124.598 240.402 124.598L228.43 124.556C227.006 124.556 225.836 125.215 225.836 126.044L225.794 130.446C222.328 130.935 218.968 131.722 215.821 132.827L210.505 129.744C209.506 129.17 207.868 129.17 206.848 129.744L198.385 134.635C197.385 135.209 197.385 136.166 198.385 136.74L203.701 139.823C201.872 141.567 200.532 143.438 199.682 145.373H192.133C190.709 145.33 189.539 145.989 189.539 146.819L189.454 153.729C189.454 154.559 190.602 155.218 192.027 155.239H199.576C200.405 157.302 201.787 159.258 203.722 161.087L198.385 164.17C197.385 164.744 197.385 165.701 198.385 166.275L206.869 171.144C207.868 171.719 209.506 171.719 210.526 171.144L215.864 168.061C218.883 169.124 222.115 169.89 225.454 170.379L225.411 174.717C225.411 175.546 226.559 176.205 227.984 176.205L239.955 176.248C241.38 176.248 242.55 175.589 242.55 174.759L242.592 170.443C246.101 169.954 249.503 169.167 252.692 168.061L258.051 171.166C259.05 171.74 260.688 171.74 261.708 171.166L270.171 166.275C271.17 165.701 271.17 164.744 270.171 164.17L264.813 161.065C266.641 159.322 267.981 157.451 268.831 155.516H276.38C277.805 155.558 278.974 154.899 278.974 154.07L279.059 147.159C279.059 146.33 277.932 145.671 276.486 145.649H268.938C268.087 143.565 266.684 141.588 264.749 139.759L270.086 136.676C271.085 136.102 271.085 135.145 270.086 134.571L261.602 129.68L261.559 129.701ZM247.313 158.003C240.104 162.171 228.388 162.171 221.18 158.003C213.971 153.836 213.971 147.074 221.18 142.906C228.388 138.739 240.104 138.739 247.313 142.906C254.521 147.074 254.521 153.836 247.313 158.003Z" fill="white"/>
<path d="M276.316 149.37H268.768C267.917 147.287 266.514 145.309 264.579 143.48L269.916 140.397C270.915 139.823 270.915 138.866 269.916 138.292L261.432 133.401C260.432 132.827 258.795 132.827 257.774 133.401L252.437 136.485C249.396 135.421 246.143 134.656 242.805 134.167L242.847 129.787C242.847 128.957 241.699 128.298 240.274 128.298L228.303 128.256C226.878 128.256 225.708 128.915 225.708 129.744L225.666 134.146C222.2 134.635 218.84 135.421 215.693 136.527L210.377 133.444C209.378 132.87 207.741 132.87 206.72 133.444L198.257 138.335C198.257 138.335 198.236 138.356 198.215 138.377V140.418C198.215 140.418 198.236 140.44 198.257 140.461L203.573 143.544C201.744 145.288 200.405 147.159 199.554 149.094H192.006C191.24 149.052 190.56 149.243 190.092 149.562V158.535C190.56 158.79 191.176 158.96 191.878 158.96H199.427C200.256 161.023 201.638 162.979 203.573 164.808L198.236 167.891H198.215V169.975H198.257L206.741 174.887C207.741 175.461 209.378 175.461 210.399 174.887L215.736 171.804C218.755 172.867 222.625 173.824 225.964 174.313L225.921 178.651C225.921 179.48 226.431 179.969 227.856 179.969L239.828 180.011C241.252 180.011 242.422 179.352 242.422 178.523L242.464 174.206C245.973 173.717 249.375 172.931 252.565 171.825L257.923 174.929C258.922 175.504 260.56 175.504 261.58 174.929L270.043 170.039C271.043 169.465 271.043 168.508 270.043 167.934L264.685 164.829C266.514 163.086 267.853 161.214 268.704 159.279H276.252C277.188 159.322 278.017 159.024 278.464 158.599V150.072C277.996 149.689 277.23 149.434 276.359 149.434L276.316 149.37ZM247.164 161.682C239.955 165.85 228.239 165.85 221.031 161.682C213.822 157.514 213.822 150.753 221.031 146.585C228.239 142.417 239.955 142.417 247.164 146.585C254.372 150.753 254.372 157.514 247.164 161.682Z" fill="#B4C4FF"/>
<path d="M239.934 176.822L227.962 176.779C226.878 176.779 225.9 176.439 225.347 175.865C225.028 175.525 224.836 175.142 224.858 174.717L224.9 170.868C221.753 170.379 218.734 169.635 215.927 168.678L210.824 171.633C209.654 172.314 207.804 172.314 206.613 171.633L198.129 166.764C197.47 166.381 197.087 165.828 197.087 165.233C197.087 164.638 197.47 164.085 198.108 163.702L202.829 160.98C201.234 159.364 200.043 157.621 199.235 155.813H192.048C190.963 155.771 189.985 155.43 189.432 154.856C189.113 154.516 188.943 154.133 188.943 153.708L189.028 146.797C189.028 145.649 190.411 144.777 192.154 144.777H199.384C200.192 143.097 201.34 141.46 202.85 139.929L198.151 137.229C197.491 136.846 197.109 136.293 197.109 135.698C197.109 135.102 197.491 134.549 198.151 134.167L206.613 129.276C207.783 128.596 209.633 128.596 210.824 129.276L215.927 132.232C218.861 131.232 222.008 130.467 225.283 129.978L225.326 126.044C225.326 124.896 226.708 124.024 228.451 124.024L240.423 124.066C241.507 124.066 242.485 124.407 243.038 124.981C243.357 125.321 243.549 125.704 243.527 126.129L243.485 130.042C246.653 130.531 249.694 131.254 252.501 132.21L257.625 129.234C258.795 128.553 260.645 128.553 261.835 129.234L270.32 134.103C270.979 134.486 271.361 135.039 271.361 135.634C271.361 136.229 270.979 136.782 270.341 137.165L265.641 139.887C267.258 141.524 268.47 143.268 269.278 145.096H276.465C277.549 145.139 278.527 145.479 279.08 146.053C279.399 146.393 279.569 146.776 279.569 147.201L279.484 154.112C279.484 155.26 278.102 156.132 276.358 156.132H269.129C268.321 157.812 267.173 159.449 265.663 160.98L270.405 163.723C271.064 164.106 271.447 164.659 271.447 165.254C271.447 165.85 271.064 166.402 270.405 166.785L261.942 171.676C260.751 172.356 258.922 172.356 257.731 171.676L252.586 168.699C249.63 169.72 246.44 170.485 243.102 170.974L243.059 174.823C243.059 175.971 241.677 176.843 239.934 176.843V176.822ZM215.778 167.466L216.012 167.551C218.968 168.571 222.157 169.358 225.496 169.847L225.963 169.911L225.921 174.738C225.921 174.844 225.985 174.972 226.091 175.099C226.453 175.461 227.154 175.695 227.92 175.695L239.891 175.737C241.124 175.737 241.911 175.184 241.911 174.802L241.954 169.996L242.422 169.932C245.951 169.443 249.311 168.656 252.415 167.572L252.649 167.487L258.242 170.719C259.071 171.208 260.496 171.208 261.346 170.719L269.809 165.828C270.107 165.658 270.298 165.446 270.298 165.254C270.298 165.063 270.128 164.85 269.809 164.68L263.813 161.214L264.344 160.704C266.088 159.024 267.406 157.217 268.236 155.345L268.385 155.005H276.316C277.549 155.026 278.336 154.495 278.336 154.112L278.421 147.201C278.421 147.095 278.357 146.967 278.251 146.84C277.911 146.478 277.188 146.244 276.422 146.244H268.491L268.342 145.883C267.513 143.884 266.152 141.97 264.281 140.206L263.749 139.695L269.724 136.229C270.022 136.059 270.213 135.847 270.192 135.655C270.192 135.464 270.022 135.251 269.703 135.081L261.219 130.19C260.389 129.701 258.965 129.701 258.114 130.19L252.543 133.401L252.309 133.316C249.354 132.296 246.143 131.53 242.783 131.041L242.315 130.977L242.358 126.108C242.358 126.001 242.294 125.874 242.188 125.746C241.826 125.385 241.124 125.151 240.359 125.151L228.388 125.108C227.154 125.108 226.367 125.661 226.367 126.044L226.325 130.935L225.857 130.998C222.391 131.487 219.053 132.274 215.991 133.337L215.757 133.422L210.207 130.233C209.378 129.744 207.953 129.744 207.103 130.233L198.64 135.124C198.342 135.294 198.151 135.506 198.151 135.698C198.151 135.889 198.321 136.102 198.64 136.272L204.593 139.717L204.062 140.227C202.318 141.907 201 143.714 200.171 145.585L200.022 145.926L192.112 145.883C190.878 145.883 190.092 146.436 190.092 146.819L190.007 153.729C190.007 153.836 190.07 153.963 190.177 154.091C190.517 154.452 191.24 154.686 192.005 154.686H199.937L200.086 155.048C200.915 157.025 202.254 158.918 204.104 160.683L204.636 161.193L198.661 164.659C198.363 164.829 198.172 165.042 198.193 165.233C198.193 165.424 198.363 165.637 198.682 165.807L207.166 170.676C208.017 171.166 209.42 171.166 210.271 170.676L215.821 167.466H215.778ZM234.235 161.661C229.408 161.661 224.56 160.597 220.881 158.471C217.203 156.345 215.183 153.495 215.183 150.455C215.183 147.414 217.203 144.543 220.881 142.438C228.239 138.186 240.21 138.186 247.567 142.438C251.246 144.565 253.266 147.414 253.266 150.455C253.266 153.495 251.246 156.366 247.567 158.471C243.889 160.597 239.062 161.661 234.214 161.661H234.235ZM234.235 140.333C229.6 140.333 224.964 141.354 221.434 143.395C218.117 145.309 216.288 147.818 216.288 150.455C216.288 153.091 218.117 155.601 221.434 157.514C228.494 161.597 239.955 161.597 247.015 157.514C250.332 155.601 252.16 153.091 252.16 150.455C252.16 147.818 250.332 145.309 247.015 143.395C243.485 141.354 238.849 140.333 234.214 140.333H234.235Z" fill="#141516"/>
<path d="M241.997 170.804L241.976 186.284L253.267 183.818V168.423L241.997 170.804Z" fill="#141516"/>
<path d="M260.027 171.591V187.347L266.917 183.924L270.659 181.542L270.936 165.828L262.175 170.868L260.027 171.591Z" fill="#141516"/>
<path d="M208.72 171.591V187.347L216.375 183.924V168.082L208.72 171.591Z" fill="#141516"/>
<path d="M231.918 139.844V155.601L224.284 157.047L221.86 158.365L216.715 154.878L215.375 149.732L219.84 143.076L231.918 139.844Z" fill="#141516"/>
<path d="M234.79 139.78V155.409L239.915 156.132V140.099L234.79 139.78Z" fill="#141516"/>
<path d="M270.767 135.89V145.522C270.767 145.522 268.683 146.203 268.024 143.778C267.768 142.843 264.749 139.611 264.749 139.611L270.767 135.89Z" fill="#141516"/>
<path d="M200.255 155.601H199.213V161.299H200.255V155.601Z" fill="#141516"/>
<path d="M265.046 160.81L269.32 155.601V163.468L265.046 160.81Z" fill="#141516"/>
<path d="M125.957 146.162V25.4057C125.957 24.6828 125.362 24.1086 124.66 24.1086H92.4883C91.978 24.1086 91.5527 24.5339 91.5527 25.0443V146.332C91.7654 147.119 91.8504 147.417 92.6372 147.863L105.863 155.497C107.458 156.411 110.265 156.305 112.115 155.242L124.448 148.119C125.405 147.566 125.957 147.013 125.957 146.184V146.162Z" fill="#141516"/>
<path d="M105.863 45.0745L94.7422 38.6528V149.692L108.755 156.581V45.6911C107.671 45.7124 106.629 45.521 105.863 45.0745Z" fill="white"/>
<path d="M108.585 156.986C107.416 156.986 106.289 156.73 105.417 156.241L92.1911 148.608C91.1492 148.012 90.9578 147.459 90.7027 146.545L90.6602 146.29V25.0018C90.6602 24.0024 91.4894 23.1731 92.4888 23.1731H124.661C125.873 23.1731 126.851 24.1512 126.851 25.3633V146.12C126.851 147.523 125.809 148.31 124.895 148.82L112.562 155.944C111.414 156.603 109.968 156.943 108.585 156.943V156.986ZM92.4888 24.9805L92.4463 146.141C92.6164 146.758 92.6164 146.779 93.0842 147.034L106.31 154.668C107.629 155.433 110.074 155.306 111.647 154.413L123.98 147.289C124.959 146.715 125.044 146.396 125.044 146.141V25.3845C125.044 25.1719 124.852 24.9805 124.64 24.9805H92.4676H92.4888Z" fill="#141516"/>
<path d="M105.865 33.4011L92.6391 25.7674C91.0444 24.853 91.2357 23.237 93.0857 22.1738L105.419 15.0505C107.269 13.9873 110.054 13.8597 111.67 14.7953L124.896 22.429C126.491 23.3433 126.3 24.9594 124.45 26.0226L112.117 33.1459C110.267 34.2091 107.481 34.3367 105.865 33.4011Z" fill="white"/>
<path d="M125.065 29.3399C125.065 29.3399 124.958 29.2549 124.873 29.2123L111.647 21.5787C110.052 20.6643 107.246 20.7706 105.396 21.8338L93.0627 28.9572C92.8288 29.0848 92.6162 29.2336 92.4248 29.4037V32.4444C92.4248 32.4444 92.5311 32.5295 92.6162 32.572L105.842 40.2057C107.437 41.12 110.244 41.0137 112.094 39.9505L124.427 32.8272C124.661 32.6996 124.873 32.5507 125.065 32.3806V29.3399Z" fill="#F8A5A5"/>
<path d="M108.564 34.932C107.394 34.932 106.267 34.6769 105.396 34.1878L92.1697 26.5541C91.1915 25.98 90.6387 25.1507 90.6387 24.2151C90.6387 23.1519 91.3616 22.1313 92.6162 21.4083L104.949 14.285C107.076 13.0517 110.201 12.9454 112.094 14.0298L125.32 21.6635C126.298 22.2376 126.851 23.0669 126.851 24.0025C126.851 25.0657 126.128 26.0863 124.873 26.8093L112.54 33.9326C111.392 34.5918 109.946 34.932 108.564 34.932ZM108.947 15.0505C107.884 15.0505 106.735 15.3056 105.863 15.816L93.5305 22.9393C92.7438 23.4071 92.4461 23.8962 92.4461 24.1939C92.4461 24.5553 92.8501 24.853 93.084 24.9806L106.31 32.6143C107.628 33.3798 110.074 33.2522 111.647 32.3591L123.98 25.2358C124.767 24.768 125.065 24.2789 125.065 23.9812C125.065 23.6197 124.661 23.322 124.427 23.1945L111.201 15.5608C110.605 15.2206 109.797 15.0505 108.947 15.0505Z" fill="#141516"/>
<path d="M97.9555 161.025V82.2434C97.9555 81.5204 97.3601 80.9463 96.6584 80.9463H64.4864C63.9761 80.9463 63.5508 81.3716 63.5508 81.8819V161.174C63.7634 161.961 63.8485 162.259 64.6352 162.705L77.8613 170.339C79.456 171.253 82.2628 171.147 84.1128 170.084L96.4457 162.96C97.4026 162.408 97.9555 161.855 97.9555 161.025Z" fill="#141516"/>
<path d="M77.8611 101.934L66.7402 95.512V164.555L80.753 171.445V102.55C79.6686 102.572 78.6266 102.38 77.8611 101.934Z" fill="white"/>
<path d="M80.5835 171.849C79.414 171.849 78.287 171.594 77.4152 171.105L64.1892 163.471C63.1473 162.876 62.9559 162.323 62.7007 161.408L62.6582 161.153V81.8609C62.6582 80.8615 63.4875 80.0322 64.4869 80.0322H96.6589C97.8709 80.0322 98.849 81.0104 98.849 82.2224V161.004C98.849 162.408 97.8071 163.195 96.8928 163.705L84.5598 170.828C83.4116 171.487 81.9656 171.828 80.5835 171.828V171.849ZM64.4869 81.8396L64.4444 161.026C64.6145 161.642 64.6145 161.664 65.0823 161.919L78.3083 169.552C79.6266 170.318 82.072 170.19 83.6455 169.297L95.9784 162.174C96.9566 161.6 97.0416 161.281 97.0416 161.026V82.2437C97.0416 82.031 96.8502 81.8396 96.6376 81.8396H64.4656H64.4869Z" fill="#141516"/>
<path d="M77.8632 90.2604L64.6372 82.6268C63.0424 81.7124 63.2338 80.0964 65.0837 79.0332L77.4167 71.9099C79.2666 70.8467 82.0522 70.7191 83.6682 71.6547L96.8942 79.2884C98.489 80.2027 98.2976 81.8187 96.4477 82.8819L84.1147 90.0053C82.2648 91.0685 79.4792 91.196 77.8632 90.2604Z" fill="white"/>
<path d="M97.0626 86.1993C97.0626 86.1993 96.9563 86.1142 96.8713 86.0717L83.6452 78.438C82.0505 77.5237 79.2437 77.63 77.3937 78.6932L65.0608 85.8166C64.8269 85.9441 64.6142 86.093 64.4229 86.2631V89.3038C64.4229 89.3038 64.5292 89.3888 64.6142 89.4314L77.8402 97.0651C79.435 97.9794 82.2418 97.8731 84.0918 96.8099L96.4247 89.6865C96.6586 89.559 96.8713 89.4101 97.0626 89.24V86.1993Z" fill="#F8A5A5"/>
<path d="M80.562 91.7914C79.3925 91.7914 78.2655 91.5362 77.3937 91.0472L64.1677 83.4135C63.1896 82.8394 62.6367 82.0101 62.6367 81.0745C62.6367 80.0113 63.3597 78.9907 64.6142 78.2677L76.9472 71.1444C79.0736 69.9111 82.1993 69.8047 84.0918 70.8892L97.3178 78.5229C98.2959 79.097 98.8488 79.9263 98.8488 80.8619C98.8488 81.9251 98.1258 82.9457 96.8713 83.6687L84.5383 90.792C83.3901 91.4512 81.9442 91.7914 80.562 91.7914ZM80.9448 71.9098C79.8816 71.9098 78.7333 72.165 77.8615 72.6753L65.5286 79.7987C64.7418 80.2665 64.4441 80.7555 64.4441 81.0532C64.4441 81.4147 64.8481 81.7124 65.082 81.84L78.3081 89.4737C79.6264 90.2392 82.0717 90.1116 83.6453 89.2185L95.9782 82.0952C96.765 81.6274 97.0627 81.1383 97.0627 80.8406C97.0627 80.4791 96.6586 80.1814 96.4247 80.0539L83.1987 72.4202C82.6033 72.08 81.7953 71.9098 80.9448 71.9098Z" fill="#141516"/>
<path d="M68.9291 178.377V133.766C68.9291 133.043 68.3337 132.469 67.632 132.469H35.46C34.9497 132.469 34.5244 132.894 34.5244 133.404V178.526C34.7371 179.313 34.8434 179.61 35.6089 180.057L48.8349 187.691C50.4297 188.605 53.2365 188.499 55.0864 187.435L67.4194 180.312C68.3762 179.759 68.9291 179.206 68.9291 178.377Z" fill="#141516"/>
<path d="M48.8358 153.456L37.7148 147.035V181.907L51.7276 188.797V154.073C50.6432 154.094 49.6013 153.903 48.8358 153.456Z" fill="white"/>
<path d="M51.5571 189.221C50.3876 189.221 49.2607 188.966 48.3888 188.477L35.1628 180.843C34.1209 180.248 33.9295 179.695 33.6744 178.781L33.6318 178.526V133.404C33.6318 132.405 34.4611 131.575 35.4605 131.575H67.6325C68.8445 131.575 69.8227 132.554 69.8227 133.766V178.377C69.8227 179.78 68.7807 180.567 67.8664 181.077L55.5334 188.201C54.3852 188.86 52.9393 189.2 51.5571 189.2V189.221ZM35.4605 133.383L35.418 178.377C35.5881 178.993 35.5881 179.015 36.0559 179.27L49.2819 186.904C50.6003 187.669 53.0456 187.541 54.6191 186.648L66.9521 179.525C67.9302 178.951 68.0152 178.632 68.0152 178.377V133.766C68.0152 133.553 67.8239 133.362 67.6112 133.362H35.4605V133.383Z" fill="#141516"/>
<path d="M48.8368 141.782L35.6108 134.148C34.016 133.234 34.2074 131.618 36.0574 130.555L48.3903 123.432C50.2402 122.368 53.0258 122.241 54.6418 123.176L67.8679 130.81C69.4626 131.724 69.2713 133.34 67.4213 134.404L55.0884 141.527C53.2384 142.59 50.4529 142.718 48.8368 141.782Z" fill="white"/>
<path d="M68.0363 137.721C68.0363 137.721 67.9299 137.636 67.8449 137.593L54.6189 129.96C53.0241 129.045 50.2173 129.152 48.3673 130.215L36.0344 137.338C35.8005 137.466 35.5879 137.615 35.3965 137.785V140.826C35.3965 140.826 35.5028 140.911 35.5879 140.953L48.8139 148.587C50.4087 149.501 53.2155 149.395 55.0654 148.332L67.3984 141.208C67.6323 141.081 67.8449 140.932 68.0363 140.762V137.721Z" fill="#F8A5A5"/>
<path d="M51.5357 143.313C50.3661 143.313 49.2392 143.058 48.3674 142.569L35.1413 134.935C34.1632 134.361 33.6104 133.532 33.6104 132.596C33.6104 131.533 34.3333 130.512 35.5879 129.789L47.9208 122.666C50.0472 121.433 53.173 121.326 55.0654 122.411L68.2915 130.045C69.2696 130.619 69.8224 131.448 69.8224 132.384C69.8224 133.447 69.0995 134.467 67.8449 135.19L55.512 142.314C54.3637 142.973 52.9178 143.313 51.5357 143.313ZM51.9184 123.432C50.8552 123.432 49.707 123.687 48.8352 124.197L36.5022 131.32C35.7155 131.788 35.4178 132.277 35.4178 132.575C35.4178 132.936 35.8218 133.234 36.0557 133.362L49.2817 140.995C50.6001 141.761 53.0454 141.633 54.6189 140.74L66.9518 133.617C67.7386 133.149 68.0363 132.66 68.0363 132.362C68.0363 132.001 67.6323 131.703 67.3984 131.576L54.1724 123.942C53.577 123.602 52.7689 123.432 51.9184 123.432Z" fill="#141516"/>
<path d="M39.393 194.877V177.356C39.393 176.633 38.7976 176.059 38.0959 176.059H5.92388C5.41356 176.059 4.98828 176.484 4.98828 176.994V195.047C5.20092 195.834 5.30724 196.132 6.07273 196.578L19.2988 204.212C20.8935 205.126 23.7003 205.02 25.5503 203.957L37.8832 196.833C38.8401 196.28 39.393 195.728 39.393 194.898V194.877Z" fill="#141516"/>
<path d="M19.2987 197.046L8.17773 190.624V198.407L22.1905 205.296V197.641C21.1061 197.663 20.0641 197.471 19.2987 197.025V197.046Z" fill="white"/>
<path d="M22.021 205.722C20.8515 205.722 19.7245 205.467 18.8527 204.978L5.62669 197.344C4.58477 196.748 4.39339 196.196 4.13823 195.281L4.0957 195.026V176.973C4.0957 175.974 4.92499 175.145 5.92438 175.145H38.0964C39.3084 175.145 40.2865 176.123 40.2865 177.335V194.856C40.2865 196.259 39.2446 197.046 38.3303 197.556L25.9973 204.68C24.8491 205.339 23.4031 205.679 22.021 205.679V205.722ZM5.92438 176.952L5.88185 194.877C6.05196 195.494 6.05196 195.515 6.51977 195.77L19.7458 203.404C21.0641 204.17 23.5095 204.042 25.083 203.149L37.4159 196.026C38.3941 195.451 38.4791 195.132 38.4791 194.877V177.356C38.4791 177.143 38.2877 176.952 38.0751 176.952H5.92438Z" fill="#141516"/>
<path d="M19.2978 185.373L6.07175 177.739C4.47697 176.825 4.66835 175.209 6.51829 174.146L18.8512 167.022C20.7012 165.959 23.4867 165.832 25.1028 166.767L38.3288 174.401C39.9236 175.315 39.7322 176.931 37.8823 177.994L25.5493 185.118C23.6994 186.181 20.9138 186.309 19.2978 185.373Z" fill="white"/>
<path d="M38.5226 181.29C38.5226 181.29 38.4163 181.205 38.3312 181.163L25.1052 173.529C23.5104 172.615 20.7036 172.721 18.8537 173.784L6.52072 180.907C6.28682 181.035 6.07419 181.184 5.88281 181.354V184.395C5.88281 184.395 5.98913 184.48 6.07419 184.522L19.3002 192.156C20.895 193.07 23.7018 192.964 25.5517 191.901L37.8847 184.777C38.1186 184.65 38.3312 184.501 38.5226 184.331V181.29Z" fill="#F8A5A5"/>
<path d="M22.021 186.882C20.8515 186.882 19.7245 186.627 18.8527 186.138L5.62669 178.504C4.64856 177.93 4.0957 177.101 4.0957 176.165C4.0957 175.102 4.81867 174.081 6.07323 173.359L18.4062 166.235C20.5325 165.002 23.6583 164.896 25.5508 165.98L38.7768 173.614C39.7549 174.188 40.3078 175.017 40.3078 175.953C40.3078 177.016 39.5848 178.037 38.3303 178.759L25.9973 185.883C24.8491 186.542 23.4031 186.882 22.021 186.882ZM22.4038 167.001C21.3406 167.001 20.1923 167.256 19.3205 167.766L6.98757 174.89C6.20081 175.357 5.90312 175.846 5.90312 176.144C5.90312 176.506 6.30713 176.803 6.54103 176.931L19.7671 184.565C21.0854 185.33 23.5307 185.202 25.1042 184.309L37.4372 177.186C38.2239 176.718 38.5216 176.229 38.5216 175.931C38.5216 175.57 38.1176 175.272 37.8837 175.145L24.6577 167.511C24.0623 167.171 23.2543 167.001 22.4038 167.001Z" fill="#141516"/>
<path d="M210.266 236.298L210.479 225.304L194.68 223.795L138.395 191.304C132.909 188.135 124.616 187.795 119.874 190.538L81.068 212.95L69.7345 211.866L69.5218 222.072C69.3304 224.284 70.8614 226.644 74.0297 228.473L141.372 267.364C146.858 270.532 155.151 270.872 159.893 268.129L207.077 240.891C209.203 239.657 210.245 238.02 210.266 236.319V236.298Z" fill="white"/>
<path d="M195 222.795L138.906 190.411C133.144 187.093 124.383 186.732 119.343 189.645L80.8136 211.887L68.6933 210.739L68.4594 221.987C68.2255 224.709 70.0542 227.409 73.4777 229.366L140.82 268.257C143.946 270.064 147.986 271 151.813 271C155.024 271 158.086 270.362 160.382 269.022L207.567 241.784C209.927 240.423 211.245 238.488 211.288 236.319L211.522 224.369L195 222.795ZM144.498 267.64V258.454L139.012 255.371V264.812L74.5196 227.579C73.9455 227.239 73.4139 226.878 72.9461 226.495V217.118L70.6709 215.225L70.7134 212.993L81.2814 213.992L120.385 191.41C124.83 188.837 132.676 189.177 137.885 192.175L194.17 224.666L194.362 224.773L209.438 226.219L209.395 228.345L161.403 258.05L155.045 259.433H151.069V268.895C148.836 268.81 146.582 268.363 144.52 267.619L144.498 267.64Z" fill="#141516"/>
<path d="M207.29 230.387L160.105 257.626C155.364 260.369 147.071 260.028 141.585 256.86L74.2426 217.969C68.7566 214.8 68.1612 210.016 72.903 207.273L120.087 180.034C124.829 177.291 133.122 177.631 138.608 180.8L205.95 219.691C211.436 222.859 212.031 227.644 207.29 230.387Z" fill="#F14C4C"/>
<path d="M152.068 260.474C148.241 260.474 144.201 259.539 141.075 257.731L73.7326 218.84C70.5218 216.99 68.6719 214.46 68.6719 211.908C68.6719 209.718 69.9902 207.762 72.393 206.379L119.577 179.141C124.595 176.249 133.377 176.589 139.14 179.906L206.482 218.797C209.693 220.647 211.543 223.178 211.543 225.729C211.543 227.92 210.224 229.876 207.822 231.258L160.637 258.497C158.341 259.815 155.279 260.474 152.089 260.474H152.068ZM128.125 179.204C125.297 179.204 122.597 179.778 120.598 180.927L73.4137 208.166C71.6488 209.186 70.7132 210.483 70.7132 211.908C70.7132 213.715 72.1804 215.587 74.732 217.054L142.074 255.945C147.263 258.943 155.109 259.283 159.574 256.711L206.758 229.472C208.523 228.451 209.459 227.154 209.459 225.729C209.459 223.922 207.992 222.051 205.44 220.562L138.098 181.671C135.249 180.034 131.591 179.183 128.125 179.183V179.204Z" fill="#141516"/>
<path d="M139.5 194.897L94.6336 220.796C92.4859 222.029 88.7223 221.88 86.2344 220.456L82.5983 218.351C80.1105 216.926 79.834 214.736 82.0029 213.503L126.869 187.603C129.017 186.37 132.781 186.519 135.269 187.944L138.905 190.049C141.392 191.473 141.669 193.664 139.5 194.897Z" fill="white"/>
<path d="M90.8918 218.967C89.0631 218.967 87.1494 218.521 85.6397 217.649L82.0036 215.565C80.3663 214.63 79.4307 213.29 79.4307 211.929C79.4307 210.738 80.1324 209.654 81.4082 208.931L126.275 183.032C128.741 181.607 132.888 181.756 135.694 183.372L139.331 185.477C140.968 186.413 141.903 187.752 141.903 189.113C141.903 190.304 141.202 191.388 139.926 192.111L95.0595 218.011C93.9325 218.67 92.444 218.989 90.8918 218.989V218.967ZM130.421 184.095C129.23 184.095 128.125 184.329 127.295 184.797L82.4288 210.696C82.0886 210.908 81.4932 211.334 81.4932 211.908C81.4932 212.482 82.0674 213.205 83.0242 213.758L86.6603 215.842C88.8292 217.096 92.1889 217.245 94.0176 216.182L138.884 190.283C139.224 190.07 139.82 189.645 139.82 189.071C139.82 188.496 139.245 187.774 138.289 187.221L134.653 185.116C133.462 184.414 131.888 184.074 130.4 184.074L130.421 184.095Z" fill="#141516"/>
<path d="M114.092 227.834L108.712 230.939C107.521 231.619 105.437 231.534 104.077 230.748L99.8663 228.302C98.4842 227.515 98.3353 226.303 99.5261 225.623L104.906 222.518C106.097 221.838 108.18 221.923 109.541 222.71L113.752 225.155C115.134 225.942 115.282 227.154 114.092 227.834Z" fill="white"/>
<path d="M106.607 228.728C105.522 228.728 104.374 228.451 103.46 227.941L99.2494 225.517C98.2075 224.921 97.5908 224.028 97.5908 223.114C97.5908 222.285 98.0799 221.54 98.9092 221.051L104.289 217.947C105.777 217.075 108.286 217.16 109.966 218.138L114.177 220.584C115.218 221.179 115.835 222.072 115.835 222.986C115.835 223.816 115.346 224.56 114.517 225.049L109.137 228.153C108.457 228.557 107.542 228.749 106.607 228.749V228.728ZM106.819 219.393C106.245 219.393 105.714 219.499 105.331 219.712L99.9511 222.816C99.7385 222.944 99.6534 223.05 99.6534 223.093C99.6534 223.178 99.8022 223.454 100.27 223.709L104.48 226.133C105.522 226.729 107.223 226.835 108.095 226.325L113.475 223.22C113.687 223.093 113.773 222.986 113.773 222.944C113.773 222.859 113.624 222.582 113.156 222.327L108.946 219.882C108.35 219.542 107.563 219.372 106.819 219.372V219.393Z" fill="#141516"/>
<path d="M128.424 219.563L123.044 222.667C121.853 223.348 119.769 223.263 118.409 222.476L114.198 220.031C112.816 219.244 112.667 218.032 113.858 217.352L119.238 214.247C120.429 213.567 122.512 213.652 123.873 214.438L128.084 216.884C129.466 217.67 129.615 218.882 128.424 219.563Z" fill="white"/>
<path d="M120.938 220.456C119.853 220.456 118.705 220.2 117.791 219.669L113.58 217.224C112.539 216.607 111.922 215.735 111.922 214.821C111.922 213.991 112.411 213.247 113.24 212.758L118.62 209.654C120.108 208.782 122.618 208.867 124.297 209.845L128.508 212.269C129.549 212.864 130.166 213.758 130.166 214.672C130.166 215.501 129.677 216.245 128.848 216.734L123.468 219.839C122.766 220.243 121.873 220.434 120.938 220.434V220.456ZM121.15 211.121C120.576 211.121 120.045 211.227 119.662 211.44L114.282 214.544C114.07 214.672 113.984 214.778 113.984 214.821C113.984 214.906 114.133 215.182 114.601 215.437L118.811 217.883C119.853 218.478 121.554 218.584 122.426 218.074L127.806 214.97C128.019 214.842 128.104 214.736 128.104 214.693C128.104 214.608 127.955 214.332 127.487 214.077L123.277 211.631C122.681 211.291 121.895 211.121 121.15 211.121Z" fill="#141516"/>
<path d="M142.755 211.291L137.375 214.396C136.184 215.076 134.1 214.991 132.74 214.204L128.529 211.759C127.147 210.972 126.998 209.76 128.189 209.08L133.569 205.975C134.76 205.295 136.844 205.38 138.204 206.167L142.415 208.612C143.797 209.399 143.946 210.611 142.755 211.291Z" fill="white"/>
<path d="M135.248 212.184C134.164 212.184 133.016 211.929 132.123 211.398L127.912 208.952C126.871 208.357 126.254 207.464 126.254 206.55C126.254 205.72 126.743 204.976 127.572 204.487L132.952 201.382C134.462 200.511 136.95 200.596 138.629 201.574L142.84 203.998C143.882 204.593 144.498 205.486 144.498 206.401C144.498 207.23 144.009 207.974 143.18 208.463L137.8 211.568C137.098 211.972 136.205 212.163 135.27 212.163L135.248 212.184ZM135.461 202.85C134.887 202.85 134.355 202.956 133.973 203.169L128.593 206.273C128.38 206.401 128.295 206.507 128.295 206.55C128.295 206.635 128.444 206.911 128.912 207.166L133.122 209.59C134.164 210.186 135.865 210.292 136.737 209.782L142.117 206.677C142.329 206.55 142.414 206.443 142.414 206.401C142.414 206.316 142.265 206.039 141.798 205.784L137.587 203.36C136.992 203.02 136.205 202.85 135.461 202.85Z" fill="#141516"/>
<path d="M157.084 203.02L151.704 206.124C150.513 206.805 148.43 206.72 147.069 205.933L142.858 203.488C141.476 202.701 141.328 201.489 142.518 200.809L147.898 197.704C149.089 197.024 151.173 197.109 152.533 197.895L156.744 200.341C158.126 201.127 158.275 202.34 157.084 203.02Z" fill="white"/>
<path d="M149.578 203.913C148.494 203.913 147.346 203.637 146.431 203.126L142.221 200.681C141.179 200.086 140.562 199.193 140.562 198.278C140.562 197.449 141.052 196.705 141.881 196.216L147.261 193.111C148.749 192.239 151.258 192.324 152.938 193.303L157.148 195.727C158.19 196.322 158.807 197.215 158.807 198.129C158.807 198.959 158.318 199.703 157.488 200.192L152.109 203.297C151.407 203.701 150.514 203.892 149.578 203.892V203.913ZM149.791 194.578C149.217 194.578 148.685 194.685 148.302 194.897L142.923 198.002C142.71 198.129 142.625 198.236 142.625 198.278C142.625 198.363 142.774 198.64 143.242 198.895L147.452 201.319C148.494 201.914 150.195 202.021 151.067 201.51L156.446 198.406C156.659 198.278 156.744 198.172 156.744 198.129C156.744 198.044 156.595 197.768 156.128 197.513L151.917 195.089C151.322 194.748 150.535 194.578 149.791 194.578Z" fill="#141516"/>
<path d="M128.04 235.894L122.66 238.998C121.469 239.679 119.386 239.594 118.025 238.807L113.815 236.362C112.432 235.575 112.284 234.363 113.474 233.682L118.854 230.578C120.045 229.897 122.129 229.982 123.49 230.769L127.7 233.214C129.082 234.001 129.231 235.213 128.04 235.894Z" fill="white"/>
<path d="M120.555 236.787C119.471 236.787 118.322 236.532 117.429 236L113.219 233.555C112.177 232.959 111.561 232.066 111.561 231.152C111.561 230.323 112.05 229.578 112.879 229.089L118.259 225.985C119.747 225.113 122.256 225.198 123.936 226.176L128.146 228.6C129.188 229.217 129.805 230.089 129.805 231.003C129.805 231.832 129.316 232.576 128.486 233.066L123.107 236.17C122.405 236.574 121.512 236.765 120.576 236.765L120.555 236.787ZM120.768 227.452C120.194 227.452 119.662 227.558 119.279 227.771L113.9 230.875C113.687 231.003 113.602 231.109 113.602 231.152C113.602 231.237 113.751 231.513 114.219 231.768L118.429 234.214C119.471 234.809 121.172 234.915 122.044 234.405L127.423 231.301C127.636 231.173 127.721 231.067 127.721 231.024C127.721 230.939 127.572 230.663 127.104 230.408L122.894 227.984C122.299 227.643 121.512 227.473 120.768 227.473V227.452Z" fill="#141516"/>
<path d="M142.374 227.621L136.994 230.726C135.803 231.406 133.72 231.321 132.359 230.534L128.149 228.089C126.766 227.302 126.618 226.09 127.808 225.41L133.188 222.305C134.379 221.625 136.463 221.71 137.824 222.497L142.034 224.942C143.416 225.729 143.565 226.941 142.374 227.621Z" fill="white"/>
<path d="M134.889 228.514C133.804 228.514 132.656 228.259 131.742 227.728L127.532 225.304C126.49 224.708 125.873 223.815 125.873 222.901C125.873 222.072 126.362 221.327 127.191 220.838L132.571 217.734C134.06 216.862 136.569 216.947 138.249 217.925L142.459 220.349C143.501 220.945 144.117 221.838 144.117 222.752C144.117 223.581 143.628 224.326 142.799 224.815L137.419 227.919C136.718 228.323 135.824 228.514 134.889 228.514ZM135.101 219.18C134.527 219.18 133.996 219.286 133.613 219.499L128.233 222.603C128.021 222.731 127.936 222.837 127.936 222.88C127.936 222.965 128.084 223.241 128.552 223.496L132.762 225.92C133.804 226.537 135.506 226.622 136.377 226.112L141.757 223.007C141.97 222.88 142.055 222.773 142.055 222.731C142.055 222.646 141.906 222.369 141.438 222.114L137.228 219.69C136.632 219.35 135.846 219.18 135.101 219.18Z" fill="#141516"/>
<path d="M156.701 219.35L151.321 222.455C150.131 223.135 148.047 223.05 146.686 222.263L142.476 219.818C141.094 219.031 140.945 217.819 142.135 217.139L147.515 214.034C148.706 213.354 150.79 213.439 152.151 214.226L156.361 216.671C157.743 217.458 157.892 218.67 156.701 219.35Z" fill="white"/>
<path d="M149.217 220.243C148.133 220.243 146.984 219.967 146.07 219.457L141.86 217.033C140.818 216.437 140.201 215.544 140.201 214.63C140.201 213.801 140.69 213.056 141.52 212.567L146.899 209.463C148.388 208.591 150.897 208.676 152.577 209.654L156.787 212.078C157.829 212.695 158.445 213.567 158.445 214.481C158.445 215.31 157.956 216.055 157.127 216.544L151.747 219.648C151.046 220.052 150.153 220.243 149.217 220.243ZM149.43 210.909C148.856 210.909 148.324 211.015 147.941 211.228L142.561 214.332C142.349 214.46 142.264 214.566 142.264 214.609C142.264 214.694 142.413 214.97 142.88 215.225L147.091 217.649C148.133 218.245 149.834 218.351 150.705 217.841L156.085 214.736C156.298 214.609 156.383 214.502 156.383 214.46C156.383 214.375 156.234 214.098 155.766 213.843L151.556 211.419C150.961 211.079 150.174 210.909 149.43 210.909Z" fill="#141516"/>
<path d="M171.035 211.079L165.655 214.183C164.465 214.864 162.381 214.779 161.02 213.992L156.81 211.547C155.428 210.76 155.279 209.548 156.469 208.867L161.849 205.763C163.04 205.082 165.124 205.167 166.485 205.954L170.695 208.4C172.077 209.186 172.226 210.398 171.035 211.079Z" fill="white"/>
<path d="M163.529 211.971C162.445 211.971 161.297 211.695 160.382 211.185L156.172 208.761C155.13 208.165 154.514 207.272 154.514 206.358C154.514 205.529 155.003 204.784 155.832 204.295L161.212 201.191C162.7 200.319 165.209 200.404 166.889 201.382L171.099 203.827C172.141 204.423 172.758 205.316 172.758 206.23C172.758 207.06 172.269 207.804 171.44 208.293L166.06 211.397C165.358 211.801 164.465 211.993 163.529 211.993V211.971ZM163.742 202.637C163.168 202.637 162.636 202.743 162.254 202.956L156.874 206.06C156.661 206.188 156.576 206.294 156.576 206.337C156.576 206.422 156.725 206.698 157.193 206.953L161.403 209.377C162.445 209.973 164.146 210.079 165.018 209.569L170.398 206.464C170.61 206.337 170.695 206.23 170.695 206.188C170.695 206.103 170.547 205.826 170.079 205.571L165.868 203.126C165.273 202.786 164.486 202.615 163.742 202.615V202.637Z" fill="#141516"/>
<path d="M142.119 244.016L136.739 247.12C135.549 247.801 133.465 247.716 132.104 246.929L127.894 244.484C126.512 243.697 126.363 242.485 127.553 241.804L132.933 238.7C134.124 238.019 136.208 238.104 137.569 238.891L141.779 241.337C143.161 242.123 143.31 243.335 142.119 244.016Z" fill="white"/>
<path d="M134.613 244.909C133.528 244.909 132.38 244.654 131.487 244.122L127.277 241.677C126.235 241.082 125.618 240.188 125.618 239.274C125.618 238.445 126.107 237.701 126.937 237.212L132.316 234.107C133.805 233.235 136.314 233.32 137.994 234.298L142.204 236.744C143.246 237.339 143.862 238.232 143.862 239.147C143.862 239.976 143.373 240.72 142.544 241.209L137.164 244.314C136.463 244.718 135.57 244.909 134.634 244.909H134.613ZM134.825 235.574C134.251 235.574 133.72 235.681 133.337 235.893L127.957 238.998C127.745 239.125 127.659 239.232 127.659 239.274C127.659 239.359 127.808 239.636 128.276 239.891L132.486 242.336C133.528 242.931 135.229 243.038 136.101 242.527L141.481 239.423C141.694 239.295 141.779 239.189 141.779 239.147C141.779 239.061 141.63 238.785 141.162 238.53L136.952 236.106C136.356 235.766 135.57 235.596 134.825 235.596V235.574Z" fill="#141516"/>
<path d="M156.446 235.745L151.067 238.849C149.876 239.53 147.792 239.444 146.431 238.658L142.221 236.212C140.839 235.426 140.69 234.214 141.881 233.533L147.26 230.429C148.451 229.748 150.535 229.833 151.896 230.62L156.106 233.065C157.488 233.852 157.637 235.064 156.446 235.745Z" fill="white"/>
<path d="M148.941 236.637C147.856 236.637 146.708 236.382 145.794 235.851L141.583 233.427C140.541 232.831 139.925 231.938 139.925 231.024C139.925 230.195 140.414 229.45 141.243 228.961L146.623 225.857C148.111 224.985 150.599 225.07 152.3 226.048L156.51 228.493C157.552 229.089 158.169 229.982 158.169 230.896C158.169 231.726 157.68 232.47 156.851 232.959L151.471 236.063C150.769 236.467 149.876 236.659 148.941 236.659V236.637ZM149.153 227.303C148.579 227.303 148.048 227.409 147.665 227.622L142.285 230.726C142.072 230.854 141.987 230.96 141.987 231.003C141.987 231.088 142.136 231.364 142.604 231.619L146.814 234.065C147.856 234.681 149.557 234.766 150.429 234.256L155.809 231.151C156.021 231.024 156.106 230.918 156.106 230.875C156.106 230.79 155.958 230.514 155.49 230.258L151.28 227.834C150.684 227.494 149.897 227.324 149.153 227.324V227.303Z" fill="#141516"/>
<path d="M170.759 227.473L165.379 230.577C164.188 231.258 162.104 231.173 160.744 230.386L156.533 227.941C155.151 227.154 155.002 225.942 156.193 225.261L161.573 222.157C162.764 221.476 164.847 221.562 166.208 222.348L170.418 224.794C171.801 225.58 171.949 226.792 170.759 227.473Z" fill="white"/>
<path d="M163.274 228.366C162.189 228.366 161.041 228.09 160.127 227.579L155.916 225.155C154.874 224.56 154.258 223.667 154.258 222.752C154.258 221.923 154.747 221.179 155.576 220.69L160.956 217.585C162.444 216.714 164.953 216.799 166.633 217.777L170.844 220.201C171.885 220.796 172.502 221.689 172.502 222.604C172.502 223.433 172.013 224.177 171.184 224.666L165.804 227.771C165.102 228.175 164.209 228.366 163.274 228.366ZM163.486 219.031C162.912 219.031 162.381 219.138 161.998 219.35L156.618 222.455C156.405 222.582 156.32 222.689 156.32 222.731C156.32 222.816 156.469 223.093 156.937 223.348L161.147 225.793C162.189 226.41 163.89 226.495 164.762 225.984L170.142 222.88C170.354 222.752 170.439 222.646 170.439 222.604C170.439 222.518 170.291 222.242 169.823 221.987L165.613 219.542C165.017 219.201 164.23 219.031 163.486 219.031Z" fill="#141516"/>
<path d="M185.09 219.201L179.71 222.306C178.519 222.986 176.435 222.901 175.075 222.114L170.864 219.669C169.482 218.882 169.333 217.67 170.524 216.99L175.904 213.885C177.095 213.205 179.178 213.29 180.539 214.077L184.75 216.522C186.132 217.309 186.281 218.521 185.09 219.201Z" fill="white"/>
<path d="M177.605 220.095C176.52 220.095 175.372 219.818 174.458 219.308L170.247 216.884C169.206 216.288 168.589 215.395 168.589 214.481C168.589 213.652 169.078 212.907 169.907 212.418L175.287 209.314C176.775 208.442 179.285 208.527 180.964 209.505L185.175 211.951C186.216 212.546 186.833 213.439 186.833 214.353C186.833 215.183 186.344 215.927 185.515 216.416L180.135 219.52C179.433 219.924 178.54 220.116 177.605 220.116V220.095ZM177.817 210.76C177.243 210.76 176.712 210.866 176.329 211.079L170.949 214.183C170.737 214.311 170.651 214.417 170.651 214.46C170.651 214.545 170.8 214.821 171.268 215.076L175.478 217.522C176.52 218.117 178.221 218.223 179.093 217.713L184.473 214.608C184.685 214.481 184.749 214.375 184.749 214.332C184.749 214.247 184.6 213.971 184.133 213.715L179.922 211.27C179.327 210.93 178.54 210.76 177.796 210.76H177.817Z" fill="#141516"/>
<path d="M156.065 252.053L150.686 255.158C149.495 255.838 147.411 255.753 146.05 254.967L141.84 252.521C140.458 251.734 140.309 250.522 141.5 249.842L146.879 246.737C148.07 246.057 150.154 246.142 151.515 246.929L155.725 249.374C157.107 250.161 157.256 251.373 156.065 252.053Z" fill="white"/>
<path d="M148.56 252.947C147.475 252.947 146.327 252.691 145.413 252.16L141.203 249.736C140.161 249.14 139.544 248.247 139.544 247.333C139.544 246.504 140.033 245.759 140.862 245.27L146.242 242.166C147.73 241.294 150.24 241.379 151.919 242.357L156.13 244.781C157.172 245.398 157.788 246.27 157.788 247.184C157.788 248.013 157.299 248.758 156.47 249.247L151.09 252.351C150.388 252.755 149.495 252.947 148.56 252.947ZM148.772 243.612C148.198 243.612 147.667 243.718 147.284 243.931L141.904 247.035C141.692 247.163 141.607 247.269 141.607 247.312C141.607 247.397 141.755 247.673 142.223 247.928L146.433 250.374C147.475 250.969 149.176 251.075 150.048 250.565L155.428 247.461C155.641 247.333 155.704 247.227 155.704 247.184C155.704 247.099 155.556 246.823 155.088 246.567L150.878 244.122C150.282 243.782 149.495 243.612 148.751 243.612H148.772Z" fill="#141516"/>
<path d="M170.398 243.782L165.019 246.887C163.828 247.567 161.744 247.482 160.383 246.696L156.173 244.25C154.791 243.463 154.642 242.251 155.833 241.571L161.212 238.466C162.403 237.786 164.487 237.871 165.848 238.658L170.058 241.103C171.44 241.89 171.589 243.102 170.398 243.782Z" fill="white"/>
<path d="M162.893 244.676C161.808 244.676 160.66 244.399 159.746 243.889L155.536 241.444C154.494 240.848 153.877 239.955 153.877 239.041C153.877 238.211 154.366 237.467 155.195 236.978L160.575 233.874C162.085 233.002 164.573 233.087 166.252 234.065L170.463 236.489C171.505 237.084 172.121 237.978 172.121 238.892C172.121 239.721 171.632 240.465 170.803 240.954L165.423 244.059C164.721 244.463 163.828 244.654 162.893 244.654V244.676ZM163.105 235.341C162.531 235.341 162 235.447 161.617 235.66L156.237 238.764C156.025 238.892 155.961 238.998 155.961 239.041C155.961 239.126 156.11 239.402 156.577 239.657L160.788 242.081C161.83 242.698 163.531 242.783 164.402 242.273L169.782 239.168C169.995 239.041 170.08 238.934 170.08 238.892C170.08 238.807 169.931 238.53 169.463 238.275L165.253 235.851C164.658 235.511 163.871 235.341 163.127 235.341H163.105Z" fill="#141516"/>
<path d="M184.708 235.511L179.328 238.616C178.137 239.296 176.054 239.211 174.693 238.424L170.483 235.979C169.1 235.192 168.952 233.98 170.142 233.3L175.522 230.195C176.713 229.515 178.797 229.6 180.158 230.387L184.368 232.832C185.75 233.619 185.899 234.831 184.708 235.511Z" fill="white"/>
<path d="M177.223 236.404C176.138 236.404 174.99 236.128 174.076 235.618L169.866 233.194C168.824 232.598 168.207 231.705 168.207 230.791C168.207 229.961 168.696 229.217 169.525 228.728L174.905 225.624C176.394 224.752 178.903 224.837 180.583 225.815L184.793 228.26C185.835 228.856 186.451 229.749 186.451 230.663C186.451 231.492 185.962 232.237 185.133 232.726L179.753 235.83C179.052 236.234 178.158 236.426 177.223 236.426V236.404ZM177.435 227.07C176.861 227.07 176.33 227.176 175.947 227.389L170.567 230.493C170.355 230.621 170.27 230.727 170.27 230.769C170.27 230.855 170.418 231.131 170.886 231.386L175.096 233.81C176.138 234.406 177.839 234.512 178.711 234.002L184.091 230.897C184.304 230.769 184.389 230.663 184.389 230.621C184.389 230.536 184.24 230.259 183.772 230.004L179.562 227.559C178.966 227.218 178.18 227.048 177.435 227.048V227.07Z" fill="#141516"/>
<path d="M199.04 227.239L193.66 230.344C192.469 231.024 190.386 230.939 189.025 230.152L184.815 227.707C183.432 226.92 183.284 225.708 184.474 225.028L189.854 221.923C191.045 221.243 193.129 221.328 194.49 222.115L198.7 224.56C200.082 225.347 200.231 226.559 199.04 227.239Z" fill="white"/>
<path d="M191.555 228.154C190.47 228.154 189.322 227.877 188.408 227.367L184.198 224.922C183.156 224.326 182.539 223.433 182.539 222.519C182.539 221.689 183.028 220.945 183.857 220.456L189.237 217.352C190.726 216.48 193.235 216.565 194.915 217.543L199.125 219.988C200.167 220.584 200.783 221.477 200.783 222.391C200.783 223.22 200.294 223.965 199.465 224.454L194.085 227.558C193.384 227.962 192.49 228.154 191.555 228.154ZM191.768 218.819C191.193 218.819 190.662 218.925 190.279 219.138L184.899 222.242C184.687 222.37 184.602 222.476 184.602 222.519C184.602 222.604 184.75 222.88 185.218 223.135L189.428 225.581C190.47 226.197 192.172 226.282 193.043 225.772L198.423 222.668C198.636 222.54 198.721 222.434 198.721 222.391C198.721 222.306 198.572 222.03 198.104 221.775L193.894 219.35C193.298 219.01 192.512 218.84 191.768 218.84V218.819Z" fill="#141516"/>
</svg>
