<svg width="284" height="285" viewBox="0 0 284 285" fill="none" xmlns="http://www.w3.org/2000/svg">
<path d="M195.351 136.117V119.501L187.64 119.727C185.059 117.082 181.93 114.565 178.058 112.307C154.7 98.5305 116.63 98.1756 93.0459 111.532C89.1422 113.726 85.9481 116.178 83.3349 118.791L75.366 118.727L75.2047 134.729C74.5594 144.021 80.3667 153.442 92.562 160.636C115.92 174.412 153.99 174.767 177.574 161.411C189.931 154.442 195.803 145.44 195.319 136.149L195.351 136.117Z" fill="white"/>
<path d="M188.252 118.147C185.574 115.469 182.38 113.049 178.831 110.952C155.085 96.9499 116.241 96.595 92.2699 110.145C88.6565 112.178 85.4302 114.565 82.6879 117.179L73.8156 117.082L73.6543 134.536C72.9445 144.699 79.5584 154.7 91.786 161.895C115.531 175.897 154.376 176.252 178.347 162.701C184.541 159.217 189.284 155.12 192.413 150.635C195.575 146.118 197.124 141.214 196.898 136.117V117.856L188.252 118.114V118.147ZM76.7515 134.665L76.8806 120.211L83.9461 120.276L84.3978 119.824C87.0434 117.211 90.2051 114.856 93.7863 112.823C116.919 99.7568 154.376 100.079 177.25 113.597C177.798 113.92 178.315 114.243 178.831 114.598L140.406 138.795L138.244 169.509C131.727 169.67 125.178 169.186 118.854 168.121L120.242 152.7L107.885 149.893L106.498 165.057C101.787 163.508 97.3352 161.572 93.3346 159.217C82.1394 152.635 76.1063 143.699 76.7193 134.633L76.7515 134.665Z" fill="#141516"/>
<path d="M178.219 95.0774C201.577 108.854 201.383 130.824 177.767 144.181C154.151 157.506 116.081 157.151 92.7547 143.407C69.3965 129.631 69.5901 107.66 93.2064 94.3031C116.823 80.9786 154.893 81.3335 178.219 95.0774Z" fill="white"/>
<path d="M192.545 133.471C189.384 137.955 184.673 142.052 178.543 145.537C154.54 159.087 115.728 158.732 91.9823 144.73C80.2064 137.762 73.7539 128.534 73.8507 118.662C73.9475 108.822 80.5613 99.6915 92.4663 92.9486C116.47 79.3982 155.282 79.7531 179.027 93.7552C190.803 100.692 197.256 109.951 197.159 119.823C197.127 124.598 195.513 129.212 192.545 133.471ZM80.9807 106.757C78.3352 110.5 76.9479 114.532 76.9156 118.662C76.8189 127.373 82.7229 135.664 93.531 142.02C116.405 155.506 153.862 155.861 176.995 142.794C187.899 136.632 193.965 128.438 194.062 119.759C194.158 111.048 188.254 102.756 177.446 96.4007C154.54 82.9149 117.115 82.56 93.9826 95.6264C88.2721 98.8527 83.8844 102.627 80.9807 106.757Z" fill="#141516"/>
<path d="M170.635 102.853C187.282 112.661 187.153 128.341 170.312 137.858C153.471 147.376 126.338 147.118 109.69 137.31C93.0429 127.502 93.172 111.822 110.013 102.305C126.854 92.787 153.987 93.0452 170.635 102.853Z" fill="#C7D3FF"/>
<path d="M176.766 126.954C174.476 130.212 171.056 133.181 166.636 135.665C149.408 145.408 121.533 145.15 104.466 135.084C95.916 130.051 91.2379 123.308 91.3024 116.114C91.3669 108.919 96.1741 102.273 104.821 97.4012C122.049 87.6579 149.924 87.916 166.991 97.982C175.54 103.015 180.219 109.758 180.154 116.952C180.154 120.469 178.96 123.824 176.799 126.954H176.766ZM97.2388 107.919C95.3998 110.532 94.4319 113.307 94.4319 116.178C94.3674 122.211 98.497 127.986 106.079 132.439C122.275 141.988 148.762 142.246 165.152 132.987C172.798 128.664 177.025 122.953 177.089 116.92C177.154 110.887 173.024 105.112 165.442 100.66C149.246 91.11 122.759 90.8519 106.369 100.111C102.369 102.37 99.2713 105.048 97.271 107.919H97.2388Z" fill="#141516"/>
<path d="M153.832 104.629C163.608 110.404 163.511 119.598 153.639 125.18C143.766 130.761 127.828 130.6 118.053 124.857C108.277 119.082 108.374 109.887 118.246 104.306C128.119 98.7245 144.057 98.8858 153.832 104.629Z" fill="white"/>
<path d="M160.573 121.211C159.186 123.212 157.089 125.018 154.411 126.535C144.119 132.342 127.472 132.181 117.277 126.18C112.05 123.115 109.211 118.953 109.243 114.501C109.276 110.048 112.212 105.951 117.503 102.951C127.795 97.1433 144.442 97.2724 154.637 103.305C159.864 106.37 162.703 110.532 162.671 114.985C162.671 117.178 161.928 119.276 160.573 121.211ZM113.889 110.048C112.889 111.468 112.373 112.984 112.341 114.533C112.341 117.824 114.631 121.018 118.858 123.534C128.182 129.051 143.474 129.18 152.895 123.857C157.186 121.437 159.541 118.275 159.573 114.985C159.573 111.694 157.283 108.468 153.056 105.983C143.732 100.466 128.44 100.337 119.019 105.661C116.761 106.951 115.018 108.435 113.889 110.048Z" fill="#141516"/>
<path d="M147.378 113.821C150.927 115.918 150.894 119.241 147.313 121.241C143.732 123.242 137.989 123.209 134.44 121.112C130.892 119.015 130.924 115.692 134.505 113.692C138.086 111.659 143.829 111.724 147.378 113.821Z" fill="#FABCBC"/>
<path d="M146.182 116.855C145.601 117.694 144.73 118.436 143.633 119.081C139.568 121.372 133.244 121.307 129.211 118.952C127.018 117.661 125.792 115.855 125.824 113.854C125.824 111.886 127.082 110.08 129.308 108.821C133.373 106.531 139.697 106.595 143.73 108.951C145.924 110.241 147.15 112.048 147.117 114.048C147.117 115.048 146.795 115.984 146.182 116.855ZM129.276 112.822C129.018 113.177 128.889 113.532 128.889 113.887C128.889 114.693 129.566 115.564 130.76 116.274C133.825 118.081 138.987 118.113 142.084 116.371C143.31 115.693 143.988 114.822 143.988 114.016C143.988 113.209 143.31 112.338 142.117 111.628C139.052 109.822 133.89 109.789 130.792 111.532C130.115 111.919 129.599 112.37 129.244 112.822H129.276Z" fill="#141516"/>
<path d="M63.1219 25.7384L105.056 93.1602L109.083 90.6554L67.1492 23.2336L63.1219 25.7384Z" fill="#F14C4C"/>
<path d="M111.242 91.1405L104.596 95.2702L61.0088 25.2278L67.6549 21.0981L111.21 91.1405H111.242ZM105.047 91.0115L107.403 90.0114L67.1064 25.2278L64.7513 26.2279L105.047 91.0115Z" fill="#141516"/>
<path d="M118.628 107.757L113.917 82.3335L107.045 91.9155L95.4951 93.7868L116.111 109.305C117.272 110.176 118.886 109.176 118.628 107.757Z" fill="white"/>
<path d="M112.985 96.4013L101.435 98.2725L117.017 110.016C117.566 109.694 118.856 109.048 118.727 108.306L116.082 92.1104L112.985 96.4336V96.4013Z" fill="#F14C4C"/>
<path d="M120.179 108.37C120.083 109.338 119.566 110.209 118.695 110.725C117.598 111.403 116.211 111.338 115.146 110.564L91.627 92.8515L106.113 90.5286L114.727 78.5269L120.115 107.499C120.179 107.789 120.179 108.08 120.147 108.37H120.179ZM99.3055 94.755L117.018 108.112H117.082L113.017 86.2376L107.887 93.4L99.3055 94.7873V94.755Z" fill="#141516"/>
<path d="M49.3311 19.5831L59.4938 35.9403L77.3996 46.6516C78.4643 47.2968 79.7871 46.458 79.658 45.232L77.8836 24.5193L67.7208 8.16211L64.5913 23.616L49.3311 19.5831Z" fill="white"/>
<path d="M78.4645 25.7444L72.3668 15.9043L70.2052 26.551L56.1387 22.873L66.3014 39.2303L79.7227 47.6186C80.0454 47.3282 80.2712 46.941 80.2389 46.4248L78.4645 25.7122V25.7444Z" fill="#F14C4C"/>
<path d="M63.4287 21.68L45.9746 17.0664L58.3958 37.037L76.6242 47.9096C77.6244 48.4903 78.8181 48.4903 79.8182 47.9096C80.6248 47.3934 81.141 46.5545 81.2378 45.6189C81.2378 45.4254 81.2378 45.264 81.2378 45.0705L79.4311 23.9706L67.0099 4L63.4287 21.68ZM76.4306 24.9708L78.2373 45.2963L60.6542 34.7786L58.7507 31.7137L69.0102 34.5206L69.8168 31.5524L56.3309 27.8744L52.7175 22.0349L65.8162 25.487L68.5263 12.227L76.4629 24.9708H76.4306Z" fill="#141516"/>
<path d="M12.9004 85.1558L13.0077 208.285L136.523 279.947L125.105 251.145L111.756 251.317L81.7728 183.904L65.161 202.039L50.073 176.027L39.6853 185.986L12.9004 85.1558Z" fill="#141516"/>
<path d="M136.523 279.949L148.435 273.124L137.017 244.321L125.105 251.146L136.523 279.949Z" fill="white"/>
<path d="M137.641 280.335L145.861 275.399L134.443 246.596L122.51 253.421L132.211 277.845L137.641 280.335Z" fill="#C7D3FF"/>
<path d="M123.668 244.493L111.757 251.318L125.106 251.146L137.018 244.321L123.668 244.493Z" fill="white"/>
<path d="M120.836 246.704L108.667 253.614L122.51 253.421L134.186 246.596L120.836 246.704Z" fill="#C7D3FF"/>
<path d="M93.684 177.079L81.7725 183.904L111.755 251.317L123.667 244.492L93.684 177.079Z" fill="white"/>
<path d="M90.6166 179.376L78.6836 186.201L108.666 253.614L120.599 246.789L90.6166 179.376Z" fill="#C7D3FF"/>
<path d="M62.0072 169.203L50.0742 176.028L65.1622 202.04L75.1421 191.137L62.0072 169.203Z" fill="white"/>
<path d="M59.4096 171.521L47.4766 178.346L62.586 204.358L72.5445 193.455L59.4096 171.521Z" fill="#C7D3FF"/>
<path d="M24.812 78.3325L12.9004 85.1575L39.6853 185.987L50.073 176.029L24.812 78.3325Z" fill="white"/>
<path d="M22.2365 80.6284L12.9004 85.9725V93.2912L37.0884 188.283L47.4761 178.325L22.2365 80.6284Z" fill="#C7D3FF"/>
<path d="M12 85.3284V84.6201L13.3307 83.8689L25.2637 77.0439L50.5248 174.719L62.329 167.958L75.2922 189.614L80.7007 183.711L81.1944 183.175L82.1816 182.617L94.1146 175.792L124.269 243.57L136.803 243.419H137.662L138.177 244.729L149.595 273.531L137.662 280.356L136.524 281L135.816 280.592L12.1073 208.801L12 85.3284ZM24.4052 79.6194L14.0604 85.5215L40.0083 184.42L48.958 175.835L48.8507 175.663L48.9366 175.62L24.4052 79.6194ZM74.026 191.03L61.6852 170.426L51.3189 176.35L65.3337 200.516L74.026 191.03ZM93.2776 178.367L82.9328 184.291L94.8229 211.033L112.164 250.03L116.071 247.798L122.509 244.106L93.2561 178.346L93.2776 178.367ZM133.541 245.287L123.926 245.415L118.861 248.313L115.234 250.395L119.869 250.33L124.87 250.266L131.974 246.21L133.562 245.308L133.541 245.287ZM136.567 245.63L133.949 247.132L126.222 251.554L136.975 278.66L147.32 272.758L136.567 245.652V245.63ZM134.721 277.845L124.484 252.047L111.993 252.198H111.177L110.598 250.91L93.6639 212.814L81.5163 185.493L76.2795 191.223L65.0333 203.521L49.9024 177.444L39.4073 187.532L13.8458 89.4921L13.9531 207.749L134.786 277.845H134.721Z" fill="#141516"/>
<path d="M271.499 140.119L244.962 155.145L220.084 140.527L246.621 125.476L271.499 140.093V140.119ZM245.371 148.155L259.379 140.221L246.238 132.491L232.23 140.425L245.371 148.155Z" fill="white"/>
<path d="M271.421 143.077L244.884 158.103L220.006 143.485L246.517 128.459L271.396 143.077H271.421ZM245.292 151.113L259.301 143.179L246.16 135.449L232.152 143.383L245.292 151.113Z" fill="#FABCBC"/>
<path d="M220.082 140.526L220.006 147.848L244.884 162.466L244.986 155.144L220.082 140.526Z" fill="white"/>
<path d="M271.497 140.119L271.421 147.44L244.884 162.466L244.986 155.145L271.497 140.119Z" fill="#141516"/>
<path d="M246.237 132.491L246.135 139.812L252.999 143.818L259.378 140.221L246.237 132.491Z" fill="white"/>
<path d="M232.204 140.425L246.238 132.491L246.136 139.812L238.507 144.124L232.204 140.425Z" fill="#141516"/>
<path d="M260.91 140.22L247.003 132.057L246.238 131.598L245.472 132.031L230.698 140.399L245.37 149.022L260.91 140.22ZM252.999 142.95L246.901 139.379L246.978 133.817L257.873 140.22L253.025 142.976L252.999 142.95ZM233.735 140.424L245.447 133.792L245.37 139.353L238.506 143.256L233.735 140.45V140.424ZM240.037 144.124L246.136 140.654L251.468 143.792L245.37 147.261L240.037 144.124Z" fill="#141516"/>
<path d="M245.651 162.925L272.187 147.899L272.264 140.577V139.71L271.524 139.276L246.62 124.607L220.083 139.633L219.318 140.067V140.934L219.241 148.256L244.12 162.874L244.885 163.308L245.651 162.874V162.925ZM270.733 141.419L270.656 146.981L245.676 161.139L245.753 155.578L255.551 150.016L270.733 141.394V141.419ZM221.614 140.526L246.595 126.368L269.968 140.093L254.709 148.741L244.987 154.251L224.37 142.159L221.614 140.552V140.526ZM220.772 147.389L220.849 141.827L232.306 148.562L244.222 155.552L244.145 161.114L220.772 147.414V147.389Z" fill="#141516"/>
<path d="M253.174 237.056L253.531 234.022L253.607 225.581L259.932 221.985C263.145 220.149 264.93 217.675 264.981 214.998L265.083 204.568L241.826 206.863L224.179 196.535C218.441 193.194 208.853 193.271 202.783 196.739L173.228 213.595L141.198 216.732L141.122 226.244C141.096 226.575 141.096 226.932 141.122 227.213V228.029L141.249 228.08C141.657 229.967 142.983 231.676 145.049 233.002C145.202 233.104 145.38 233.206 145.533 233.308L181.822 254.525C187.559 257.865 197.148 257.789 203.217 254.321L230.299 238.867L245.88 247.971L246.467 247.435C246.722 247.206 251.746 242.692 253.148 237.031L253.174 237.056Z" fill="#141516"/>
<path d="M203.524 179.196L146.81 211.531C141.046 214.821 140.766 220.074 146.198 223.236L182.486 244.453C187.918 247.641 196.996 247.539 202.785 244.249L230.428 228.49L245.856 237.517C245.856 237.517 258.479 226.322 248.993 217.907L259.499 211.914C265.263 208.624 265.543 203.371 260.111 200.209L223.823 178.992C218.391 175.804 209.313 175.906 203.524 179.196Z" fill="white"/>
<path d="M262.89 208.547C262.253 207.706 261.386 206.89 260.187 206.201L223.899 184.984C218.467 181.796 209.389 181.898 203.6 185.188L146.886 217.524C145.228 218.467 144.055 219.589 143.315 220.788C143.953 221.629 144.82 222.445 146.019 223.134L182.307 244.351C187.738 247.538 196.817 247.436 202.606 244.147L230.249 228.387L245.677 237.414C245.677 237.414 250.497 233.13 251.925 227.877C251.389 226.525 251.874 222.292 251.874 222.292C251.364 220.762 250.446 219.232 248.814 217.779L259.32 211.786C260.978 210.842 262.151 209.72 262.89 208.522V208.547Z" fill="#FABCBC"/>
<path d="M145.126 223.873C142.55 222.215 141.173 220.022 141.173 217.651C141.173 214.947 142.983 212.423 146.248 210.561L202.988 178.226C209.057 174.758 218.645 174.681 224.383 178.022L260.671 199.239C263.553 200.922 265.134 203.242 265.108 205.792C265.108 208.496 263.298 211.02 260.034 212.882L250.802 218.135C252.664 220.201 253.633 222.547 253.633 225.122C253.633 232.008 246.875 238.077 246.595 238.332L246.008 238.867L230.427 229.764L203.345 245.217C197.275 248.685 187.687 248.762 181.949 245.421L145.661 224.204C145.483 224.102 145.33 224 145.151 223.898L145.126 223.873ZM204.084 180.138L147.37 212.474C144.871 213.902 143.417 215.789 143.417 217.651C143.417 219.359 144.616 221.017 146.783 222.266L183.071 243.483C188.197 246.467 196.816 246.39 202.274 243.279L230.478 227.213L245.753 236.139C247.309 234.583 251.491 229.942 251.491 225.122C251.491 222.725 250.42 220.583 248.329 218.722L247.181 217.702L259.014 210.969C261.513 209.541 262.966 207.654 262.966 205.792C262.966 204.084 261.768 202.426 259.6 201.151L223.312 179.934C218.186 176.951 209.592 177.027 204.11 180.138H204.084Z" fill="#141516"/>
<path d="M191.003 222.216C194.905 224.485 194.701 228.234 190.569 230.605C186.438 232.952 179.935 233.028 176.034 230.758C172.132 228.489 172.336 224.74 176.467 222.369C180.598 220.022 187.101 219.946 191.003 222.216Z" fill="#141516"/>
<path d="M174.86 227.111C172.922 225.862 171.876 224.204 171.902 222.394C171.902 220.328 173.253 218.441 175.702 217.064C180.215 214.488 187.075 214.437 191.334 216.911C193.501 218.186 194.674 219.946 194.674 221.858C194.674 223.924 193.323 225.811 190.875 227.188C186.361 229.764 179.501 229.815 175.242 227.341C175.115 227.264 174.987 227.188 174.86 227.111ZM190.492 218.977C190.492 218.977 190.314 218.849 190.212 218.798C186.642 216.707 180.598 216.783 176.773 218.951C175.089 219.92 174.095 221.17 174.095 222.394C174.095 223.516 174.911 224.587 176.339 225.428C179.909 227.519 185.953 227.443 189.778 225.275C191.461 224.306 192.456 223.057 192.456 221.833C192.456 220.787 191.767 219.793 190.492 218.977Z" fill="#141516"/>
<path d="M210.893 210.894C214.794 213.163 214.59 216.912 210.459 219.284C206.328 221.63 199.825 221.706 195.923 219.437C192.022 217.167 192.226 213.418 196.357 211.047C200.488 208.701 206.991 208.624 210.893 210.894Z" fill="#141516"/>
<path d="M194.75 215.763C192.812 214.514 191.766 212.856 191.791 211.046C191.791 208.98 193.143 207.093 195.591 205.716C200.105 203.14 206.965 203.089 211.223 205.563C213.391 206.838 214.564 208.597 214.564 210.51C214.564 212.576 213.212 214.463 210.764 215.84C206.251 218.415 199.391 218.466 195.132 215.993C195.005 215.916 194.877 215.84 194.75 215.763ZM210.382 207.628C210.382 207.628 210.203 207.501 210.101 207.45C206.531 205.359 200.487 205.435 196.662 207.603C194.979 208.572 193.985 209.822 193.985 211.046C193.985 212.168 194.801 213.264 196.229 214.08C199.748 216.146 205.894 216.069 209.668 213.927C211.351 212.958 212.345 211.709 212.345 210.485C212.345 209.439 211.657 208.444 210.382 207.628Z" fill="#141516"/>
<path d="M230.76 199.571C234.661 201.841 234.457 205.589 230.326 207.961C226.195 210.307 219.692 210.383 215.791 208.114C211.889 205.844 212.093 202.096 216.224 199.724C220.355 197.378 226.858 197.301 230.76 199.571Z" fill="#141516"/>
<path d="M214.615 204.442C212.677 203.192 211.631 201.534 211.657 199.724C211.657 197.658 213.008 195.771 215.456 194.394C219.97 191.818 226.83 191.767 231.089 194.241C233.256 195.491 234.429 197.276 234.429 199.188C234.429 201.254 233.078 203.141 230.63 204.518C226.116 207.094 219.256 207.145 214.997 204.671C214.87 204.595 214.742 204.518 214.615 204.442ZM229.967 196.128C226.447 194.063 220.302 194.139 216.527 196.281C214.844 197.25 213.85 198.5 213.85 199.724C213.85 200.846 214.666 201.917 216.094 202.758C219.613 204.824 225.759 204.748 229.533 202.605C231.216 201.636 232.211 200.387 232.211 199.163C232.211 198.041 231.395 196.944 229.967 196.128Z" fill="#141516"/>
<path d="M230.403 228.463L230.326 237.592L245.754 246.62L245.856 237.49L230.403 228.463Z" fill="white"/>
<path d="M229.203 238.23L229.305 228.259C229.305 227.494 230.147 227.035 230.784 227.417L246.952 236.878L246.875 245.268C246.875 246.722 245.269 247.64 244.019 246.9L229.229 238.255L229.203 238.23ZM231.473 230.375L231.396 236.955L244.657 244.707L244.733 238.128L231.473 230.375Z" fill="#141516"/>
<path d="M190.873 227.086C192.02 226.449 192.887 225.658 193.525 224.842C193.27 224.179 192.811 223.516 192.122 222.93C191.714 223.746 190.924 224.536 189.776 225.174C185.951 227.341 179.933 227.418 176.337 225.327C175.547 224.868 174.96 224.332 174.577 223.746C173.965 224.383 173.583 225.072 173.379 225.76C173.787 226.194 174.271 226.627 174.832 226.984C174.96 227.061 175.087 227.137 175.215 227.214C179.474 229.713 186.334 229.636 190.847 227.061L190.873 227.086Z" fill="white"/>
<path d="M210.74 215.764C211.887 215.127 212.754 214.336 213.392 213.52C213.137 212.857 212.678 212.194 211.989 211.607C211.581 212.423 210.791 213.214 209.643 213.852C205.818 216.019 199.8 216.096 196.204 214.005C195.414 213.546 194.827 213.01 194.445 212.423C193.833 213.061 193.45 213.75 193.246 214.438C193.654 214.872 194.139 215.305 194.7 215.662C194.827 215.739 194.955 215.815 195.082 215.892C199.341 218.391 206.201 218.314 210.714 215.739L210.74 215.764Z" fill="white"/>
<path d="M230.708 204.493C231.855 203.855 232.722 203.065 233.36 202.249C233.105 201.585 232.646 200.922 231.957 200.336C231.549 201.152 230.759 201.943 229.611 202.58C225.786 204.748 219.768 204.824 216.172 202.733C215.381 202.274 214.795 201.739 214.412 201.152C213.8 201.79 213.418 202.478 213.214 203.167C213.622 203.6 214.106 204.034 214.667 204.391C214.795 204.467 214.922 204.544 215.05 204.62C219.309 207.119 226.168 207.043 230.682 204.467L230.708 204.493Z" fill="white"/>
</svg>
