<svg width="284" height="285" viewBox="0 0 284 285" fill="none" xmlns="http://www.w3.org/2000/svg">
<path d="M61.9393 183.776V128.933H41.4785V184.88H41.5226C41.7431 186.204 42.7132 187.506 44.4771 188.521C48.4899 190.838 54.9721 190.838 58.9849 188.521C61.2338 187.219 62.2039 185.476 61.9393 183.776Z" fill="#141516"/>
<path d="M44.874 141.821V188.256L53.6052 190.243V143.256C50.5625 143.587 47.3214 143.079 44.874 141.799V141.821Z" fill="white"/>
<path d="M51.7314 191.236C48.9533 191.236 46.1752 190.618 43.9924 189.36C42.3608 188.433 41.2584 187.197 40.7734 185.851H40.5529L40.5088 184.88V127.961H62.9099V183.71C63.2185 185.851 61.9618 187.925 59.4703 189.36C57.3096 190.618 54.5095 191.236 51.7314 191.236ZM42.449 184.571V184.725C42.6475 185.806 43.5294 186.844 44.9625 187.682C48.6887 189.845 54.774 189.845 58.5002 187.682C60.2861 186.645 61.1901 185.277 60.9917 183.931V129.904H42.449V184.571Z" fill="#141516"/>
<path d="M58.9851 124.739C62.9979 127.057 62.9979 130.809 58.9851 133.126C54.9724 135.443 48.4902 135.443 44.4774 133.126C40.4646 130.809 40.4646 127.057 44.4774 124.739C48.4902 122.422 54.9724 122.422 58.9851 124.739Z" fill="white"/>
<path d="M60.9698 131.361C60.4847 130.765 59.8453 130.191 58.9854 129.683C54.9726 127.366 48.4905 127.366 44.4777 129.683C43.5957 130.191 42.9343 130.787 42.4492 131.405V136.348C42.9343 136.966 43.5957 137.562 44.4777 138.07C48.4905 140.387 54.9726 140.387 58.9854 138.07C59.8453 137.562 60.4847 137.01 60.9698 136.393V131.361Z" fill="#FABCBC"/>
<path d="M51.7314 135.818C48.9533 135.818 46.1752 135.201 43.9924 133.943C41.7435 132.64 40.5088 130.853 40.5088 128.911C40.5088 126.968 41.7435 125.181 43.9924 123.879C48.3359 121.363 55.1268 121.385 59.4703 123.879C61.7193 125.181 62.954 126.968 62.954 128.911C62.954 130.853 61.7193 132.64 59.4703 133.943C57.3096 135.201 54.5095 135.818 51.7314 135.818ZM51.7314 123.945C49.284 123.945 46.8366 124.475 44.9625 125.556C43.331 126.505 42.449 127.675 42.449 128.911C42.449 130.147 43.353 131.316 44.9625 132.265C48.6887 134.428 54.774 134.428 58.5002 132.265C60.1318 131.316 61.0137 130.147 61.0137 128.911C61.0137 127.675 60.1097 126.505 58.5002 125.556C56.6261 124.475 54.1787 123.945 51.7314 123.945Z" fill="#141516"/>
<path d="M33.431 200.13V172.653H12.9922V201.212H13.0142C13.2347 202.536 14.2048 203.838 15.9687 204.853C19.9815 207.171 26.4637 207.171 30.4765 204.853C32.7254 203.551 33.6955 201.808 33.431 200.108V200.13Z" fill="#141516"/>
<path d="M16.3877 185.564V204.632L25.0747 206.619V187.021C22.0541 187.352 18.813 186.844 16.3877 185.564Z" fill="white"/>
<path d="M23.2226 207.59C20.4445 207.59 17.6664 206.972 15.4836 205.714C13.8521 204.787 12.7496 203.551 12.2646 202.205H12.0441L12 201.234V171.704H34.4231V200.064C34.7097 202.227 33.453 204.279 30.9615 205.714C28.8008 206.972 26.0007 207.59 23.2226 207.59ZM13.9403 200.925V201.079C14.1387 202.16 15.0206 203.198 16.4538 204.036C20.1799 206.199 26.2652 206.199 29.9914 204.036C31.7773 202.999 32.6813 201.631 32.4829 200.285V173.624H13.9623V200.902L13.9403 200.925Z" fill="#141516"/>
<path d="M30.4988 168.482C34.5116 170.799 34.5116 174.551 30.4988 176.869C26.486 179.186 20.0038 179.186 15.991 176.869C11.9782 174.551 11.9782 170.799 15.991 168.482C20.0038 166.165 26.486 166.165 30.4988 168.482Z" fill="white"/>
<path d="M32.4825 175.125C31.9974 174.529 31.358 173.956 30.4981 173.448C26.4853 171.131 20.0031 171.131 15.9904 173.448C15.1084 173.956 14.447 174.551 13.9619 175.169V180.113C14.447 180.731 15.1084 181.327 15.9904 181.834C20.0031 184.152 26.4853 184.152 30.4981 181.834C31.358 181.327 31.9974 180.775 32.4825 180.157V175.125Z" fill="#FABCBC"/>
<path d="M23.2441 179.583C20.466 179.583 17.6879 178.965 15.5051 177.707C13.2562 176.405 12.0215 174.617 12.0215 172.675C12.0215 170.733 13.2562 168.945 15.5051 167.643C19.8486 165.127 26.6395 165.149 30.983 167.643C33.2319 168.945 34.4667 170.733 34.4667 172.675C34.4667 174.617 33.2319 176.405 30.983 177.707C28.8223 178.965 26.0222 179.583 23.2441 179.583ZM23.2441 167.71C20.7967 167.71 18.3493 168.239 16.4752 169.321C14.8437 170.27 13.9617 171.439 13.9617 172.675C13.9617 173.911 14.8657 175.081 16.4752 176.03C20.2014 178.193 26.2867 178.193 30.0129 176.03C31.6445 175.081 32.5264 173.911 32.5264 172.675C32.5264 171.439 31.6224 170.27 30.0129 169.321C28.1388 168.239 25.6914 167.71 23.2441 167.71Z" fill="#141516"/>
<path d="M209.599 239.301L209.335 223.764H81.124L81.3004 238.904C81.2563 239.301 81.3004 238.904 81.3445 239.301C81.6311 241.552 83.395 243.848 86.592 245.702L134.415 273.333C140.809 277.019 150.466 277.416 156 274.238L205.917 245.393C208.695 243.781 209.908 241.574 209.599 239.323V239.301Z" fill="white"/>
<path d="M146.63 277.482C142.176 277.482 137.502 276.401 133.864 274.304L86.0412 246.673C82.7119 244.753 80.6614 242.214 80.2646 239.566C80.1543 239.301 80.1764 239.036 80.1984 238.816L80 222.661L210.548 224.823L210.68 239.235C211.011 242.016 209.468 244.598 206.447 246.342L156.53 275.187C153.884 276.71 150.312 277.46 146.608 277.46L146.63 277.482ZM82.4033 238.948C82.4033 238.948 82.4253 239.103 82.4474 239.169C82.7119 241.133 84.4097 243.164 87.1436 244.753L134.966 272.384C141.03 275.893 150.224 276.29 155.427 273.289L205.345 244.444C207.616 243.141 208.74 241.354 208.497 239.456V239.323L208.233 224.868H82.2489L82.4033 238.926V238.948Z" fill="#141516"/>
<path d="M205.719 230.231L155.802 259.076C150.268 262.276 140.611 261.879 134.217 258.171L86.394 230.54C80 226.854 79.3165 221.27 84.8506 218.07L134.768 189.225C140.302 186.025 149.959 186.422 156.353 190.13L204.176 217.761C210.57 221.447 211.254 227.031 205.719 230.231Z" fill="#C7D3FF"/>
<path d="M204.154 224.89L156.331 197.258C149.937 193.573 140.28 193.176 134.746 196.354L84.8283 225.199C83.7038 225.861 82.8439 226.611 82.2266 227.428V234.005C83.1085 235.307 84.4975 236.565 86.3716 237.668L134.194 265.3C140.588 268.985 150.246 269.383 155.78 266.205L205.697 237.359C211.231 234.159 210.526 228.576 204.154 224.89Z" fill="white"/>
<path d="M146.432 262.32C141.978 262.32 137.304 261.239 133.666 259.142L85.8428 231.511C82.1387 229.37 80 226.457 80 223.499C80 220.983 81.5213 218.732 84.2774 217.121L134.195 188.276C140.015 184.921 150.202 185.319 156.882 189.181L204.705 216.812C208.409 218.953 210.548 221.866 210.548 224.824C210.548 227.339 209.027 229.591 206.271 231.202L156.353 260.047C153.707 261.57 150.158 262.342 146.432 262.342V262.32ZM144.116 188.166C140.809 188.166 137.656 188.828 135.297 190.196L85.3798 219.041C83.3293 220.233 82.2048 221.8 82.2048 223.499C82.2048 225.64 83.9246 227.847 86.9232 229.591L134.746 257.222C140.809 260.731 150.003 261.128 155.207 258.127L205.124 229.282C207.175 228.09 208.299 226.523 208.299 224.824C208.299 222.683 206.579 220.476 203.559 218.732L155.736 191.101C152.407 189.181 148.129 188.188 144.072 188.188L144.116 188.166Z" fill="#141516"/>
<path d="M139.773 227.273L142.397 208.668C142.397 208.668 142.264 208.734 142.198 208.756L107.847 228.619C107.538 228.796 107.274 228.994 107.031 229.193L139.773 227.273Z" fill="#F14C4C"/>
<path d="M104.584 224.757L107.208 222.594C107.494 222.352 107.803 222.131 108.178 221.932L142.75 201.981L144.558 201.187L144.381 203.107L141.625 222.594L104.584 224.779V224.757ZM141.868 205.005L112.323 222.087L139.685 220.476L141.868 205.005Z" fill="#141516"/>
<path d="M146.851 231.268L107.01 233.607C107.164 233.718 107.318 233.85 107.495 233.96L135.187 249.961C137.657 251.374 141.78 251.285 144.448 249.762L178.799 229.9C181.445 228.377 181.599 225.971 179.13 224.559L151.437 208.558C151.04 208.337 150.599 208.161 150.136 208.006L146.851 231.268Z" fill="#F14C4C"/>
<path d="M140.39 246.364C138.605 246.364 136.863 245.988 135.518 245.194L107.825 229.193C107.627 229.083 107.472 228.973 107.318 228.84L105.003 227.03L107.825 226.766L146.762 224.47L150.114 200.812L151.37 201.209C151.988 201.407 152.451 201.606 152.87 201.849L180.562 217.849C182.04 218.71 182.878 219.924 182.878 221.292C182.878 222.749 181.907 224.139 180.232 225.11L145.88 244.973C144.315 245.878 142.331 246.342 140.39 246.342V246.364ZM111.529 228.774L136.62 243.274C138.737 244.488 142.463 244.399 144.756 243.075L179.107 223.212C180.077 222.661 180.651 221.954 180.651 221.314C180.651 220.763 180.232 220.233 179.46 219.77L151.922 203.857L148.703 226.567L111.529 228.752V228.774Z" fill="#141516"/>
<path d="M146.101 261.239V276.864L151.436 276.401L158.073 273.399L208.519 244.135L209.6 239.301L210.217 226.766L153.443 260.135L147.137 261.239H146.101Z" fill="#141516"/>
<path d="M153.398 255.169C154.191 255.633 154.191 256.383 153.398 256.825C152.604 257.288 151.303 257.288 150.509 256.825C149.716 256.361 149.716 255.611 150.509 255.169C151.303 254.706 152.604 254.706 153.398 255.169Z" fill="#141516"/>
<path d="M160.939 250.822C161.732 251.285 161.732 252.036 160.939 252.477C160.145 252.94 158.844 252.94 158.05 252.477C157.257 252.013 157.257 251.263 158.05 250.822C158.844 250.358 160.145 250.358 160.939 250.822Z" fill="#141516"/>
<path d="M168.457 246.474C169.251 246.938 169.251 247.688 168.457 248.129C167.664 248.593 166.363 248.593 165.569 248.129C164.775 247.666 164.775 246.915 165.569 246.474C166.363 246.011 167.664 246.011 168.457 246.474Z" fill="#141516"/>
<path d="M175.976 242.126C176.77 242.59 176.77 243.34 175.976 243.782C175.182 244.245 173.903 244.245 173.087 243.782C172.294 243.318 172.294 242.568 173.087 242.126C173.881 241.663 175.182 241.663 175.976 242.126Z" fill="#141516"/>
<path d="M183.516 237.779C184.31 238.242 184.31 238.993 183.516 239.434C182.722 239.897 181.421 239.897 180.628 239.434C179.834 238.971 179.834 238.22 180.628 237.779C181.421 237.315 182.722 237.315 183.516 237.779Z" fill="#141516"/>
<path d="M191.034 233.431C191.828 233.894 191.828 234.644 191.034 235.086C190.241 235.549 188.94 235.549 188.146 235.086C187.352 234.622 187.352 233.872 188.146 233.431C188.94 232.967 190.219 232.967 191.034 233.431Z" fill="#141516"/>
<path d="M198.575 229.083C199.369 229.546 199.369 230.297 198.575 230.738C197.782 231.202 196.481 231.202 195.687 230.738C194.893 230.275 194.893 229.524 195.687 229.083C196.481 228.619 197.782 228.619 198.575 229.083Z" fill="#141516"/>
<path d="M206.094 224.735C206.888 225.199 206.888 225.949 206.094 226.391C205.3 226.854 203.999 226.854 203.206 226.391C202.412 225.927 202.412 225.177 203.206 224.735C203.999 224.294 205.3 224.272 206.094 224.735Z" fill="#141516"/>
<path d="M138.339 255.169C139.133 255.633 139.133 256.383 138.339 256.825C137.545 257.288 136.245 257.288 135.451 256.825C134.657 256.361 134.657 255.611 135.451 255.169C136.245 254.706 137.545 254.706 138.339 255.169Z" fill="#141516"/>
<path d="M145.879 250.822C146.673 251.285 146.673 252.036 145.879 252.477C145.085 252.94 143.785 252.94 142.991 252.477C142.197 252.013 142.197 251.263 142.991 250.822C143.785 250.358 145.085 250.358 145.879 250.822Z" fill="#141516"/>
<path d="M153.398 246.474C154.191 246.938 154.191 247.688 153.398 248.129C152.604 248.593 151.303 248.593 150.509 248.129C149.716 247.666 149.716 246.915 150.509 246.474C151.303 246.011 152.604 246.011 153.398 246.474Z" fill="#141516"/>
<path d="M160.939 242.126C161.732 242.59 161.732 243.34 160.939 243.782C160.145 244.245 158.844 244.245 158.05 243.782C157.257 243.318 157.257 242.568 158.05 242.126C158.844 241.663 160.145 241.663 160.939 242.126Z" fill="#141516"/>
<path d="M168.457 237.779C169.251 238.242 169.251 238.993 168.457 239.434C167.664 239.897 166.363 239.897 165.569 239.434C164.775 238.971 164.775 238.22 165.569 237.779C166.363 237.315 167.664 237.315 168.457 237.779Z" fill="#141516"/>
<path d="M175.976 233.431C176.77 233.894 176.77 234.644 175.976 235.086C175.182 235.549 173.903 235.549 173.087 235.086C172.294 234.622 172.294 233.872 173.087 233.431C173.881 232.967 175.182 232.967 175.976 233.431Z" fill="#141516"/>
<path d="M183.516 229.083C184.31 229.546 184.31 230.297 183.516 230.738C182.722 231.202 181.421 231.202 180.628 230.738C179.834 230.275 179.834 229.524 180.628 229.083C181.421 228.619 182.722 228.619 183.516 229.083Z" fill="#141516"/>
<path d="M191.034 224.735C191.828 225.199 191.828 225.949 191.034 226.391C190.241 226.854 188.94 226.854 188.146 226.391C187.352 225.927 187.352 225.177 188.146 224.735C188.94 224.272 190.241 224.272 191.034 224.735Z" fill="#141516"/>
<path d="M108.243 211.538C109.037 212.001 109.037 212.751 108.243 213.193C107.45 213.634 106.149 213.656 105.355 213.193C104.561 212.729 104.561 211.979 105.355 211.538C106.149 211.096 107.45 211.074 108.243 211.538Z" fill="#141516"/>
<path d="M115.762 207.19C116.556 207.653 116.556 208.404 115.762 208.845C114.968 209.309 113.667 209.309 112.874 208.845C112.08 208.382 112.08 207.631 112.874 207.19C113.667 206.726 114.968 206.726 115.762 207.19Z" fill="#141516"/>
<path d="M123.302 202.842C124.096 203.306 124.096 204.056 123.302 204.497C122.508 204.961 121.207 204.961 120.414 204.497C119.62 204.034 119.62 203.284 120.414 202.842C121.207 202.379 122.508 202.379 123.302 202.842Z" fill="#141516"/>
<path d="M130.821 198.494C131.614 198.958 131.614 199.708 130.821 200.149C130.027 200.613 128.748 200.613 127.932 200.149C127.138 199.686 127.138 198.935 127.932 198.494C128.726 198.031 130.027 198.031 130.821 198.494Z" fill="#141516"/>
<path d="M138.339 194.124C139.133 194.588 139.133 195.338 138.339 195.78C137.545 196.243 136.245 196.243 135.451 195.78C134.657 195.316 134.657 194.566 135.451 194.124C136.245 193.661 137.545 193.661 138.339 194.124Z" fill="#141516"/>
<path d="M246.998 126.498C246.998 126.498 254.251 82.9982 250.591 63.2236L213.109 67.7038C213.109 67.7038 212.889 99.3299 199.616 130.647C198.734 132.611 199.836 134.929 202.791 136.628L210.353 140.998C214.542 143.425 220.892 143.69 224.53 141.594L244.55 130.029C246.182 129.08 246.975 127.822 246.998 126.498Z" fill="white"/>
<path d="M238.553 103.236L217.806 91.7159C217.122 91.3628 216.284 91.8483 216.262 92.6208C216.196 96.7699 214.917 108.798 204.621 133.097C203.739 135.061 204.841 137.378 207.796 139.078L210.993 140.932C215.16 142.896 220.87 142.984 224.244 141.042L244.263 129.477C245.895 128.528 246.689 127.27 246.711 125.946C246.711 125.946 246.909 124.754 247.218 122.702C245.079 118.84 240.207 112.197 238.553 103.258V103.236Z" fill="#C7D3FF"/>
<path d="M224.288 141.638L244.308 130.073C245.94 129.124 246.733 127.866 246.755 126.542C246.755 126.542 254.009 83.0426 250.349 63.2681L240.582 64.4378L230.462 69.7566C230.462 69.7566 230.329 111.535 217.056 142.83C217.056 142.83 217.012 142.962 216.99 143.006C219.702 143.183 222.37 142.742 224.266 141.638H224.288Z" fill="#141516"/>
<path d="M218.379 143.492C215.513 143.492 212.47 142.786 210.111 141.439L202.549 137.069C199.792 135.48 198.47 133.296 198.933 131.243H198.866L199.175 130.493C212.25 99.617 212.647 68.0571 212.647 67.7481V67.3288L250.989 62.7383L251.077 63.1797C254.671 82.557 247.748 125.108 247.505 126.564C247.483 128.109 246.535 129.477 244.815 130.471L224.795 142.035C223.098 143.028 220.805 143.514 218.401 143.514L218.379 143.492ZM200.388 130.095L200.057 130.868C199.263 132.656 200.388 134.73 203.034 136.253L210.596 140.623C214.653 142.962 220.805 143.227 224.31 141.219L244.33 129.654C245.741 128.837 246.535 127.734 246.535 126.52V126.454C246.623 126.012 253.634 83.4619 250.217 63.7976L213.595 68.1895C213.507 72.0076 212.426 101.272 200.388 130.14V130.095Z" fill="#141516"/>
<path d="M270.875 43.6039C270.875 31.62 262.475 17.0318 252.09 11.0509C247.196 8.22595 242.742 7.80663 239.391 9.43979C238.972 9.66049 238.553 9.90326 238.156 10.1681L224.618 18.1353L226.316 22.6155L251.032 64.2171L264.812 56.0954C265.253 55.8747 265.65 55.6319 266.047 55.3671C269.045 53.2484 270.875 49.2096 270.875 43.626V43.6039Z" fill="white"/>
<path d="M269.597 49.0107C268.627 37.5123 260.623 24.3807 250.922 18.775C246.027 15.9501 241.573 15.5307 238.222 17.1639C237.803 17.3846 237.384 17.6274 236.987 17.8922L226.559 24.0056L250.459 64.1947L264.239 56.073C264.68 55.8523 265.077 55.6096 265.474 55.3447C267.392 53.9985 268.825 51.8356 269.597 49.0107Z" fill="#FABCBC"/>
<path d="M250.878 64.8349L225.919 22.8361L224.045 17.8924L237.935 9.72658C238.31 9.46174 238.729 9.21897 239.192 8.99827C242.83 7.23268 247.504 7.82857 252.355 10.6314C262.85 16.7006 271.361 31.4874 271.361 43.6038C271.361 49.1212 269.575 53.4248 266.334 55.7201C265.915 56.007 265.474 56.2718 265.033 56.4925L250.878 64.8349ZM225.191 18.3117L226.757 22.4167L251.208 63.5328L264.57 55.6539C265.011 55.4332 265.408 55.2125 265.782 54.9477C268.759 52.851 270.412 48.8122 270.412 43.6038C270.412 31.7964 262.1 17.3627 251.87 11.448C247.284 8.79964 242.94 8.22583 239.611 9.83692C239.192 10.0356 238.795 10.2783 238.442 10.5211L225.213 18.2897L225.191 18.3117Z" fill="#141516"/>
<path d="M256.964 51.814C256.964 63.7979 248.563 68.6533 238.179 62.6724C227.816 56.6694 219.394 42.1033 219.394 30.1194C219.394 18.1355 227.794 13.2801 238.179 19.261C248.563 25.2419 256.964 39.8301 256.964 51.814Z" fill="white"/>
<path d="M246.579 65.7179C243.933 65.7179 240.978 64.8351 237.958 63.0695C227.463 57.0003 218.952 42.2135 218.952 30.0971C218.952 24.1162 220.981 19.6581 224.685 17.5173C228.389 15.3766 233.261 15.84 238.443 18.8415C248.938 24.9107 257.471 39.6975 257.471 51.8139C257.471 57.7948 255.442 62.2529 251.738 64.3937C250.217 65.2765 248.475 65.7179 246.601 65.7179H246.579ZM229.8 17.1642C228.102 17.1642 226.515 17.5615 225.148 18.356C221.752 20.3202 219.878 24.4914 219.878 30.1192C219.878 41.9266 228.19 56.3602 238.421 62.275C243.293 65.0778 247.835 65.5634 251.231 63.5992C254.626 61.6349 256.5 57.4637 256.5 51.8359C256.5 40.0286 248.188 25.5949 237.958 19.6802C235.069 18.0029 232.291 17.1642 229.8 17.1642Z" fill="#141516"/>
<path d="M251.628 52.7185C251.628 41.9484 244.066 28.861 234.761 23.476C230.352 20.9379 226.361 20.5627 223.362 22.0194C222.988 22.218 222.613 22.4166 222.26 22.6814L185.594 43.6036L187.115 47.6424L209.318 85.0066L232.027 71.7427C232.424 71.544 246.954 63.5327 247.307 63.2899C249.997 61.3919 251.628 57.7725 251.628 52.7626V52.7185Z" fill="white"/>
<path d="M250.725 58.1478C249.754 47.8854 242.633 36.2104 233.968 31.2006C229.558 28.6625 225.567 28.2874 222.569 29.744C222.194 29.9426 221.819 30.1412 221.466 30.4061L188.107 49.4303L209.23 84.9627L231.939 71.6987C232.336 71.5001 246.866 63.4887 247.219 63.246C248.806 62.1204 249.997 60.399 250.747 58.1478H250.725Z" fill="#A1B6FF"/>
<path d="M247.572 38.1746C247.219 38.4174 232.689 46.4508 232.292 46.6494L209.583 59.9134L197.743 58.523L185.506 43.5817L187.027 47.6205L209.23 84.9847L231.94 71.7208C232.336 71.5221 246.866 63.5108 247.219 63.268C249.909 61.37 251.541 57.7505 251.541 52.7407C251.541 48.0178 250.085 42.8534 247.682 38.1084C247.638 38.1525 247.594 38.1967 247.55 38.2187L247.572 38.1746Z" fill="#141516"/>
<path d="M209.142 85.6247L186.696 47.8633L184.977 43.3831L221.996 22.2623C222.326 22.0416 222.723 21.7988 223.12 21.6002C226.405 20.0111 230.617 20.5408 234.982 23.0568C244.419 28.508 252.092 41.8161 252.092 52.7186C252.092 57.7064 250.482 61.5686 247.572 63.6432C247.065 63.9963 232.336 72.0959 232.226 72.1401L209.142 85.6247ZM186.167 43.8024L187.556 47.4439L209.494 84.3226L231.785 71.3014C232.447 70.9704 246.668 63.0914 247.043 62.8487C249.71 60.9727 251.166 57.3753 251.166 52.6965C251.166 42.103 243.713 29.1701 234.541 23.8733C230.44 21.5119 226.56 21.0043 223.583 22.4388C223.208 22.6154 222.856 22.8361 222.547 23.0568L186.189 43.8024H186.167Z" fill="#141516"/>
<path d="M214.609 73.8397C214.609 84.6098 207.046 88.9796 197.742 83.5945C188.416 78.2095 180.875 65.1221 180.875 54.352C180.875 43.5819 188.438 39.2121 197.742 44.5972C207.068 49.9822 214.609 63.0696 214.609 73.8397Z" fill="white"/>
<path d="M205.283 86.3751C202.879 86.3751 200.234 85.5806 197.522 83.9916C188.085 78.5404 180.412 65.2323 180.412 54.3298C180.412 48.9447 182.242 44.928 185.593 42.9859C188.945 41.0658 193.332 41.4851 197.985 44.1776C207.421 49.6289 215.094 62.937 215.094 73.8395C215.094 79.2245 213.264 83.2412 209.913 85.1834C208.524 85.9779 206.958 86.3751 205.283 86.3751ZM190.224 42.7652C188.702 42.7652 187.291 43.1183 186.056 43.8245C183.014 45.568 181.36 49.3199 181.36 54.3518C181.36 64.9453 188.813 77.8783 197.985 83.175C202.328 85.691 206.407 86.1103 209.428 84.3668C212.47 82.6233 214.124 78.8714 214.124 73.8395C214.124 63.246 206.672 50.3131 197.5 45.0163C194.92 43.5155 192.428 42.7652 190.202 42.7652H190.224Z" fill="#141516"/>
<path d="M209.34 74.5234C209.34 65.2099 202.791 53.8661 194.744 49.2093C190.025 46.4727 185.814 46.6492 183.146 49.1431C176.664 52.6301 157.747 59.8911 133.207 43.4932C131.663 42.456 129.723 44.0229 130.407 45.7444L167.404 137.18L174.658 138.614C178.67 139.409 182.286 136.098 181.89 132.037C180.721 120.098 181.89 98.0499 202.769 84.8521C206.716 84.1017 209.318 80.4381 209.318 74.5676L209.34 74.5234Z" fill="white"/>
<path d="M202.152 85.0289C204.709 84.5433 206.694 82.844 207.774 80.1073C206.628 71.4339 200.63 61.8335 193.377 57.6402C188.658 54.9036 184.447 55.0801 181.779 57.5519C175.341 61.0169 156.622 68.1896 132.303 52.189L166.764 137.356L174.018 138.791C176.576 139.299 178.979 138.129 180.28 136.165C180.17 132.744 180.324 128.86 180.963 124.755C181.184 112.484 185.064 95.7989 202.13 85.0068L202.152 85.0289Z" fill="#A1B6FF"/>
<path d="M175.892 139.188C175.473 139.188 175.032 139.144 174.591 139.056L167.095 137.577L129.987 45.9209C129.59 44.9498 129.855 43.8905 130.671 43.2284C131.487 42.5663 132.589 42.5001 133.471 43.096C157.504 59.1628 175.98 52.4315 182.859 48.7679C185.814 46.0533 190.223 46.0754 194.964 48.8341C203.144 53.5571 209.802 65.0996 209.802 74.5675C209.802 80.4381 207.245 84.4548 202.967 85.3156C182.374 98.3588 181.228 120.164 182.374 131.993C182.573 134.09 181.801 136.098 180.257 137.511C179.023 138.614 177.479 139.21 175.87 139.21L175.892 139.188ZM167.778 136.738L174.789 138.129C176.553 138.482 178.317 137.974 179.64 136.782C180.963 135.569 181.624 133.847 181.448 132.059C180.28 119.987 181.448 97.7409 202.548 84.4328L202.703 84.3666C206.561 83.6382 208.854 79.9747 208.854 74.5455C208.854 65.3865 202.416 54.2192 194.479 49.6286C190.091 47.0906 186.078 47.0465 183.432 49.4962L183.344 49.5624C176.355 53.3143 157.437 60.2663 132.92 43.8905C132.28 43.4712 131.641 43.6477 131.244 43.9567C130.869 44.2657 130.539 44.8616 130.825 45.5678L167.734 136.76L167.778 136.738Z" fill="#141516"/>
<path d="M175.98 156.05C177.325 154.571 177.942 153.512 177.942 153.512C182.065 147.531 184.424 139.255 184.424 128.948C184.424 97.344 162.244 58.8983 134.904 43.0963C122.072 35.6809 110.386 34.5774 101.611 38.7265C101.346 38.8369 101.082 38.9693 100.795 39.1238C100.663 39.19 100.553 39.2783 100.42 39.3445C100.045 39.5431 99.6927 39.7638 99.3399 39.9845C99.2738 40.0286 99.2076 40.0728 99.1194 40.1169C98.7446 40.3597 98.3698 40.5804 98.017 40.8452C83.84 50.6442 82.8037 69.1167 82.8037 69.1167L85.3834 71.6326V71.7209C85.3834 93.6142 96.0327 118.774 111.643 137.445C117.133 147.156 124.277 155.454 133.603 159.603C146.832 165.496 156.643 165.54 163.655 163.553C168.219 162.428 172.21 160.089 175.429 156.646C175.605 156.469 175.759 156.315 175.892 156.16L175.98 156.072V156.05Z" fill="white"/>
<path d="M173.157 152.673C174.502 151.195 173.29 147.752 173.29 147.752L174.568 150.091C178.691 144.132 184.402 141.969 184.402 131.663C184.402 100.059 162.221 61.6131 134.881 45.8111C122.049 38.3956 110.364 37.2701 101.588 41.4413C101.324 41.5516 101.059 41.684 100.773 41.8385C100.64 41.9047 100.53 41.993 100.398 42.0592C100.023 42.2579 99.6702 42.4786 99.3175 42.6993C99.2513 42.7434 99.1852 42.7875 99.097 42.8317C98.7222 43.0744 98.3473 43.2951 97.9946 43.56C83.8175 53.359 82.7812 71.8314 82.7812 71.8314L85.3609 74.3474V74.4357C85.3609 96.3289 96.0102 121.489 111.62 140.16C117.11 149.87 126.371 152.96 135.675 157.109C148.904 163.002 152.718 161.082 159.708 159.096C164.272 157.97 166.278 158.036 169.497 154.593C169.674 154.417 169.475 147.884 173.135 152.695C173.113 152.717 173.157 152.739 173.135 152.695L173.157 152.673Z" fill="#C7D3FF"/>
<path d="M184.402 129.213C184.402 118.796 181.977 107.628 177.765 96.77C177.082 104.605 174.899 111.049 171.526 115.927C171.526 115.927 170.908 117.008 169.563 118.465C169.541 118.487 169.497 118.531 169.475 118.553C169.321 118.707 169.166 118.884 168.99 119.038C165.771 122.481 161.78 124.821 157.216 125.946C150.227 127.933 140.393 127.888 127.164 121.996C117.86 117.847 110.694 109.548 105.204 99.8377C96.0543 88.9131 88.602 75.7374 84.016 62.2969C82.9356 66.4239 82.7812 69.3372 82.7812 69.3372L85.3609 71.8531V71.9414C85.3609 93.8347 96.0102 118.994 111.62 137.665C117.11 147.376 124.276 155.674 133.581 159.823C146.81 165.716 156.621 165.76 163.632 163.774C168.196 162.648 172.187 160.309 175.406 156.866C175.583 156.69 175.737 156.535 175.891 156.358L175.979 156.27C177.324 154.792 177.942 153.732 177.942 153.732C182.065 147.751 184.424 139.475 184.424 129.168L184.402 129.213Z" fill="#141516"/>
<path d="M154.813 165.209C148.309 165.209 141.143 163.487 133.404 160.022C124.938 156.248 117.485 148.723 111.224 137.666C95.0402 118.332 84.9201 93.1066 84.898 71.8313L82.3184 69.3153V69.0946C82.3404 68.9181 83.531 50.269 97.7301 40.448C98.0829 40.1831 98.4798 39.9404 98.8546 39.7197L99.0751 39.5873C99.4499 39.3666 99.8027 39.1459 100.177 38.9472L100.332 38.8589C100.332 38.8589 100.486 38.7707 100.552 38.7265C100.839 38.572 101.126 38.4396 101.39 38.3072C110.65 33.9153 122.645 35.4823 135.124 42.6991C162.552 58.5452 184.887 97.2557 184.887 128.97C184.887 138.901 182.66 147.443 178.427 153.644L178.361 153.754C178.361 153.754 177.699 154.88 176.332 156.359L176.288 156.403C176.09 156.624 175.935 156.778 175.759 156.955C172.474 160.464 168.417 162.825 163.765 163.995C160.943 164.789 157.966 165.209 154.835 165.209H154.813ZM83.2885 68.9401L85.8461 71.434V71.6326C85.8461 92.7976 95.8781 117.869 111.995 137.136C118.191 148.083 125.511 155.476 133.779 159.162C145.046 164.171 155.034 165.496 163.5 163.09C167.998 161.964 171.901 159.691 175.076 156.315C175.252 156.138 175.406 155.984 175.539 155.829L175.98 156.05L175.627 155.719C176.509 154.748 177.082 153.975 177.347 153.556L177.545 153.225C181.734 147.156 183.939 138.769 183.939 128.948C183.939 97.5426 161.825 59.2073 134.661 43.4936C122.446 36.4313 110.783 34.8864 101.787 39.1459C101.522 39.2562 101.28 39.3886 100.993 39.5431L100.618 39.7638C100.266 39.9624 99.8909 40.1611 99.5601 40.3818L99.3396 40.5142C98.9869 40.7349 98.612 40.9777 98.2593 41.2204C85.2287 50.2028 83.4428 66.8435 83.2664 68.9181L83.2885 68.9401Z" fill="#141516"/>
<path d="M162.131 160.516C180.385 149.966 180.391 115.768 162.144 84.1326C143.897 52.4968 114.307 35.4028 96.0524 45.9523C77.7981 56.5017 77.7922 90.6996 96.0394 122.335C114.287 153.971 143.877 171.065 162.131 160.516Z" fill="white"/>
<path d="M140.658 94.0114C154.659 102.111 167.205 116.478 175.781 132.7C175.803 131.927 175.825 131.133 175.825 130.338C175.825 100.5 154.902 64.2392 129.105 49.32C103.287 34.4008 82.3848 46.4951 82.3848 76.3335C82.3848 89.9947 86.7724 104.98 94.0042 118.663C95.0846 90.5685 115.567 79.5115 140.68 94.0335L140.658 94.0114Z" fill="#141516"/>
<path d="M149.963 164.127C143.48 164.127 136.293 161.964 128.862 157.66C102.956 142.697 81.8994 106.172 81.8994 76.2228C81.8994 61.6126 86.8382 50.7101 95.8339 45.5237C104.808 40.3373 116.714 41.507 129.347 48.79C155.254 63.7533 176.31 100.279 176.31 130.228C176.31 144.838 171.371 155.74 162.376 160.927C158.694 163.068 154.504 164.127 149.963 164.127ZM108.225 43.2946C103.86 43.2946 99.8247 44.3098 96.297 46.3623C87.632 51.3722 82.8475 61.9878 82.8475 76.2228C82.8475 105.863 103.705 142.013 129.347 156.822C141.672 163.95 153.248 165.12 161.913 160.088C170.578 155.078 175.362 144.463 175.362 130.228C175.362 100.588 154.504 64.4375 128.862 49.6287C121.564 45.4133 114.553 43.2946 108.225 43.2946Z" fill="#141516"/>
<path d="M124.982 87.346L141.011 114.69L170.644 102.574C166.278 90.2592 159.399 78.2311 150.999 68.2114L125.202 86.3528C124.872 86.5735 124.783 87.0149 124.982 87.346Z" fill="white"/>
<path d="M152.388 73.9053L127.893 91.1418L141.342 114.094L169.784 102.464C165.463 92.2012 159.488 82.358 152.41 73.9053H152.388Z" fill="#C7D3FF"/>
<path d="M140.812 115.264L124.585 87.5667C124.254 87.0149 124.409 86.3087 124.938 85.9335L151.087 67.5493L151.374 67.8804C159.862 78.0104 166.697 89.9502 171.107 102.398L171.261 102.817L140.834 115.264H140.812ZM125.401 87.0811L141.209 114.073L170.026 102.287C165.705 90.2371 159.09 78.6946 150.889 68.8294L125.445 86.728C125.335 86.8163 125.29 86.9708 125.357 87.1032L125.401 87.0811Z" fill="#141516"/>
<path d="M144.143 107.43C144.143 100.125 139.005 91.2307 132.7 87.5892C128.995 85.4484 125.688 85.5808 123.616 87.523C123.064 88.0527 122.601 88.6927 122.227 89.4431L119.779 92.8198L121.323 95.4902C121.83 102.111 126.195 109.659 131.685 113.389L133.273 116.148L138.146 115.618C138.41 115.618 138.675 115.574 138.917 115.53C142.07 115 144.165 112.109 144.165 107.43H144.143Z" fill="white"/>
<path d="M132.567 91.3187C128.863 89.1779 125.556 89.3103 123.483 91.2525C122.932 91.7822 122.469 92.4222 122.094 93.1726L120.749 95.0485L121.19 95.8209C121.697 102.442 126.063 109.99 131.553 113.72L133.14 116.478L138.013 115.949C138.277 115.949 138.542 115.904 138.785 115.86C141.541 115.397 143.481 113.124 143.922 109.46C143.216 102.53 138.41 94.6954 132.567 91.3408V91.3187Z" fill="#C7D3FF"/>
<path d="M132.986 116.655L131.289 113.72C125.776 109.902 121.389 102.332 120.838 95.6446L119.206 92.7976L121.83 89.1561C122.161 88.4498 122.646 87.7657 123.241 87.2139C125.6 85.2056 129.282 85.029 132.942 87.1477C139.38 90.8775 144.628 99.9703 144.628 107.408C144.628 112.175 142.511 115.375 138.983 115.971C138.719 116.015 138.432 116.059 138.146 116.059L132.986 116.633V116.655ZM120.331 92.8638L121.786 95.468C122.293 101.957 126.57 109.35 131.928 113.014L132.016 113.08L133.515 115.662L138.079 115.154C138.366 115.154 138.587 115.11 138.829 115.066C141.872 114.558 143.68 111.711 143.68 107.452C143.68 100.301 138.653 91.5838 132.457 88.0084C129.062 86.0442 125.953 86.0001 123.924 87.876H123.902C123.395 88.3616 122.976 88.9574 122.624 89.6637L120.308 92.8638H120.331Z" fill="#141516"/>
<path d="M138.895 108.952C138.895 115.375 134.397 117.979 128.819 114.779C123.263 111.557 118.743 103.744 118.743 97.3215C118.743 90.8992 123.241 88.2949 128.819 91.4951C134.375 94.7173 138.895 102.53 138.895 108.952Z" fill="white"/>
<path d="M127.871 96.1519C123.836 93.8125 120.352 94.5629 118.765 97.6085C118.897 103.987 123.351 111.601 128.819 114.779C132.854 117.118 136.337 116.368 137.925 113.322C137.792 106.944 133.339 99.33 127.871 96.1519Z" fill="#F14C4C"/>
<path d="M133.339 116.633C131.884 116.633 130.274 116.147 128.598 115.198C122.91 111.91 118.302 103.899 118.302 97.3217C118.302 94.0333 119.426 91.5835 121.477 90.3918C123.527 89.2 126.239 89.4648 129.061 91.098C134.75 94.3864 139.358 102.398 139.358 108.975C139.358 112.263 138.233 114.713 136.183 115.904C135.323 116.39 134.353 116.633 133.317 116.633H133.339ZM124.343 90.5904C123.461 90.5904 122.667 90.789 121.962 91.2084C120.22 92.2236 119.25 94.3864 119.25 97.3217C119.25 103.59 123.66 111.226 129.083 114.36C131.619 115.816 133.978 116.081 135.72 115.066C137.462 114.051 138.432 111.888 138.432 108.952C138.432 102.685 134.022 95.0485 128.598 91.9146C127.077 91.0318 125.644 90.5904 124.343 90.5904Z" fill="#141516"/>
<path d="M129.083 49.2316C103.264 34.3124 82.3623 46.4067 82.3623 76.2451C82.3623 106.084 103.286 142.344 129.083 157.263C154.901 172.183 175.803 160.088 175.803 130.25C175.803 100.412 154.879 64.1508 129.083 49.2316ZM129.083 150.025C106.726 137.114 88.602 105.686 88.602 79.8425C88.602 53.9987 106.726 43.5376 129.083 56.4485C151.44 69.3593 169.563 100.787 169.563 126.631C169.563 152.474 151.44 162.935 129.083 150.025Z" fill="white"/>
<path d="M175.472 130.316C175.472 128.374 175.384 126.387 175.208 124.401C170.798 97.3213 151.991 68.0126 129.458 54.9914C103.639 40.0722 82.7373 52.1664 82.7373 82.0049C82.7373 83.947 82.8255 85.9333 83.0019 87.9196C87.4115 114.999 106.219 144.308 128.752 157.329C154.571 172.248 175.472 160.154 175.472 130.316ZM89.1534 90.3031C88.5581 86.7719 88.2494 83.307 88.2494 79.9082C88.2494 54.0645 106.373 43.6033 128.73 56.5142C149.742 68.6526 167.028 97.1668 169.012 121.995C169.608 125.527 169.916 128.992 169.916 132.39C169.916 158.234 151.793 168.695 129.436 155.784C108.424 143.646 91.1377 115.132 89.1534 90.3031Z" fill="#F8A5A5"/>
<path d="M149.963 164.127C143.48 164.127 136.293 161.964 128.862 157.66C102.956 142.697 81.8994 106.172 81.8994 76.2228C81.8994 61.6126 86.8382 50.7101 95.8339 45.5237C104.808 40.3373 116.714 41.507 129.347 48.79C155.254 63.7533 176.31 100.279 176.31 130.228C176.31 144.838 171.371 155.74 162.376 160.927C158.694 163.068 154.504 164.127 149.963 164.127ZM108.225 43.2946C103.86 43.2946 99.8247 44.3098 96.297 46.3623C87.632 51.3722 82.8475 61.9878 82.8475 76.2228C82.8475 105.863 103.705 142.013 129.347 156.822C141.672 163.95 153.248 165.12 161.913 160.088C170.578 155.078 175.362 144.463 175.362 130.228C175.362 100.588 154.504 64.4375 128.862 49.6287C121.564 45.4133 114.553 43.2946 108.225 43.2946ZM147.162 156.049C141.54 156.049 135.3 154.173 128.84 150.444C106.395 137.467 88.117 105.796 88.117 79.8423C88.117 67.1742 92.4165 57.7062 100.199 53.204C108.005 48.7017 118.323 49.6949 129.303 56.051C151.748 69.028 170.026 100.698 170.026 126.652C170.026 139.32 165.727 148.788 157.944 153.291C154.725 155.145 151.087 156.071 147.162 156.071V156.049ZM111.003 51.3722C107.233 51.3722 103.749 52.255 100.685 54.0206C93.1881 58.3462 89.0651 67.5273 89.0651 79.8423C89.0651 105.487 107.123 136.782 129.303 149.605C139.953 155.762 149.963 156.778 157.459 152.452C164.955 148.126 169.078 138.945 169.078 126.63C169.078 100.985 151.021 69.6901 128.84 56.8676C122.534 53.226 116.471 51.3722 111.003 51.3722Z" fill="#141516"/>
<path d="M242.345 54.3079L242.015 54.1092C241.662 53.8002 241.177 53.7782 240.626 54.1092L234.695 57.53C233.636 58.148 232.776 59.7812 232.776 61.1716C232.776 61.8999 232.953 62.3854 233.328 62.6282L233.394 62.6723L235.907 64.2172L239.7 60.7964L243.073 57.3756L244.374 55.5217L242.367 54.3079H242.345Z" fill="#141516"/>
<path d="M235.929 64.8131L232.997 63.0033C232.534 62.6944 232.291 62.0764 232.291 61.1936C232.291 59.6046 233.239 57.839 234.43 57.1328L240.361 53.7119C241.066 53.3147 241.794 53.3368 242.301 53.7782L242.566 53.9326L244.991 55.4113L243.403 57.6845L239.986 61.1716L235.907 64.8572L235.929 64.8131ZM241.309 54.352C241.132 54.352 240.956 54.4182 240.824 54.5065L234.893 57.9273C233.989 58.457 233.217 59.9356 233.217 61.1716C233.217 62.0102 233.46 62.1868 233.548 62.2309L233.658 62.3192L235.819 63.6434L239.346 60.4653L242.698 57.0666L243.668 55.6762L241.772 54.5285C241.617 54.3961 241.485 54.352 241.331 54.352H241.309Z" fill="white"/>
<path d="M243.117 60.7301L237.186 64.1509C236.127 64.7689 235.268 64.1068 235.268 62.7164C235.268 61.3039 236.127 59.6708 237.186 59.0749L243.117 55.6541C244.175 55.0361 245.035 55.6982 245.035 57.0886C245.035 58.5011 244.175 60.1342 243.117 60.7301Z" fill="#141516"/>
<path d="M236.436 64.8792C236.172 64.8792 235.929 64.813 235.709 64.6806C235.135 64.3496 234.805 63.6433 234.805 62.7164C234.805 61.1274 235.753 59.3618 236.943 58.6555L242.874 55.2347C243.492 54.8816 244.087 54.8375 244.594 55.1244C245.167 55.4554 245.498 56.1616 245.498 57.0886C245.498 58.6776 244.55 60.4432 243.359 61.1494L237.428 64.5702C237.098 64.7689 236.745 64.8572 236.436 64.8572V64.8792ZM243.889 55.8968C243.712 55.8968 243.514 55.9851 243.359 56.0734L237.428 59.4942C236.524 60.0239 235.753 61.5025 235.753 62.7385C235.753 63.2902 235.907 63.7095 236.172 63.864C236.414 64.0185 236.723 63.8861 236.943 63.7537L242.874 60.3328C243.778 59.8032 244.55 58.3245 244.55 57.0886C244.55 56.5368 244.396 56.1175 244.131 55.963C244.043 55.9189 243.955 55.8968 243.867 55.8968H243.889Z" fill="white"/>
<path d="M226.007 140.203C230.66 128.109 233.129 116.147 234.187 109.968C234.827 106.238 237.076 102.994 240.317 101.074L250.349 95.1589L250.437 94.0112L239.832 100.257C236.348 102.309 233.945 105.797 233.239 109.813C232.137 116.147 229.579 128.595 224.685 140.976L226.007 140.203Z" fill="white"/>
<path d="M224.42 141.638L224.111 142.388L224.552 142.145L224.42 141.638Z" fill="#141516"/>
<path d="M206.075 61.9658C206.075 61.9658 182.726 70.0434 174.899 88.1406C174.811 88.3393 174.745 88.5158 174.679 88.7145C178.537 96.8582 181.426 105.333 183.079 113.653C185.218 103.545 190.664 92.6208 203.055 84.786C207.002 84.0357 209.603 80.3721 209.603 74.5015C209.603 70.7055 207.928 65.8501 206.098 61.9658H206.075Z" fill="#141516"/>
<path d="M254.097 38.7926L268.164 30.7812L270.413 38.4616L270.876 45.5901L269.751 50.2468L267.679 53.8884L262.498 57.4416L253.546 62.7163L256.478 56.9119L256.941 50.8869L255.795 43.6259L254.097 38.7926Z" fill="#141516"/>
<path d="M231.585 71.3899L231.078 71.6768L231.034 72.8024L232.026 72.2286C232.026 72.2286 239.677 68.0353 244.153 65.5414L242.742 65.2324C238.376 67.6601 232.004 71.1692 231.585 71.3899Z" fill="white"/>
<path d="M178.515 98.2046L178.229 100.169C179.86 104.803 181.183 109.46 182.087 114.073L182.572 111.866C181.558 107.319 180.213 102.751 178.515 98.2046Z" fill="white"/>
<path d="M141.872 98.2046L150.36 93.7244C150.36 93.7244 151.485 93.1285 159.069 88.8911L160.26 91.4071C163.413 98.0501 165.706 104.362 165.706 104.362L141.872 113.808L143.569 111.248L144.143 107.43L143.658 101.559L141.85 98.2046H141.872Z" fill="#141516"/>
<path d="M164.999 104.495L158.76 107.055L159.465 107.805L165.242 105.422L164.999 104.495Z" fill="#C7D3FF"/>
<path d="M215.645 53.3367C216.218 53.6677 216.218 54.1974 215.645 54.5284C215.072 54.8595 214.146 54.8595 213.573 54.5284C212.999 54.1974 212.999 53.6677 213.573 53.3367C214.146 53.0056 215.072 53.0056 215.645 53.3367Z" fill="#141516"/>
<path d="M221.069 50.2029C221.642 50.5339 221.642 51.0636 221.069 51.3946C220.496 51.7257 219.57 51.7257 218.996 51.3946C218.423 51.0636 218.423 50.5339 218.996 50.2029C219.57 49.8718 220.496 49.8718 221.069 50.2029Z" fill="#141516"/>
<path d="M226.493 47.0686C227.066 47.3996 227.066 47.9293 226.493 48.2604C225.919 48.5914 224.993 48.5914 224.42 48.2604C223.847 47.9293 223.847 47.3996 224.42 47.0686C224.993 46.7376 225.919 46.7376 226.493 47.0686Z" fill="#141516"/>
<path d="M231.917 43.9128C232.49 44.2439 232.49 44.7736 231.917 45.1046C231.343 45.4357 230.417 45.4357 229.844 45.1046C229.271 44.7736 229.271 44.2439 229.844 43.9128C230.417 43.5818 231.343 43.5818 231.917 43.9128Z" fill="#141516"/>
<path d="M237.362 40.779C237.935 41.1101 237.935 41.6398 237.362 41.9708C236.789 42.3019 235.863 42.3019 235.289 41.9708C234.716 41.6398 234.716 41.1101 235.289 40.779C235.863 40.448 236.789 40.448 237.362 40.779Z" fill="#141516"/>
<path d="M242.786 37.6448C243.359 37.9758 243.359 38.5055 242.786 38.8365C242.212 39.1676 241.286 39.1676 240.713 38.8365C240.14 38.5055 240.14 37.9758 240.713 37.6448C241.286 37.3137 242.212 37.3137 242.786 37.6448Z" fill="#141516"/>
<path d="M210.199 50.2029C210.772 50.5339 210.772 51.0636 210.199 51.3946C209.626 51.7257 208.699 51.7257 208.126 51.3946C207.553 51.0636 207.553 50.5339 208.126 50.2029C208.699 49.8718 209.626 49.8718 210.199 50.2029Z" fill="#141516"/>
<path d="M215.645 47.0686C216.218 47.3996 216.218 47.9293 215.645 48.2604C215.072 48.5914 214.146 48.5914 213.573 48.2604C212.999 47.9293 212.999 47.3996 213.573 47.0686C214.146 46.7376 215.072 46.7376 215.645 47.0686Z" fill="#141516"/>
<path d="M221.069 43.9128C221.642 44.2439 221.642 44.7736 221.069 45.1046C220.496 45.4357 219.57 45.4357 218.996 45.1046C218.423 44.7736 218.423 44.2439 218.996 43.9128C219.57 43.5818 220.496 43.5818 221.069 43.9128Z" fill="#141516"/>
<path d="M226.493 40.779C227.066 41.1101 227.066 41.6398 226.493 41.9708C225.919 42.3019 224.993 42.3019 224.42 41.9708C223.847 41.6398 223.847 41.1101 224.42 40.779C224.993 40.448 225.919 40.448 226.493 40.779Z" fill="#141516"/>
<path d="M231.917 37.6448C232.49 37.9758 232.49 38.5055 231.917 38.8365C231.343 39.1676 230.417 39.1676 229.844 38.8365C229.271 38.5055 229.271 37.9758 229.844 37.6448C230.417 37.3137 231.343 37.3137 231.917 37.6448Z" fill="#141516"/>
<path d="M237.362 34.511C237.935 34.842 237.935 35.3717 237.362 35.7028C236.789 36.0338 235.863 36.0338 235.289 35.7028C234.716 35.3717 234.716 34.842 235.289 34.511C235.863 34.1799 236.789 34.1799 237.362 34.511Z" fill="#141516"/>
<path d="M194.478 64.8572C195.051 65.1882 195.051 65.7179 194.478 66.0489C193.905 66.38 192.979 66.38 192.406 66.0489C191.832 65.7179 191.832 65.1882 192.406 64.8572C192.979 64.5261 193.905 64.5261 194.478 64.8572Z" fill="#141516"/>
<path d="M199.902 61.7009C200.475 62.032 200.475 62.5616 199.902 62.8927C199.329 63.2237 198.403 63.2237 197.829 62.8927C197.256 62.5616 197.256 62.032 197.829 61.7009C198.403 61.3699 199.329 61.3699 199.902 61.7009Z" fill="#141516"/>
<path d="M194.478 58.5671C195.051 58.8982 195.051 59.4279 194.478 59.7589C193.905 60.09 192.979 60.09 192.406 59.7589C191.832 59.4279 191.832 58.8982 192.406 58.5671C192.979 58.2361 193.905 58.2361 194.478 58.5671Z" fill="#141516"/>
<path d="M259.786 32.5911C260.359 32.9221 260.359 33.4518 259.786 33.7828C259.212 34.1139 258.286 34.1139 257.713 33.7828C257.14 33.4518 257.14 32.9221 257.713 32.5911C258.286 32.26 259.212 32.26 259.786 32.5911Z" fill="#141516"/>
<path d="M254.339 29.4568C254.913 29.7878 254.913 30.3175 254.339 30.6486C253.766 30.9796 252.84 30.9796 252.267 30.6486C251.694 30.3175 251.694 29.7878 252.267 29.4568C252.84 29.1257 253.766 29.1257 254.339 29.4568Z" fill="#141516"/>
<path d="M259.786 26.323C260.359 26.654 260.359 27.1837 259.786 27.5148C259.212 27.8458 258.286 27.8458 257.713 27.5148C257.14 27.1837 257.14 26.654 257.713 26.323C258.286 25.9919 259.212 25.9919 259.786 26.323Z" fill="#141516"/>
</svg>
