<svg width="284" height="285" viewBox="0 0 284 285" fill="none" xmlns="http://www.w3.org/2000/svg">
<path d="M183.299 74.355L17.4092 169.616L94.9055 214.301L95.581 219.262L104.512 226.337C104.512 226.337 108.745 228.631 114.253 225.453L280.158 130.192L183.299 74.355Z" fill="white"/>
<path d="M183.298 80.2007L13.986 177.41C13.0854 177.92 13.0854 179.209 13.986 179.733L104.511 232.198C104.511 232.198 108.744 234.492 114.252 231.314L280.157 136.053L183.298 80.2007Z" fill="white"/>
<path d="M94.9044 214.256L95.5798 219.217L104.511 226.292C104.511 226.292 108.744 228.586 114.252 225.408L275.069 133.055L183.298 80.1411L22.4814 172.494L94.9044 214.256Z" fill="#C7D3FF"/>
<path d="M108.324 227.911C105.847 227.911 104.241 227.072 104.136 227.012L94.8446 219.667L94.1842 214.78L15.8623 169.615L183.298 73.4702L183.673 73.6951L281.673 130.192L114.613 226.127C112.211 227.506 110.05 227.926 108.309 227.926L108.324 227.911ZM96.2856 218.857L104.976 225.737C104.976 225.737 108.819 227.701 113.862 224.793L278.611 130.192L183.298 75.239L18.9393 169.615L95.6101 213.82L96.2856 218.842V218.857Z" fill="#141516"/>
<path d="M233.341 151.477L233.041 151.657C231.915 152.316 229.934 152.227 228.628 151.477L163.335 113.837C162.029 113.088 161.894 111.949 163.02 111.289L163.32 111.109C164.446 110.45 166.427 110.54 167.733 111.289L233.026 148.929C234.332 149.678 234.467 150.817 233.341 151.477Z" fill="white"/>
<path d="M231.105 150.413C230.099 150.413 229.063 150.173 228.238 149.693L162.945 112.054C162.014 111.514 161.474 110.75 161.474 109.955C161.474 109.236 161.879 108.606 162.614 108.186L162.915 108.006C164.28 107.227 166.547 107.302 168.093 108.186L233.386 145.841C234.317 146.381 234.857 147.145 234.857 147.939C234.857 148.644 234.437 149.289 233.716 149.708L233.416 149.888C232.786 150.248 231.96 150.428 231.105 150.428V150.413ZM165.211 108.996C164.626 108.996 164.085 109.101 163.695 109.326L163.395 109.505C163.275 109.565 163.02 109.745 163.02 109.955C163.02 110.12 163.2 110.435 163.71 110.735L229.003 148.374C230.054 148.974 231.765 149.064 232.651 148.554L232.951 148.374C233.071 148.314 233.326 148.134 233.326 147.939C233.326 147.76 233.146 147.46 232.636 147.16L167.343 109.52C166.757 109.176 165.962 109.011 165.211 109.011V108.996Z" fill="#141516"/>
<path d="M241.941 146.516L241.641 146.695C240.515 147.355 238.534 147.265 237.228 146.516L171.935 108.876C170.629 108.127 170.494 106.987 171.619 106.328L171.92 106.148C173.045 105.488 175.027 105.578 176.333 106.328L241.626 143.967C242.932 144.717 243.067 145.856 241.941 146.516Z" fill="white"/>
<path d="M239.72 145.452C238.715 145.452 237.679 145.212 236.838 144.732L171.545 107.092C170.615 106.553 170.074 105.788 170.074 104.994C170.074 104.274 170.479 103.645 171.215 103.225L171.515 103.045C172.881 102.251 175.163 102.341 176.694 103.225L241.987 140.865C242.917 141.404 243.458 142.169 243.458 142.963C243.458 143.668 243.038 144.312 242.317 144.732L242.017 144.912C241.386 145.272 240.561 145.452 239.705 145.452H239.72ZM173.827 104.02C173.241 104.02 172.701 104.124 172.311 104.349L172.011 104.529C171.89 104.589 171.635 104.769 171.635 104.979C171.635 105.144 171.815 105.459 172.326 105.758L237.619 143.398C238.67 143.998 240.381 144.087 241.266 143.578L241.567 143.398C241.687 143.338 241.942 143.158 241.942 142.963C241.942 142.783 241.762 142.484 241.251 142.184L175.958 104.544C175.373 104.199 174.577 104.034 173.842 104.034L173.827 104.02Z" fill="#141516"/>
<path d="M250.557 141.555L250.257 141.735C249.131 142.394 247.15 142.304 245.844 141.555L180.551 103.915C179.245 103.166 179.11 102.026 180.236 101.367L180.536 101.187C181.662 100.527 183.643 100.617 184.949 101.367L250.242 139.006C251.548 139.756 251.683 140.895 250.557 141.555Z" fill="white"/>
<path d="M248.336 140.49C247.331 140.49 246.295 140.25 245.469 139.771L180.176 102.131C179.245 101.591 178.705 100.827 178.705 100.032C178.705 99.3279 179.125 98.6833 179.846 98.2636L180.146 98.0837C181.512 97.2893 183.778 97.3792 185.324 98.2636L250.618 135.903C251.548 136.443 252.089 137.207 252.089 138.002C252.089 138.721 251.683 139.351 250.948 139.771L250.648 139.95C250.017 140.31 249.192 140.49 248.336 140.49ZM182.443 99.0731C181.857 99.0731 181.317 99.178 180.927 99.4028L180.626 99.5827C180.506 99.6427 180.251 99.8226 180.251 100.032C180.251 100.212 180.431 100.512 180.942 100.812L246.235 138.451C247.285 139.051 248.997 139.141 249.882 138.631L250.182 138.451C250.302 138.392 250.558 138.212 250.558 138.002C250.558 137.822 250.378 137.522 249.867 137.222L184.574 99.5827C183.989 99.238 183.193 99.0731 182.458 99.0731H182.443Z" fill="#141516"/>
<path d="M202.302 169.12L202.002 169.3C200.876 169.959 198.895 169.869 197.589 169.12L118.922 123.76C117.616 123.011 117.481 121.872 118.607 121.212L118.907 121.032C120.033 120.373 122.014 120.463 123.32 121.212L201.987 166.571C203.293 167.321 203.428 168.46 202.302 169.12Z" fill="white"/>
<path d="M200.081 168.056C199.075 168.056 198.039 167.816 197.199 167.336L118.532 121.977C117.601 121.437 117.061 120.673 117.061 119.878C117.061 119.159 117.466 118.529 118.201 118.11L118.501 117.93C119.867 117.15 122.134 117.225 123.68 118.11L202.347 163.469C203.278 164.009 203.818 164.773 203.818 165.568C203.818 166.287 203.413 166.917 202.677 167.336L202.377 167.516C201.747 167.876 200.921 168.056 200.065 168.056H200.081ZM120.813 118.919C120.228 118.919 119.687 119.024 119.297 119.249L118.997 119.429C118.877 119.489 118.622 119.669 118.622 119.878C118.622 120.058 118.802 120.358 119.312 120.658L197.979 166.017C199.03 166.632 200.741 166.707 201.627 166.197L201.927 166.017C202.047 165.957 202.302 165.777 202.302 165.568C202.302 165.403 202.122 165.088 201.612 164.788L122.944 119.429C122.359 119.084 121.564 118.919 120.813 118.919Z" fill="#141516"/>
<path d="M210.915 164.158L210.615 164.338C209.49 164.998 207.508 164.908 206.202 164.158L127.535 118.799C126.229 118.049 126.094 116.91 127.22 116.251L127.52 116.071C128.646 115.411 130.627 115.501 131.933 116.251L210.6 161.61C211.906 162.359 212.041 163.499 210.915 164.158Z" fill="white"/>
<path d="M208.695 163.094C207.689 163.094 206.653 162.854 205.813 162.374L127.146 117.015C126.215 116.475 125.675 115.711 125.675 114.917C125.675 114.197 126.08 113.567 126.816 113.148L127.116 112.968C128.482 112.188 130.748 112.263 132.294 113.148L210.961 158.507C211.892 159.047 212.432 159.811 212.432 160.606C212.432 161.325 212.027 161.955 211.291 162.374L210.991 162.554C210.361 162.914 209.55 163.094 208.695 163.094ZM129.427 113.957C128.842 113.957 128.302 114.062 127.911 114.287L127.611 114.467C127.491 114.527 127.236 114.707 127.236 114.917C127.236 115.081 127.416 115.396 127.926 115.696L206.593 161.055C207.644 161.67 209.355 161.745 210.241 161.235L210.556 161.055C210.676 160.995 210.931 160.816 210.931 160.606C210.931 160.441 210.751 160.126 210.241 159.826L131.574 114.467C130.988 114.122 130.193 113.957 129.442 113.957H129.427Z" fill="#141516"/>
<path d="M219.532 159.182L219.231 159.362C218.106 160.022 216.124 159.932 214.819 159.182L136.151 113.823C134.846 113.073 134.711 111.934 135.836 111.275L136.136 111.095C137.262 110.435 139.244 110.525 140.549 111.275L219.216 156.634C220.522 157.383 220.657 158.523 219.532 159.182Z" fill="white"/>
<path d="M217.31 158.133C216.304 158.133 215.269 157.893 214.428 157.413L135.761 112.054C134.83 111.514 134.29 110.75 134.29 109.955C134.29 109.236 134.695 108.606 135.431 108.186L135.731 108.006C137.097 107.227 139.363 107.302 140.909 108.186L219.577 153.546C220.507 154.085 221.032 154.85 221.032 155.644C221.032 156.364 220.627 156.993 219.892 157.413L219.592 157.593C218.961 157.953 218.136 158.133 217.295 158.133H217.31ZM138.043 108.996C137.457 108.996 136.917 109.101 136.527 109.326L136.226 109.505C136.106 109.565 135.851 109.745 135.851 109.955C135.851 110.12 136.031 110.435 136.542 110.735L215.209 156.094C216.259 156.694 217.97 156.783 218.856 156.274L219.156 156.094C219.276 156.034 219.531 155.854 219.531 155.644C219.531 155.464 219.351 155.165 218.841 154.865L140.174 109.505C139.589 109.161 138.793 108.996 138.043 108.996Z" fill="#141516"/>
<path d="M160.228 174.651L159.928 174.831C158.802 175.491 156.821 175.401 155.515 174.651L93.089 138.661C91.7831 137.911 91.648 136.772 92.7738 136.112L93.074 135.933C94.1997 135.273 96.181 135.363 97.4869 136.112L159.913 172.103C161.219 172.853 161.354 173.992 160.228 174.651Z" fill="white"/>
<path d="M158.007 173.587C157.001 173.587 155.965 173.347 155.125 172.868L92.6985 136.877C91.7679 136.337 91.2275 135.573 91.2275 134.778C91.2275 134.059 91.6328 133.429 92.3683 133.01L92.6685 132.83C94.0344 132.05 96.3009 132.125 97.8469 133.01L160.273 169C161.204 169.54 161.744 170.304 161.744 171.099C161.744 171.818 161.339 172.448 160.603 172.868L160.303 173.048C159.673 173.407 158.847 173.587 158.007 173.587ZM94.98 133.819C94.3946 133.819 93.8543 133.924 93.464 134.149L93.1638 134.329C93.0437 134.389 92.7886 134.568 92.7886 134.778C92.7886 134.958 92.9687 135.258 93.479 135.558L155.905 171.549C156.956 172.163 158.667 172.238 159.553 171.728L159.853 171.549C159.973 171.489 160.228 171.309 160.228 171.099C160.228 170.934 160.048 170.619 159.538 170.319L97.1114 134.329C96.5261 133.984 95.7305 133.819 94.98 133.819Z" fill="#141516"/>
<path d="M168.841 169.689L168.541 169.869C167.415 170.529 165.433 170.439 164.128 169.689L101.701 133.699C100.395 132.949 100.26 131.81 101.386 131.151L101.686 130.971C102.812 130.311 104.793 130.401 106.099 131.151L168.526 167.141C169.831 167.891 169.966 169.03 168.841 169.689Z" fill="white"/>
<path d="M166.605 168.625C165.6 168.625 164.564 168.385 163.723 167.906L101.297 131.915C100.367 131.375 99.8262 130.611 99.8262 129.816C99.8262 129.097 100.231 128.467 100.967 128.048L101.267 127.868C102.633 127.088 104.9 127.163 106.446 128.048L168.872 164.038C169.803 164.578 170.343 165.342 170.343 166.137C170.343 166.856 169.938 167.486 169.202 167.906L168.902 168.086C168.271 168.445 167.461 168.625 166.605 168.625ZM103.579 128.857C102.993 128.857 102.453 128.962 102.063 129.187L101.762 129.367C101.642 129.427 101.387 129.607 101.387 129.816C101.387 129.981 101.567 130.296 102.078 130.596L164.504 166.587C165.555 167.201 167.266 167.276 168.151 166.766L168.467 166.587C168.587 166.527 168.842 166.347 168.842 166.137C168.842 165.972 168.662 165.657 168.151 165.357L105.725 129.367C105.14 129.022 104.344 128.857 103.594 128.857H103.579Z" fill="#141516"/>
<path d="M193.685 174.082L193.385 174.261C192.259 174.921 190.278 174.831 188.972 174.082L110.305 128.722C108.999 127.973 108.864 126.834 109.99 126.174L110.29 125.994C111.416 125.335 113.397 125.424 114.703 126.174L193.37 171.533C194.676 172.283 194.811 173.422 193.685 174.082Z" fill="white"/>
<path d="M191.463 173.018C190.458 173.018 189.422 172.778 188.581 172.298L109.914 126.939C108.984 126.399 108.443 125.635 108.443 124.84C108.443 124.121 108.849 123.491 109.584 123.072L109.884 122.892C111.25 122.112 113.517 122.187 115.063 123.072L193.73 168.431C194.66 168.971 195.186 169.735 195.186 170.53C195.186 171.249 194.781 171.879 194.045 172.298L193.745 172.478C193.114 172.838 192.289 173.018 191.448 173.018H191.463ZM112.196 123.881C111.61 123.881 111.07 123.986 110.68 124.211L110.38 124.391C110.26 124.451 110.004 124.631 110.004 124.84C110.004 125.005 110.185 125.32 110.695 125.62L189.362 170.979C190.413 171.594 192.124 171.669 193.009 171.159L193.31 170.979C193.43 170.919 193.685 170.739 193.685 170.53C193.685 170.35 193.505 170.05 192.994 169.75L114.327 124.391C113.742 124.046 112.946 123.881 112.196 123.881Z" fill="#141516"/>
<path d="M151.612 179.628L151.312 179.808C150.186 180.468 148.205 180.378 146.899 179.628L84.4728 143.638C83.1669 142.888 83.0318 141.749 84.1576 141.089L84.4578 140.91C85.5835 140.25 87.5648 140.34 88.8707 141.089L151.297 177.08C152.603 177.83 152.738 178.969 151.612 179.628Z" fill="white"/>
<path d="M149.391 178.564C148.385 178.564 147.35 178.324 146.509 177.845L84.0829 141.854C83.1523 141.314 82.627 140.55 82.627 139.755C82.627 139.036 83.0322 138.406 83.7677 137.987L84.0679 137.807C85.4338 137.027 87.7003 137.102 89.2463 137.987L151.673 173.977C152.603 174.517 153.129 175.281 153.129 176.076C153.129 176.795 152.723 177.425 151.988 177.845L151.688 178.025C151.057 178.384 150.232 178.564 149.391 178.564ZM86.3644 138.796C85.779 138.796 85.2387 138.901 84.8484 139.126L84.5482 139.306C84.4281 139.366 84.173 139.546 84.173 139.755C84.173 139.92 84.3531 140.235 84.8634 140.535L147.29 176.526C148.34 177.14 150.052 177.215 150.937 176.705L151.237 176.526C151.357 176.466 151.613 176.286 151.613 176.076C151.613 175.896 151.433 175.596 150.922 175.296L88.4958 139.306C87.9105 138.961 87.1149 138.796 86.3644 138.796Z" fill="#141516"/>
<path d="M145.758 192.655C140.97 192.655 136.182 191.606 132.549 189.507C128.872 187.393 126.846 184.53 126.846 181.442C126.846 178.354 128.872 175.506 132.549 173.378C139.829 169.181 151.687 169.181 158.982 173.378C162.659 175.491 164.671 178.354 164.671 181.442C164.671 184.53 162.644 187.378 158.982 189.507C155.335 191.606 150.561 192.655 145.773 192.655H145.758ZM145.758 171.744C141.255 171.744 136.737 172.733 133.315 174.712C130.133 176.541 128.392 178.939 128.392 181.442C128.392 183.946 130.148 186.344 133.315 188.173C140.175 192.13 151.342 192.13 158.201 188.173C161.384 186.344 163.125 183.946 163.125 181.442C163.125 178.939 161.369 176.541 158.201 174.712C154.764 172.733 150.261 171.744 145.758 171.744Z" fill="#141516"/>
<path d="M145.757 190.046C142.125 190.046 138.508 189.251 135.746 187.663C132.924 186.044 131.378 183.825 131.378 181.457C131.378 179.088 132.924 176.87 135.746 175.236C141.269 172.058 150.245 172.058 155.769 175.236C158.591 176.855 160.137 179.073 160.137 181.457C160.137 183.84 158.591 186.044 155.769 187.663C153.007 189.251 149.39 190.046 145.757 190.046ZM145.757 174.352C142.41 174.352 139.063 175.086 136.511 176.555C134.185 177.889 132.909 179.628 132.909 181.442C132.909 183.256 134.185 184.994 136.511 186.328C141.615 189.266 149.9 189.266 155.004 186.328C157.33 184.994 158.606 183.256 158.606 181.442C158.606 179.628 157.33 177.889 155.004 176.555C152.452 175.086 149.105 174.352 145.757 174.352Z" fill="#141516"/>
<path d="M73.6815 144.731L72.916 146.055L101.41 162.484L102.175 161.159L73.6815 144.731Z" fill="#141516"/>
<path d="M70.2186 146.727L69.4531 148.051L97.9469 164.48L98.7124 163.156L70.2186 146.727Z" fill="#141516"/>
<path d="M105.968 163.363L105.202 164.687L108.426 166.546L109.191 165.222L105.968 163.363Z" fill="#141516"/>
<path d="M102.535 165.338L101.77 166.663L104.993 168.521L105.759 167.197L102.535 165.338Z" fill="#141516"/>
<path d="M25.8603 136.982L25.5901 136.907C23.2635 136.128 20.6068 136.622 17.4097 138.466C9.87467 142.798 3.76562 153.366 3.76562 162.045C3.76562 166.138 5.13153 169.061 7.33799 170.575L8.37368 171.189L104.497 226.337C102.126 224.868 100.67 221.87 100.67 217.628C100.67 208.949 106.779 198.381 114.314 194.034C117.976 191.92 121.278 191.68 123.725 192.969L25.8603 136.982Z" fill="#C7D3FF"/>
<path d="M114.179 193.899L26.3257 143.638L26.0555 143.563C23.729 142.783 21.0722 143.278 17.8751 145.122C11.3007 148.914 5.8221 157.428 4.53125 165.313C5.10163 167.486 6.18234 169.135 7.65332 170.14L8.689 170.754L101.165 223.803C101.195 222.844 101.27 221.87 101.435 220.895C101.15 219.801 100.985 218.572 100.985 217.193C100.985 208.679 106.854 198.381 114.179 193.884V193.899Z" fill="white"/>
<path d="M104.122 227.012L7.99831 171.864L6.94761 171.234C4.38091 169.481 3 166.228 3 162.046C3 153.127 9.28916 142.244 17.0193 137.792C20.3965 135.843 23.2784 135.319 25.8301 136.173L26.2354 136.308L124.836 192.715L123.995 193.974L123.38 193.659C121.068 192.445 117.976 192.82 114.704 194.709C107.394 198.921 101.45 209.204 101.45 217.628C101.45 221.435 102.681 224.299 104.917 225.678L104.137 226.997L104.122 227.012ZM23.3685 137.327C21.7174 137.327 19.8712 137.927 17.7848 139.126C10.4749 143.338 4.53101 153.621 4.53101 162.061C4.53101 165.718 5.68678 168.521 7.77316 169.96L8.76382 170.545L101.06 223.489C100.294 221.87 99.9042 219.892 99.9042 217.643C99.9042 208.724 106.193 197.856 113.923 193.389C115.875 192.265 117.766 191.621 119.552 191.471L25.5599 137.687L25.3798 137.642C24.7344 137.432 24.074 137.312 23.3685 137.312V137.327Z" fill="#141516"/>
<path d="M55.4326 107.403L160.082 47.9081C162.664 46.4391 165.936 47.3385 167.407 49.9167C168.878 52.495 167.977 55.7628 165.395 57.2318L60.7461 116.727C58.1644 118.196 54.8922 117.296 53.4213 114.718C51.9503 112.14 52.8509 108.872 55.4326 107.403Z" fill="white"/>
<path d="M55.4176 109.306L160.067 49.8114C162.649 48.3424 165.921 49.2418 167.392 51.8201C168.863 54.3983 166.386 56.0472 163.819 57.5162L60.7311 115.542C58.1494 117.011 54.8772 119.2 53.4213 116.621C51.9503 114.043 52.8509 110.775 55.4326 109.306H55.4176Z" fill="#FABCBC"/>
<path d="M167.182 49.8862C166.372 48.4622 164.991 47.5628 163.49 47.293C164.511 49.7513 163.58 52.6294 161.208 53.9785L56.5592 113.473C55.4184 114.118 54.1276 114.283 52.9268 114.058C53.0168 114.268 53.0919 114.478 53.1969 114.687C54.6679 117.266 57.9401 118.165 60.5218 116.696L165.171 57.2013C167.753 55.7323 168.653 52.4645 167.182 49.8862Z" fill="#141516"/>
<path d="M58.0897 118.225C57.5343 118.225 56.994 118.15 56.4536 118.001C54.8626 117.566 53.5417 116.532 52.7311 115.108C51.9206 113.683 51.7105 112.02 52.1458 110.431C52.581 108.842 53.6167 107.523 55.0427 106.713L159.692 47.2184C161.118 46.4089 162.784 46.199 164.375 46.6337C165.966 47.0685 167.287 48.1028 168.098 49.5268C169.779 52.4798 168.743 56.2423 165.786 57.9211L61.1367 117.416C60.1911 117.956 59.1554 118.225 58.0897 118.225ZM162.724 47.9978C161.943 47.9978 161.163 48.1927 160.472 48.5974L55.8232 108.092C54.7575 108.692 53.992 109.681 53.6768 110.85C53.3466 112.035 53.5117 113.264 54.1121 114.328C54.7125 115.392 55.7031 116.157 56.8739 116.472C58.0597 116.786 59.2905 116.636 60.3562 116.037L165.006 56.5421C166.071 55.9425 166.837 54.9531 167.152 53.7839C167.482 52.5997 167.317 51.3705 166.717 50.3063C166.116 49.242 165.126 48.4775 163.955 48.1627C163.55 48.0578 163.144 47.9978 162.739 47.9978H162.724Z" fill="#141516"/>
<path d="M117.103 74.9195L155.285 53.2143C156.322 52.6246 156.684 51.3066 156.094 50.2706L155.878 49.8928C155.288 48.8567 153.968 48.495 152.931 49.0847L114.749 70.7899C113.712 71.3796 113.35 72.6976 113.94 73.7336L114.155 74.1114C114.746 75.1474 116.066 75.5092 117.103 74.9195Z" fill="white"/>
<path d="M117.097 76.8873L155.279 55.1821C156.316 54.5923 156.679 53.2744 156.088 52.2383L155.873 51.8606C155.282 50.8245 153.962 50.4627 152.925 51.0525L114.743 72.7576C113.706 73.3474 113.344 74.6654 113.934 75.7014L114.15 76.0792C114.74 77.1152 116.06 77.477 117.097 76.8873Z" fill="#F14C4C"/>
<path d="M116.045 76.0141C115.774 76.0141 115.519 75.9841 115.249 75.9092C114.484 75.6993 113.853 75.2046 113.463 74.5151L113.253 74.1553C112.862 73.4658 112.757 72.6714 112.968 71.9069C113.178 71.1424 113.673 70.5128 114.363 70.1231L152.534 48.4177C153.224 48.028 154.02 47.9231 154.785 48.1329C155.551 48.3428 156.181 48.8374 156.571 49.527L156.782 49.9017C157.592 51.3258 157.097 53.1246 155.671 53.934L117.501 75.6393C117.05 75.8942 116.54 76.0291 116.045 76.0291V76.0141ZM154.005 49.6169C153.765 49.6169 153.539 49.6769 153.329 49.7968L115.159 71.5021C114.844 71.682 114.619 71.9818 114.514 72.3266C114.423 72.6863 114.469 73.0461 114.649 73.3759L114.859 73.7356C115.039 74.0504 115.339 74.2903 115.684 74.3802C116.045 74.4701 116.405 74.4252 116.72 74.2453L154.89 52.5399C155.551 52.1652 155.776 51.3258 155.401 50.6662L155.19 50.3065C155.01 49.9917 154.71 49.7668 154.365 49.6619C154.245 49.6319 154.125 49.6169 154.005 49.6169Z" fill="#141516"/>
<path d="M56.7544 117.611L57.6249 116.891C59.186 115.617 59.4862 113.353 58.3154 111.72C57.3548 110.355 55.6136 109.786 54.0226 110.28L52.7917 110.67L44.8665 118.285C44.3562 118.78 44.2361 119.559 44.5963 120.174C44.9566 120.818 45.7221 121.103 46.4275 120.893L56.7544 117.611Z" fill="#FABCBC"/>
<path d="M56.9653 120.294L57.8359 119.574C59.3969 118.3 59.6971 116.037 58.5263 114.403C57.5657 113.039 55.8246 112.469 54.2335 112.964L53.0027 113.353L45.0774 120.968C44.5671 121.463 44.447 122.242 44.8073 122.857C45.1675 123.501 45.933 123.786 46.6385 123.576L56.9653 120.294Z" fill="white"/>
<path d="M45.9473 121.763C45.1218 121.763 44.3263 121.328 43.891 120.578C43.3656 119.649 43.5307 118.465 44.3112 117.715L52.3716 109.966L53.7825 109.516C55.7038 108.901 57.7902 109.606 58.9609 111.24C60.3569 113.203 59.9966 115.947 58.1204 117.49L56.9796 118.345L46.6528 121.628C46.4276 121.703 46.1875 121.733 45.9473 121.733V121.763ZM53.2122 111.375L45.422 118.855C45.1668 119.094 45.1218 119.469 45.2869 119.784C45.467 120.099 45.8423 120.249 46.1725 120.129L56.3642 116.891L57.1147 116.276C58.3455 115.272 58.5857 113.473 57.6551 112.169C56.8896 111.09 55.5237 110.625 54.2628 111.03L53.2122 111.36V111.375Z" fill="#141516"/>
<path d="M220.315 72.4987L197.575 59.3826C195.713 58.3183 195.053 50.3137 197.199 49.0845L207.856 49.5792C210.003 48.35 213.245 48.2151 215.091 49.2794L238.672 56.2946C240.533 57.3589 239.452 65.3335 237.321 66.5627L227.549 72.1989C225.403 73.4281 222.161 73.563 220.315 72.4987Z" fill="#141516"/>
<path d="M223.467 73.9977C222.161 73.9977 220.9 73.7279 219.94 73.1733L197.2 60.0572C195.759 59.2327 195.113 56.0399 195.113 53.4316C195.113 51.9326 195.338 49.2794 196.839 48.425L197.035 48.3201L207.707 48.8147C210.063 47.5556 213.38 47.4507 215.437 48.5749L239.092 55.6351C240.203 56.2647 240.428 58.0785 240.428 59.4726C240.428 62.0508 239.588 66.158 237.742 67.2373L227.97 72.8735C226.679 73.623 225.043 73.9977 223.497 73.9977H223.467ZM197.44 49.879C197.02 50.2987 196.629 51.5129 196.629 53.4466C196.629 56.2497 197.395 58.4233 197.95 58.738L220.69 71.8542C222.296 72.7836 225.268 72.6487 227.159 71.5544L236.931 65.9182C237.907 65.3636 238.852 62.1707 238.852 59.4726C238.852 57.9886 238.552 57.2091 238.327 56.9992L214.701 49.954C213.08 49.0246 210.123 49.1595 208.232 50.2538L208.037 50.3587L197.425 49.864L197.44 49.879Z" fill="#141516"/>
<path d="M220.314 65.7085L197.574 52.5924C195.713 51.5281 195.953 49.6544 198.1 48.4102L207.871 42.774C210.017 41.5448 213.26 41.4099 215.106 42.4742L237.846 55.5904C239.707 56.6546 239.467 58.5284 237.321 59.7725L227.549 65.4087C225.403 66.6379 222.16 66.7728 220.314 65.7085Z" fill="white"/>
<path d="M207.901 47.9303L198.129 53.5664C198.129 53.5664 198.069 53.6114 198.024 53.6414L220.299 66.4877C222.16 67.552 225.403 67.4171 227.534 66.1879L237.305 60.5517C237.305 60.5517 237.365 60.5068 237.41 60.4768L215.136 47.6305C213.275 46.5662 210.032 46.7011 207.901 47.9303Z" fill="#F14C4C"/>
<path d="M223.467 67.2073C222.161 67.2073 220.9 66.9374 219.94 66.3828L197.2 53.2667C196.149 52.6521 195.563 51.7827 195.563 50.7933C195.563 49.6691 196.344 48.5598 197.725 47.7654L207.496 42.1292C209.883 40.7501 213.41 40.6152 215.497 41.8294L238.237 54.9455C239.287 55.5601 239.873 56.4295 239.873 57.4189C239.873 58.5431 239.092 59.6524 237.711 60.4468L227.94 66.083C226.649 66.8325 225.013 67.2073 223.467 67.2073ZM211.969 42.5489C210.678 42.5489 209.298 42.8637 208.247 43.4633L198.475 49.0995C197.605 49.6091 197.079 50.2387 197.079 50.7933C197.079 51.348 197.545 51.7227 197.95 51.9476L220.69 65.0637C222.296 65.9931 225.268 65.8582 227.159 64.7639L236.931 59.1277C237.801 58.6181 238.327 57.9885 238.327 57.4339C238.327 56.8792 237.861 56.5045 237.456 56.2796L214.716 43.1635C213.996 42.7438 213.005 42.5489 211.969 42.5489Z" fill="#141516"/>
<path d="M224.054 73.2179L223.123 72.8282C224.219 70.2349 223.123 67.177 223.123 67.147L224.069 66.8022C224.114 66.9372 225.314 70.2649 224.069 73.2179H224.054Z" fill="white"/>
<path d="M210.252 47.0753L203.455 50.9976L204.221 52.3214L211.018 48.3992L210.252 47.0753Z" fill="white"/>
<path d="M210.245 45.6618L203.448 49.584L204.214 50.9078L211.011 46.9856L210.245 45.6618Z" fill="#141516"/>
<path d="M228.165 223.984L206.461 236.621L185.822 224.823L207.527 212.187L228.165 223.984ZM206.716 230.849L218.184 224.179L207.271 217.943L195.804 224.614L206.716 230.849Z" fill="white"/>
<path d="M228.12 226.443L206.416 239.08L185.777 227.282L207.482 214.646L228.12 226.443ZM206.671 233.308L218.139 226.638L207.227 220.402L195.759 227.073L206.671 233.308Z" fill="#FABCBC"/>
<path d="M185.822 224.824V230.85L206.476 242.647V236.621L185.822 224.824Z" fill="white"/>
<path d="M228.165 223.984V230.01L206.476 242.647V236.621L228.165 223.984Z" fill="#141516"/>
<path d="M207.271 217.958V223.984L212.96 227.222L218.184 224.194L207.271 217.958Z" fill="white"/>
<path d="M195.804 224.629L207.271 217.958V223.984L201.027 227.612L195.804 224.629Z" fill="#141516"/>
<path d="M219.445 224.179L207.903 217.583L207.272 217.224L206.642 217.583L194.544 224.629L206.717 231.584L219.43 224.179H219.445ZM212.961 226.502L207.903 223.609V219.022L216.924 224.179L212.946 226.487L212.961 226.502ZM197.066 224.629L206.657 219.052V223.624L201.043 226.892L197.081 224.629H197.066ZM202.289 227.612L207.287 224.704L211.715 227.237L206.717 230.145L202.289 227.612Z" fill="#141516"/>
<path d="M228.795 230.37V224.345V223.625L228.165 223.265L207.526 211.468L185.822 224.105L185.191 224.464V225.184V231.21L206.46 243.367L228.78 230.37H228.795ZM227.534 225.079V229.651L207.091 241.553V236.981L215.106 232.319L227.534 225.079ZM187.068 224.824L207.511 212.922L226.889 224L214.401 231.27L206.445 235.902L189.334 226.128L187.053 224.824H187.068ZM186.437 230.49V225.919L195.954 231.345L205.83 236.981V241.568L186.437 230.49Z" fill="#141516"/>
</svg>
