<svg width="284" height="285" viewBox="0 0 284 285" fill="none" xmlns="http://www.w3.org/2000/svg">
<path d="M81.5556 214.267L81.4092 205.58H9.63086L9.72095 214.053C9.69843 214.267 9.72095 214.053 9.75473 214.278C9.92365 215.538 10.9034 216.821 12.6826 217.845L39.4616 233.293C43.0426 235.353 48.4479 235.578 51.5448 233.789L79.4949 217.665C81.0489 216.764 81.7246 215.538 81.5556 214.267Z" fill="white"/>
<path d="M46.2968 235.6C43.8081 235.6 41.1843 235.003 39.146 233.822L12.3671 218.373C10.4977 217.293 9.34909 215.887 9.13513 214.39C9.06757 214.233 9.09009 214.086 9.10135 213.974L9 204.95L82.0959 206.154L82.1748 214.21C82.3662 215.763 81.4991 217.214 79.7987 218.193L51.8486 234.317C50.3621 235.172 48.3689 235.589 46.2968 235.589V235.6ZM10.3401 214.052C10.3401 214.052 10.3626 214.131 10.3626 214.176C10.509 215.279 11.4662 216.415 12.9864 217.293L39.7654 232.742C43.1662 234.7 48.3013 234.925 51.2292 233.237L79.1793 217.113C80.4518 216.382 81.0824 215.391 80.9361 214.334V214.266L80.7897 206.187H10.25L10.3401 214.052Z" fill="#141516"/>
<path d="M79.3822 209.191L51.4321 225.315C48.3353 227.104 42.93 226.879 39.349 224.82L12.57 209.371C8.98897 207.312 8.60609 204.184 11.7029 202.406L39.653 186.282C42.7498 184.493 48.1551 184.718 51.7362 186.777L78.5151 202.226C82.0962 204.285 82.479 207.413 79.3822 209.191Z" fill="#FABCBC"/>
<path d="M78.5159 206.198L51.7369 190.75C48.1672 188.69 42.7506 188.465 39.6538 190.255L11.7037 206.378C11.073 206.739 10.5888 207.166 10.251 207.627V211.307C10.7465 212.038 11.5235 212.736 12.582 213.355L39.361 228.803C42.942 230.863 48.3474 231.088 51.4442 229.299L79.3943 213.175C82.4911 211.386 82.1082 208.269 78.5272 206.21L78.5159 206.198Z" fill="white"/>
<path d="M46.1959 227.127C43.7072 227.127 41.0834 226.531 39.0564 225.349L12.2774 209.901C10.2054 208.708 9.01172 207.065 9.01172 205.422C9.01172 204.016 9.86756 202.756 11.4103 201.856L39.3604 185.732C42.6262 183.853 48.3243 184.078 52.063 186.227L78.8419 201.676C80.914 202.879 82.1077 204.511 82.1077 206.154C82.1077 207.56 81.2518 208.82 79.709 209.721L51.7589 225.845C50.2725 226.7 48.2793 227.127 46.2072 227.127H46.1959ZM44.9009 185.675C43.0428 185.675 41.2861 186.047 39.9685 186.801L12.0184 202.924C10.8698 203.588 10.2392 204.466 10.2392 205.411C10.2392 206.604 11.2076 207.842 12.8855 208.82L39.6645 224.269C43.0654 226.227 48.2004 226.452 51.1283 224.764L79.0784 208.64C80.2271 207.977 80.8577 207.099 80.8577 206.154C80.8577 204.961 79.8892 203.723 78.2113 202.744L51.4324 187.296C49.563 186.215 47.1644 185.664 44.9122 185.664L44.9009 185.675Z" fill="#141516"/>
<path d="M42.4683 207.526L43.9435 197.129C43.9435 197.129 43.8647 197.163 43.8309 197.186L24.5969 208.28C24.428 208.381 24.2816 208.483 24.1465 208.595L42.4796 207.515L42.4683 207.526Z" fill="#B4C4FF"/>
<path d="M22.7725 206.12L24.2364 204.916C24.3941 204.781 24.5742 204.657 24.7769 204.545L44.1348 193.383L45.1483 192.933L45.047 194.013L43.5042 204.905L22.7725 206.12ZM43.6506 195.082L27.108 204.623L42.4344 203.723L43.6618 195.07L43.6506 195.082Z" fill="#141516"/>
<path d="M46.4323 209.765L24.124 211.071C24.2141 211.138 24.2929 211.206 24.3943 211.262L39.9009 220.207C41.2747 221.006 43.5945 220.95 45.081 220.095L64.315 209C65.8014 208.145 65.8803 206.806 64.5064 206.007L48.9998 197.062C48.7859 196.938 48.5381 196.837 48.2791 196.758L46.4436 209.754L46.4323 209.765Z" fill="#B4C4FF"/>
<path d="M42.8171 218.193C41.8149 218.193 40.8464 217.98 40.0919 217.541L24.5853 208.596C24.484 208.539 24.3939 208.472 24.3038 208.404L23.0088 207.392L24.5853 207.245L46.3869 205.963L48.2562 192.742L48.9544 192.967C49.2922 193.079 49.5625 193.192 49.799 193.327L65.3056 202.272C66.1389 202.756 66.6006 203.442 66.6006 204.207C66.6006 205.018 66.0601 205.794 65.1254 206.334L45.8914 217.428C45.013 217.935 43.9094 218.182 42.8171 218.182V218.193ZM26.6574 208.371L40.7 216.472C41.8824 217.158 43.977 217.102 45.2608 216.359L64.4948 205.265C65.0353 204.95 65.3506 204.556 65.3506 204.207C65.3506 203.904 65.1141 203.6 64.6749 203.352L49.2585 194.452L47.4567 207.144L26.6461 208.359L26.6574 208.371Z" fill="#141516"/>
<path d="M46.0156 226.52V235.252L48.9998 234.993L52.716 233.316L80.9589 216.956L81.5557 214.267L81.9161 207.246L50.1259 225.901L46.6012 226.52H46.0156Z" fill="#141516"/>
<path d="M50.1025 223.134C50.5529 223.392 50.5529 223.809 50.1025 224.067C49.652 224.326 48.9313 224.326 48.4921 224.067C48.0417 223.809 48.0417 223.392 48.4921 223.134C48.9426 222.875 49.6633 222.875 50.1025 223.134Z" fill="#141516"/>
<path d="M54.3154 220.703C54.7658 220.962 54.7658 221.378 54.3154 221.637C53.8649 221.896 53.1442 221.896 52.705 221.637C52.2546 221.378 52.2546 220.962 52.705 220.703C53.1555 220.445 53.8762 220.445 54.3154 220.703Z" fill="#141516"/>
<path d="M58.5263 218.261C58.9767 218.52 58.9767 218.937 58.5263 219.195C58.0759 219.454 57.3551 219.454 56.916 219.195C56.4655 218.937 56.4655 218.52 56.916 218.261C57.3664 218.003 58.0871 218.003 58.5263 218.261Z" fill="#141516"/>
<path d="M62.7372 215.831C63.1877 216.09 63.1877 216.506 62.7372 216.765C62.2868 217.024 61.5661 217.024 61.1269 216.765C60.6765 216.506 60.6765 216.09 61.1269 215.831C61.5773 215.572 62.2981 215.572 62.7372 215.831Z" fill="#141516"/>
<path d="M66.9609 213.401C67.4113 213.659 67.4113 214.076 66.9609 214.335C66.5104 214.593 65.7897 214.593 65.3505 214.335C64.9001 214.076 64.9001 213.659 65.3505 213.401C65.801 213.142 66.5217 213.142 66.9609 213.401Z" fill="#141516"/>
<path d="M71.1718 210.97C71.6223 211.229 71.6223 211.645 71.1718 211.904C70.7214 212.163 70.0007 212.163 69.5615 211.904C69.111 211.645 69.111 211.229 69.5615 210.97C70.0119 210.711 70.7326 210.711 71.1718 210.97Z" fill="#141516"/>
<path d="M75.3847 208.54C75.8351 208.799 75.8351 209.215 75.3847 209.474C74.9343 209.732 74.2135 209.732 73.7744 209.474C73.3239 209.215 73.3239 208.799 73.7744 208.54C74.2248 208.281 74.9455 208.281 75.3847 208.54Z" fill="#141516"/>
<path d="M79.5956 206.109C80.0461 206.368 80.0461 206.784 79.5956 207.043C79.1452 207.302 78.4245 207.302 77.9853 207.043C77.5348 206.784 77.5348 206.368 77.9853 206.109C78.4357 205.85 79.1565 205.85 79.5956 206.109Z" fill="#141516"/>
<path d="M41.6689 223.134C42.1193 223.392 42.1193 223.809 41.6689 224.067C41.2184 224.326 40.4977 224.326 40.0585 224.067C39.6081 223.809 39.6081 223.392 40.0585 223.134C40.509 222.875 41.2297 222.875 41.6689 223.134Z" fill="#141516"/>
<path d="M45.8808 220.703C46.3312 220.962 46.3312 221.378 45.8808 221.637C45.4303 221.896 44.7096 221.896 44.2705 221.637C43.82 221.378 43.82 220.962 44.2705 220.703C44.7209 220.445 45.4416 220.445 45.8808 220.703Z" fill="#141516"/>
<path d="M50.1025 218.261C50.5529 218.52 50.5529 218.937 50.1025 219.195C49.652 219.454 48.9313 219.454 48.4921 219.195C48.0417 218.937 48.0417 218.52 48.4921 218.261C48.9426 218.003 49.6633 218.003 50.1025 218.261Z" fill="#141516"/>
<path d="M54.3154 215.831C54.7658 216.09 54.7658 216.506 54.3154 216.765C53.8649 217.024 53.1442 217.024 52.705 216.765C52.2546 216.506 52.2546 216.09 52.705 215.831C53.1555 215.572 53.8762 215.572 54.3154 215.831Z" fill="#141516"/>
<path d="M58.5263 213.401C58.9767 213.659 58.9767 214.076 58.5263 214.335C58.0759 214.593 57.3551 214.593 56.916 214.335C56.4655 214.076 56.4655 213.659 56.916 213.401C57.3664 213.142 58.0871 213.142 58.5263 213.401Z" fill="#141516"/>
<path d="M62.7372 210.97C63.1877 211.229 63.1877 211.645 62.7372 211.904C62.2868 212.163 61.5661 212.163 61.1269 211.904C60.6765 211.645 60.6765 211.229 61.1269 210.97C61.5773 210.711 62.2981 210.711 62.7372 210.97Z" fill="#141516"/>
<path d="M66.9609 208.54C67.4113 208.799 67.4113 209.215 66.9609 209.474C66.5104 209.732 65.7897 209.732 65.3505 209.474C64.9001 209.215 64.9001 208.799 65.3505 208.54C65.801 208.281 66.5217 208.281 66.9609 208.54Z" fill="#141516"/>
<path d="M71.1718 206.109C71.6223 206.368 71.6223 206.784 71.1718 207.043C70.7214 207.302 70.0007 207.302 69.5615 207.043C69.111 206.784 69.111 206.368 69.5615 206.109C70.0119 205.85 70.7326 205.85 71.1718 206.109Z" fill="#141516"/>
<path d="M24.8105 198.739C25.2609 198.997 25.2609 199.414 24.8105 199.672C24.36 199.931 23.6393 199.931 23.2001 199.672C22.7497 199.414 22.7497 198.997 23.2001 198.739C23.6506 198.48 24.3713 198.48 24.8105 198.739Z" fill="#141516"/>
<path d="M29.0224 196.308C29.4728 196.567 29.4728 196.983 29.0224 197.242C28.5719 197.501 27.8512 197.501 27.4121 197.242C26.9616 196.983 26.9616 196.567 27.4121 196.308C27.8625 196.05 28.5832 196.05 29.0224 196.308Z" fill="#141516"/>
<path d="M33.246 193.878C33.6965 194.137 33.6965 194.553 33.246 194.812C32.7956 195.071 32.0749 195.071 31.6357 194.812C31.1852 194.553 31.1852 194.137 31.6357 193.878C32.0861 193.619 32.8068 193.619 33.246 193.878Z" fill="#141516"/>
<path d="M37.457 191.437C37.9074 191.696 37.9074 192.112 37.457 192.371C37.0065 192.629 36.2858 192.629 35.8466 192.371C35.3962 192.112 35.3962 191.696 35.8466 191.437C36.2971 191.178 37.0178 191.178 37.457 191.437Z" fill="#141516"/>
<path d="M41.6689 189.006C42.1193 189.265 42.1193 189.681 41.6689 189.94C41.2184 190.199 40.4977 190.199 40.0585 189.94C39.6081 189.681 39.6081 189.265 40.0585 189.006C40.509 188.747 41.2297 188.747 41.6689 189.006Z" fill="#141516"/>
<path d="M246.01 101.467L86.5976 10.6302C84.6044 9.49372 82.7914 9.54998 81.5076 10.5514L73.6924 15.2322L79.4806 23.4573V146.947C79.4806 152.123 82.6675 158.131 86.5976 160.381L235.458 245.198L243.127 256.09L250.503 251.668C252.114 250.869 253.138 248.832 253.138 245.896V114.901C253.138 109.725 249.951 103.717 246.021 101.467H246.01Z" fill="white"/>
<path d="M208.286 94.918L75.7987 20.8469L73.6816 15.9974L79.5712 12.4755C80.8662 11.4741 82.668 11.4066 84.6612 12.5543L244.074 103.379C246.258 104.628 248.218 107.036 249.524 109.827L249.715 110.626L240.267 116.285L208.275 94.9068L208.286 94.918Z" fill="#C7D3FF"/>
<path d="M250.763 115.408L242.193 120.505L242.948 123.712L250.763 118.896V115.408Z" fill="white"/>
<path d="M81.0352 9.96613C82.623 8.72842 84.7851 8.73968 86.9698 9.97738L246.382 100.814C250.515 103.177 253.882 109.489 253.882 114.901V245.907C253.882 249.035 252.767 251.386 250.875 252.332L242.891 257.114L234.918 245.783L86.2153 161.034C82.0824 158.671 78.7154 152.359 78.7154 146.946V23.6934L72.6006 14.9957L81.0352 9.95488V9.96613ZM80.2244 23.2208V146.946C80.2244 151.875 83.2536 157.602 86.9698 159.717L235.831 244.534L243.33 255.077L244.918 254.121L245.211 247.808L251.033 244.219C251.833 243.724 252.362 242.88 252.362 241.946V114.901C252.362 109.973 249.333 104.246 245.616 102.13L86.2153 11.2826C84.5712 10.3487 83.0509 10.2924 81.8798 11.2038L74.7627 15.4683L80.2244 23.2208Z" fill="#141516"/>
<path d="M125.27 213.062L157.59 194.733C160.72 192.944 165.979 193.158 169.56 195.195L189.222 206.401L198.569 210.576V214.84H198.513C198.299 215.943 197.522 216.922 196.249 217.653L156.419 240.27C154.989 241.08 153.119 241.485 151.16 241.485C148.829 241.485 146.396 240.922 144.448 239.808L118.559 225.057C116.678 223.988 115.563 222.559 115.439 220.95C115.439 220.815 115.439 220.68 115.439 220.601V217.136L125.259 213.074L125.27 213.062Z" fill="#141516"/>
<path d="M195.888 213.715L156.058 236.32C153.186 237.963 148.152 237.749 144.83 235.858L118.941 221.107C115.619 219.217 115.259 216.348 118.13 214.716L157.961 192.111C160.832 190.468 165.866 190.682 169.188 192.573L195.078 207.324C198.4 209.214 198.76 212.083 195.888 213.715Z" fill="white"/>
<path d="M122.512 218.035L133.334 211.633C136.87 209.54 141.251 209.506 144.82 211.532L171.937 227.026L155.552 236.331C152.681 237.974 147.647 237.76 144.325 235.87L123.323 224.426C120.001 222.536 119.641 219.667 122.512 218.035Z" fill="#C7D3FF"/>
<path d="M151.171 238.199C153.13 238.199 155 237.794 156.43 236.984L196.261 214.379C197.758 213.524 198.58 212.308 198.58 210.947C198.58 209.36 197.443 207.808 195.45 206.671L169.56 191.92C165.979 189.883 160.72 189.681 157.59 191.459L117.759 214.075C116.262 214.93 115.439 216.145 115.439 217.507C115.439 219.093 116.577 220.646 118.57 221.782L144.459 236.534C146.408 237.636 148.851 238.21 151.171 238.21V238.199ZM195.506 213.062L155.675 235.667C153.007 237.186 148.311 236.984 145.203 235.206L119.313 220.455C117.804 219.6 116.948 218.519 116.948 217.495C116.948 216.472 117.793 215.774 118.514 215.369L158.344 192.753C161.013 191.234 165.709 191.436 168.817 193.214L194.706 207.965C196.215 208.82 197.071 209.9 197.071 210.924C197.071 211.948 196.227 212.646 195.506 213.051V213.062Z" fill="#141516"/>
<path d="M73.6825 14.3318C75.2252 13.4429 77.1509 13.5666 79.1216 14.6918L238.534 105.517C242.667 107.869 246.034 114.192 246.034 119.604V250.61C246.034 253.535 244.852 254.841 243.861 255.414C243.207 255.786 242.442 255.977 241.597 255.977C240.246 255.977 238.68 255.504 237.07 254.582L78.3671 165.737C74.2343 163.374 70.8672 157.062 70.8672 151.65V20.6553C70.8672 17.6736 71.892 15.3669 73.6825 14.3318Z" fill="#141516"/>
<path d="M71.6211 136.426V152.303C71.6211 157.118 75.0445 162.981 79.2787 165.389L237.633 255.617C241.855 258.025 245.29 256.079 245.29 251.252V235.375L71.6211 136.426Z" fill="#C7D3FF"/>
<path d="M241.045 257.406C241.912 257.406 242.723 257.203 243.444 256.787C245.111 255.819 246.034 253.85 246.034 251.262V234.947L245.651 234.733L70.8672 135.132V152.313C70.8672 157.366 74.4707 163.532 78.8964 166.052L237.25 256.281C238.579 257.035 239.863 257.417 241.045 257.417V257.406ZM244.525 235.814V251.251C244.525 253.288 243.872 254.784 242.678 255.471C241.473 256.168 239.807 255.988 237.993 254.953L79.6509 164.736C75.6419 162.451 72.3762 156.87 72.3762 152.302V137.72L244.525 235.814Z" fill="#141516"/>
<path d="M234.92 219.577L81.9829 132.442C80.5978 131.655 79.4717 129.528 79.4717 127.705V27.6424C79.4717 25.8196 80.5978 24.9757 81.9829 25.7634L234.92 112.909C236.305 113.697 237.431 115.823 237.431 117.646V217.709C237.431 219.532 236.305 220.376 234.92 219.588V219.577Z" fill="#FABCBC"/>
<path d="M91.4429 42.1571C90.0578 41.3694 88.9316 42.2021 88.9316 44.0361V136.054L235.033 219.307C236.419 220.094 237.545 219.262 237.545 217.428V125.41L91.4429 42.1571Z" fill="white"/>
<path d="M235.923 220.635C236.283 220.635 236.644 220.544 236.959 220.364C237.747 219.914 238.198 218.947 238.198 217.709V117.646C238.198 115.542 236.925 113.179 235.304 112.256L82.3664 25.1106C81.5105 24.6268 80.666 24.5818 79.9565 24.9869C79.1682 25.4482 78.7178 26.4046 78.7178 27.6423V127.705C78.7178 129.809 79.9903 132.172 81.6119 133.095L234.549 220.241C235.011 220.511 235.484 220.635 235.923 220.635ZM80.9925 26.2246C81.2177 26.2246 81.4655 26.3371 81.6119 26.4271L234.549 113.562C235.709 114.226 236.678 116.093 236.678 117.646V217.709C236.678 218.373 236.486 218.879 236.193 219.059C235.901 219.228 235.506 219.059 235.292 218.924L82.3664 131.778C81.2065 131.115 80.238 129.247 80.238 127.694V27.6423C80.238 26.9897 80.4295 26.4721 80.7223 26.2921C80.8123 26.2471 80.9024 26.2246 80.9925 26.2246Z" fill="#141516"/>
<path d="M251.045 244.23V176.989L246.034 179.937V247.313L251.045 244.23Z" fill="#FABCBC"/>
<path d="M242.599 104.807C243.049 105.066 243.049 105.494 242.599 105.764C242.148 106.023 241.405 106.023 240.943 105.764C240.493 105.505 240.493 105.077 240.943 104.807C241.394 104.549 242.137 104.549 242.599 104.807Z" fill="#141516"/>
<path d="M238.286 102.322C238.737 102.58 238.737 103.008 238.286 103.278C237.836 103.537 237.093 103.537 236.631 103.278C236.18 103.019 236.18 102.592 236.631 102.322C237.081 102.063 237.824 102.063 238.286 102.322Z" fill="#141516"/>
<path d="M233.973 99.823C234.423 100.082 234.423 100.509 233.973 100.779C233.522 101.038 232.779 101.038 232.317 100.779C231.867 100.521 231.867 100.093 232.317 99.823C232.768 99.5642 233.511 99.5642 233.973 99.823Z" fill="#141516"/>
<path d="M229.649 97.3362C230.1 97.595 230.1 98.0225 229.649 98.2926C229.199 98.5514 228.456 98.5514 227.994 98.2926C227.544 98.0338 227.544 97.6062 227.994 97.3362C228.445 97.0774 229.188 97.0774 229.649 97.3362Z" fill="#141516"/>
<path d="M225.336 94.8499C225.786 95.1086 225.786 95.5362 225.336 95.8063C224.886 96.0651 224.142 96.0651 223.681 95.8063C223.23 95.5475 223.23 95.1199 223.681 94.8499C224.131 94.5911 224.874 94.5911 225.336 94.8499Z" fill="#141516"/>
<path d="M220.989 92.3406C221.44 92.5994 221.44 93.0269 220.989 93.297C220.539 93.5558 219.796 93.5558 219.334 93.297C218.883 93.0382 218.883 92.6106 219.334 92.3406C219.784 92.0818 220.528 92.0818 220.989 92.3406Z" fill="#141516"/>
<path d="M216.675 89.843C217.125 90.1018 217.125 90.5294 216.675 90.7994C216.224 91.0582 215.481 91.0582 215.019 90.7994C214.569 90.5406 214.569 90.1131 215.019 89.843C215.47 89.5842 216.213 89.5842 216.675 89.843Z" fill="#141516"/>
<path d="M212.363 87.3557C212.814 87.6145 212.814 88.0421 212.363 88.3121C211.913 88.5709 211.17 88.5709 210.708 88.3121C210.258 88.0533 210.258 87.6258 210.708 87.3557C211.158 87.0969 211.902 87.0969 212.363 87.3557Z" fill="#141516"/>
<path d="M208.051 84.8694C208.501 85.1282 208.501 85.5558 208.051 85.8258C207.6 86.0846 206.857 86.0846 206.395 85.8258C205.945 85.567 205.945 85.1394 206.395 84.8694C206.846 84.6106 207.589 84.6106 208.051 84.8694Z" fill="#141516"/>
<path d="M203.737 82.3826C204.188 82.6414 204.188 83.0689 203.737 83.339C203.287 83.5978 202.544 83.5978 202.082 83.339C201.632 83.0802 201.632 82.6526 202.082 82.3826C202.532 82.1238 203.276 82.1238 203.737 82.3826Z" fill="#141516"/>
<path d="M199.412 79.8962C199.863 80.155 199.863 80.5826 199.412 80.8527C198.962 81.1114 198.218 81.1114 197.757 80.8527C197.306 80.5939 197.306 80.1663 197.757 79.8962C198.207 79.6375 198.95 79.6375 199.412 79.8962Z" fill="#141516"/>
<path d="M195.1 77.3982C195.55 77.657 195.55 78.0846 195.1 78.3546C194.649 78.6134 193.906 78.6134 193.444 78.3546C192.994 78.0958 192.994 77.6682 193.444 77.3982C193.895 77.1394 194.638 77.1394 195.1 77.3982Z" fill="#141516"/>
<path d="M190.786 74.9119C191.237 75.1707 191.237 75.5982 190.786 75.8683C190.336 76.1271 189.593 76.1271 189.131 75.8683C188.68 75.6095 188.68 75.1819 189.131 74.9119C189.581 74.6531 190.324 74.6531 190.786 74.9119Z" fill="#141516"/>
<path d="M186.44 72.4021C186.89 72.6609 186.89 73.0885 186.44 73.3585C185.989 73.6173 185.246 73.6173 184.784 73.3585C184.334 73.0997 184.334 72.6721 184.784 72.4021C185.235 72.1433 185.978 72.1433 186.44 72.4021Z" fill="#141516"/>
<path d="M182.127 69.9158C182.577 70.1746 182.577 70.6021 182.127 70.8722C181.677 71.131 180.933 71.131 180.472 70.8722C180.021 70.6134 180.021 70.1858 180.472 69.9158C180.922 69.657 181.665 69.657 182.127 69.9158Z" fill="#141516"/>
<path d="M177.814 67.4177C178.264 67.6765 178.264 68.1041 177.814 68.3741C177.363 68.6329 176.62 68.6329 176.158 68.3741C175.708 68.1153 175.708 67.6878 176.158 67.4177C176.609 67.1589 177.352 67.1589 177.814 67.4177Z" fill="#141516"/>
<path d="M173.501 64.9314C173.951 65.1902 173.951 65.6178 173.501 65.8878C173.051 66.1466 172.307 66.1466 171.846 65.8878C171.395 65.629 171.395 65.2014 171.846 64.9314C172.296 64.6726 173.039 64.6726 173.501 64.9314Z" fill="#141516"/>
<path d="M109.065 28.4978C109.516 28.7566 109.516 29.1842 109.065 29.4542C108.615 29.713 107.872 29.713 107.41 29.4542C106.96 29.1954 106.96 28.7679 107.41 28.4978C107.861 28.239 108.604 28.239 109.065 28.4978Z" fill="#141516"/>
<path d="M104.752 26.0105C105.202 26.2693 105.202 26.6969 104.752 26.9669C104.302 27.2257 103.558 27.2257 103.097 26.9669C102.646 26.7081 102.646 26.2805 103.097 26.0105C103.547 25.7517 104.29 25.7517 104.752 26.0105Z" fill="#141516"/>
<path d="M100.429 23.5247C100.879 23.7835 100.879 24.211 100.429 24.4811C99.9783 24.7399 99.2351 24.7399 98.7734 24.4811C98.3229 24.2223 98.3229 23.7947 98.7734 23.5247C99.2238 23.2659 99.9671 23.2659 100.429 23.5247Z" fill="#141516"/>
<path d="M96.1153 21.0261C96.5657 21.2849 96.5657 21.7125 96.1153 21.9825C95.6648 22.2413 94.9216 22.2413 94.4599 21.9825C94.0095 21.7237 94.0095 21.2962 94.4599 21.0261C94.9103 20.7673 95.6536 20.7673 96.1153 21.0261Z" fill="#141516"/>
<path d="M91.8028 18.5403C92.2532 18.7991 92.2532 19.2266 91.8028 19.4967C91.3523 19.7555 90.6091 19.7555 90.1474 19.4967C89.697 19.2379 89.697 18.8103 90.1474 18.5403C90.5978 18.2815 91.3411 18.2815 91.8028 18.5403Z" fill="#141516"/>
<path d="M87.4551 16.0305C87.9056 16.2893 87.9056 16.7169 87.4551 16.9869C87.0047 17.2457 86.2615 17.2457 85.7997 16.9869C85.3493 16.7281 85.3493 16.3006 85.7997 16.0305C86.2502 15.7717 86.9934 15.7717 87.4551 16.0305Z" fill="#141516"/>
<path d="M83.1426 13.5442C83.5931 13.803 83.5931 14.2306 83.1426 14.5006C82.6922 14.7594 81.949 14.7594 81.4872 14.5006C81.0368 14.2418 81.0368 13.8142 81.4872 13.5442C81.9377 13.2854 82.6809 13.2854 83.1426 13.5442Z" fill="#141516"/>
<path d="M151.363 234.565C151.814 234.824 151.814 235.252 151.363 235.522C150.913 235.78 150.17 235.78 149.708 235.522C149.258 235.263 149.258 234.835 149.708 234.565C150.158 234.306 150.902 234.306 151.363 234.565Z" fill="#141516"/>
<path d="M155.676 232.078C156.126 232.337 156.126 232.765 155.676 233.035C155.225 233.294 154.482 233.294 154.02 233.035C153.57 232.776 153.57 232.348 154.02 232.078C154.471 231.82 155.214 231.82 155.676 232.078Z" fill="#141516"/>
<path d="M159.988 229.592C160.439 229.85 160.439 230.278 159.988 230.548C159.538 230.807 158.795 230.807 158.333 230.548C157.883 230.289 157.883 229.862 158.333 229.592C158.783 229.333 159.527 229.333 159.988 229.592Z" fill="#141516"/>
<path d="M164.301 227.105C164.751 227.364 164.751 227.791 164.301 228.061C163.85 228.32 163.107 228.32 162.645 228.061C162.195 227.802 162.195 227.375 162.645 227.105C163.096 226.846 163.839 226.846 164.301 227.105Z" fill="#141516"/>
<path d="M168.614 224.618C169.065 224.877 169.065 225.305 168.614 225.575C168.164 225.834 167.421 225.834 166.959 225.575C166.508 225.316 166.508 224.888 166.959 224.618C167.409 224.36 168.153 224.36 168.614 224.618Z" fill="#141516"/>
<path d="M172.928 222.132C173.378 222.39 173.378 222.818 172.928 223.088C172.477 223.347 171.734 223.347 171.272 223.088C170.822 222.829 170.822 222.402 171.272 222.132C171.723 221.873 172.466 221.873 172.928 222.132Z" fill="#141516"/>
<path d="M147.049 232.078C147.499 232.337 147.499 232.765 147.049 233.035C146.598 233.294 145.855 233.294 145.393 233.035C144.943 232.776 144.943 232.348 145.393 232.078C145.844 231.82 146.587 231.82 147.049 232.078Z" fill="#141516"/>
<path d="M151.363 229.592C151.814 229.85 151.814 230.278 151.363 230.548C150.913 230.807 150.17 230.807 149.708 230.548C149.258 230.289 149.258 229.862 149.708 229.592C150.158 229.333 150.902 229.333 151.363 229.592Z" fill="#141516"/>
<path d="M155.676 227.105C156.126 227.364 156.126 227.791 155.676 228.061C155.225 228.32 154.482 228.32 154.02 228.061C153.57 227.802 153.57 227.375 154.02 227.105C154.471 226.846 155.214 226.846 155.676 227.105Z" fill="#141516"/>
<path d="M159.988 224.618C160.439 224.877 160.439 225.305 159.988 225.575C159.538 225.834 158.795 225.834 158.333 225.575C157.883 225.316 157.883 224.888 158.333 224.618C158.783 224.36 159.527 224.36 159.988 224.618Z" fill="#141516"/>
<path d="M164.301 222.132C164.751 222.39 164.751 222.818 164.301 223.088C163.85 223.347 163.107 223.347 162.645 223.088C162.195 222.829 162.195 222.402 162.645 222.132C163.096 221.873 163.839 221.873 164.301 222.132Z" fill="#141516"/>
<path d="M168.614 219.634C169.065 219.893 169.065 220.32 168.614 220.59C168.164 220.849 167.421 220.849 166.959 220.59C166.508 220.332 166.508 219.904 166.959 219.634C167.409 219.375 168.153 219.375 168.614 219.634Z" fill="#141516"/>
<path d="M142.736 229.592C143.187 229.85 143.187 230.278 142.736 230.548C142.286 230.807 141.543 230.807 141.081 230.548C140.631 230.289 140.631 229.862 141.081 229.592C141.531 229.333 142.275 229.333 142.736 229.592Z" fill="#141516"/>
<path d="M147.049 227.105C147.499 227.364 147.499 227.791 147.049 228.061C146.598 228.32 145.855 228.32 145.393 228.061C144.943 227.802 144.943 227.375 145.393 227.105C145.844 226.846 146.587 226.846 147.049 227.105Z" fill="#141516"/>
<path d="M151.363 224.618C151.814 224.877 151.814 225.305 151.363 225.575C150.913 225.834 150.17 225.834 149.708 225.575C149.258 225.316 149.258 224.888 149.708 224.618C150.158 224.36 150.902 224.36 151.363 224.618Z" fill="#141516"/>
<path d="M155.676 222.132C156.126 222.39 156.126 222.818 155.676 223.088C155.225 223.347 154.482 223.347 154.02 223.088C153.57 222.829 153.57 222.402 154.02 222.132C154.471 221.873 155.214 221.873 155.676 222.132Z" fill="#141516"/>
<path d="M159.988 219.634C160.439 219.893 160.439 220.32 159.988 220.59C159.538 220.849 158.795 220.849 158.333 220.59C157.883 220.332 157.883 219.904 158.333 219.634C158.783 219.375 159.527 219.375 159.988 219.634Z" fill="#141516"/>
<path d="M164.301 217.147C164.751 217.406 164.751 217.834 164.301 218.104C163.85 218.362 163.107 218.362 162.645 218.104C162.195 217.845 162.195 217.417 162.645 217.147C163.096 216.888 163.839 216.888 164.301 217.147Z" fill="#141516"/>
<path d="M155.676 217.147C156.126 217.406 156.126 217.834 155.676 218.104C155.225 218.362 154.482 218.362 154.02 218.104C153.57 217.845 153.57 217.417 154.02 217.147C154.471 216.888 155.214 216.888 155.676 217.147Z" fill="#141516"/>
<path d="M159.988 214.661C160.439 214.92 160.439 215.347 159.988 215.617C159.538 215.876 158.795 215.876 158.333 215.617C157.883 215.359 157.883 214.931 158.333 214.661C158.783 214.402 159.527 214.402 159.988 214.661Z" fill="#141516"/>
<path d="M151.328 214.638C151.779 214.897 151.779 215.324 151.328 215.594C150.878 215.853 150.135 215.853 149.673 215.594C149.222 215.336 149.222 214.908 149.673 214.638C150.123 214.379 150.866 214.379 151.328 214.638Z" fill="#141516"/>
<path d="M155.643 212.14C156.093 212.399 156.093 212.827 155.643 213.097C155.192 213.356 154.449 213.356 153.987 213.097C153.537 212.838 153.537 212.41 153.987 212.14C154.438 211.882 155.181 211.882 155.643 212.14Z" fill="#141516"/>
<path d="M147.016 212.14C147.466 212.399 147.466 212.827 147.016 213.097C146.565 213.356 145.822 213.356 145.36 213.097C144.91 212.838 144.91 212.41 145.36 212.14C145.811 211.882 146.554 211.882 147.016 212.14Z" fill="#141516"/>
<path d="M151.328 209.653C151.779 209.912 151.779 210.339 151.328 210.609C150.878 210.868 150.135 210.868 149.673 210.609C149.222 210.351 149.222 209.923 149.673 209.653C150.123 209.394 150.866 209.394 151.328 209.653Z" fill="#141516"/>
<path d="M142.691 209.653C143.142 209.912 143.142 210.339 142.691 210.609C142.241 210.868 141.498 210.868 141.036 210.609C140.586 210.351 140.586 209.923 141.036 209.653C141.487 209.394 142.23 209.394 142.691 209.653Z" fill="#141516"/>
<path d="M147.016 207.167C147.466 207.426 147.466 207.853 147.016 208.123C146.565 208.382 145.822 208.382 145.36 208.123C144.91 207.864 144.91 207.437 145.36 207.167C145.811 206.908 146.554 206.908 147.016 207.167Z" fill="#141516"/>
<path d="M190.135 164.983L130.856 130.789C123.672 126.648 117.85 115.531 117.85 105.967C117.85 96.4028 123.672 92.0034 130.856 96.1441L190.135 130.339C197.319 134.479 203.141 145.596 203.141 155.16C203.141 164.724 197.319 169.124 190.135 164.983Z" fill="#F14C4C"/>
<path d="M192.264 161.597C190.518 161.597 188.649 161.045 186.746 159.943L127.467 125.748C120.102 121.495 114.111 110.085 114.111 100.308C114.111 95.0192 115.879 90.9685 118.954 89.1907C121.544 87.6942 124.821 87.9417 128.165 89.8771L187.444 124.072C194.809 128.325 200.799 139.734 200.799 149.512C200.799 154.8 199.031 158.851 195.946 160.629C194.831 161.27 193.581 161.597 192.252 161.597H192.264ZM122.647 89.6408C121.566 89.6408 120.553 89.8996 119.663 90.4172C117.028 91.9362 115.519 95.548 115.519 100.319C115.519 109.647 121.195 120.516 128.165 124.533L187.444 158.727C190.349 160.404 193.108 160.64 195.248 159.414C197.883 157.895 199.392 154.283 199.392 149.512C199.392 140.184 193.716 129.315 186.734 125.298L127.456 91.1035C125.778 90.1359 124.134 89.6408 122.636 89.6408H122.647Z" fill="#141516"/>
<path d="M193.547 155.576V176.37C193.547 177.191 194.392 178.114 194.921 177.866L197.646 176.572C198.029 176.392 198.626 176.898 198.828 177.551L201.463 186.204C201.722 187.07 202.454 187.801 203.051 187.813L205.315 187.869C205.889 187.88 206.137 187.239 205.878 186.417L203.085 177.551C202.882 176.887 203.198 176.46 203.704 176.707L207.376 178.462C208.085 178.8 208.389 177.956 207.86 177.101L194.752 155.677C194.279 154.912 193.524 154.856 193.524 155.587L193.547 155.576Z" fill="white"/>
<path d="M202.466 182.907H202.432L200.169 182.851C199.246 182.829 198.277 181.917 197.917 180.747L195.282 172.094C195.203 171.847 195.045 171.667 194.955 171.599L192.342 172.837C191.96 173.017 191.498 172.972 191.07 172.702C190.518 172.353 189.955 171.554 189.955 170.699V149.906C189.955 149.197 190.372 148.825 190.755 148.724C191.363 148.555 192.038 148.904 192.478 149.624L205.586 171.048C206.07 171.835 206.081 172.702 205.631 173.197C205.36 173.501 204.831 173.714 204.2 173.411L200.957 171.858L203.682 180.522C203.908 181.242 203.84 181.917 203.502 182.367C203.254 182.705 202.883 182.885 202.455 182.885L202.466 182.907ZM194.944 170.17C195.124 170.17 195.293 170.204 195.473 170.283C195.991 170.508 196.441 171.059 196.633 171.689L199.268 180.342C199.471 181.017 200 181.445 200.203 181.456L202.444 181.512C202.444 181.512 202.444 181.31 202.331 180.983L199.538 172.117C199.336 171.475 199.448 170.89 199.854 170.541C200.203 170.238 200.676 170.204 201.137 170.418L204.493 172.015C204.471 171.948 204.437 171.88 204.392 171.802L191.363 150.524V170.721C191.363 171.048 191.656 171.43 191.824 171.532L194.46 170.283C194.606 170.215 194.764 170.181 194.933 170.181L194.944 170.17Z" fill="#141516"/>
<path d="M140.462 113.562C140.135 113.371 139.966 113.123 139.82 112.718C139.46 111.829 138.761 110.929 138.018 110.501C136.689 109.736 135.822 110.333 135.822 111.548C135.822 112.763 136.554 113.731 138.018 115.103C140.282 117.23 141.96 119.222 141.96 121.674C141.96 124.127 140.203 124.724 138.018 123.463C136.216 122.428 134.707 120.29 134.223 118.22C134.122 117.736 134.324 117.59 134.719 117.815L134.921 117.928C135.248 118.119 135.417 118.389 135.529 118.816C135.924 120.099 136.87 121.382 138.007 122.035C139.482 122.89 140.665 122.563 140.665 120.932C140.665 119.638 139.933 118.513 138.007 116.712C135.743 114.608 134.516 112.92 134.516 110.794C134.516 108.667 135.912 107.846 138.007 109.061C139.471 109.905 140.71 111.582 141.183 113.269C141.318 113.776 141.115 113.933 140.721 113.708L140.451 113.551L140.462 113.562Z" fill="white"/>
<path d="M147.127 128.55C146.767 128.347 146.587 128.021 146.587 127.604V115.599L143.017 113.539C142.657 113.337 142.477 113.011 142.477 112.594V112.482C142.477 112.066 142.668 111.964 143.017 112.167L151.384 116.994C151.744 117.196 151.925 117.523 151.925 117.939V118.063C151.925 118.479 151.733 118.58 151.384 118.378L147.826 116.33V128.336C147.826 128.752 147.634 128.853 147.285 128.651L147.127 128.561V128.55Z" fill="white"/>
<path d="M151.914 131.306C151.509 131.07 151.351 130.688 151.52 130.35L156.498 120.415C156.633 120.178 156.824 120.133 157.128 120.302L157.59 120.572C157.894 120.752 158.085 121.011 158.22 121.405L163.198 137.09C163.367 137.619 163.198 137.821 162.792 137.585L162.59 137.461C162.286 137.281 162.094 137.022 161.959 136.629L159.966 130.384L154.741 127.368L152.748 131.318C152.612 131.554 152.421 131.599 152.117 131.43L151.892 131.306H151.914ZM157.376 122.17L155.281 126.299L159.448 128.707L157.376 122.17Z" fill="white"/>
<path d="M165.406 139.092C165.045 138.89 164.865 138.564 164.865 138.147V125.399C164.865 124.982 165.057 124.881 165.406 125.084L168.84 127.064C171.149 128.403 172.714 131.047 172.714 133.658C172.714 135.841 171.644 136.786 169.921 136.268L173.097 142.772C173.39 143.357 173.232 143.616 172.771 143.357L172.376 143.132C172.084 142.963 171.903 142.738 171.712 142.378L168.345 135.514L166.081 134.209V138.879C166.081 139.295 165.89 139.396 165.541 139.194L165.383 139.104L165.406 139.092ZM168.84 134.4C170.383 135.289 171.419 134.693 171.419 132.904C171.419 131.115 170.394 129.337 168.84 128.437L166.104 126.862V132.825L168.84 134.4Z" fill="white"/>
<path d="M178.288 146.519C177.927 146.316 177.747 145.99 177.747 145.574V133.568L174.177 131.509C173.817 131.306 173.637 130.98 173.637 130.564V130.451C173.637 130.035 173.828 129.933 174.177 130.136L182.544 134.963C182.905 135.166 183.085 135.492 183.085 135.908V136.032C183.085 136.448 182.893 136.55 182.544 136.347L178.986 134.299V146.305C178.986 146.721 178.806 146.823 178.445 146.62L178.288 146.53V146.519Z" fill="white"/>
<path d="M270.368 176.02L225.841 150.332C224.76 149.713 223.78 149.623 223.037 149.972C222.936 150.017 222.834 150.084 222.733 150.152L214.084 155.193C213.904 155.305 213.916 155.564 214.107 155.654L218.409 157.533L221.641 161.977V181.094C221.641 183.784 223.521 192.357 225.83 193.696L234.062 198.445C234.963 198.962 235.706 200.245 235.706 201.28V206.951C235.706 208.234 237.046 209.652 237.834 209.202L243.983 205.725C244.861 205.23 246.043 205.342 247.282 206.062L251.663 208.583L263.735 225.202L273.532 219.52L273.611 219.452C274.241 218.968 274.557 218.147 274.557 216.932V183.3C274.557 180.611 272.676 177.359 270.368 176.02Z" fill="white"/>
<path d="M260.625 182.714L268.092 178.382L225.84 154.011C224.759 153.392 223.779 153.302 223.036 153.651C222.934 153.696 222.833 153.763 222.732 153.831L216.324 157.567L218.408 158.478L221.639 162.922V182.039C221.639 182.242 221.673 182.444 221.696 182.658L238.34 192.459L260.614 182.726L260.625 182.714Z" fill="#FABCBC"/>
<path d="M270.739 175.367L226.212 149.679C224.951 148.959 223.712 148.813 222.71 149.297C222.564 149.364 222.417 149.443 222.35 149.499L213.713 154.54C213.408 154.72 213.217 155.046 213.217 155.406L213.127 155.463L213.228 155.508C213.262 155.879 213.487 156.183 213.825 156.329L217.935 158.129L220.908 162.214V181.083C220.908 183.997 222.958 192.875 225.48 194.327L233.712 199.075C234.377 199.457 234.974 200.504 234.974 201.269V206.951C234.974 208.166 235.807 209.314 236.595 209.764C237.158 210.09 237.744 210.113 238.205 209.854L244.354 206.377C244.996 206.017 245.908 206.13 246.91 206.715L251.145 209.157L263.126 225.641L263.52 226.181L273.937 220.138L274.061 220.048C274.894 219.407 275.3 218.394 275.3 216.932V183.3C275.3 180.385 273.25 176.83 270.739 175.367ZM265.12 188.228L251.764 207.795L247.654 205.398C246.178 204.543 244.726 204.431 243.611 205.061L237.496 208.526C237.496 208.526 237.428 208.515 237.327 208.459C236.91 208.211 236.449 207.525 236.449 206.929V201.246C236.449 199.941 235.559 198.411 234.433 197.758L226.201 193.01C224.095 191.795 222.384 183.502 222.384 181.061V161.707L218.893 156.903L215.3 155.316L223.149 150.737C223.206 150.692 223.273 150.658 223.341 150.624C223.893 150.365 224.636 150.489 225.458 150.962L269.984 176.65C272.011 177.82 273.678 180.622 273.791 183.007L265.108 188.217L265.12 188.228Z" fill="#141516"/>
<path d="M216.662 155.699L261.189 181.388C263.509 182.726 265.378 185.978 265.378 188.667V222.299C265.378 224.989 263.497 226.08 261.189 224.741L238.103 211.43C236.865 210.721 235.682 210.597 234.804 211.092L228.655 214.569C227.867 215.019 226.527 213.602 226.527 212.319V206.648C226.527 205.602 225.795 204.319 224.883 203.801L216.651 199.053C214.331 197.714 212.462 194.462 212.462 191.773V158.141C212.462 155.452 214.343 154.36 216.651 155.699H216.662Z" fill="white"/>
<path d="M261.56 180.735L217.034 155.047C215.671 154.27 214.365 154.158 213.329 154.754C212.293 155.351 211.719 156.554 211.719 158.141V191.773C211.719 194.687 213.768 198.243 216.28 199.705L224.511 204.454C225.198 204.848 225.773 205.86 225.773 206.659V212.33C225.773 213.545 226.606 214.693 227.394 215.143C227.946 215.469 228.543 215.503 229.016 215.233L235.164 211.756C235.818 211.385 236.718 211.509 237.721 212.094L260.806 225.405C261.583 225.855 262.337 226.08 263.047 226.08C263.576 226.08 264.072 225.956 264.511 225.697C265.547 225.101 266.121 223.897 266.121 222.322V188.69C266.121 185.776 264.072 182.22 261.56 180.757V180.735ZM261.56 224.088L238.475 210.777C237.619 210.282 236.797 210.035 236.009 210.035C235.435 210.035 234.905 210.17 234.432 210.44L228.318 213.905C228.318 213.905 228.25 213.905 228.149 213.838C227.732 213.602 227.27 212.915 227.27 212.308V206.637C227.27 205.309 226.403 203.801 225.255 203.137L217.023 198.389C214.917 197.174 213.205 194.203 213.205 191.75V158.119C213.205 157.095 213.509 156.352 214.072 156.026C214.624 155.711 215.412 155.812 216.28 156.318L260.806 182.006C262.912 183.221 264.624 186.192 264.624 188.645V222.277C264.624 223.301 264.319 224.043 263.756 224.37C263.205 224.685 262.428 224.583 261.549 224.077L261.56 224.088Z" fill="#141516"/>
<path d="M241.429 205.646L238.377 203.891C237.622 203.452 237.003 202.282 237.003 201.269V180.959C237.003 179.947 237.622 179.485 238.377 179.924L241.429 181.679C242.183 182.118 242.802 183.289 242.802 184.301V204.611C242.802 205.623 242.183 206.085 241.429 205.646Z" fill="#F14C4C"/>
<path d="M240.403 203.261C240.11 203.261 239.806 203.171 239.513 203.002L236.462 201.247C235.482 200.684 234.75 199.3 234.75 198.029V177.719C234.75 176.943 235.043 176.312 235.561 176.02C236.023 175.761 236.597 175.784 237.137 176.087L240.189 177.843C241.169 178.405 241.901 179.789 241.901 181.061V201.37C241.901 202.147 241.608 202.777 241.079 203.069C240.865 203.193 240.628 203.249 240.392 203.249L240.403 203.261ZM236.259 177.201H236.248C236.248 177.201 236.113 177.348 236.113 177.719V198.029C236.113 198.794 236.597 199.75 237.149 200.065L240.2 201.82C240.336 201.899 240.403 201.899 240.414 201.888C240.437 201.888 240.549 201.742 240.549 201.37V181.061C240.549 180.296 240.065 179.339 239.513 179.024L236.473 177.269C236.36 177.213 236.293 177.19 236.27 177.19L236.259 177.201Z" fill="#141516"/>
<path d="M250.042 210.62L246.484 208.572C245.864 208.212 245.357 207.255 245.357 206.434V193.235C245.357 192.414 245.864 192.031 246.484 192.391L250.042 194.439C250.661 194.799 251.168 195.756 251.168 196.577V209.776C251.168 210.597 250.661 210.98 250.042 210.62Z" fill="#F14C4C"/>
<path d="M248.916 208.2C248.657 208.2 248.386 208.122 248.127 207.975L244.58 205.928C243.747 205.444 243.116 204.273 243.116 203.193V189.995C243.116 189.308 243.386 188.768 243.848 188.498C244.265 188.262 244.783 188.285 245.267 188.555L248.814 190.602C249.648 191.086 250.278 192.256 250.278 193.337V206.535C250.278 207.221 250.008 207.762 249.546 208.032C249.355 208.144 249.141 208.2 248.916 208.2ZM248.803 206.794C248.803 206.794 248.871 206.828 248.893 206.828C248.871 206.805 248.904 206.704 248.904 206.535V193.337C248.904 192.707 248.488 191.998 248.127 191.784L244.569 189.736C244.569 189.736 244.468 189.792 244.468 189.995V203.193C244.468 203.823 244.884 204.532 245.245 204.746L248.803 206.794Z" fill="#141516"/>
<path d="M233.761 201.168L229.898 198.94C229.358 198.636 228.93 197.803 228.93 197.094V191.975C228.93 191.266 229.369 190.928 229.898 191.243L233.761 193.471C234.301 193.775 234.729 194.608 234.729 195.317V200.436C234.729 201.145 234.29 201.483 233.761 201.168Z" fill="#F14C4C"/>
<path d="M232.578 198.726C232.341 198.726 232.093 198.658 231.846 198.523L227.983 196.296C227.24 195.868 226.677 194.822 226.677 193.854V188.734C226.677 188.104 226.924 187.609 227.352 187.362C227.747 187.137 228.22 187.159 228.67 187.418L232.533 189.646C233.276 190.073 233.839 191.12 233.839 192.087V197.207C233.839 197.837 233.591 198.332 233.163 198.58C232.983 198.681 232.78 198.737 232.578 198.737V198.726ZM228.051 188.622C228.051 188.622 228.051 188.689 228.051 188.734V193.854C228.051 194.36 228.388 194.945 228.681 195.114L232.476 197.308C232.476 197.308 232.476 197.241 232.476 197.196V192.076C232.476 191.57 232.138 190.985 231.846 190.816L228.051 188.622Z" fill="#141516"/>
<path d="M263.027 177.652C263.511 177.934 263.511 178.395 263.027 178.676C262.542 178.958 261.743 178.958 261.259 178.676C260.774 178.395 260.774 177.934 261.259 177.652C261.743 177.371 262.542 177.371 263.027 177.652Z" fill="#141516"/>
<path d="M258.409 174.997C258.894 175.278 258.894 175.74 258.409 176.021C257.925 176.302 257.126 176.302 256.641 176.021C256.157 175.74 256.157 175.278 256.641 174.997C257.126 174.716 257.925 174.716 258.409 174.997Z" fill="#141516"/>
<path d="M253.792 172.331C254.277 172.612 254.277 173.073 253.792 173.355C253.308 173.636 252.509 173.636 252.024 173.355C251.54 173.073 251.54 172.612 252.024 172.331C252.509 172.049 253.308 172.049 253.792 172.331Z" fill="#141516"/>
<path d="M249.175 169.664C249.659 169.945 249.659 170.406 249.175 170.688C248.691 170.969 247.891 170.969 247.407 170.688C246.923 170.406 246.923 169.945 247.407 169.664C247.891 169.382 248.691 169.382 249.175 169.664Z" fill="#141516"/>
<path d="M124.917 162.632V143.762L98.183 128.291V147.16C98.183 147.16 98.5658 156.646 94.5456 158.896L90.5254 161.147L117.259 176.618L121.28 174.367C125.3 172.117 124.917 162.632 124.917 162.632Z" fill="#FABCBC"/>
<path d="M128.296 168.426V149.557L101.562 134.085V152.955C101.562 152.955 101.945 162.44 97.9245 164.691L93.9043 166.941L120.638 182.412L124.658 180.162C128.679 177.912 128.296 168.426 128.296 168.426Z" fill="white"/>
<path d="M117.249 177.417L89.0957 161.113L94.2082 158.255C97.1924 156.589 97.5866 149.692 97.4852 147.172V127.042L125.638 143.335V162.598C125.661 163.172 125.942 172.556 121.64 174.964L117.271 177.405L117.249 177.417ZM91.9673 161.135L117.271 175.785L120.942 173.737C123.926 172.072 124.32 165.175 124.219 162.654V144.167L98.9154 129.517V147.149C98.9267 147.532 99.2645 157.073 94.9177 159.504L91.9898 161.146L91.9673 161.135Z" fill="#141516"/>
<path d="M103.094 150.322C102.913 145.112 109.388 147.7 111.089 153.135C112.801 149.658 119.321 153.754 119.107 159.492C118.949 163.622 111.922 166.817 111.134 167.155C111.134 167.155 111.111 167.189 111.089 167.177C111.078 167.177 111.044 167.11 111.044 167.11C110.256 165.861 103.24 154.62 103.094 150.322Z" fill="#F14C4C"/>
<path d="M111.1 163.633L110.943 163.577H110.695L110.391 163.071C109.13 161.09 102.531 150.412 102.384 146.035C102.283 143.211 103.916 142.626 104.625 142.514C106.72 142.153 109.805 144.145 111.314 147.431C112.046 146.857 113.037 146.677 114.152 146.958C117.013 147.678 119.963 151.166 119.817 155.206C119.648 159.504 113.274 162.666 111.585 163.42L111.472 163.566L111.112 163.633H111.1ZM103.803 145.99C103.916 149.208 108.477 157.332 111.36 161.968C114.141 160.652 118.285 157.985 118.398 155.161C118.533 151.56 115.774 148.848 113.814 148.353C112.812 148.106 112.114 148.365 111.731 149.152L110.943 150.75L110.414 149.051C109.321 145.585 106.348 143.672 104.862 143.931C103.938 144.089 103.77 145.146 103.803 146.013V145.99Z" fill="#141516"/>
<path d="M92.3297 38.7812L86.3163 6.40955C82.0708 5.13809 78.1294 5.29561 74.8975 6.85962L74.5935 7.0059C74.4471 7.08466 74.2894 7.16343 74.143 7.24219L68.7151 10.1114L69.3345 12.1368C68.9178 12.8456 68.535 13.6108 68.2084 14.4434C63.2197 26.933 69.9651 47.9627 83.2983 61.4087C90.055 68.2274 97.2058 71.783 103.264 72.008L104.503 73.5495L109.424 70.9053C110.01 70.6465 110.573 70.3427 111.102 70.0052H111.113C113.388 68.5199 115.224 66.247 116.462 63.1528C117.149 61.4425 117.6 59.5747 117.859 57.5943L92.341 38.8037L92.3297 38.7812Z" fill="#C7D3FF"/>
<path d="M92.3072 40.2666L86.2938 7.8949C82.0484 6.62344 78.107 6.78096 74.875 8.34497L74.571 8.49125C74.4246 8.57002 74.2669 8.64878 74.1205 8.72754L68.6927 11.5968L69.312 13.6221C68.8954 14.331 68.5125 15.0961 68.1859 15.9287C63.1972 28.4183 69.9427 49.4481 83.2758 62.8941C90.0325 69.7127 97.1833 73.2683 103.242 73.4933L102.926 70.8717L100.46 67.5524C101.046 67.2936 104.616 68.8126 105.145 68.4638L101.237 66.4722L102.149 66.6297C104.424 65.1557 100.911 67.3948 102.149 64.3006C102.836 62.5903 102.262 62.5228 102.521 60.5312L92.3185 40.2778L92.3072 40.2666Z" fill="white"/>
<path d="M104.323 74.3593L102.938 72.6265C96.5191 72.289 89.3908 68.4746 82.8368 61.8585C69.3685 48.2662 62.5443 26.8877 67.6118 14.2068C67.9046 13.4867 68.2424 12.7778 68.6478 12.0689L67.9496 9.80732L73.8392 6.69055C73.9518 6.62304 74.0757 6.55553 74.2108 6.48802L75.168 5.98168L75.1906 6.02668C78.4563 4.6427 82.3526 4.56394 86.4967 5.80165L86.8683 5.91417L92.9043 38.4208L118.523 57.279L118.478 57.6503C118.208 59.7431 117.724 61.6672 117.037 63.3662C115.798 66.4605 113.963 68.8459 111.553 70.4324L111.418 70.5224C110.877 70.8713 110.28 71.1863 109.65 71.4676L104.301 74.3481L104.323 74.3593ZM69.4924 10.4262L70.0442 12.2152L69.8978 12.4628C69.4586 13.2166 69.1095 13.9368 68.8055 14.6794C63.9069 26.9327 70.6073 47.6924 83.749 60.9584C90.1678 67.4394 97.1047 71.1413 103.276 71.3663H103.569L104.65 72.7278L109.098 70.3312C109.695 70.0611 110.213 69.7911 110.686 69.4873L110.742 69.4423C112.972 67.9908 114.683 65.7967 115.843 62.8937C116.44 61.3972 116.879 59.6981 117.149 57.8641L91.7331 39.1522L85.7422 6.91558C81.8008 5.8129 78.1522 5.99293 75.1568 7.43317L74.864 7.56819C74.6613 7.66946 74.5487 7.72572 74.4361 7.79323L69.4586 10.4262H69.4924Z" fill="#141516"/>
<path d="M86.4293 41.9197L80.4159 9.54805C72.3867 7.1514 65.4273 9.7731 62.308 17.5819C57.3193 30.0715 64.0647 51.1012 77.3979 64.5472C90.7198 77.9932 105.573 78.7696 110.562 66.28C111.249 64.5697 111.699 62.7019 111.958 60.7216L86.4406 41.931L86.4293 41.9197Z" fill="#C7D3FF"/>
<path d="M97.9825 75.788C91.4398 75.788 83.7935 71.9174 76.9355 64.9862C63.4672 51.394 56.6429 30.0154 61.7104 17.3233C64.8523 9.46946 71.913 6.31893 80.5953 8.91812L80.9669 9.03063L87.0142 41.5373L112.633 60.3955L112.588 60.7668C112.318 62.8596 111.834 64.7837 111.158 66.4827C109.187 71.4223 105.674 74.5278 101.012 75.473C100.043 75.6755 99.0298 75.7655 97.9938 75.7655L97.9825 75.788ZM74.9423 9.33444C69.4356 9.33444 65.1 12.3049 62.9041 17.8071C58.0055 30.0604 64.7059 50.8201 77.8476 64.0861C85.4939 71.7936 94.0524 75.5855 100.753 74.2353C104.976 73.3801 108.163 70.5447 109.964 66.0214C110.561 64.5249 111 62.8259 111.271 60.9918L85.8543 42.2799L79.8634 10.0433C78.1517 9.55947 76.4963 9.32318 74.9535 9.32318L74.9423 9.33444Z" fill="#141516"/>
<path d="M80.4023 9.53769L86.3144 6.40967L92.3279 38.7813L86.4271 41.9206L80.4023 9.53769Z" fill="#141516"/>
<path d="M111.947 60.7107L117.848 57.5714L92.3305 38.7808L86.4297 41.92L111.947 60.7107Z" fill="#C7D3FF"/>
<path d="M111.947 60.7111L114.784 59.2258L91.2711 41.9092L87.8252 43.7432L111.947 60.7111Z" fill="white"/>
<path d="M119.502 57.1668L92.9149 38.4212L86.7888 5.43066L79.6943 9.20004L85.7078 41.5717L85.8429 42.2806L86.3722 42.6744L111.89 61.465L119.502 57.1668ZM81.1245 9.88641L85.8429 7.38849L91.6086 38.4437L86.8902 40.9416L81.1245 9.88641ZM92.273 39.5351L116.642 57.4706L111.991 59.9348L87.6222 41.988L92.273 39.5239V39.5351Z" fill="#141516"/>
<path d="M122.554 47.7488C121.98 41.2115 119.727 34.044 116.124 27.3267C113.432 22.3083 110.009 17.5375 105.977 13.4644C100.978 8.41227 95.7524 5.14922 90.9213 3.70898L85.0205 6.84826L90.9213 19.9117L95.0767 26.1002L96.901 35.8894C96.9235 35.9906 97.0249 36.0469 97.115 36.0019L97.16 35.9794C97.0699 36.0244 97.0699 36.1369 97.16 36.1819H97.1487C97.1487 36.1819 97.1037 36.2044 97.1262 36.2269L106.574 43.1806L116.552 58.0105L122.452 54.8713C122.745 52.6321 122.768 50.2355 122.554 47.7488Z" fill="#C7D3FF"/>
<path d="M122.653 50.3367C122.079 43.7994 119.827 36.6319 116.223 29.9146C113.532 24.8962 110.109 20.1254 106.077 16.0523C101.077 11.0002 95.852 7.73712 91.021 6.29688L85.1201 9.43615L91.021 22.4996L95.1763 28.6881L97.0006 38.4772C97.0231 38.5785 97.1245 38.6348 97.2146 38.5898L97.2596 38.5673C97.1695 38.6123 97.1695 38.7248 97.2596 38.7698H97.2484C97.2484 38.7698 97.2033 38.7923 97.2258 38.8148L106.674 45.7685L116.651 57.4817L122.462 54.8712C122.755 52.6321 122.879 52.8234 122.653 50.3367Z" fill="white"/>
<path d="M116.337 58.8431L106.101 43.6305L96.281 36.3956L96.3598 36.2493C96.3147 36.1705 96.281 36.0918 96.2697 36.0018L94.4792 26.3364L90.3914 20.2604L84.1865 6.54434L90.8531 3L91.1121 3.07876C96.2247 4.60902 101.517 8.0296 106.439 13.0029C110.425 17.0198 113.871 21.7344 116.697 27.0115C120.312 33.7739 122.632 41.1101 123.206 47.6812C123.432 50.2354 123.398 52.6883 123.105 54.9387L123.06 55.265L116.348 58.8318L116.337 58.8431ZM99.2877 37.0144L107.103 42.8204L116.754 57.1665L121.855 54.4548C122.103 52.3845 122.114 50.1454 121.911 47.805C121.348 41.4027 119.096 34.2352 115.56 27.6304C112.824 22.5333 109.355 17.7962 105.515 13.9143C100.83 9.18854 95.808 5.90299 90.977 4.39524L85.8419 7.11819L91.5063 19.6415L95.7067 25.9763L97.4972 35.6417L100.177 37.1044L99.2764 37.0257L99.2877 37.0144ZM97.2269 35.9905H97.2607L97.4972 35.698H97.5197C97.5197 35.698 97.4972 35.653 97.4747 35.6192C97.4296 35.5404 97.362 35.4729 97.272 35.4279C97.1593 35.3717 97.0242 35.3604 96.9116 35.3942L97.4071 35.5967L97.2269 35.9905Z" fill="#141516"/>
<path d="M91.2141 39.1293L110.223 30.4541C107.531 25.4358 104.108 20.665 100.077 16.5918C95.0767 11.5397 89.8515 8.27667 85.0205 6.83643L91.0002 39.0168C91.0227 39.1181 91.124 39.1743 91.2141 39.1293Z" fill="#F14C4C"/>
<path d="M91.1459 39.7929C91.022 39.7929 90.8869 39.7592 90.7743 39.7029C90.5491 39.5904 90.4027 39.3766 90.3576 39.1403L84.1865 5.93604L85.2 6.23984C90.3126 7.7701 95.6166 11.1907 100.526 16.164C104.513 20.1809 107.959 24.8954 110.785 30.1726L111.112 30.7802L91.4837 39.7367C91.3824 39.7817 91.2585 39.8042 91.1459 39.8042V39.7929ZM85.8419 7.78134L91.5175 38.2852L109.333 30.1501C106.652 25.2893 103.308 20.766 99.6143 17.0416C95.1774 12.5634 90.4364 9.37911 85.8419 7.78134Z" fill="#141516"/>
<path d="M116.551 57.9985C116.844 55.7593 116.867 53.3627 116.653 50.876L91.2476 39.3091C91.2476 39.3091 91.2025 39.3316 91.2251 39.3541L116.551 57.9985Z" fill="#C7D3FF"/>
<path d="M117.047 59.1692L90.3691 39.5347L90.9547 38.4995L91.5178 38.7245L117.272 50.449L117.306 50.8203C117.531 53.3745 117.497 55.8162 117.204 58.0778L117.069 59.158L117.047 59.1692ZM96.3826 42.3589L116.033 56.8176C116.191 55.0735 116.191 53.2282 116.033 51.3041L96.3826 42.3589Z" fill="#141516"/>
<path d="M91.258 39.3201L116.652 50.8758C116.078 44.3384 113.825 37.171 110.222 30.4536L91.258 39.1063C91.1679 39.1513 91.1679 39.2751 91.258 39.3201Z" fill="#C7D3FF"/>
<path d="M94.5576 41.2214L114.681 50.4479C113.555 43.8093 112.654 41.0301 109.557 34.7178L94.5576 41.2214Z" fill="white"/>
<path d="M117.384 51.9223L90.6164 39.7365L90.5488 38.8026L90.988 38.5213L110.504 29.6211L110.785 30.1499C114.4 36.9123 116.72 44.2485 117.294 50.8196L117.384 51.9223ZM92.5758 39.2189L115.898 49.8295C115.211 43.8885 113.116 37.3736 109.94 31.2864L92.5871 39.2077L92.5758 39.2189Z" fill="#141516"/>
<path d="M113.916 38.7803L119.839 35.686L122.114 44.3725L122.598 53.689L122.058 55.0843L117.159 57.8635L116.416 48.8282L113.916 38.7803Z" fill="#141516"/>
<path d="M107.902 71.7037L112.632 68.8007L115.684 64.7725L117.384 59.8779L117.846 57.5713L111.945 60.7106L109.738 68.1481L107.902 71.7037Z" fill="#141516"/>
<g clip-path="url(#clip0_224_2016)">
<path d="M83.8776 258.812H80.835V257.505C80.835 254.583 82.8196 251.143 85.3449 249.682L87.5535 248.406C89.0207 247.556 90.5421 247.463 91.7236 248.143C92.9051 248.824 93.5847 250.192 93.5847 251.893C93.5847 252.527 93.7546 252.913 93.9245 253.006C94.0944 253.107 94.5114 253.06 95.0597 252.743L97.4845 251.344C99.0753 250.424 100.473 247.997 100.473 246.157C100.473 243.235 102.458 239.794 104.983 238.333L107.083 237.12C108.551 236.269 110.072 236.176 111.254 236.857C112.435 237.537 113.115 238.905 113.115 240.606C113.115 241.24 113.285 241.627 113.455 241.719C113.624 241.82 114.041 241.773 114.59 241.456L116.358 240.436C117.949 239.516 119.354 237.089 119.354 235.249C119.354 232.327 121.339 228.886 123.864 227.425L125.965 226.212C127.432 225.361 128.953 225.269 130.135 225.949C131.316 226.629 131.996 227.997 131.996 229.698V231.391H128.961V229.698C128.961 229.064 128.791 228.678 128.621 228.585C128.451 228.484 128.034 228.531 127.486 228.848L125.386 230.062C123.795 230.981 122.397 233.409 122.397 235.249C122.397 238.171 120.412 241.611 117.887 243.072L116.119 244.093C114.651 244.943 113.13 245.036 111.949 244.355C110.767 243.675 110.088 242.307 110.088 240.606C110.088 239.972 109.918 239.586 109.748 239.493C109.578 239.4 109.161 239.439 108.613 239.756L106.512 240.969C104.921 241.889 103.516 244.317 103.516 246.157C103.516 249.079 101.531 252.519 99.0058 253.98L96.581 255.379C95.1137 256.23 93.5924 256.322 92.4109 255.642C91.2294 254.962 90.5498 253.594 90.5498 251.893C90.5498 251.259 90.3799 250.872 90.21 250.78C90.0401 250.687 89.6231 250.725 89.0748 251.042L86.8662 252.318C85.2754 253.238 83.8699 255.665 83.8699 257.505V258.812H83.8776Z" fill="white"/>
<path d="M128.822 224.357L132.954 250.981L197.923 189.298L128.822 224.357Z" fill="#FABCBC"/>
<path d="M132.645 251.731L128.359 224.125L128.63 223.985L197.738 188.912L198.255 189.561L133.217 251.305L132.638 251.731H132.645ZM129.278 224.596L133.24 250.13L195.56 190.968L129.278 224.596Z" fill="#141516"/>
<path d="M141.248 232.041L132.514 250.888L132.645 251.73L151.943 237.56L141.248 232.041Z" fill="#141516"/>
<path d="M197.923 189.298L107.725 211.438L128.822 224.356L197.923 189.298Z" fill="#FABCBC"/>
<path d="M197.923 189.298L168.029 247.803L141.989 232.002L197.923 189.298Z" fill="#FABCBC"/>
<path d="M197.915 193.48L168.763 250.524L142.723 234.723L197.359 193.008C197.675 192.769 198.092 193.124 197.915 193.472V193.48Z" fill="white"/>
<path d="M128.359 224.125L129.278 224.596L129.541 226.266L190.247 195.467L197.05 189.739L188.363 194.145L106.845 214.16L127.942 227.078L128.753 226.668L128.359 224.125Z" fill="white"/>
<path d="M198.255 189.561L197.737 188.912L128.459 205.919L107.617 211.037L106.644 211.276L128.799 224.844L154.337 211.887L193.158 192.189L194.054 191.726L174.964 206.298L141.727 231.67L141.24 232.041L168.191 248.391L172.609 239.74L198.255 189.561ZM128.838 223.885L108.79 211.609L130.266 206.336L153.063 211.586L128.838 223.877V223.885ZM154.229 210.998L132.074 205.896L178.895 194.4L194.486 190.574L154.229 210.998ZM167.859 247.216L142.73 231.963L160.175 218.644L172.114 238.89L167.867 247.208L167.859 247.216ZM172.562 238.017L160.84 218.141L183.273 201.01L196.71 190.752L172.562 238.017Z" fill="#141516"/>
<path d="M159.705 228.771L155.156 234.151L162.292 240.993L166.809 235.535L159.712 228.771H159.705ZM162.137 238.326L157.288 233.741L159.774 230.757L164.601 235.295L162.13 238.326H162.137Z" fill="#FABCBC"/>
<path d="M162.121 238.318L156.623 233.061L159.666 229.458L165.141 234.669L162.121 238.326V238.318ZM157.195 233.03L162.083 237.707L164.569 234.7L159.697 230.069L157.195 233.03Z" fill="#141516"/>
<path d="M162.222 240.467L154.631 233.185L159.589 227.325L167.141 234.522L162.222 240.467ZM155.496 233.146L162.176 239.547L166.292 234.576L159.643 228.245L155.496 233.146Z" fill="#141516"/>
<path d="M166.323 223.483C166.323 227.526 162.732 230.819 158.315 230.819C154.538 230.819 151.372 228.415 150.53 225.191L150.121 225.5C151.094 228.832 154.392 231.298 158.315 231.298C162.994 231.298 166.802 227.789 166.802 223.483C166.802 220.383 164.825 217.708 161.983 216.448L161.55 216.78C164.361 217.924 166.323 220.499 166.323 223.483Z" fill="#141516"/>
<path d="M164.678 223.483C164.678 226.637 161.874 229.203 158.43 229.203C155.171 229.203 152.492 226.915 152.206 224.001L151.766 224.333C152.214 227.348 155.024 229.683 158.422 229.683C162.129 229.683 165.149 226.9 165.149 223.483C165.149 220.754 163.226 218.435 160.561 217.615L160.083 217.979C162.724 218.651 164.67 220.862 164.67 223.483H164.678Z" fill="#141516"/>
<path d="M87.2985 260.435H84.2559V259.129C84.2559 256.207 86.2405 252.766 88.7658 251.305L90.9744 250.03C92.4416 249.179 93.963 249.087 95.1445 249.767C96.326 250.447 97.0056 251.816 97.0056 253.516C97.0056 254.15 97.1755 254.537 97.3454 254.63C97.5153 254.73 97.9323 254.684 98.4806 254.367L100.905 252.967C102.496 252.048 103.894 249.62 103.894 247.78C103.894 244.858 105.879 241.418 108.404 239.957L110.504 238.743C111.972 237.893 113.493 237.8 114.675 238.48C115.856 239.161 116.536 240.529 116.536 242.23C116.536 242.864 116.706 243.25 116.875 243.343C117.045 243.443 117.462 243.397 118.011 243.08L119.779 242.06C121.37 241.14 122.775 238.712 122.775 236.872C122.775 233.95 124.76 230.51 127.285 229.049L129.386 227.835C130.853 226.985 132.374 226.892 133.556 227.572C134.737 228.253 135.417 229.621 135.417 231.322V233.015H132.382V231.322C132.382 230.688 132.212 230.301 132.042 230.209C131.872 230.108 131.455 230.154 130.907 230.471L128.807 231.685C127.216 232.605 125.818 235.032 125.818 236.872C125.818 239.794 123.833 243.235 121.308 244.696L119.54 245.716C118.072 246.567 116.551 246.659 115.37 245.979C114.188 245.299 113.508 243.93 113.508 242.23C113.508 241.596 113.339 241.209 113.169 241.116C112.999 241.024 112.582 241.062 112.033 241.379L109.933 242.593C108.342 243.513 106.937 245.94 106.937 247.78C106.937 250.702 104.952 254.143 102.427 255.604L100.002 257.003C98.5346 257.853 97.0133 257.946 95.8318 257.266C94.6502 256.585 93.9707 255.217 93.9707 253.516C93.9707 252.882 93.8008 252.496 93.6309 252.403C93.461 252.31 93.044 252.349 92.4957 252.666L90.2871 253.942C88.6963 254.861 87.2908 257.289 87.2908 259.129V260.435H87.2985Z" fill="#141516"/>
<path d="M70.8191 282.274H68.541V281.656C68.541 280.102 69.5527 278.347 70.8964 277.574L71.9466 276.971C72.7806 276.492 73.6533 276.445 74.3483 276.847C75.0433 277.249 75.4371 278.03 75.4371 278.989C75.4371 279.02 75.4371 279.043 75.4371 279.074C75.4603 279.066 75.4835 279.051 75.5066 279.035L76.6573 278.37C77.2905 277.999 77.8697 277.002 77.8697 276.268C77.8697 274.714 78.8813 272.959 80.2251 272.186L81.2212 271.606C82.0553 271.127 82.9279 271.08 83.6229 271.482C84.3179 271.884 84.7118 272.665 84.7118 273.624C84.7118 273.655 84.7118 273.678 84.7118 273.701C84.7349 273.693 84.7581 273.678 84.7813 273.662L85.623 273.175C86.2563 272.804 86.8355 271.807 86.8355 271.073C86.8355 269.519 87.8471 267.772 89.1908 266.991L90.187 266.411C91.021 265.932 91.8936 265.885 92.5887 266.287C93.2837 266.689 93.6775 267.47 93.6775 268.429V269.233H91.3994V268.429C91.3994 268.429 91.3994 268.375 91.3994 268.344C91.3762 268.351 91.3531 268.367 91.3299 268.382L90.3337 268.962C89.7005 269.333 89.1213 270.33 89.1213 271.065C89.1213 272.619 88.1097 274.374 86.7659 275.147L85.9242 275.634C85.0902 276.113 84.2175 276.159 83.5225 275.757C82.8275 275.355 82.4337 274.575 82.4337 273.616C82.4337 273.585 82.4337 273.562 82.4337 273.531C82.4105 273.539 82.3873 273.554 82.3642 273.57L81.368 274.149C80.7347 274.52 80.1555 275.518 80.1555 276.252C80.1555 277.806 79.1439 279.561 77.8002 280.334L76.6496 280.999C75.8155 281.478 74.9429 281.524 74.2479 281.122C73.5529 280.72 73.159 279.94 73.159 278.981C73.159 278.95 73.159 278.927 73.159 278.896C73.1359 278.904 73.1127 278.919 73.0895 278.935L72.0393 279.538C71.406 279.909 70.8269 280.906 70.8269 281.64V282.259L70.8191 282.274Z" fill="white"/>
<path d="M150.77 192.831H149.102V192.321C149.102 191.076 149.912 189.661 150.994 189.043L151.858 188.54C152.515 188.162 153.194 188.123 153.735 188.44C154.276 188.749 154.584 189.368 154.584 190.118C154.584 190.241 154.6 190.311 154.615 190.349C154.623 190.326 154.7 190.303 154.801 190.241L155.758 189.692C156.314 189.375 156.816 188.502 156.816 187.86C156.816 186.616 157.627 185.201 158.708 184.575L159.535 184.095C160.191 183.717 160.871 183.678 161.411 183.995C161.952 184.304 162.261 184.915 162.261 185.672C162.261 185.796 162.276 185.866 162.291 185.904C162.299 185.881 162.376 185.858 162.477 185.796L163.172 185.394C163.728 185.077 164.23 184.204 164.23 183.562C164.23 182.317 165.041 180.903 166.122 180.276L166.948 179.797C167.605 179.418 168.284 179.38 168.825 179.697C169.365 180.006 169.674 180.624 169.674 181.374V182.039H168.006V181.374C168.006 181.251 167.991 181.181 167.975 181.142C167.967 181.165 167.89 181.189 167.79 181.251L166.964 181.73C166.408 182.047 165.906 182.92 165.906 183.562C165.906 184.807 165.095 186.221 164.014 186.84L163.319 187.242C162.662 187.621 161.983 187.659 161.442 187.342C160.901 187.033 160.593 186.415 160.593 185.665C160.593 185.541 160.577 185.471 160.562 185.433C160.554 185.456 160.477 185.479 160.376 185.541L159.55 186.02C158.994 186.337 158.492 187.211 158.492 187.852C158.492 189.097 157.681 190.512 156.6 191.13L155.642 191.679C154.994 192.058 154.306 192.097 153.766 191.78C153.225 191.47 152.916 190.852 152.916 190.102C152.916 189.978 152.901 189.909 152.886 189.87C152.878 189.893 152.801 189.917 152.692 189.978L151.828 190.481C151.272 190.798 150.77 191.671 150.77 192.313V192.823V192.831Z" fill="white"/>
</g>
<defs>
<clipPath id="clip0_224_2016">
<rect width="129.714" height="102.779" fill="white" transform="translate(68.541 179.496)"/>
</clipPath>
</defs>
</svg>
