<svg width="284" height="285" viewBox="0 0 284 285" fill="none" xmlns="http://www.w3.org/2000/svg">
<path d="M256.242 189.879C256.242 189.879 256.242 189.784 256.242 189.746V186.907H254.406C254.274 186.812 254.16 186.736 254.009 186.642L178.109 142.799C174.779 140.887 168.969 141.115 165.128 143.329L59.8594 204.133C59.1781 204.531 58.5915 204.966 58.1374 205.421H56.6992V212.008C56.7371 213.201 57.4561 214.337 58.9321 215.189L134.832 259.031C138.163 260.943 143.972 260.716 147.813 258.501L253.082 197.697C255.107 196.523 256.166 195.028 256.242 193.608V189.879Z" fill="white"/>
<path d="M256.242 193.59V189.86C256.242 189.86 256.242 189.766 256.242 189.728V186.888H254.406C254.274 186.794 254.16 186.718 254.009 186.623L225.852 170.362C223.713 170.419 222.162 170.533 221.499 170.741C217.488 172.066 144.634 214.015 143.348 219.713C142.061 225.411 139.639 253.939 139.639 253.939V260.281C142.42 260.432 145.486 259.826 147.813 258.482L253.082 197.679C255.107 196.505 256.166 195.009 256.242 193.59Z" fill="#141516"/>
<path d="M140.471 261C138.239 261 136.1 260.545 134.511 259.637L58.6106 215.794C56.9833 214.867 56.075 213.523 56.0371 212.046V204.758H57.8916C58.3646 204.323 58.9323 203.925 59.5568 203.565L164.825 142.762C168.837 140.433 174.968 140.206 178.469 142.232L254.369 186.074C254.369 186.074 254.539 186.188 254.634 186.244H256.942V193.627C256.848 195.388 255.618 197.035 253.442 198.284L148.173 259.088C145.978 260.356 143.177 261 140.49 261H140.471ZM57.3617 206.102V212.027C57.3806 213.012 58.0429 213.92 59.2729 214.621L135.173 258.463C138.314 260.28 143.821 260.034 147.473 257.933L252.741 197.129C254.482 196.126 255.504 194.839 255.561 193.589V187.569H254.198L254.028 187.456C253.839 187.342 253.763 187.286 253.669 187.229L177.769 143.386C174.627 141.569 169.121 141.815 165.469 143.916L60.2002 204.72C59.5757 205.08 59.0459 205.477 58.6106 205.913L58.4214 206.102H57.3806H57.3617Z" fill="#141516"/>
<path d="M134.832 252.67L58.932 208.828C55.6016 206.916 56.0179 203.546 59.8592 201.331L165.128 140.528C168.969 138.313 174.778 138.067 178.109 139.998L254.009 183.84C257.339 185.752 256.923 189.121 253.082 191.336L147.813 252.14C143.972 254.355 138.162 254.601 134.832 252.67Z" fill="#F57878"/>
<path d="M140.471 254.639C138.239 254.639 136.1 254.185 134.511 253.277L58.6106 209.434C56.9454 208.469 56.0371 207.106 56.0371 205.591C56.0371 203.812 57.3239 202.07 59.5568 200.764L164.825 139.96C168.837 137.651 174.968 137.405 178.469 139.43L254.369 183.273C256.034 184.238 256.942 185.601 256.942 187.097C256.942 188.876 255.656 190.618 253.423 191.924L148.154 252.728C145.959 253.996 143.158 254.639 140.49 254.639H140.471ZM172.489 139.392C170.067 139.392 167.493 139.979 165.488 141.153L60.2191 201.957C58.4214 202.998 57.3806 204.323 57.3806 205.61C57.3806 206.632 58.0619 207.579 59.2919 208.279L135.192 252.122C138.333 253.939 143.84 253.693 147.492 251.592L252.76 190.788C254.558 189.747 255.599 188.403 255.599 187.134C255.599 186.112 254.918 185.166 253.688 184.465L177.788 140.623C176.368 139.809 174.476 139.411 172.489 139.411V139.392Z" fill="#141516"/>
<path d="M142.079 248.411L141.758 248.222L68.5635 205.951L169.12 147.873L169.442 148.062L242.636 190.334L142.079 248.411Z" fill="#141516"/>
<path d="M142.478 244.153L67.9971 201.144L170.37 142.006L244.851 185.034L142.478 244.153Z" fill="white"/>
<path d="M142.478 244.929L142.137 244.74L66.6533 201.143L170.37 141.248L170.711 141.437L246.194 185.034L142.478 244.929ZM69.3215 201.143L142.478 243.395L243.507 185.034L170.37 142.781L69.3404 201.143H69.3215Z" fill="#141516"/>
<path d="M232.985 159.988L232.947 160.291L225.359 155.918C225.226 156.013 225.113 156.108 224.961 156.202C222.823 157.433 221.574 159.421 219.436 158.171C217.298 156.941 215.065 156.524 217.203 155.294C217.354 155.199 217.525 155.142 217.695 155.067L218.395 149.35L215.443 148.327L214.989 153.495L206.606 145.09C205.13 144.239 202.613 144.655 202.14 145.829L201.081 148.422L200.097 148.327V154.555C200.097 154.555 200.097 154.593 200.097 154.612C200.135 155.01 200.399 155.37 200.873 155.635L223.921 168.942C224.564 169.321 225.491 169.473 226.381 169.359L234.82 168.28C236.183 168.11 236.959 167.409 236.902 166.69V160.556L232.985 159.988Z" fill="#141516"/>
<path d="M225.813 170.059C224.999 170.059 224.205 169.87 223.599 169.51L200.551 156.202C200.229 156.013 199.964 155.785 199.775 155.539L199.435 155.71V147.57L200.646 147.683L201.516 145.544C201.762 144.957 202.33 144.484 203.143 144.2C204.373 143.784 205.906 143.897 206.947 144.484L207.079 144.598L214.44 151.98L214.838 147.437L219.133 148.971V156.05L217.96 155.653C217.714 155.766 217.62 155.804 217.525 155.861C217.279 155.994 217.146 156.107 217.071 156.164C217.317 156.353 217.866 156.618 218.282 156.827C218.736 157.054 219.247 157.3 219.739 157.584C220.874 158.246 221.593 157.773 222.975 156.732C223.448 156.372 223.997 155.975 224.602 155.615C224.697 155.558 224.772 155.501 224.848 155.445L225.208 155.18L225.7 155.331L232.474 159.25L237.148 159.931C237.375 159.969 237.564 160.158 237.564 160.404V166.708C237.659 167.787 236.561 168.734 234.896 168.961L226.457 170.04C226.229 170.059 226.021 170.078 225.794 170.078L225.813 170.059ZM200.778 154.536C200.778 154.706 200.948 154.896 201.213 155.047L224.262 168.355C224.772 168.658 225.567 168.772 226.305 168.677L234.745 167.598C235.767 167.465 236.259 167.011 236.24 166.727V161.124L233.572 160.745L233.496 161.37L225.397 156.694C225.397 156.694 225.321 156.732 225.283 156.77C224.735 157.073 224.262 157.451 223.788 157.792C222.426 158.814 221.026 159.874 219.077 158.739C218.604 158.474 218.13 158.227 217.695 158.019C216.56 157.47 215.67 157.035 215.652 156.202C215.633 155.483 216.276 155.009 216.863 154.687C216.919 154.65 217.752 155.218 217.809 155.18V149.993L216.03 149.141L215.519 154.952L206.19 145.601C205.49 145.241 204.392 145.185 203.56 145.468C203.143 145.62 202.822 145.828 202.746 146.055L201.497 149.122L200.759 149.046V154.536H200.778Z" fill="#141516"/>
<path d="M236.128 159.553L225.361 153.344C225.228 153.439 225.115 153.533 224.963 153.628C222.825 154.858 219.362 154.858 217.224 153.628C215.086 152.397 215.086 150.391 217.224 149.16C217.375 149.066 217.546 149.009 217.716 148.933L206.627 142.535C205.151 141.683 202.634 142.099 202.161 143.273L200.174 148.081C199.966 148.592 200.231 149.141 200.874 149.52L223.923 162.828C224.566 163.207 225.493 163.358 226.383 163.244L234.822 162.165C236.866 161.9 237.604 160.443 236.128 159.572V159.553Z" fill="#C7D3FF"/>
<path d="M225.815 163.925C225.001 163.925 224.206 163.736 223.601 163.376L200.553 150.068C199.606 149.519 199.209 148.63 199.569 147.797L201.555 142.989C201.801 142.402 202.369 141.928 203.183 141.644C204.413 141.228 205.946 141.342 206.986 141.928L219.192 148.989L218.018 149.538C217.772 149.652 217.678 149.69 217.583 149.747C216.751 150.22 216.315 150.807 216.315 151.412C216.315 152.018 216.769 152.605 217.583 153.078C219.494 154.176 222.749 154.176 224.66 153.078C224.755 153.022 224.831 152.965 224.906 152.908L225.266 152.643L225.758 152.794L236.525 159.003C237.358 159.477 237.755 160.215 237.604 160.972C237.414 161.938 236.393 162.638 234.973 162.827L226.534 163.906C226.307 163.925 226.099 163.944 225.871 163.944L225.815 163.925ZM204.734 142.723C204.337 142.723 203.94 142.78 203.58 142.894C203.164 143.045 202.842 143.254 202.766 143.481L200.78 148.289C200.666 148.554 201.082 148.819 201.196 148.895L224.244 162.203C224.755 162.506 225.55 162.619 226.288 162.525L234.727 161.445C235.73 161.313 236.184 160.896 236.222 160.65C236.279 160.404 235.901 160.177 235.787 160.101L225.398 154.101C225.398 154.101 225.323 154.138 225.285 154.176C222.919 155.539 219.229 155.539 216.864 154.176C215.615 153.457 214.934 152.454 214.934 151.356C214.934 150.428 215.426 149.557 216.353 148.876L206.267 143.064C205.851 142.818 205.283 142.705 204.716 142.705L204.734 142.723Z" fill="#141516"/>
<path d="M237.414 180.963L177.731 146.491C176.293 145.658 176.482 144.219 178.128 143.254L181.818 141.115C183.465 140.149 185.982 140.055 187.42 140.887L247.103 175.359C248.541 176.192 248.352 177.631 246.705 178.596L243.015 180.736C241.369 181.701 238.852 181.796 237.414 180.963Z" fill="white"/>
<path d="M239.855 182.193C238.833 182.193 237.83 181.985 237.092 181.55L177.409 147.078C176.577 146.586 176.104 145.885 176.104 145.09C176.104 144.181 176.728 143.311 177.807 142.686L181.497 140.547C183.37 139.468 186.114 139.373 187.76 140.32L247.443 174.792C248.276 175.284 248.749 175.984 248.749 176.779C248.749 177.688 248.124 178.559 247.046 179.183L243.356 181.323C242.353 181.909 241.085 182.212 239.855 182.212V182.193ZM237.755 180.376C238.985 181.076 241.236 180.982 242.675 180.149L246.365 178.01C247.008 177.631 247.405 177.177 247.405 176.76C247.405 176.382 247.065 176.098 246.781 175.927L187.098 141.456C185.868 140.736 183.616 140.85 182.178 141.683L178.488 143.822C177.844 144.2 177.447 144.655 177.447 145.071C177.447 145.45 177.788 145.734 178.072 145.904L237.755 180.376Z" fill="#141516"/>
<path d="M218.717 173.013L188.876 155.786C188.157 155.37 188.251 154.65 189.084 154.177L190.939 153.117C191.771 152.644 193.02 152.587 193.739 153.004L223.581 170.23C224.3 170.647 224.205 171.366 223.373 171.839L221.518 172.899C220.685 173.372 219.437 173.429 218.717 173.013Z" fill="#C7D3FF"/>
<path d="M219.947 173.959C219.379 173.959 218.831 173.845 218.395 173.58L188.554 156.354C188.043 156.051 187.74 155.577 187.74 155.066C187.74 154.498 188.119 153.949 188.762 153.571L190.617 152.511C191.657 151.905 193.152 151.848 194.079 152.397L223.921 169.624C224.451 169.927 224.735 170.4 224.735 170.911C224.735 171.479 224.356 172.028 223.713 172.406L221.858 173.466C221.291 173.788 220.609 173.959 219.947 173.959ZM192.528 153.363C192.093 153.363 191.619 153.476 191.279 153.665L189.443 154.726C189.159 154.877 189.103 155.028 189.103 155.066C189.103 155.066 189.141 155.123 189.254 155.18L219.096 172.406C219.607 172.709 220.609 172.652 221.215 172.293L223.069 171.233C223.353 171.081 223.41 170.93 223.41 170.892C223.41 170.892 223.372 170.835 223.259 170.778L193.417 153.552C193.19 153.419 192.887 153.363 192.547 153.363H192.528Z" fill="#141516"/>
<path d="M210.789 191.28L210.903 184.03L207.724 183.992C207.724 183.992 207.667 183.916 207.629 183.897L204.98 191.488H203.901L201.195 195.142L189.312 199.837L172.754 201.427L160.7 199.42L149.573 190.012C149.63 189.709 149.706 189.387 149.781 189.084L146.508 182.97C146.508 182.97 146.432 183.064 146.394 183.102L143.158 183.064L143.045 191.261C143.045 191.356 143.045 191.469 143.045 191.564V191.943L143.083 192.548C143.48 197.186 146.697 201.786 152.771 205.402C165.904 213.239 187.363 213.561 200.722 206.102C206.891 202.657 210.24 198.152 210.77 193.533L210.808 193.381C210.865 192.378 210.865 192.037 210.808 191.299L210.789 191.28Z" fill="#C7D3FF"/>
<path d="M177.503 212.369C168.363 212.369 159.186 210.286 152.298 206.178C146.205 202.544 142.609 197.736 142.174 192.624L142.117 192.019L142.25 182.156L145.959 182.213L146.545 181.531L147.302 182.572L150.746 189.009L150.651 189.368C150.614 189.482 150.595 189.596 150.557 189.709L161.078 198.606L172.772 200.537L189.084 198.985L200.608 194.423L203.447 190.599H204.336L207.307 182.118L208.158 183.14L211.829 183.197L211.716 191.299C211.773 192.056 211.773 192.454 211.716 193.457L211.678 193.647C211.073 198.758 207.345 203.452 201.157 206.917C194.591 210.589 186.075 212.406 177.522 212.406L177.503 212.369ZM144.047 183.973L143.934 191.943L143.972 192.473C144.35 196.978 147.643 201.294 153.206 204.626C166.074 212.312 187.173 212.615 200.249 205.308C205.925 202.146 209.332 197.925 209.843 193.419L209.88 193.211C209.918 192.34 209.918 192.019 209.88 191.356V191.261L209.975 184.92H208.234L205.623 192.378H204.355L201.762 195.861L189.387 200.708L172.697 202.298L160.283 200.234L148.57 190.334L148.665 189.823C148.702 189.596 148.759 189.387 148.797 189.16L146.015 183.973H144.028H144.047Z" fill="#141516"/>
<path d="M145.714 183.954C146.982 185.714 148.458 187.74 149.688 189.443C150.482 186.093 153.132 182.894 157.635 180.376C168.459 174.318 185.887 174.583 196.541 180.944C200.912 183.556 203.467 186.793 204.205 190.125L207.914 184.257C207.554 183.783 207.176 183.329 206.74 182.875C207.554 183.234 208.103 183.499 208.33 183.613C207.251 182.534 198.66 170.154 198.66 170.154L179.037 165.27L160.758 167.655L148.798 177.309L147.947 181.114L146.622 181.568C145.544 182.515 146.471 182.969 145.714 183.992V183.954Z" fill="#141516"/>
<path d="M203.807 192.472L203.334 190.314C202.615 187.096 200.117 184.124 196.087 181.701C185.698 175.492 168.648 175.246 158.089 181.152C153.945 183.461 151.353 186.395 150.577 189.633L150.123 191.544L148.968 189.954C147.738 188.251 146.263 186.244 144.995 184.465L144.616 183.935L145.014 183.404C145.184 183.177 145.184 183.083 145.184 182.818C145.184 182.231 145.241 181.587 146.073 180.849L146.376 180.679L147.228 180.395L148.022 176.779L160.417 166.765L179.132 164.342L199.247 169.339L199.436 169.623C202.748 174.394 208.254 182.212 209.011 182.95L209.56 183.499L209.049 184.2L203.826 192.472H203.807ZM176.464 175.113C183.919 175.113 191.394 176.798 197.014 180.167C200.704 182.363 203.24 185.051 204.488 188.005L206.816 184.313C206.589 184.029 206.343 183.764 206.097 183.48L203.069 180.224L205.454 181.284C202.937 177.82 199.171 172.425 198.13 170.93L178.999 166.178L161.136 168.506L149.631 177.801L148.741 181.777L147.114 182.325C146.963 182.477 146.963 182.553 146.963 182.799C146.963 183.083 146.963 183.442 146.792 183.897C147.625 185.051 148.533 186.301 149.385 187.493C150.672 184.465 153.34 181.758 157.2 179.6C162.555 176.609 169.481 175.132 176.464 175.132V175.113Z" fill="#141516"/>
<path d="M205.736 210.532L210.883 201.654L204.923 197.773C204.923 197.773 204.866 197.735 204.828 197.716C204.185 197.337 203.276 197.394 202.292 197.943C200.268 199.079 198.602 201.862 198.564 204.19C198.564 205.212 198.848 205.97 199.378 206.405C199.378 206.405 199.567 206.538 199.681 206.594L205.736 210.532Z" fill="white"/>
<path d="M153.282 169.168C139.941 176.627 139.752 189.026 152.884 196.863C166.017 204.7 187.475 205.022 200.835 197.564C214.176 190.105 214.365 177.706 201.232 169.869C188.1 162.032 166.641 161.71 153.282 169.168ZM196.331 194.876C185.507 200.933 168.079 200.668 157.426 194.308C146.772 187.947 146.924 177.895 157.747 171.838C168.571 165.78 185.999 166.045 196.653 172.405C207.307 178.766 207.155 188.818 196.331 194.876Z" fill="#C7D3FF"/>
<path d="M177.635 203.83C168.495 203.83 159.318 201.748 152.43 197.64C145.788 193.684 142.174 188.421 142.249 182.856C142.325 177.29 146.091 172.141 152.846 168.374C166.433 160.783 188.346 161.105 201.686 169.093C208.328 173.05 211.943 178.312 211.867 183.878C211.791 189.443 208.025 194.592 201.27 198.359C194.704 202.032 186.188 203.849 177.635 203.849V203.83ZM176.481 164.683C168.249 164.683 160.056 166.424 153.735 169.964C147.567 173.409 144.142 177.99 144.066 182.893C143.99 187.777 147.283 192.472 153.357 196.088C166.225 203.754 187.324 204.076 200.399 196.769C206.568 193.324 209.993 188.743 210.069 183.84C210.145 178.956 206.833 174.261 200.778 170.646C194.136 166.689 185.299 164.683 176.5 164.683H176.481ZM177.522 200.139C170.085 200.139 162.591 198.454 156.971 195.084C151.521 191.828 148.569 187.531 148.626 182.95C148.683 178.369 151.767 174.148 157.312 171.062C168.382 164.891 186.245 165.137 197.126 171.649C202.576 174.905 205.528 179.202 205.471 183.783C205.414 188.364 202.33 192.586 196.785 195.671C191.43 198.662 184.485 200.139 177.522 200.139ZM176.594 168.374C169.934 168.374 163.31 169.794 158.22 172.633C153.281 175.397 150.519 179.07 150.462 182.969C150.405 186.869 153.054 190.636 157.917 193.532C168.306 199.722 185.356 199.987 195.915 194.081C200.854 191.317 203.616 187.645 203.673 183.745C203.73 179.846 201.081 176.079 196.218 173.182C190.843 169.983 183.709 168.355 176.594 168.355V168.374Z" fill="#141516"/>
<path d="M199.737 200.536L205.585 204.19L210.05 201.123L203.768 197.28L199.737 200.536Z" fill="#C7D3FF"/>
<path d="M206.039 211.819L199.189 207.37C199.075 207.314 198.924 207.219 198.791 207.105C198.034 206.481 197.637 205.44 197.656 204.19C197.694 201.54 199.529 198.454 201.838 197.167C203.087 196.467 204.298 196.391 205.263 196.94L205.433 197.054L212.094 201.389L206.02 211.838L206.039 211.819ZM203.844 198.398C203.503 198.398 203.125 198.511 202.727 198.738C200.986 199.704 199.491 202.203 199.473 204.19C199.473 204.891 199.643 205.421 199.965 205.686L200.192 205.818L205.452 209.226L209.691 201.919L204.449 198.511C204.279 198.416 204.09 198.36 203.863 198.36L203.844 198.398Z" fill="#141516"/>
<path d="M210.883 201.654C210.24 201.313 209.369 201.37 208.385 201.919C206.36 203.054 204.695 205.837 204.657 208.166C204.657 209.339 205.055 210.172 205.717 210.551L216.579 219.94L224.451 207.503L210.883 201.672V201.654Z" fill="white"/>
<path d="M206.038 204.191L218.319 210.93L223.542 206.973L209.671 201.37L206.038 204.191Z" fill="#C7D3FF"/>
<path d="M216.787 221.304L205.131 211.233C204.298 210.778 203.731 209.605 203.768 208.147C203.806 205.497 205.642 202.411 207.95 201.124C209.143 200.461 210.316 200.348 211.281 200.84L225.795 207.087L216.806 221.304H216.787ZM209.975 202.354C209.635 202.354 209.237 202.468 208.821 202.714C207.08 203.679 205.585 206.178 205.566 208.166C205.566 208.942 205.774 209.529 206.172 209.756L216.371 218.559L223.108 207.92L210.448 202.468C210.316 202.392 210.145 202.354 209.975 202.354Z" fill="#141516"/>
<path d="M243.79 221.228C243.676 221.152 243.544 221.076 243.43 221.038L225.245 207.844C224.28 207.219 222.936 207.257 221.423 208.109C218.471 209.756 216.03 213.845 215.992 217.214C215.973 218.842 216.503 219.997 217.373 220.584C217.543 220.698 217.733 220.792 217.941 220.868L237.81 230.825C237.81 230.825 238.056 230.977 238.188 231.015L245.133 234.46L250.167 225.525L243.79 221.209V221.228Z" fill="white"/>
<path d="M218.32 210.929L245.115 227.758L249.108 224.824L224.451 207.503L219.172 209.756L218.32 210.929Z" fill="#C7D3FF"/>
<path d="M245.493 235.671L217.525 221.682C217.354 221.625 217.108 221.493 216.862 221.341C215.689 220.546 215.046 219.07 215.084 217.195C215.14 213.466 217.733 209.112 220.988 207.295C222.728 206.311 224.469 206.235 225.756 207.068L251.397 225.26L245.531 235.671H245.493ZM223.75 208.317C223.202 208.317 222.558 208.506 221.858 208.904C219.209 210.381 216.919 214.204 216.881 217.233C216.881 218.464 217.222 219.391 217.865 219.846C217.979 219.921 218.111 219.997 218.225 220.035L244.755 233.305L248.956 225.847L224.696 208.582C224.432 208.412 224.11 208.317 223.731 208.317H223.75Z" fill="#141516"/>
<path d="M256.052 229.405L250.262 225.619C250.262 225.619 250.186 225.562 250.148 225.543C249.505 225.165 248.597 225.221 247.613 225.77C245.588 226.906 243.923 229.689 243.885 232.017C243.885 233.286 244.339 234.138 245.115 234.478L251.057 238.359L256.033 229.405H256.052Z" fill="#F8A5A5"/>
<path d="M245.437 227.986L251.662 232.15L255.144 228.781L248.956 225.316L245.437 227.986Z" fill="white"/>
<path d="M250.791 239.268L244.622 235.254C243.6 234.819 242.957 233.626 242.995 232.017C243.033 229.367 244.868 226.282 247.177 224.994C248.426 224.294 249.637 224.218 250.602 224.767L250.772 224.881L257.244 229.121L250.772 239.287L250.791 239.268ZM249.183 226.225C248.842 226.225 248.463 226.338 248.066 226.565C246.325 227.531 244.83 230.03 244.811 232.017C244.811 232.85 245.038 233.437 245.493 233.645L250.753 237.072L254.859 229.689L249.788 226.376C249.618 226.282 249.41 226.225 249.201 226.225H249.183Z" fill="#141516"/>
<path d="M256.772 228.743C255.807 228.156 254.577 228.232 253.29 228.951C250.981 230.239 249.146 233.324 249.108 235.974C249.089 237.432 249.6 238.549 250.584 239.136C251.019 239.401 251.511 239.514 252.022 239.514C252.665 239.514 253.366 239.325 254.066 238.928C256.374 237.64 258.21 234.555 258.248 231.904C258.267 230.447 257.756 229.33 256.772 228.743Z" fill="#141516"/>
<path d="M273.246 72.1573L263.539 72.1194C263.482 72.0058 263.425 71.8922 263.388 71.7597V64.5095L259.792 66.27C259.281 65.7021 258.751 65.1342 258.165 64.5852L265.015 60.6288C266.302 59.8716 266.302 58.66 265.015 57.9217L254.134 51.6558C252.848 50.9176 250.747 50.9176 249.441 51.6558L242.591 55.6312C238.693 54.2871 234.511 53.2838 230.216 52.6591L230.272 47.0179C230.272 45.9579 228.815 45.106 226.98 45.0871L211.614 45.0303C209.779 45.0303 208.284 45.8821 208.284 46.9422L208.227 52.6024C203.78 53.2271 199.447 54.2493 195.435 55.6501L188.604 51.7126C187.317 50.9744 185.217 50.9744 183.911 51.7126L173.049 57.9975C171.763 58.7357 171.763 59.9662 173.049 60.7045L179.881 64.642C179.332 65.172 178.821 65.7021 178.329 66.251L174.563 64.1687V71.7597L165.026 71.7219C163.19 71.7219 161.696 72.5737 161.696 73.6149L161.582 82.4932C161.582 83.5532 163.039 84.4051 164.875 84.424L174.582 84.4619C175.661 87.0743 177.439 89.592 179.899 91.9393L173.03 95.9147C171.744 96.6719 171.744 97.8834 173.03 98.6217L183.911 104.888C185.198 105.626 187.298 105.626 188.604 104.888L195.435 100.931C199.314 102.294 203.459 103.279 207.754 103.903L207.697 109.469C207.697 110.529 209.154 111.381 210.99 111.4L226.355 111.456C228.191 111.456 229.686 110.605 229.686 109.544L229.743 103.998C234.246 103.373 238.617 102.351 242.705 100.931L249.593 104.907C250.88 105.645 252.98 105.645 254.286 104.907L265.147 98.6217C266.434 97.8834 266.434 96.653 265.147 95.9147L258.26 91.9393C260.606 89.6866 262.328 87.3014 263.407 84.8216L273.114 84.8594C274.95 84.8594 276.444 84.0076 276.444 82.9664L276.558 74.0881C276.558 73.0281 275.101 72.1762 273.265 72.1573H273.246ZM202.266 68.5984C211.539 63.2411 226.564 63.2411 235.817 68.5984C238.958 70.4157 241.04 72.6116 242.043 74.9211L240.472 75.6972L209.381 83.4586L195.681 75.8676C196.514 73.1984 198.69 70.6618 202.248 68.5984H202.266Z" fill="white"/>
<path d="M226.355 112.157H226.336L210.971 112.1C209.589 112.1 208.322 111.665 207.603 110.927C207.186 110.491 206.959 109.999 206.959 109.469L206.997 104.509C202.947 103.885 199.068 102.938 195.473 101.708L188.907 105.513C187.393 106.383 185.027 106.383 183.514 105.513L172.633 99.2466C171.781 98.7544 171.308 98.0351 171.308 97.2779C171.308 96.5207 171.781 95.8013 172.633 95.3091L178.688 91.807C176.645 89.7247 175.093 87.5099 174.071 85.1815L164.837 85.1436C163.455 85.1436 162.187 84.6893 161.468 83.9699C161.052 83.5345 160.825 83.0423 160.844 82.5123L160.957 73.634C160.957 72.1764 162.736 71.0217 164.988 71.0217H165.007L173.844 71.0595V62.9763L178.177 65.3805C178.348 65.1912 178.537 65.0019 178.707 64.8126L172.69 61.3294C171.838 60.8372 171.365 60.1179 171.365 59.3607C171.365 58.6035 171.857 57.8841 172.69 57.3919L183.551 51.1071C185.065 50.2363 187.431 50.2363 188.944 51.1071L195.492 54.8931C199.258 53.6059 203.288 52.6404 207.508 51.9968L207.565 46.9424C207.565 45.4848 209.343 44.3301 211.595 44.3301H211.614L226.98 44.3869C228.361 44.3869 229.629 44.8223 230.348 45.5605C230.764 45.9959 230.991 46.4881 230.991 47.0182L230.953 52.0347C235.022 52.6594 238.92 53.6059 242.534 54.8363L249.12 51.0314C250.633 50.1606 252.999 50.1606 254.513 51.0314L265.393 57.2973C266.245 57.7895 266.718 58.5088 266.718 59.266C266.718 60.0232 266.245 60.7426 265.393 61.2348L259.357 64.7368C259.565 64.964 259.792 65.1722 260 65.3994L264.125 63.3928V71.4192L273.284 71.4571C274.666 71.4571 275.933 71.9114 276.652 72.6307C277.069 73.0661 277.296 73.5583 277.277 74.0884L277.163 82.9666C277.163 84.4243 275.385 85.5601 273.133 85.5601H273.114L263.861 85.5222C262.839 87.7181 261.344 89.8194 259.414 91.7881L265.488 95.2902C266.339 95.7824 266.813 96.5017 266.813 97.2589C266.813 98.0161 266.321 98.7355 265.488 99.2277L254.626 105.513C253.112 106.383 250.747 106.383 249.233 105.513L242.629 101.689C238.825 102.995 234.738 103.979 230.443 104.604L230.405 109.545C230.405 111.002 228.626 112.157 226.374 112.157H226.355ZM195.34 100.155L195.643 100.269C199.428 101.594 203.534 102.578 207.83 103.203L208.435 103.298L208.378 109.488C208.378 109.639 208.454 109.791 208.605 109.942C209.06 110.396 209.987 110.699 210.971 110.699L226.336 110.756C227.926 110.756 228.929 110.037 228.948 109.564L229.004 103.411L229.61 103.336C234.133 102.711 238.447 101.689 242.44 100.307L242.743 100.193L249.914 104.339C250.993 104.964 252.81 104.964 253.888 104.339L264.75 98.054C265.128 97.8268 265.374 97.5618 265.374 97.3157C265.374 97.0696 265.147 96.8046 264.75 96.5774L257.048 92.1288L257.729 91.4663C259.981 89.3082 261.665 86.9988 262.725 84.5757L262.914 84.1403L273.076 84.1782H273.095C274.684 84.1782 275.687 83.4777 275.706 82.9856L275.82 74.1073C275.82 73.9559 275.744 73.8044 275.593 73.653C275.139 73.1986 274.211 72.8958 273.227 72.8958L263.047 72.8579L262.649 71.7978V65.6833L259.603 67.1788L259.243 66.7813C258.751 66.2323 258.221 65.6833 257.654 65.1344L256.973 64.4718L264.636 60.0421C265.015 59.815 265.242 59.55 265.242 59.3039C265.242 59.0578 265.015 58.7928 264.617 58.5656L253.737 52.2997C252.658 51.675 250.842 51.675 249.763 52.2997L242.629 56.4265L242.326 56.3129C238.523 54.9878 234.397 54.0034 230.083 53.3787L229.478 53.2841L229.534 47.0182C229.534 46.8667 229.459 46.7153 229.307 46.5638C228.853 46.1095 227.926 45.8066 226.942 45.8066L211.576 45.7498C209.987 45.7498 208.984 46.4692 208.965 46.9424L208.908 53.2083L208.303 53.2841C203.837 53.9088 199.579 54.931 195.643 56.294L195.34 56.4075L188.225 52.2997C187.147 51.675 185.33 51.675 184.252 52.2997L173.39 58.5845C173.011 58.8117 172.765 59.0767 172.765 59.3228C172.765 59.5689 172.992 59.8339 173.39 60.0611L181.035 64.4907L180.353 65.1533C179.824 65.6644 179.313 66.1945 178.859 66.7056L178.48 67.122L175.263 65.3426V72.4604L165.007 72.4225H164.988C163.398 72.4225 162.396 73.1229 162.377 73.6151L162.263 82.4934C162.263 82.6448 162.339 82.7963 162.49 82.9477C162.944 83.402 163.872 83.7049 164.856 83.7049L175.036 83.7428L175.225 84.1782C176.285 86.7337 178.007 89.1568 180.372 91.4095L181.054 92.0721L173.371 96.5207C172.992 96.7478 172.765 97.0128 172.765 97.2589C172.765 97.505 172.992 97.77 173.39 97.9972L184.271 104.263C185.349 104.888 187.166 104.888 188.244 104.263L195.359 100.136L195.34 100.155ZM209.287 84.216L194.848 76.2275L195.019 75.6785C195.927 72.7443 198.311 70.0941 201.907 68.0118C211.349 62.5599 226.734 62.5599 236.176 68.0118C239.336 69.8291 241.588 72.1385 242.705 74.6752L242.97 75.2999L240.793 76.36L209.287 84.235V84.216ZM196.552 75.546L209.476 82.7016L240.301 75.0159L241.096 74.6184C240.037 72.5929 238.087 70.7377 235.457 69.2233C226.393 63.9986 211.671 63.9986 202.607 69.2233C199.541 70.9838 197.46 73.1608 196.552 75.546Z" fill="#141516"/>
<path d="M172.085 39.2773V53.0964L188.586 51.7145L187.829 41.7383L172.085 39.2773Z" fill="white"/>
<path d="M171.365 53.8724V39.5801C171.365 38.9933 171.895 38.539 172.482 38.6336L188.491 41.1324L189.342 52.3769L171.365 53.8724ZM172.784 40.1102V52.3202L187.809 51.0708L187.147 42.3629L172.766 40.1291L172.784 40.1102Z" fill="#141516"/>
<path d="M264.731 56.8628C256.973 56.8628 256.727 55.6513 256.632 55.178C256.443 54.383 252.791 48.3632 249.479 43.1195L248.931 42.2676L266.643 38.4248V56.8628H265.942C265.526 56.8628 265.11 56.8818 264.731 56.8818V56.8628ZM257.976 54.7616C258.638 55.197 262.006 55.462 265.223 55.4431V40.1664L251.22 43.1952C253.226 46.3566 257.503 53.2472 257.995 54.7426L257.976 54.7616Z" fill="#141516"/>
<path d="M241.096 45.0501L219.051 38.0459L194.47 48.5143L194.583 62.6741L203.099 68.1639H203.136C212.163 63.4502 225.901 63.4502 234.927 68.1639H234.965L244.729 65.5894C244.729 65.5894 246.357 59.721 245.505 54.3069L241.077 45.069L241.096 45.0501Z" fill="white"/>
<path d="M235.078 68.8461L234.605 68.7704C225.73 64.1325 212.351 64.1325 203.476 68.7704L203.155 68.8461H202.947L202.719 68.7325L193.882 63.0345L193.75 48.0229L218.993 37.2705L241.587 44.4451L246.204 54.1563C247.075 59.6649 245.485 65.4954 245.41 65.7415L245.296 66.1391L235.059 68.8461H235.078ZM219.05 63.8864C224.765 63.8864 230.461 65.0601 235.059 67.4074L244.161 65.0033C244.501 63.6403 245.504 58.9077 244.842 54.5159L240.584 45.6377L219.088 38.8039L195.188 48.9694L195.302 62.2584L203.174 67.3317C207.734 65.0411 213.392 63.8864 219.05 63.8864Z" fill="#141516"/>
<path d="M273.245 58.2627L263.387 60.7993C263.33 60.6858 263.443 71.8546 263.387 71.741V84.8028L273.094 84.8407C274.93 84.8407 276.424 83.9888 276.424 82.9477L276.538 60.2125C276.538 59.1524 275.081 58.3006 273.245 58.2816V58.2627Z" fill="white"/>
<path d="M273.114 85.5603H273.095L262.687 85.5224V71.1544C262.687 70.17 262.687 68.012 262.687 66.2136C262.674 62.2383 262.864 60.2064 263.255 60.1181L273.265 57.5625C274.646 57.5625 275.914 58.0168 276.633 58.7362C277.05 59.1716 277.277 59.6638 277.258 60.1938L277.144 82.929C277.144 84.4055 275.366 85.5414 273.114 85.5414V85.5603ZM264.087 84.1027L273.076 84.1405H273.095C274.684 84.1405 275.687 83.4401 275.706 82.9479L275.82 60.2127C275.82 60.0613 275.744 59.9098 275.593 59.7584C275.157 59.323 274.268 59.0201 273.322 59.0012L264.068 61.3864C264.068 62.314 264.068 64.3584 264.068 66.2136C264.068 69.5264 264.163 71.0408 264.068 71.7602V84.1027H264.087Z" fill="#141516"/>
<path d="M164.855 58L174.733 60.5366C174.79 60.4231 174.676 71.5919 174.733 71.4783V84.5401L165.007 84.578C163.171 84.578 161.676 83.7262 161.657 82.685L161.544 59.9498C161.544 58.8897 163.001 58.0379 164.837 58.0189L164.855 58Z" fill="white"/>
<path d="M164.988 85.278C162.736 85.278 160.976 84.1422 160.957 82.6846L160.844 59.9305C160.844 59.4005 161.052 58.9083 161.468 58.4729C162.187 57.7346 163.455 57.2992 164.836 57.2803H165.007L174.885 59.8359C175.263 59.9116 175.44 61.9245 175.414 65.8746C175.414 67.6919 175.414 69.8689 175.414 70.8532V85.2023L164.988 85.2402H164.969L164.988 85.278ZM164.78 58.7C163.834 58.719 162.944 59.0219 162.509 59.4572C162.358 59.6087 162.282 59.7601 162.282 59.9116L162.395 82.6657C162.395 83.1579 163.417 83.8583 165.007 83.8583H165.026L174.052 83.8204L174.128 71.4779C174.033 70.7586 174.052 69.2252 174.052 65.8935C174.052 64.0573 174.052 62.0128 174.052 61.0852L164.78 58.7Z" fill="#141516"/>
<path d="M207.716 103.905V109.035V109.508C207.716 110.55 209.192 111.401 211.008 111.401L226.374 111.458C228.209 111.458 229.704 110.606 229.704 109.546V89.2341L207.716 88.7041V103.886V103.905Z" fill="white"/>
<path d="M226.393 112.158H226.374L211.008 112.101C208.757 112.101 207.035 110.985 207.016 109.508V109.016C207.016 107.558 207.016 105.533 207.016 104.529V87.9844L230.423 88.5334V109.527C230.423 111.004 228.645 112.139 226.393 112.139V112.158ZM208.359 103.905C208.454 104.605 208.435 106.044 208.435 109.035V109.508C208.435 109.981 209.457 110.701 211.027 110.701L226.393 110.757C227.982 110.757 228.985 110.038 229.004 109.565V89.9531L208.435 89.4609L208.359 103.924V103.905Z" fill="#141516"/>
<path d="M184.384 77.3087L172.027 77.0059V84.4833C172.027 84.4833 172.027 96.8069 172.027 97.299C172.027 97.7912 172.349 98.2834 172.992 98.662L183.873 104.928C185.16 105.666 187.26 105.666 188.566 104.928L195.397 100.972V80.6594L184.365 77.3277L184.384 77.3087Z" fill="white"/>
<path d="M186.22 106.177C185.254 106.177 184.289 105.969 183.532 105.533L172.652 99.2676C171.819 98.7754 171.327 98.075 171.327 97.2988V77.4032C171.327 76.7785 171.838 76.2863 172.463 76.3052L184.611 76.627L196.154 80.1102V101.35L188.963 105.515C188.206 105.95 187.241 106.177 186.257 106.177H186.22ZM172.727 77.725V97.2799C172.727 97.526 172.955 97.791 173.352 98.0182L184.233 104.284C185.311 104.909 187.128 104.909 188.206 104.284L194.697 100.536V81.1703L184.27 78.0089L172.746 77.725H172.727Z" fill="#141516"/>
<path d="M253.812 77.2121L266.169 76.9092V84.3866C266.169 84.3866 266.169 96.7102 266.169 97.2024C266.169 97.6945 265.847 98.1867 265.204 98.5653L254.323 104.831C253.018 105.57 250.936 105.57 249.63 104.831L242.78 100.875V80.5627L253.812 77.231V77.2121Z" fill="white"/>
<path d="M251.957 106.081C250.992 106.081 250.008 105.854 249.251 105.418L242.061 101.254V80.014L253.793 76.4929L265.639 76.209C266.32 76.209 266.869 76.739 266.869 77.4205V84.3868C266.869 84.3868 266.869 96.7104 266.869 97.2026C266.869 97.9787 266.395 98.6791 265.544 99.1713L254.663 105.437C253.906 105.873 252.941 106.081 251.976 106.081H251.957ZM243.48 100.44L249.97 104.188C251.049 104.813 252.866 104.813 253.944 104.188L264.825 97.9219C265.203 97.6948 265.449 97.4297 265.449 97.1837C265.449 96.6915 265.449 84.3679 265.449 84.3679V77.6287L253.925 77.9127L243.499 81.074V100.44H243.48Z" fill="#141516"/>
<path d="M254.134 31.3453C252.848 30.607 250.747 30.607 249.441 31.3453L242.591 35.3206C238.693 33.9766 234.511 32.9733 230.216 32.3486L230.272 26.7074C230.272 25.6473 228.815 24.7954 226.98 24.7765L211.614 24.7197C209.779 24.7197 208.284 25.5716 208.284 26.6317L208.227 32.2918C203.78 32.9165 199.447 33.9387 195.435 35.3396L188.604 31.4021C187.317 30.6638 185.217 30.6638 183.911 31.4021L173.049 37.6869C171.763 38.4252 171.763 39.6557 173.049 40.3939L179.881 44.3314C177.534 46.5841 175.812 48.9693 174.733 51.4492L165.026 51.4113C163.19 51.4113 161.696 52.2632 161.696 53.3043L161.582 62.1826C161.582 63.2427 163.039 64.0946 164.875 64.1135L174.582 64.1514C175.661 66.7637 177.439 69.2814 179.899 71.6288L173.03 75.6041C171.744 76.3613 171.744 77.5729 173.03 78.3111L183.911 84.577C185.198 85.3153 187.298 85.3153 188.604 84.577L195.435 80.6206C199.314 81.9836 203.459 82.968 207.754 83.5927L207.697 89.1582C207.697 90.2183 209.154 91.0701 210.99 91.089L226.355 91.1458C228.191 91.1458 229.686 90.294 229.686 89.2339L229.743 83.6873C234.246 83.0626 238.617 82.0404 242.705 80.6206L249.593 84.596C250.88 85.3343 252.98 85.3343 254.286 84.596L265.147 78.3111C266.434 77.5729 266.434 76.3424 265.147 75.6041L258.26 71.6288C260.606 69.3761 262.328 66.9909 263.407 64.511L273.114 64.5489C274.95 64.5489 276.444 63.697 276.444 62.6559L276.558 53.7776C276.558 52.7175 275.101 51.8656 273.265 51.8467L263.558 51.8089C262.479 49.1776 260.682 46.6409 258.184 44.2746L265.034 40.3182C266.321 39.561 266.321 38.3495 265.034 37.6112L254.153 31.3453H254.134ZM235.836 67.6724C226.564 73.0296 211.539 73.0296 202.285 67.6724C193.013 62.3151 193.013 53.6451 202.285 48.2878C211.558 42.9306 226.582 42.9306 235.836 48.2878C245.108 53.6451 245.108 62.3151 235.836 67.6724Z" fill="white"/>
<path d="M273.076 56.5977L263.368 56.5598C262.29 53.9285 260.492 51.3919 257.994 49.0256L264.844 45.0692C266.131 44.312 266.131 43.1005 264.844 42.3622L253.964 36.0963C252.677 35.358 250.577 35.358 249.271 36.0963L242.421 40.0716C238.523 38.7276 234.341 37.7243 230.045 37.0996L230.102 31.4584C230.102 30.3983 228.645 29.5464 226.809 29.5275L211.444 29.4707C209.608 29.4707 208.113 30.3226 208.113 31.3827L208.057 37.0428C203.61 37.6675 199.276 38.6897 195.265 40.0905L188.434 36.1531C187.147 35.4148 185.046 35.4148 183.741 36.1531L172.879 42.4379C172.879 42.4379 172.841 42.4758 172.822 42.4758V45.0881C172.822 45.0881 172.86 45.126 172.879 45.126L179.71 49.0635C177.364 51.3162 175.642 53.7014 174.563 56.1812L164.855 56.1434C163.871 56.1434 163.001 56.3895 162.396 56.7681V68.2966C162.982 68.6373 163.796 68.8455 164.704 68.8455L174.412 68.8834C175.49 71.4768 177.269 74.0135 179.729 76.3608L172.86 80.3362H172.822V83.0053C172.822 83.0053 172.841 83.0243 172.86 83.0432L183.741 89.3091C185.027 90.0474 187.128 90.0474 188.434 89.3091L195.265 85.3527C199.144 86.7157 204.121 87.9272 208.397 88.5708L208.34 94.1363C208.34 95.1964 208.984 95.8211 210.819 95.8211L226.185 95.8779C228.02 95.8779 229.515 95.026 229.515 93.9659L229.572 88.4194C234.076 87.7947 238.447 86.7724 242.534 85.3527L249.422 89.328C250.709 90.0663 252.809 90.0663 254.115 89.328L264.977 83.0432C266.264 82.3049 266.264 81.0744 264.977 80.3362L258.089 76.3608C260.435 74.1081 262.157 71.7229 263.236 69.2431L272.944 69.2809C274.155 69.2809 275.214 68.9213 275.782 68.3534V57.3928C275.195 56.9006 274.211 56.5788 273.095 56.5788L273.076 56.5977ZM235.646 72.4233C226.374 77.7806 211.349 77.7806 202.096 72.4233C192.824 67.0661 192.824 58.3961 202.096 53.0388C211.368 47.6816 226.393 47.6816 235.646 53.0388C244.919 58.3961 244.919 67.0661 235.646 72.4233Z" fill="#C7D3FF"/>
<path d="M226.355 91.8459H226.336L210.971 91.7891C209.589 91.7891 208.322 91.3537 207.603 90.6154C207.186 90.18 206.959 89.6878 206.959 89.1578L206.997 84.1981C202.947 83.5734 199.068 82.6269 195.473 81.3964L188.907 85.2014C187.393 86.0722 185.027 86.0722 183.514 85.2014L172.633 78.9355C171.781 78.4433 171.308 77.7239 171.308 76.9667C171.308 76.2095 171.781 75.4902 172.633 74.998L178.688 71.4959C176.645 69.4136 175.093 67.1987 174.071 64.8703L164.837 64.8325C163.455 64.8325 162.187 64.3781 161.468 63.6588C161.052 63.2234 160.825 62.7312 160.844 62.2012L160.957 53.3229C160.957 51.8653 162.736 50.7105 164.988 50.7105H165.007L174.26 50.7484C175.282 48.5525 176.777 46.4512 178.707 44.4825L172.69 40.9993C171.838 40.5071 171.365 39.7878 171.365 39.0306C171.365 38.2734 171.857 37.554 172.69 37.0618L183.551 30.777C185.065 29.9062 187.431 29.9062 188.944 30.777L195.492 34.5631C199.258 33.2758 203.288 32.3104 207.508 31.6667L207.565 26.6124C207.565 25.1547 209.343 24 211.595 24H211.614L226.98 24.0568C228.361 24.0568 229.629 24.4922 230.348 25.2305C230.764 25.6659 230.991 26.158 230.991 26.6881L230.953 31.7046C235.022 32.3293 238.92 33.2758 242.534 34.5063L249.12 30.7013C250.633 29.8305 252.999 29.8305 254.513 30.7013L265.393 36.9672C266.245 37.4594 266.718 38.1787 266.718 38.9359C266.718 39.6931 266.245 40.4125 265.393 40.9047L259.357 44.4068C261.419 46.508 262.99 48.7418 264.031 51.0891L273.265 51.127C274.647 51.127 275.914 51.5813 276.634 52.3007C277.05 52.7361 277.277 53.2282 277.258 53.7583L277.144 62.6366C277.144 64.0942 275.366 65.23 273.114 65.23H273.095L263.842 65.1921C262.82 67.388 261.325 69.4893 259.395 71.458L265.469 74.9601C266.321 75.4523 266.794 76.1717 266.794 76.9289C266.794 77.6861 266.302 78.4054 265.469 78.8976L254.607 85.1824C253.093 86.0532 250.728 86.0532 249.214 85.1824L242.61 81.3585C238.807 82.6647 234.719 83.6491 230.424 84.2738L230.386 89.2146C230.386 90.6722 228.607 91.8269 226.355 91.8269V91.8459ZM195.34 79.8441L195.643 79.9577C199.428 81.2828 203.534 82.2672 207.83 82.8919L208.435 82.9865L208.378 89.1767C208.378 89.3281 208.454 89.4796 208.605 89.631C209.06 90.0854 209.987 90.3882 210.971 90.3882L226.336 90.445C227.926 90.445 228.929 89.7257 228.948 89.2524L229.004 83.1001L229.61 83.0244C234.133 82.3997 238.447 81.3775 242.44 79.9956L242.743 79.882L249.914 84.0277C250.993 84.6524 252.81 84.6524 253.888 84.0277L264.75 77.7429C265.128 77.5157 265.374 77.2507 265.374 77.0046C265.374 76.7585 265.147 76.4935 264.75 76.2663L257.048 71.8177L257.729 71.1551C259.981 68.9971 261.665 66.6876 262.725 64.2646L262.914 63.8292L273.076 63.867H273.095C274.684 63.867 275.687 63.1666 275.706 62.6744L275.82 53.7961C275.82 53.6447 275.744 53.4933 275.593 53.3418C275.139 52.8875 274.211 52.5846 273.227 52.5846L263.047 52.5468L262.858 52.1114C261.798 49.5368 260.038 47.0949 257.654 44.8232L256.973 44.1607L264.636 39.731C265.015 39.5038 265.242 39.2388 265.242 38.9927C265.242 38.7466 265.015 38.4816 264.617 38.2544L253.737 31.9885C252.658 31.3639 250.842 31.3639 249.763 31.9885L242.629 36.1153L242.326 36.0018C238.523 34.6766 234.397 33.6923 230.083 33.0676L229.477 32.9729L229.534 26.707C229.534 26.5556 229.459 26.4041 229.307 26.2527C228.853 25.7984 227.926 25.4955 226.942 25.4955L211.576 25.4387C209.987 25.4387 208.984 26.158 208.965 26.6313L208.908 32.8972L208.303 32.9918C203.837 33.6165 199.579 34.6388 195.643 36.0018L195.34 36.1153L188.225 32.0075C187.147 31.3828 185.33 31.3828 184.252 32.0075L173.39 38.2923C173.011 38.5195 172.765 38.7845 172.765 39.0306C172.765 39.2767 172.992 39.5417 173.39 39.7689L181.035 44.1796L180.353 44.8422C178.102 46.9813 176.417 49.3097 175.358 51.7328L175.169 52.1681L165.007 52.1303H164.988C163.398 52.1303 162.396 52.8307 162.377 53.3229L162.263 62.2012C162.263 62.3526 162.339 62.504 162.49 62.6555C162.944 63.1098 163.872 63.4127 164.856 63.4127L175.036 63.4506L175.225 63.8859C176.285 66.4415 178.007 68.8646 180.372 71.1173L181.054 71.7798L173.371 76.2284C172.992 76.4556 172.765 76.7206 172.765 76.9667C172.765 77.2128 172.992 77.4778 173.39 77.705L184.271 83.9709C185.349 84.5956 187.166 84.5956 188.244 83.9709L195.359 79.8441H195.34ZM219.051 72.3856C212.844 72.3856 206.637 71.0226 201.926 68.2967C197.214 65.5707 194.621 61.9172 194.621 57.9987C194.621 54.0801 197.214 50.4076 201.926 47.7006C211.368 42.2487 226.753 42.2487 236.195 47.7006C240.907 50.4266 243.499 54.0801 243.499 57.9987C243.499 61.9172 240.907 65.5897 236.195 68.2967C231.464 71.0226 225.258 72.3856 219.07 72.3856H219.051ZM219.051 44.9936C213.109 44.9936 207.148 46.2998 202.626 48.9122C198.368 51.3731 196.022 54.5912 196.022 57.9797C196.022 61.3682 198.368 64.6053 202.626 67.0473C211.69 72.272 226.412 72.272 235.476 67.0473C239.734 64.5864 242.08 61.3682 242.08 57.9797C242.08 54.5912 239.734 51.3542 235.476 48.9122C230.953 46.2998 224.993 44.9936 219.051 44.9936Z" fill="#141516"/>
<path d="M229.005 84.1409V103.999L243.481 100.837V81.0742L229.005 84.1409Z" fill="#141516"/>
<path d="M252.185 85.1443V105.381L261.003 100.97L265.809 97.9222L266.169 77.7236L254.928 84.2167L252.185 85.1443Z" fill="#141516"/>
<path d="M186.296 85.1444V105.381L196.117 100.97V80.6201L186.296 85.1444Z" fill="#141516"/>
<path d="M216.061 44.3691V64.5866L206.297 66.4607L203.156 68.1455L196.571 63.678L194.849 57.0713L200.582 48.5338L216.061 44.3691Z" fill="#141516"/>
<path d="M219.771 44.2939V64.341L226.337 65.2875V44.6915L219.771 44.2939Z" fill="#141516"/>
<path d="M265.942 39.2764V51.6567C265.942 51.6567 263.255 52.5275 262.423 49.404C262.101 48.1925 258.222 44.0468 258.222 44.0468L265.942 39.2764Z" fill="#141516"/>
<path d="M175.433 64.5859H174.09V71.893H175.433V64.5859Z" fill="#141516"/>
<path d="M258.618 71.2683L264.087 64.5859V74.6947L258.618 71.2683Z" fill="#141516"/>
<path d="M176.381 100.327H169.663C169.626 100.213 169.588 100.137 169.55 100.062V95.0451L167.071 96.2566C166.711 95.8591 166.352 95.4616 165.936 95.0829L170.685 92.3381C171.575 91.827 171.575 90.9751 170.685 90.464L163.135 86.129C162.246 85.6178 160.789 85.6178 159.88 86.129L155.131 88.8738C152.425 87.9273 149.529 87.2458 146.558 86.8105L146.596 82.9108C146.596 82.1726 145.574 81.5857 144.307 81.5857L133.653 81.5479C132.385 81.5479 131.344 82.1347 131.344 82.873L131.307 86.7915C128.222 87.2269 125.232 87.9273 122.432 88.9117L117.701 86.1668C116.812 85.6557 115.354 85.6557 114.446 86.1668L106.915 90.5208C106.025 91.0319 106.025 91.8837 106.915 92.3949L111.646 95.1397C111.267 95.4994 110.908 95.878 110.567 96.2566L107.956 94.8179V100.081H101.333C100.065 100.043 99.0239 100.629 99.0239 101.368L98.9482 107.52C98.9482 108.258 99.9701 108.845 101.238 108.864H107.956C108.694 110.7 109.924 112.442 111.646 114.07L106.896 116.815C106.007 117.326 106.007 118.178 106.896 118.689L114.446 123.043C115.336 123.554 116.793 123.554 117.701 123.043L122.451 120.298C125.138 121.244 128.014 121.926 130.985 122.361L130.947 126.223C130.947 126.961 131.969 127.548 133.237 127.548L143.89 127.586C145.158 127.586 146.199 126.999 146.199 126.261L146.237 122.418C149.359 121.983 152.387 121.282 155.225 120.298L159.994 123.062C160.883 123.573 162.34 123.573 163.249 123.062L170.78 118.708C171.669 118.197 171.669 117.345 170.78 116.834L166.011 114.07C167.639 112.518 168.831 110.852 169.588 109.129H176.305C177.573 109.167 178.614 108.58 178.614 107.842L178.69 101.69C178.69 100.951 177.687 100.364 176.4 100.346L176.381 100.327ZM127.181 97.8657C133.596 94.1554 144.023 94.1554 150.438 97.8657C152.614 99.1151 154.052 100.648 154.752 102.257L153.655 102.788L132.101 108.164L122.602 102.901C123.17 101.065 124.683 99.2855 127.162 97.8657H127.181Z" fill="white"/>
<path d="M143.89 128.041L133.236 128.003C132.271 128.003 131.401 127.7 130.909 127.189C130.625 126.886 130.455 126.546 130.474 126.167L130.511 122.741C127.711 122.305 125.024 121.643 122.526 120.791L117.984 123.422C116.944 124.028 115.297 124.028 114.238 123.422L106.687 119.087C106.101 118.746 105.76 118.254 105.76 117.724C105.76 117.194 106.101 116.702 106.668 116.361L110.869 113.938C109.45 112.499 108.39 110.947 107.671 109.338H101.275C100.31 109.3 99.4399 108.997 98.9479 108.486C98.6641 108.183 98.5127 107.843 98.5127 107.464L98.5884 101.312C98.5884 100.29 99.8184 99.5134 101.37 99.5134H107.52V93.929L110.529 95.5948C110.642 95.4623 110.775 95.3298 110.888 95.1973L106.706 92.7742C106.12 92.4335 105.779 91.9413 105.779 91.4112C105.779 90.8812 106.12 90.389 106.706 90.0483L114.238 85.6943C115.278 85.0885 116.925 85.0885 117.984 85.6943L122.526 88.3256C125.137 87.4359 127.938 86.7544 130.852 86.319L130.89 82.8169C130.89 81.7947 132.12 81.0186 133.672 81.0186L144.325 81.0564C145.29 81.0564 146.161 81.3593 146.653 81.8704C146.937 82.1733 147.107 82.514 147.088 82.8926L147.05 86.3758C149.87 86.8112 152.576 87.4548 155.073 88.3067L159.634 85.6565C160.675 85.0507 162.321 85.0507 163.381 85.6565L170.931 89.9915C171.518 90.3322 171.858 90.8244 171.858 91.3544C171.858 91.8845 171.518 92.3767 170.95 92.7174L166.768 95.1405C166.919 95.2919 167.071 95.4434 167.203 95.5948L170.06 94.194V99.7595H176.4C177.365 99.7973 178.235 100.1 178.727 100.611C179.011 100.914 179.162 101.255 179.162 101.634L179.087 107.786C179.087 108.808 177.857 109.584 176.305 109.584H169.871C169.152 111.08 168.13 112.537 166.787 113.9L171.007 116.342C171.593 116.683 171.934 117.175 171.934 117.705C171.934 118.235 171.593 118.728 171.007 119.068L163.475 123.422C162.416 124.028 160.788 124.028 159.729 123.422L155.149 120.772C152.519 121.681 149.68 122.362 146.71 122.798L146.672 126.224C146.672 127.246 145.442 128.022 143.89 128.022V128.041ZM122.393 119.712L122.602 119.788C125.232 120.696 128.07 121.397 131.041 121.832L131.458 121.889L131.42 126.186C131.42 126.281 131.477 126.394 131.571 126.508C131.893 126.83 132.517 127.038 133.199 127.038L143.852 127.076C144.95 127.076 145.65 126.584 145.65 126.243L145.688 121.965L146.104 121.908C149.245 121.472 152.235 120.772 154.998 119.807L155.206 119.731L160.183 122.608C160.921 123.044 162.188 123.044 162.945 122.608L170.477 118.254C170.742 118.103 170.912 117.914 170.912 117.743C170.912 117.573 170.761 117.383 170.477 117.232L165.14 114.146L165.614 113.692C167.165 112.197 168.338 110.588 169.076 108.922L169.209 108.619H176.267C177.365 108.638 178.065 108.164 178.065 107.824L178.141 101.671C178.141 101.577 178.084 101.463 177.989 101.35C177.686 101.028 177.043 100.82 176.362 100.82H169.304L169.039 100.062V95.822L166.919 96.8631L166.673 96.5792C166.333 96.2006 165.973 95.822 165.576 95.4434L165.103 94.989L170.42 91.9034C170.685 91.752 170.855 91.5627 170.836 91.3923C170.836 91.2219 170.685 91.0326 170.401 90.8812L162.851 86.5462C162.113 86.1108 160.845 86.1108 160.088 86.5462L155.13 89.4046L154.922 89.3289C152.292 88.4203 149.434 87.7388 146.445 87.3034L146.028 87.2466L146.066 82.9116C146.066 82.8169 146.009 82.7033 145.915 82.5898C145.593 82.2679 144.969 82.0597 144.287 82.0597L133.634 82.0219C132.536 82.0219 131.836 82.514 131.836 82.8548L131.798 87.2087L131.382 87.2655C128.297 87.7009 125.327 88.4013 122.602 89.3478L122.393 89.4236L117.455 86.584C116.717 86.1486 115.449 86.1486 114.692 86.584L107.16 90.938C106.896 91.0894 106.725 91.2787 106.725 91.4491C106.725 91.6195 106.877 91.8088 107.16 91.9602L112.459 95.0269L111.986 95.4812C111.607 95.8409 111.267 96.2006 110.945 96.5603L110.68 96.8631L108.447 95.6327V100.555L101.332 100.517C100.235 100.517 99.5345 101.009 99.5345 101.35L99.4588 107.502C99.4588 107.597 99.5156 107.71 99.6102 107.824C99.913 108.146 100.556 108.354 101.238 108.354H108.296L108.428 108.676C109.166 110.436 110.358 112.121 112.005 113.692L112.478 114.146L107.16 117.232C106.896 117.383 106.725 117.573 106.744 117.743C106.744 117.914 106.896 118.103 107.179 118.254L114.73 122.589C115.487 123.025 116.736 123.025 117.492 122.589L122.431 119.731L122.393 119.712ZM132.063 108.657L122.053 103.11L122.166 102.732C122.791 100.687 124.456 98.8508 126.954 97.4121C133.501 93.6261 144.155 93.6261 150.702 97.4121C152.897 98.6804 154.449 100.271 155.225 102.031L155.414 102.466L153.9 103.205L132.063 108.657ZM123.245 102.656L132.196 107.615L153.56 102.296L154.108 102.012C153.37 100.611 152.027 99.3241 150.191 98.264C143.909 94.6294 133.691 94.6483 127.427 98.264C125.308 99.4944 123.869 100.99 123.226 102.656H123.245Z" fill="#141516"/>
<path d="M106.271 77.5342V87.1129L117.7 86.1474L117.189 79.2379L106.271 77.5342Z" fill="white"/>
<path d="M105.778 87.6431V77.7427C105.778 77.3262 106.138 77.0233 106.554 77.0801L117.662 78.8027L118.249 86.602L105.797 87.6431H105.778ZM106.762 78.1023V86.5641L117.17 85.6933L116.716 79.6546L106.743 78.1023H106.762Z" fill="#141516"/>
<path d="M170.494 89.707C165.12 89.707 164.95 88.8551 164.874 88.5333C164.742 87.9843 162.206 83.8008 159.917 80.1662L159.538 79.5793L171.819 76.9102V89.688H171.327C171.043 89.688 170.759 89.688 170.494 89.688V89.707ZM165.821 88.2493C166.275 88.5522 168.621 88.7415 170.835 88.7226V78.1406L161.128 80.2419C162.509 82.4378 165.48 87.2082 165.821 88.2493Z" fill="#141516"/>
<path d="M154.108 81.5288L138.818 76.6826L121.787 83.9329L121.863 93.7387L127.767 97.5437H127.805C134.049 94.2688 143.586 94.2688 149.831 97.5437H149.869L156.643 95.7643C156.643 95.7643 157.779 91.6943 157.173 87.9461L154.108 81.5477V81.5288Z" fill="white"/>
<path d="M149.926 98.0366L149.604 97.9798C143.454 94.7617 134.182 94.7617 128.032 97.9798L127.805 98.0366H127.653L127.502 97.9609L121.371 94.0234L121.276 83.6118L138.78 76.1533L154.448 81.132L157.646 87.8711C158.252 91.695 157.154 95.7271 157.098 95.8975L157.022 96.1625L149.926 98.0366ZM138.818 94.5913C142.773 94.5913 146.728 95.4053 149.907 97.0333L156.227 95.3675C156.454 94.421 157.154 91.1271 156.7 88.0983L153.748 81.946L138.837 77.2134L122.279 84.2554L122.355 93.4745L127.805 96.9955C130.965 95.4053 134.901 94.6103 138.818 94.6103V94.5913Z" fill="#141516"/>
<path d="M176.379 90.6908L169.548 92.4513C169.548 92.4513 169.586 100.118 169.548 100.023V109.072H176.265C177.533 109.11 178.574 108.523 178.574 107.785L178.65 92.0159C178.65 91.2776 177.647 90.6908 176.36 90.6719L176.379 90.6908Z" fill="white"/>
<path d="M176.303 109.602L169.094 109.564V99.6069C169.094 98.9254 169.094 97.43 169.094 96.1806C169.094 93.4168 169.226 92.0096 169.491 91.9591L176.417 90.1797C177.382 90.1797 178.252 90.4826 178.744 90.9937C179.028 91.2966 179.18 91.6373 179.18 92.0159L179.104 107.785C179.104 108.807 177.874 109.583 176.322 109.583L176.303 109.602ZM170.059 108.599H176.303C177.401 108.618 178.101 108.126 178.101 107.785L178.177 92.0159C178.177 91.9213 178.12 91.8077 178.025 91.6941C177.723 91.3912 177.117 91.183 176.455 91.1641L170.04 92.811C170.04 93.4546 170.04 94.8744 170.04 96.1616C170.04 98.4522 170.097 99.5123 170.04 100.004V108.561L170.059 108.599Z" fill="#141516"/>
<path d="M101.256 90.5023L108.107 92.2628C108.107 92.2628 108.069 99.9296 108.107 99.8349V108.884H101.37C100.102 108.921 99.0614 108.335 99.0425 107.596L98.9668 91.8274C98.9668 91.0892 99.9886 90.5023 101.256 90.4834V90.5023Z" fill="white"/>
<path d="M101.351 109.414C99.7992 109.414 98.5692 108.619 98.5503 107.615L98.4746 91.8466C98.4746 91.4869 98.626 91.1272 98.9098 90.8433C99.4208 90.3322 100.291 90.0293 101.256 90.0293H101.389L108.239 91.8087C108.504 91.8592 108.624 93.2537 108.598 95.9923C108.598 97.2606 108.598 98.7561 108.598 99.4565V109.414L101.37 109.452L101.351 109.414ZM101.2 90.9947C100.537 90.9947 99.9317 91.2219 99.6289 91.5248C99.5154 91.6384 99.4775 91.733 99.4775 91.8277L99.5532 107.597C99.5532 107.937 100.272 108.429 101.37 108.429H107.633L107.69 99.8541C107.633 99.3619 107.633 98.3018 107.633 95.9734C107.633 94.7051 107.633 93.2853 107.633 92.6417L101.2 90.9947Z" fill="#141516"/>
<path d="M130.965 122.323V125.882V126.222C130.965 126.942 131.987 127.528 133.255 127.547L143.908 127.585C145.176 127.585 146.217 126.998 146.217 126.26V112.176L130.965 111.816V122.342V122.323Z" fill="white"/>
<path d="M143.908 128.04L133.254 128.002C131.684 128.002 130.492 127.226 130.473 126.204V125.863C130.473 124.86 130.473 123.44 130.473 122.759V111.287L146.709 111.666V126.223C146.709 127.245 145.479 128.04 143.927 128.04H143.908ZM131.4 122.304C131.457 122.797 131.457 123.781 131.457 125.863V126.204C131.457 126.526 132.157 127.018 133.254 127.037L143.908 127.075C145.005 127.075 145.706 126.583 145.706 126.242V112.65L131.438 112.309L131.381 122.323L131.4 122.304Z" fill="#141516"/>
<path d="M114.786 103.886L106.232 103.678V108.865C106.232 108.865 106.232 117.402 106.232 117.743C106.232 118.084 106.459 118.424 106.914 118.689L114.464 123.024C115.353 123.536 116.81 123.536 117.719 123.024L122.468 120.28V106.214L114.823 103.905L114.786 103.886Z" fill="white"/>
<path d="M116.073 123.914C115.391 123.914 114.729 123.762 114.199 123.46L106.649 119.106C106.062 118.765 105.722 118.273 105.722 117.743V103.943C105.722 103.507 106.081 103.166 106.498 103.185L114.918 103.412L122.904 105.836V120.563L117.908 123.46C117.378 123.762 116.716 123.914 116.035 123.914H116.073ZM106.725 104.189V117.743C106.725 117.913 106.876 118.102 107.16 118.254L114.71 122.608C115.467 123.043 116.716 123.043 117.473 122.608L121.977 119.995V106.574L114.748 104.378L106.762 104.189H106.725Z" fill="#141516"/>
<path d="M162.908 103.829L171.48 103.621V108.808C171.48 108.808 171.48 117.345 171.48 117.686C171.48 118.027 171.253 118.368 170.799 118.633L163.249 122.968C162.359 123.479 160.902 123.479 159.994 122.968L155.244 120.223V106.158L162.889 103.848L162.908 103.829Z" fill="white"/>
<path d="M161.64 123.838C160.958 123.838 160.296 123.687 159.766 123.384L154.771 120.487V105.76L162.888 103.318L171.101 103.109C171.574 103.109 171.953 103.469 171.953 103.942V108.77C171.953 108.77 171.953 117.307 171.953 117.648C171.953 118.197 171.631 118.67 171.025 119.011L163.475 123.365C162.945 123.668 162.283 123.819 161.602 123.819L161.64 123.838ZM155.754 119.919L160.258 122.532C160.996 122.967 162.264 122.967 163.021 122.532L170.571 118.197C170.836 118.045 171.006 117.856 171.006 117.686C171.006 117.345 171.006 108.807 171.006 108.807V104.132L163.021 104.321L155.792 106.517V119.938L155.754 119.919Z" fill="#141516"/>
<path d="M163.135 72.0264C162.245 71.5153 160.788 71.5153 159.88 72.0264L155.13 74.7713C152.424 73.8248 149.529 73.1433 146.558 72.7079L146.596 68.8083C146.596 68.07 145.574 67.4832 144.306 67.4832L133.653 67.4453C132.385 67.4453 131.344 68.0321 131.344 68.7704L131.306 72.689C128.222 73.1244 125.232 73.8248 122.431 74.8092L117.701 72.0643C116.811 71.5532 115.354 71.5532 114.446 72.0643L106.914 76.4182C106.025 76.9293 106.025 77.7812 106.914 78.2923L111.645 81.0372C110.018 82.5895 108.826 84.2553 108.069 85.978H101.351C100.083 85.9401 99.0425 86.527 99.0425 87.2652L98.9668 93.4176C98.9668 94.1558 99.9886 94.7427 101.256 94.7616H107.974C108.712 96.5978 109.942 98.3394 111.664 99.9674L106.914 102.712C106.025 103.223 106.025 104.075 106.914 104.586L114.465 108.921C115.354 109.433 116.811 109.433 117.719 108.921L122.469 106.177C125.156 107.123 128.032 107.805 131.003 108.24L130.966 112.102C130.966 112.84 131.987 113.427 133.255 113.427L143.909 113.465C145.177 113.465 146.217 112.878 146.217 112.14L146.255 108.297C149.378 107.861 152.405 107.161 155.244 106.177L160.012 108.94C160.902 109.451 162.359 109.451 163.267 108.94L170.798 104.586C171.688 104.075 171.688 103.223 170.798 102.712L166.03 99.9485C167.657 98.3962 168.849 96.7303 169.606 95.0077H176.324C177.592 95.0456 178.633 94.4587 178.633 93.7204L178.708 87.5681C178.708 86.8298 177.705 86.243 176.419 86.2241H169.701C168.944 84.3689 167.695 82.6084 165.973 80.9804L170.723 78.2355C171.612 77.7244 171.612 76.8726 170.723 76.3614L163.172 72.0075L163.135 72.0264ZM150.456 97.2225C144.041 100.933 133.615 100.933 127.2 97.2225C120.785 93.5122 120.785 87.4924 127.2 83.7821C133.615 80.0718 144.041 80.0718 150.456 83.7821C156.871 87.4924 156.871 93.5122 150.456 97.2225Z" fill="white"/>
<path d="M176.266 89.5369H169.548C168.791 87.6818 167.542 85.9213 165.82 84.2933L170.57 81.5484C171.459 81.0373 171.459 80.1854 170.57 79.6743L163.02 75.3204C162.13 74.8093 160.673 74.8093 159.765 75.3204L155.015 78.0652C152.309 77.1187 149.414 76.4373 146.443 76.0019L146.481 72.1022C146.481 71.364 145.459 70.7771 144.191 70.7771L133.538 70.7393C132.27 70.7393 131.229 71.3261 131.229 72.0644L131.191 75.9829C128.107 76.4183 125.117 77.1187 122.316 78.1031L117.586 75.3582C116.696 74.8471 115.239 74.8471 114.331 75.3582L106.8 79.7122C106.8 79.7122 106.781 79.7311 106.762 79.75V81.5673C106.762 81.5673 106.781 81.5863 106.8 81.6052L111.53 84.3501C109.903 85.9024 108.711 87.5682 107.954 89.2909H101.236C100.555 89.253 99.9495 89.4234 99.5332 89.7073V97.6959C99.9495 97.923 100.498 98.0745 101.123 98.0745H107.84C108.578 99.9107 109.808 101.652 111.53 103.28L106.781 106.025H106.762V107.88H106.8L114.35 112.253C115.239 112.764 116.696 112.764 117.605 112.253L122.354 109.508C125.041 110.455 128.485 111.307 131.456 111.742L131.418 115.604C131.418 116.342 131.873 116.778 133.14 116.778L143.794 116.815C145.062 116.815 146.103 116.229 146.103 115.49L146.14 111.647C149.263 111.212 152.29 110.512 155.129 109.527L159.897 112.291C160.787 112.802 162.244 112.802 163.152 112.291L170.684 107.937C171.573 107.426 171.573 106.574 170.684 106.063L165.915 103.299C167.542 101.747 168.735 100.081 169.491 98.3584H176.209C177.042 98.3963 177.78 98.1313 178.177 97.7527V90.1616C177.761 89.8209 177.08 89.5937 176.304 89.5937L176.266 89.5369ZM150.322 100.498C143.908 104.208 133.481 104.208 127.066 100.498C120.651 96.7872 120.651 90.7674 127.066 87.0571C133.481 83.3468 143.908 83.3468 150.322 87.0571C156.737 90.7674 156.737 96.7872 150.322 100.498Z" fill="#C7D3FF"/>
<path d="M143.89 113.975L133.236 113.938C132.271 113.938 131.401 113.635 130.909 113.124C130.625 112.821 130.455 112.48 130.474 112.101L130.511 108.675C127.711 108.24 125.024 107.577 122.526 106.725L117.984 109.356C116.944 109.962 115.297 109.962 114.238 109.356L106.687 105.021C106.101 104.681 105.76 104.188 105.76 103.658C105.76 103.128 106.101 102.636 106.668 102.295L110.869 99.8724C109.45 98.4337 108.39 96.8814 107.671 95.2723H101.275C100.31 95.2345 99.4399 94.9316 98.9479 94.4205C98.6641 94.1176 98.5127 93.7768 98.5127 93.3982L98.5884 87.2459C98.5884 86.2237 99.8184 85.4476 101.37 85.4476H107.804C108.523 83.9521 109.545 82.4944 110.888 81.1315L106.706 78.7273C106.12 78.3866 105.779 77.8944 105.779 77.3644C105.779 76.8343 106.12 76.3421 106.706 76.0014L114.238 71.6474C115.278 71.0417 116.925 71.0417 117.984 71.6474L122.526 74.2787C125.137 73.389 127.938 72.7075 130.852 72.2721L130.89 68.77C130.89 67.7478 132.12 66.9717 133.672 66.9717L144.325 67.0095C145.29 67.0095 146.161 67.3124 146.653 67.8235C146.937 68.1264 147.107 68.4672 147.088 68.8458L147.05 72.3289C149.87 72.7643 152.576 73.408 155.073 74.2598L159.634 71.6096C160.675 71.0038 162.321 71.0038 163.381 71.6096L170.931 75.9446C171.518 76.2853 171.858 76.7775 171.858 77.3076C171.858 77.8376 171.518 78.3298 170.95 78.6705L166.768 81.0936C168.206 82.5512 169.285 84.1035 170.004 85.7315H176.4C177.365 85.7694 178.235 86.0723 178.727 86.5834C179.011 86.8863 179.162 87.227 179.162 87.6056L179.087 93.7579C179.087 94.7802 177.857 95.5563 176.305 95.5563H169.871C169.152 97.0518 168.13 98.5094 166.787 99.8724L171.007 102.314C171.593 102.655 171.934 103.147 171.934 103.677C171.934 104.207 171.593 104.7 171.007 105.04L163.475 109.394C162.416 110 160.788 110 159.729 109.394L155.149 106.744C152.519 107.653 149.68 108.334 146.71 108.77L146.672 112.196C146.672 113.218 145.442 113.994 143.89 113.994V113.975ZM122.393 105.646L122.602 105.722C125.232 106.63 128.07 107.331 131.041 107.766L131.458 107.823L131.42 112.12C131.42 112.215 131.477 112.328 131.571 112.442C131.893 112.764 132.517 112.972 133.199 112.972L143.852 113.01C144.95 113.01 145.65 112.518 145.65 112.177L145.688 107.899L146.104 107.842C149.245 107.407 152.235 106.706 154.998 105.741L155.206 105.665L160.183 108.542C160.921 108.978 162.188 108.978 162.945 108.542L170.477 104.188C170.742 104.037 170.912 103.848 170.912 103.677C170.912 103.507 170.761 103.318 170.477 103.166L165.14 100.081L165.614 99.6263C167.165 98.1308 168.338 96.5217 169.076 94.8559L169.209 94.553H176.267C177.365 94.5719 178.065 94.0987 178.065 93.7579L178.141 87.6056C178.141 87.511 178.084 87.3974 177.989 87.2838C177.686 86.962 177.043 86.7537 176.362 86.7537H169.304L169.171 86.4319C168.433 84.6525 167.222 82.9488 165.557 81.3776L165.084 80.9232L170.401 77.8376C170.666 77.6862 170.836 77.4969 170.817 77.3265C170.817 77.1561 170.666 76.9668 170.382 76.8154L162.832 72.4614C162.094 72.026 160.826 72.026 160.069 72.4614L155.111 75.3199L154.903 75.2442C152.273 74.3355 149.415 73.654 146.426 73.2186L146.009 73.1619L146.047 68.8268C146.047 68.7322 145.99 68.6186 145.896 68.505C145.574 68.1832 144.95 67.975 144.268 67.975L133.615 67.9371C132.517 67.9371 131.817 68.4293 131.817 68.77L131.779 73.124L131.363 73.1808C128.279 73.6162 125.308 74.3166 122.583 75.2631L122.375 75.3388L117.436 72.4993C116.698 72.0639 115.43 72.0639 114.673 72.4993L107.142 76.8532C106.877 77.0047 106.706 77.194 106.706 77.3644C106.706 77.5347 106.858 77.724 107.142 77.8755L112.44 80.9422L111.967 81.3965C110.415 82.892 109.242 84.501 108.504 86.1669L108.372 86.4698L101.332 86.4319C100.235 86.4319 99.5345 86.9241 99.5345 87.2649L99.4588 93.4172C99.4588 93.5118 99.5156 93.6254 99.6102 93.739C99.913 94.0608 100.556 94.269 101.238 94.269H108.296L108.428 94.5909C109.166 96.3514 110.358 98.0361 112.005 99.6073L112.478 100.062L107.16 103.147C106.896 103.299 106.725 103.488 106.744 103.658C106.744 103.829 106.896 104.018 107.179 104.17L114.73 108.505C115.487 108.94 116.736 108.94 117.492 108.505L122.431 105.646H122.393ZM138.819 100.478C134.523 100.478 130.209 99.5316 126.935 97.6386C123.661 95.7456 121.864 93.2089 121.864 90.5019C121.864 87.7949 123.661 85.2393 126.935 83.3652C133.482 79.5792 144.136 79.5792 150.683 83.3652C153.957 85.2583 155.755 87.7949 155.755 90.5019C155.755 93.2089 153.957 95.7645 150.683 97.6386C147.41 99.5316 143.114 100.478 138.8 100.478H138.819ZM138.819 81.4911C134.693 81.4911 130.568 82.3998 127.427 84.2171C124.475 85.9208 122.848 88.1546 122.848 90.5019C122.848 92.8493 124.475 95.083 127.427 96.7868C133.709 100.421 143.909 100.421 150.191 96.7868C153.143 95.083 154.771 92.8493 154.771 90.5019C154.771 88.1546 153.143 85.9208 150.191 84.2171C147.05 82.3998 142.925 81.4911 138.8 81.4911H138.819Z" fill="#141516"/>
<path d="M145.725 108.618V122.399L155.754 120.204V106.498L145.725 108.618Z" fill="#141516"/>
<path d="M161.791 109.319V123.346L167.903 120.298L171.234 118.178L171.48 104.188L163.683 108.675L161.791 109.319Z" fill="#141516"/>
<path d="M116.11 109.319V123.346L122.923 120.298V106.195L116.11 109.319Z" fill="#141516"/>
<path d="M136.755 81.0557V95.0829L129.98 96.3702L127.804 97.5439L123.225 94.4393L122.052 89.8582L126.007 83.9331L136.755 81.0557Z" fill="#141516"/>
<path d="M139.31 80.999V94.9127L143.87 95.5563V81.283L139.31 80.999Z" fill="#141516"/>
<path d="M171.327 77.5352V86.1105C171.327 86.1105 169.472 86.7163 168.886 84.5583C168.659 83.7253 165.972 80.8479 165.972 80.8479L171.327 77.5352Z" fill="#141516"/>
<path d="M108.58 95.083H107.652V100.156H108.58V95.083Z" fill="#141516"/>
<path d="M166.237 99.7209L170.041 95.083V102.087L166.237 99.7209Z" fill="#141516"/>
<path d="M56.0771 75.5287V42.7227L74.792 53.5318V86.3379L56.0771 75.5287Z" fill="white"/>
<path d="M56.0771 42.7222L73.1646 32.8975L91.8794 43.7066L74.773 53.5314L56.0771 42.7222Z" fill="white"/>
<path d="M56.3418 47.3038L73.1643 37.6494L91.8791 48.4586L74.6214 57.829L56.3418 47.3038Z" fill="#FABCBC"/>
<path d="M73.1644 31.9893L55.2822 42.2683V76.002L74.7729 87.2655L92.6551 76.9864V43.2527L73.1644 31.9893ZM73.997 84.9749L56.8718 75.0744V44.0857L73.997 53.9861V84.9749ZM57.6665 42.7227L73.1644 33.8066L90.2897 43.7071L74.7918 52.6232L57.6665 42.7416V42.7227Z" fill="#141516"/>
<path d="M31.6104 89.1957V69.6787L50.3252 80.4878V100.005L31.6104 89.1957Z" fill="white"/>
<path d="M31.6104 69.6597L48.6978 59.835L67.4126 70.6441L50.3252 80.4689L31.6104 69.6597Z" fill="white"/>
<path d="M31.875 74.2603L48.6975 64.5869L67.4123 75.396L50.1735 84.7665L31.875 74.2603Z" fill="#FABCBC"/>
<path d="M48.6976 58.9268L30.8154 69.2059V89.6505L50.3061 100.914L68.1883 90.6349V70.1902L48.6976 58.9268ZM49.5303 98.6234L32.405 88.7229V71.0232L49.5303 80.9237V98.6234ZM33.1997 69.6602L48.6976 60.7441L65.8229 70.6446L50.325 79.5607L33.1997 69.6791V69.6602Z" fill="#141516"/>
<path d="M6.9541 103.09V94.4199L25.6689 105.229V113.899L6.9541 103.09Z" fill="white"/>
<path d="M6.9541 94.4205L24.0415 84.5957L42.7564 95.3859L25.6689 105.23L6.9541 94.4205Z" fill="white"/>
<path d="M7.21875 99.0015L24.0413 89.3281L42.7561 100.137L25.4983 109.527L7.21875 99.0015Z" fill="#FABCBC"/>
<path d="M24.0414 83.668L6.15918 93.9471V103.545L25.6498 114.808L43.5321 104.529V94.9314L24.0414 83.668ZM24.8551 112.518L7.72979 102.617V95.7644L24.8551 105.665V112.518ZM8.52455 94.4014L24.0225 85.4853L41.1478 95.3858L25.6498 104.302L8.52455 94.4014Z" fill="#141516"/>
<path d="M77.1497 153.779L74.4247 154.612C73.4975 153.685 72.3621 152.814 70.9808 152C63.5251 147.646 52.247 147.173 45.7943 150.94L19.4724 166.236L11.5059 168.659V174.981H11.5248C11.6383 177.802 13.7009 180.755 17.6747 183.064C25.1304 187.418 36.4085 187.892 42.8612 184.125L72.7974 166.709C75.6737 165.024 77.0929 162.79 77.1497 160.443V153.761V153.779Z" fill="white"/>
<path d="M31.9046 187.55C26.7764 187.55 21.4023 186.301 17.2014 183.84C13.5682 181.72 11.1839 179.07 10.6162 176.211V167.977L19.0937 165.402L45.3399 150.163C52.0386 146.245 63.733 146.737 71.4347 151.223C72.6646 151.943 73.7433 152.738 74.6705 153.59L78.0577 154.006L78.0009 161.162C77.6981 163.642 76.0329 165.856 73.2513 167.484L43.2962 184.9C40.2496 186.68 36.1811 187.55 31.9046 187.55ZM12.395 174.602V174.943C12.5085 177.555 14.59 180.243 18.1097 182.288C25.3004 186.49 36.2001 186.964 42.3879 183.348L72.3429 165.932C74.8408 164.475 76.2032 162.563 76.2411 160.423V154.972L74.1595 155.596L73.7811 155.218C72.8917 154.328 71.7942 153.495 70.5263 152.757C63.3356 148.554 52.436 148.081 46.2482 151.697L19.7371 167.087L12.395 169.321V174.602Z" fill="#141516"/>
<path d="M72.7961 160.404L42.8599 177.82C36.4072 181.587 25.1291 181.114 17.6734 176.76C10.2178 172.406 9.40411 165.819 15.8568 162.032L45.793 144.617C52.2457 140.85 63.5238 141.323 70.9795 145.677C78.4351 150.031 79.2488 156.618 72.7961 160.404Z" fill="#C7D3FF"/>
<path d="M70.9799 149.123C63.5242 144.769 52.2461 144.296 45.7934 148.063L15.8573 165.479C13.6243 166.785 12.2808 168.432 11.751 170.211C12.4322 172.54 14.4002 174.868 17.6549 176.761C25.1106 181.115 36.3887 181.588 42.8414 177.821L72.7776 160.405C75.0105 159.099 76.354 157.452 76.8838 155.673C76.2026 153.345 74.2346 151.016 70.9799 149.123Z" fill="white"/>
<path d="M31.9039 181.228C26.7758 181.228 21.4017 179.979 17.2008 177.518C12.9999 175.057 10.5967 171.744 10.5967 168.412C10.5967 165.611 12.2997 163.055 15.4031 161.238L45.3582 143.822C52.0569 139.904 63.7513 140.377 71.453 144.882C75.6539 147.343 78.0571 150.656 78.0571 153.988C78.0571 156.789 76.354 159.345 73.2506 161.162L43.3145 178.578C40.2679 180.357 36.1995 181.228 31.9229 181.228H31.9039ZM56.7309 142.951C52.7949 142.951 49.0482 143.746 46.2476 145.393L16.2925 162.809C13.7757 164.286 12.3754 166.273 12.3754 168.431C12.3754 171.1 14.457 173.864 18.0902 175.984C25.2809 180.187 36.1805 180.66 42.3684 177.045L72.3234 159.629C74.8402 158.152 76.2405 156.165 76.2405 154.007C76.2405 151.337 74.1589 148.574 70.5257 146.453C66.5708 144.144 61.5184 142.97 56.7309 142.97V142.951Z" fill="#141516"/>
<path d="M66.7979 151.642C72.2667 154.803 72.2667 159.914 66.7979 163.075C61.3292 166.237 52.4732 166.237 47.0234 163.075C41.5547 159.914 41.5547 154.803 47.0234 151.642C52.4922 148.48 61.3481 148.48 66.7979 151.642Z" fill="#F14C4C"/>
<path d="M56.9018 162.564C53.155 162.564 49.4083 161.75 46.5698 160.103C43.6368 158.418 42.0283 156.109 42.0283 153.61C42.0283 151.111 43.6368 148.821 46.5698 147.117C52.2657 143.823 61.5379 143.823 67.2526 147.117C70.1857 148.802 71.7941 151.111 71.7941 153.61C71.7941 156.109 70.1857 158.399 67.2526 160.103C64.3953 161.75 60.6485 162.583 56.9207 162.583L56.9018 162.564ZM56.9018 146.416C53.4767 146.416 50.0517 147.174 47.4592 148.669C45.1128 150.032 43.8071 151.774 43.8071 153.61C43.8071 155.446 45.0938 157.188 47.4592 158.551C52.663 161.561 61.1405 161.561 66.3443 158.551C68.6908 157.188 69.9965 155.446 69.9965 153.61C69.9965 151.774 68.7097 150.032 66.3443 148.669C63.733 147.174 60.3268 146.416 56.9018 146.416Z" fill="#141516"/>
<path d="M36.918 180.359V186.227L42.0272 184.58L75.2938 165.082L77.5267 160.785L76.8833 156.469L44.3169 176.951L36.918 180.359Z" fill="#141516"/>
<path d="M31.5439 180.359V186.946L27.2295 186.681V179.999L31.5439 180.359Z" fill="#141516"/>
<path d="M58.4158 163.834C59.0781 164.212 59.0781 164.818 58.4158 165.197C57.7535 165.575 56.6938 165.575 56.0504 165.197C55.3881 164.818 55.3881 164.212 56.0504 163.834C56.7127 163.455 57.7724 163.455 58.4158 163.834Z" fill="#141516"/>
<path d="M64.6033 160.255C65.2656 160.633 65.2656 161.239 64.6033 161.618C63.941 161.996 62.8813 161.996 62.2379 161.618C61.5756 161.239 61.5756 160.633 62.2379 160.255C62.9002 159.876 63.9599 159.876 64.6033 160.255Z" fill="#141516"/>
<path d="M70.7918 156.678C71.4541 157.056 71.4541 157.662 70.7918 158.04C70.1295 158.419 69.0698 158.419 68.4264 158.04C67.7641 157.662 67.7641 157.056 68.4264 156.678C69.0887 156.299 70.1484 156.299 70.7918 156.678Z" fill="#141516"/>
<path d="M52.2273 160.255C52.8896 160.633 52.8896 161.239 52.2273 161.618C51.565 161.996 50.5053 161.996 49.862 161.618C49.1997 161.239 49.1997 160.633 49.862 160.255C50.5243 159.876 51.584 159.876 52.2273 160.255Z" fill="#141516"/>
<path d="M58.4158 156.678C59.0781 157.056 59.0781 157.662 58.4158 158.04C57.7535 158.419 56.6938 158.419 56.0504 158.04C55.3881 157.662 55.3881 157.056 56.0504 156.678C56.7127 156.299 57.7724 156.299 58.4158 156.678Z" fill="#141516"/>
<path d="M64.6033 153.1C65.2656 153.479 65.2656 154.085 64.6033 154.463C63.941 154.842 62.8813 154.842 62.2379 154.463C61.5756 154.085 61.5756 153.479 62.2379 153.1C62.9002 152.722 63.9599 152.722 64.6033 153.1Z" fill="#141516"/>
<path d="M46.0398 156.678C46.7021 157.056 46.7021 157.662 46.0398 158.04C45.3775 158.419 44.3178 158.419 43.6745 158.04C43.0122 157.662 43.0122 157.056 43.6745 156.678C44.3368 156.299 45.3965 156.299 46.0398 156.678Z" fill="#141516"/>
<path d="M52.2273 153.1C52.8896 153.479 52.8896 154.085 52.2273 154.463C51.565 154.842 50.5053 154.842 49.862 154.463C49.1997 154.085 49.1997 153.479 49.862 153.1C50.5243 152.722 51.584 152.722 52.2273 153.1Z" fill="#141516"/>
<path d="M58.4158 149.541C59.0781 149.919 59.0781 150.525 58.4158 150.904C57.7535 151.282 56.6938 151.282 56.0504 150.904C55.3881 150.525 55.3881 149.919 56.0504 149.541C56.7127 149.162 57.7724 149.162 58.4158 149.541Z" fill="#141516"/>
</svg>
