<svg width="1289" height="805" viewBox="0 0 1289 805" fill="none" xmlns="http://www.w3.org/2000/svg">
<path d="M43.6208 1.08813C11.7323 31.7264 -32.9116 108.399 43.6208 169.982C124.289 234.893 213.105 204.232 290.363 271.088C290.363 271.088 325.927 304.2 364.204 317.959C415.231 336.3 517.363 334.588 517.363 334.588C602.967 334.588 760.686 334.588 938.618 334.588M938.618 334.588C1018.04 334.588 1101.5 334.588 1184.36 334.588C1452.86 334.588 1129.36 169.588 999.863 234.588C950.568 259.331 940.408 297.187 938.618 334.588ZM938.618 334.588C935.707 395.441 954.956 455.088 863.863 455.088C757.863 455.088 820.863 564.088 971.363 544.588C971.363 544.588 1119.42 514.246 1178.9 544.588C1216.32 563.678 1215.86 608.088 1215.86 608.088C1215.86 667.088 1301.76 734.488 1225.36 788.088C1144.83 844.585 1017.86 737.088 912.363 737.088" stroke="black" stroke-dasharray="6 6"/>
</svg>
