<svg width="60" height="60" viewBox="0 0 60 60" fill="none" xmlns="http://www.w3.org/2000/svg">
<path d="M9.91309 5.58527L41.9326 23.3508L42.5308 58.0931L10.5428 40.296L9.94457 5.55371L9.91309 5.58527ZM34.5338 27.3584L17.6267 17.9549L17.9416 36.32L34.8486 45.7235L34.5338 27.3584Z" fill="white"/>
<path d="M13.0303 3.78711L45.0498 21.5527L45.648 56.295L13.6285 38.5294L13.0303 3.78711ZM37.651 25.5602L20.7439 16.1568L21.0588 34.5219L37.9658 43.9253L37.651 25.5602Z" fill="#FABCBC"/>
<path d="M42.5623 58.0926L50.1185 53.5802L49.4888 18.8379L41.9326 23.3503L42.5623 58.0926Z" fill="white"/>
<path d="M9.91309 5.58564L17.4693 1.07324L49.4888 18.8388L41.9326 23.3512L9.91309 5.58564Z" fill="#141516"/>
<path d="M17.9418 36.3202L25.498 31.8078L25.3406 22.2466L17.627 17.9551L17.9418 36.3202Z" fill="white"/>
<path d="M34.8799 45.7235L17.9414 36.32L25.4976 31.8076L34.7225 36.9196L34.8799 45.7235Z" fill="#141516"/>
<path d="M16.6816 16.377L17.028 35.7834V36.8563L17.9725 37.3612L35.8241 47.2695L35.4777 26.7902L16.7131 16.377H16.6816ZM24.4268 22.7827L24.5842 31.271L18.8541 34.7105L18.5707 19.5325L24.4268 22.7827ZM33.935 44.1455L19.7986 36.2883L25.5287 32.8488L33.8091 37.4558L33.935 44.1455ZM33.7776 35.3416L26.4103 31.2395L26.2843 23.7924L33.6517 27.8946L33.7776 35.3416Z" fill="#141516"/>
<path d="M49.4888 17.7971L17.4693 0L9.91304 4.5124L9 5.04884V6.12171L9.5982 40.864L41.6177 58.6296L42.5307 59.1345L43.4438 58.598L51 54.0856L50.4018 19.3433V18.2705L49.4573 17.7656L49.4888 17.7971ZM11.7706 5.55372L17.5007 2.1142L47.6627 18.87L41.9325 22.278L30.0945 15.7145L11.7706 5.55372ZM41.6177 56.5154L11.4558 39.7596L10.8891 7.13148L29.3073 17.3554L41.051 23.8873L41.5547 52.6657L41.6177 56.5154ZM49.1739 53.0759L43.4438 56.5154L43.1604 40.5169L42.8771 23.8873L48.6072 20.4478L49.1739 53.0759Z" fill="#141516"/>
</svg>
