<svg width="48" height="48" viewBox="0 0 48 48" fill="none" xmlns="http://www.w3.org/2000/svg">
<path d="M4.40565 12.4091L9.32441 7.59668L12.5947 9.64395C17.5932 9.56418 23.6819 11.3456 29.4514 14.9615C35.221 18.5775 39.4751 23.2835 41.5755 27.8301L44.7129 29.7976L42.6922 36.3382C42.4795 37.0029 42.2136 37.6676 41.8414 38.2791C37.9862 44.4475 26.1545 43.9955 15.4662 37.2953C4.77788 30.5952 -0.778988 20.1462 3.10284 13.9778C3.47507 13.3928 3.92707 12.8877 4.43224 12.4091H4.40565Z" fill="white"/>
<path d="M4.21938 12.5155L9.13814 7.70312L12.4085 9.75039C17.407 9.67063 23.4956 11.452 29.2652 15.068C30.5414 15.8656 31.7378 16.743 32.8545 17.6204C35.7526 20.3058 37.9594 23.257 39.2888 26.1285L41.017 27.2186C41.15 27.4579 41.2829 27.6972 41.3892 27.9099L42.3198 28.4949L40.4321 34.6367C40.2194 35.3013 39.9535 35.9661 39.5813 36.5776C35.726 42.746 23.8944 42.294 13.2061 35.5938C11.9565 34.7962 10.76 33.972 9.6699 33.0946C2.81023 26.7666 -0.194206 19.0296 2.94316 14.0576C3.31539 13.4727 3.76739 12.9675 4.27256 12.4889L4.21938 12.5155Z" fill="#8EA7FF"/>
<path d="M15.0144 37.9867C26.0749 44.9261 38.4383 45.2718 42.5328 38.7311C42.7455 38.3855 42.9316 38.0133 43.1178 37.5879H43.1443L43.49 36.5775L45.6968 29.4254L42.2138 27.2452C39.9272 22.4593 35.4604 17.7533 29.877 14.2437C24.2935 10.7341 18.0986 8.76658 12.8076 8.79317L9.19161 6.5332L3.79427 11.7976C3.18275 12.3825 2.70417 12.9143 2.33194 13.4992C-1.7626 20.0398 3.90062 31.0206 14.9612 37.9601L15.0144 37.9867ZM42.2404 35.062L41.8947 36.0989C41.682 36.7902 41.4427 37.3752 41.1502 37.8537C37.5343 43.6233 26.2079 43.065 15.9183 36.6041C5.62883 30.1432 0.204903 20.1994 3.82085 14.4298C4.11332 13.9778 4.48555 13.5258 5.01731 13.0472L9.48408 8.66023L12.4087 10.4948H12.648C17.6731 10.415 23.6554 12.3028 29.0528 15.6794C34.4501 19.0561 38.7573 23.6292 40.8578 28.1757L40.9641 28.3884L43.7824 30.1432L42.2669 35.0354L42.2404 35.062Z" fill="#141516"/>
<path d="M8.36724 8.79297C4.80447 14.4562 9.90934 24.081 19.7469 30.2494C29.611 36.4178 40.4588 36.8432 44.0216 31.1534C47.5844 25.4902 42.4795 15.8654 32.642 9.69696C22.8045 3.52857 11.93 3.10317 8.36724 8.79297Z" fill="white"/>
<path d="M8.18106 8.68622C9.40411 6.7453 11.5046 5.52226 14.1102 4.9905C18.6833 4.93733 24.2401 6.58578 29.5311 9.88267C39.3687 16.0777 44.4735 25.7025 40.9108 31.3657C39.6877 33.3066 37.5873 34.5296 34.9817 35.0614C30.4085 35.1146 24.8517 33.4661 19.5607 30.1692C9.72316 24.0008 4.61829 14.376 8.18106 8.71281V8.68622Z" fill="white"/>
<path d="M19.3216 30.967C29.5579 37.3747 40.9641 37.6672 44.7662 31.6317C48.5683 25.5697 43.3305 15.4397 33.1207 9.00542C22.8844 2.59774 11.4782 2.30528 7.70271 8.34073C3.90063 14.4028 9.13845 24.5328 19.3482 30.967H19.3216ZM32.2167 10.4146C41.6554 16.3437 46.654 25.4633 43.3305 30.7277C40.007 36.0187 29.6377 35.487 20.199 29.5579C10.7603 23.6288 5.76179 14.5091 9.08527 9.24472C12.4088 3.95373 22.778 4.48548 32.2167 10.4146Z" fill="#141516"/>
<path d="M17.5665 13.7387C15.8915 16.3975 18.6034 21.1035 23.6285 24.2409C28.627 27.3783 34.051 27.7771 35.726 25.1183C37.4011 22.4595 34.6891 17.7535 29.664 14.6161C24.6655 11.4787 19.2415 11.0799 17.5665 13.7387Z" fill="white"/>
<path d="M29.5846 14.5624C30.781 15.3068 31.818 16.1311 32.7219 17.0085C34.264 19.1887 34.7426 21.3955 33.7855 22.9376C32.1104 25.5964 26.7131 25.1975 21.688 22.0602C20.4915 21.3157 19.4546 20.4915 18.5506 19.6141C17.0085 17.4339 16.5299 15.2271 17.4871 13.685C19.1621 11.0262 24.5595 11.425 29.5846 14.5624Z" fill="#F8A5A5"/>
<path d="M23.1767 24.9586C28.6538 28.3884 34.4766 28.6543 36.4175 25.5701C38.3584 22.4859 35.5933 17.3545 30.1162 13.9246C24.6391 10.4948 18.8163 10.2289 16.8754 13.3131C14.9345 16.3973 17.6996 21.5288 23.1767 24.9586ZM29.2122 15.3338C33.7587 18.1787 36.3909 22.4593 35.0084 24.6927C33.5992 26.9261 28.6007 26.3944 24.0541 23.5495C19.5076 20.7045 16.8754 16.4239 18.258 14.1905C19.6671 11.9571 24.6657 12.4889 29.2122 15.3338Z" fill="#141516"/>
<path d="M27.6436 17.6995C23.7086 15.2269 19.5343 14.4558 17.1148 15.5459C17.1148 14.8812 17.2477 14.2431 17.5934 13.7113C19.2684 11.0526 24.6658 11.4514 29.6909 14.5887C34.6894 17.7261 37.4014 22.4322 35.7529 25.091C35.3807 25.6759 34.8489 26.0747 34.1842 26.3672C34.1842 23.7084 31.6584 20.1988 27.6436 17.6995Z" fill="#141516"/>
<path d="M33.3599 26.3671L34.5298 27.1115C35.3806 26.7393 36.0187 26.2076 36.4707 25.5163C38.4116 22.4321 35.6465 17.3006 30.1694 13.8708C24.6923 10.4409 18.8695 10.1485 16.9286 13.2593C16.5298 13.924 16.3171 14.695 16.3171 15.5458L17.6199 17.6197L17.487 16.2903C19.7469 15.3065 23.6554 16.1573 27.2447 18.3907C30.8341 20.6507 33.3599 23.921 33.3865 26.3671H33.3599ZM29.2654 15.2799C33.8119 18.1248 36.4441 22.4055 35.0616 24.6389C35.0084 24.7452 34.9286 24.8516 34.8223 24.9313C34.131 22.2194 31.5786 19.1884 28.0955 16.9816C24.6391 14.8014 20.9168 13.8442 18.1783 14.3494C18.2049 14.2696 18.258 14.1898 18.3112 14.1367C19.7204 11.9033 24.7189 12.435 29.2654 15.2799Z" fill="#141516"/>
<path d="M23.6821 32.722L19.9066 39.5816L11.7973 34.5034L5.73531 28.1223L2.89041 24.0011L1.21536 18.6304L2.89041 14.0839L7.35717 9.51074L7.30399 14.0041L8.63339 18.0455L12.8077 24.5595L19.7471 30.2759L23.6821 32.722Z" fill="#141516"/>
<path d="M41.5493 33.5994L38.8107 41.0706L42.2671 37.561L43.9688 32.2168L41.5493 33.5994Z" fill="#141516"/>
</svg>
