<svg width="48" height="48" viewBox="0 0 48 48" fill="none" xmlns="http://www.w3.org/2000/svg">
<path d="M42.6002 12.4091L37.6814 7.59668L34.4111 9.64395C29.4126 9.56418 23.324 11.3456 17.5544 14.9615C11.7848 18.5775 7.53078 23.2835 5.43034 27.8301L2.29297 29.7976L4.31365 36.3382C4.52635 37.0029 4.79223 37.6676 5.16446 38.2791C9.0197 44.4475 20.8513 43.9955 31.5396 37.2953C42.228 30.5952 47.7848 20.1462 43.903 13.9778C43.5308 13.3928 43.0788 12.8877 42.5736 12.4091H42.6002Z" fill="white"/>
<path d="M42.787 12.5155L37.8682 7.70312L34.5979 9.75039C29.5994 9.67063 23.5107 11.452 17.7412 15.068C16.465 15.8656 15.2685 16.743 14.1518 17.6204C11.2537 20.3058 9.04694 23.257 7.71754 26.1285L5.98933 27.2186C5.85639 27.4579 5.72345 27.6972 5.6171 27.9099L4.68652 28.4949L6.57426 34.6367C6.78697 35.3013 7.05285 35.9661 7.42508 36.5776C11.2803 42.746 23.1119 42.294 33.8003 35.5938C35.0499 34.7962 36.2463 33.972 37.3364 33.0946C44.1961 26.7666 47.2006 19.0296 44.0632 14.0576C43.691 13.4727 43.239 12.9675 42.7338 12.4889L42.787 12.5155Z" fill="#8EA7FF"/>
<path d="M31.992 37.9867C20.9314 44.9261 8.56806 45.2718 4.47353 38.7311C4.26083 38.3855 4.07471 38.0133 3.8886 37.5879H3.86201L3.51636 36.5775L1.30957 29.4254L4.79258 27.2452C7.07914 22.4593 11.5459 17.7533 17.1294 14.2437C22.7128 10.7341 28.9078 8.76658 34.1988 8.79317L37.8147 6.5332L43.2121 11.7976C43.8236 12.3825 44.3022 12.9143 44.6744 13.4992C48.7689 20.0398 43.1057 31.0206 32.0452 37.9601L31.992 37.9867ZM4.766 35.062L5.11164 36.0989C5.32434 36.7902 5.56363 37.3752 5.8561 37.8537C9.47205 43.6233 20.7985 43.065 31.088 36.6041C41.3775 30.1432 46.8014 20.1994 43.1855 14.4298C42.893 13.9778 42.5208 13.5258 41.989 13.0472L37.5223 8.66023L34.5976 10.4948H34.3583C29.3332 10.415 23.3509 12.3028 17.9536 15.6794C12.5562 19.0561 8.24901 23.6292 6.14857 28.1757L6.04221 28.3884L3.2239 30.1432L4.73941 35.0354L4.766 35.062Z" fill="#141516"/>
<path d="M38.6391 8.79297C42.2019 14.4562 37.097 24.081 27.2595 30.2494C17.3954 36.4178 6.54753 36.8432 2.98475 31.1534C-0.578026 25.4902 4.52685 15.8654 14.3644 9.69696C24.2019 3.52857 35.0763 3.10317 38.6391 8.79297Z" fill="white"/>
<path d="M38.8248 8.68622C37.6018 6.7453 35.5013 5.52226 32.8957 4.9905C28.3226 4.93733 22.7657 6.58578 17.4747 9.88267C7.6372 16.0777 2.53233 25.7025 6.0951 31.3657C7.31815 33.3066 9.41859 34.5296 12.0242 35.0614C16.5973 35.1146 22.1542 33.4661 27.4452 30.1692C37.2827 24.0008 42.3876 14.376 38.8248 8.71281V8.68622Z" fill="white"/>
<path d="M27.6847 30.967C17.4484 37.3747 6.0422 37.6672 2.24013 31.6317C-1.56194 25.5697 3.67588 15.4397 13.8856 9.00542C24.122 2.59774 35.5282 2.30528 39.3036 8.34073C43.1057 14.4028 37.8679 24.5328 27.6582 30.967H27.6847ZM14.7896 10.4146C5.35091 16.3437 0.352392 25.4633 3.67588 30.7277C6.99936 36.0187 17.3686 35.487 26.8073 29.5579C36.246 23.6288 41.2446 14.5091 37.9211 9.24472C34.5976 3.95373 24.2283 4.48548 14.7896 10.4146Z" fill="#141516"/>
<path d="M29.4399 13.7387C31.1149 16.3975 28.4029 21.1035 23.3778 24.2409C18.3793 27.3783 12.9554 27.7771 11.2803 25.1183C9.60529 22.4595 12.3173 17.7535 17.3424 14.6161C22.3409 11.4787 27.7648 11.0799 29.4399 13.7387Z" fill="white"/>
<path d="M17.4218 14.5624C16.2253 15.3068 15.1884 16.1311 14.2844 17.0085C12.7423 19.1887 12.2637 21.3955 13.2209 22.9376C14.8959 25.5964 20.2933 25.1975 25.3184 22.0602C26.5148 21.3157 27.5518 20.4915 28.4557 19.6141C29.9978 17.4339 30.4764 15.2271 29.5193 13.685C27.8442 11.0262 22.4469 11.425 17.4218 14.5624Z" fill="#F8A5A5"/>
<path d="M23.8296 24.9586C18.3525 28.3884 12.5298 28.6543 10.5888 25.5701C8.64792 22.4859 11.4131 17.3545 16.8902 13.9246C22.3673 10.4948 28.19 10.2289 30.1309 13.3131C32.0719 16.3973 29.3067 21.5288 23.8296 24.9586ZM17.7942 15.3338C13.2476 18.1787 10.6154 22.4593 11.998 24.6927C13.4072 26.9261 18.4057 26.3944 22.9522 23.5495C27.4987 20.7045 30.1309 16.4239 28.7484 14.1905C27.3392 11.9571 22.3407 12.4889 17.7942 15.3338Z" fill="#141516"/>
<path d="M19.3623 17.6995C23.2973 15.2269 27.4716 14.4558 29.8911 15.5459C29.8911 14.8812 29.7581 14.2431 29.4125 13.7113C27.7374 11.0526 22.3401 11.4514 17.315 14.5887C12.3165 17.7261 9.6045 22.4322 11.2529 25.091C11.6252 25.6759 12.1569 26.0747 12.8216 26.3672C12.8216 23.7084 15.3475 20.1988 19.3623 17.6995Z" fill="#141516"/>
<path d="M13.6459 26.3671L12.476 27.1115C11.6252 26.7393 10.9871 26.2076 10.5351 25.5163C8.59421 22.4321 11.3594 17.3006 16.8365 13.8708C22.3136 10.4409 28.1363 10.1485 30.0772 13.2593C30.476 13.924 30.6887 14.695 30.6887 15.5458L29.3859 17.6197L29.5189 16.2903C27.2589 15.3065 23.3505 16.1573 19.7611 18.3907C16.1718 20.6507 13.6459 23.921 13.6193 26.3671H13.6459ZM17.7404 15.2799C13.1939 18.1248 10.5617 22.4055 11.9443 24.6389C11.9975 24.7452 12.0772 24.8516 12.1836 24.9313C12.8749 22.2194 15.4273 19.1884 18.9103 16.9816C22.3667 14.8014 26.089 13.8442 28.8276 14.3494C28.801 14.2696 28.7478 14.1898 28.6947 14.1367C27.2855 11.9033 22.287 12.435 17.7404 15.2799Z" fill="#141516"/>
<path d="M23.3242 32.722L27.0997 39.5816L35.209 34.5034L41.271 28.1223L44.1159 24.0011L45.791 18.6304L44.1159 14.0839L39.6492 9.51074L39.7024 14.0041L38.373 18.0455L34.1987 24.5595L27.2592 30.2759L23.3242 32.722Z" fill="#141516"/>
<path d="M5.45758 33.5994L8.19614 41.0706L4.73971 37.561L3.03809 32.2168L5.45758 33.5994Z" fill="#141516"/>
</svg>
