<svg width="80" height="85" viewBox="0 0 80 85" fill="none" xmlns="http://www.w3.org/2000/svg">
<path d="M5.95312 75.3194L21.4838 58.5832L18.8979 56.4227L18.8039 56.6575L2.08221 42.0662C1.87848 41.8783 2.05087 41.5496 2.31729 41.5965L13.1464 43.851C13.1464 43.851 13.2718 43.7727 13.3345 43.7414L32.5793 34.5513C33.5666 34.0817 34.5383 33.158 35.1495 32.109L37.7353 27.6627L37.5473 27.9132L32.8614 22.9659L42.3898 1.48599C42.4682 1.31377 42.6876 1.2668 42.8286 1.39205L51.8869 9.2983C52.0592 9.45486 52.2003 9.65839 52.2787 9.92454L56.2906 21.9327L69.0944 14.2769C69.2668 14.1673 69.4862 14.1986 69.6272 14.3239L78.0272 21.6508L78.7168 22.2614C79.5787 23.0286 79.3437 24.9229 77.8235 26.6294L61.6033 44.8999C60.7727 45.8393 60.2399 46.9665 60.2085 47.9059L59.5973 66.0981C59.519 68.4621 56.604 71.2489 54.6607 70.8105L39.7413 67.4132C38.9734 67.241 37.939 67.5854 36.9831 68.3525L18.4748 83.1631C17.1427 84.2277 15.9203 84.3529 15.2151 83.8363L6.00014 75.8204C5.84341 75.6952 5.84341 75.4603 5.96879 75.3194H5.95312Z" fill="#7C99FF"/>
<path d="M72.9026 30.8722L72.213 30.2616L63.8287 22.9346C63.672 22.8094 63.4526 22.7781 63.2959 22.8877L50.4921 30.5278L46.4801 18.5197C46.3861 18.2535 46.2607 18.05 46.0883 17.8934L38.1741 10.9891L42.3898 1.48599C42.4682 1.31377 42.6876 1.2668 42.8286 1.39205L51.8869 9.2983C52.0592 9.45486 52.2003 9.65839 52.2787 9.92454L56.2906 21.9327L69.0944 14.2769C69.2668 14.1673 69.4862 14.1986 69.6272 14.3239L78.0272 21.6508L78.7168 22.2614C79.5787 23.0286 79.3437 24.9229 77.8235 26.6294L73.3571 31.6707C73.2787 31.3419 73.1377 31.0757 72.9183 30.8722H72.9026Z" fill="white"/>
<path d="M54.4105 56.5323C54.4418 55.593 54.959 54.4657 55.8052 53.5264L60.209 48.5791L59.6135 66.1138C59.5351 68.4778 56.6202 71.2646 54.6769 70.8262L53.956 70.654L54.4261 56.548L54.4105 56.5323Z" fill="#7C99FF"/>
<path d="M58.845 69.5738C59.7696 68.5249 60.3338 67.2724 60.3808 66.1295L60.992 47.9373C61.0233 47.1858 61.4778 46.2621 62.183 45.4167L78.4032 27.1619C80.1741 25.1579 80.5033 22.8095 79.2338 21.6823L70.1443 13.7447C69.7368 13.3846 69.1569 13.3377 68.6868 13.6195L56.7136 20.7586L53.0151 9.67418C52.8897 9.29844 52.686 8.96966 52.3882 8.71917L43.33 0.79726C43.0793 0.578077 42.7345 0.484142 42.4054 0.562421C42.0763 0.640701 41.7942 0.859884 41.6688 1.173L31.921 23.1226L36.5912 28.0543L34.4598 31.7178C33.927 32.6415 33.0964 33.4399 32.2344 33.847L13.0053 43.0213L2.47389 40.8295C2.00374 40.7356 1.53359 40.9548 1.31419 41.3931C1.09479 41.8315 1.20448 42.3325 1.56493 42.6456L19.0859 57.9415L19.1956 57.691L20.3396 58.646L5.37315 74.7716C5.16943 74.9751 5.05972 75.3039 5.07539 75.6014C5.09106 75.8988 5.23211 76.1963 5.46719 76.3998L14.6821 84.4157C15.8105 85.2454 17.4247 84.9793 18.9605 83.7581L37.4688 68.9476C38.221 68.3527 39.036 68.0396 39.5688 68.1648L54.4882 71.5621C55.4912 71.797 56.6666 71.4369 57.795 70.5602C58.1868 70.2627 58.5315 69.9339 58.845 69.5738ZM60.9763 44.4304C60.0517 45.495 59.4718 46.7788 59.4248 47.8904L58.8136 66.0826C58.7823 67.1315 57.9674 68.4623 56.839 69.339C56.1024 69.9026 55.3502 70.1688 54.833 70.0592L39.9136 66.6618C38.8949 66.427 37.6568 66.834 36.4971 67.7577L17.9889 82.5683C16.9389 83.4137 16.0456 83.5076 15.6695 83.2258L6.83063 75.5544L22.612 58.552L18.6001 55.2017L18.506 55.4052L4.0724 42.8022L13.256 44.7122L13.6635 44.493L32.9083 35.303C34.0367 34.755 35.1337 33.7374 35.8076 32.5475L38.3934 28.1012L37.7979 27.7098L38.0956 27.428L33.7703 22.8565L42.8285 2.42548L51.3696 9.87771C51.3696 9.87771 51.4949 10.0343 51.542 10.1595L55.8517 23.0913L69.2823 15.0755L78.1995 22.8565C78.654 23.2479 78.4816 24.7665 77.2279 26.1129L61.0077 44.3834L60.9607 44.4304H60.9763Z" fill="#141516"/>
<path d="M37.6098 3.56876L25.7934 23.9528C25.1822 25.0018 24.2262 25.9255 23.2232 26.3951L3.97838 35.5852C1.47091 36.775 -0.111938 40.2037 1.29852 41.3779L12.1277 50.427C12.6918 50.8967 12.8015 51.8047 12.4411 52.8537L5.45152 73.2221C4.54256 75.8679 6.70525 76.9169 9.11869 74.9912L27.627 60.1807C28.5829 59.4135 29.6173 59.0691 30.3852 59.2413L45.3046 62.6386C47.2479 63.077 50.1629 60.3059 50.2412 57.9262L50.8524 39.734C50.8838 38.7946 51.4009 37.6674 52.2472 36.7281L68.4831 18.4732C70.5987 16.0935 70.2383 13.3381 67.8719 13.7921L49.7397 17.346C48.7994 17.5339 48.0942 17.1894 47.8434 16.4223L42.9382 1.75267C42.2957 -0.157352 39.1613 0.907253 37.6255 3.56876H37.6098Z" fill="white"/>
<path d="M66.79 20.023L52.0743 36.587C51.2437 37.5264 50.7109 38.6536 50.6795 39.5929L50.0683 57.7852C49.99 60.1492 47.0751 62.936 45.1318 62.4976L30.2123 59.1003C29.4444 58.928 28.4101 59.2725 27.4541 60.0396L13.4436 71.2336L18.0667 57.7695C18.4272 56.7206 18.3175 55.8125 17.7533 55.3428L12.3152 50.8026C12.2212 50.5991 12.1115 50.4112 11.9548 50.2703L6.53238 45.7457C5.93686 44.2897 7.42567 41.5343 9.60403 40.501L28.8489 31.3109C29.8362 30.8413 30.8078 29.9176 31.419 28.8686L43.2355 8.48457C43.5959 7.87399 44.0347 7.34169 44.5206 6.90332L47.6549 16.2969C47.9057 17.064 48.6265 17.3928 49.5512 17.2206L51.9176 16.7509L53.4534 21.3538C53.7042 22.1052 54.4251 22.4497 55.3497 22.2775L66.79 20.0387V20.023Z" fill="#F14C4C"/>
<path d="M49.505 61.4176C50.4297 60.3686 50.9938 59.1162 51.0409 57.9733L51.652 39.7811C51.6834 39.0296 52.1379 38.0119 52.8431 37.2605L69.0633 19.0056C70.5051 17.3304 71.0536 15.3421 70.317 14.0427C69.8155 13.1816 68.8752 12.8059 67.7155 13.0407L49.5834 16.5946C49.0349 16.7042 48.7058 16.5633 48.5804 16.2032L43.6752 1.50227C43.3931 0.641197 42.7035 0.108895 41.8102 0.0149596C40.149 -0.157256 38.096 1.1735 36.9363 3.17746L25.1199 23.5615C24.587 24.4852 23.7564 25.2837 22.8945 25.6907L3.64965 34.8808C1.81606 35.7575 0.264565 37.8084 0.0294952 39.6402C-0.0958786 40.6265 0.186211 41.4562 0.81308 41.9886L11.6422 51.022C11.94 51.2725 11.9713 51.8831 11.7206 52.6033L4.731 72.9717C4.22951 74.4433 4.48025 75.6958 5.42056 76.3534C6.5019 77.1048 8.11608 76.823 9.63623 75.6019L28.1445 60.7913C28.8967 60.1964 29.7117 59.8833 30.2445 60.0085L45.164 63.4059C46.167 63.6407 47.3423 63.2806 48.4707 62.4039C48.8625 62.1064 49.2073 61.7777 49.5207 61.4176H49.505ZM51.6364 36.2741C50.6961 37.3387 50.1319 38.6225 50.0849 39.7341L49.4737 57.9263C49.4423 58.9753 48.6274 60.306 47.499 61.1827C46.7625 61.7464 46.0102 62.0125 45.4931 61.9029L30.5736 58.5056C29.555 58.2707 28.3169 58.6778 27.1572 59.6015L8.64892 74.412C7.58325 75.2574 6.68996 75.367 6.31384 75.1009C5.98473 74.866 5.95339 74.2555 6.20414 73.504L13.1937 53.1356C13.6639 51.7579 13.4601 50.5367 12.6452 49.8478L1.81606 40.7987C1.54964 40.5795 1.54964 40.1568 1.58099 39.8593C1.72203 38.6851 2.7877 37.0413 4.32353 36.3054L23.5684 27.1154C24.6967 26.5674 25.7938 25.5498 26.4676 24.36L38.2998 3.96026C39.2244 2.36335 40.7602 1.48662 41.6535 1.58055C41.9356 1.61187 42.108 1.73711 42.202 2.00326L47.0916 16.6885C47.4677 17.8158 48.5647 18.395 49.8811 18.1289L68.0133 14.575C68.4991 14.4811 68.8126 14.575 68.9536 14.8255C69.2357 15.3108 69.1417 16.6572 67.8879 17.9723L51.6677 36.2428L51.6207 36.2898L51.6364 36.2741Z" fill="#141516"/>
<path d="M48.5952 61.2768L57.9355 69.4336L55.7258 70.7643L38.3929 67.5705L28.6608 59.0693L31.5914 59.4294L45.3198 62.6545L47.2475 62.8111L48.5952 61.2768Z" fill="#141516"/>
<path d="M51.7776 37.7899L61.0869 45.9199L60.0555 47.0986L50.7462 38.9686L51.7776 37.7899Z" fill="#141516"/>
<path d="M68.3528 18.8241L77.6621 26.9541L76.6307 28.1328L67.3214 20.0028L68.3528 18.8241Z" fill="#141516"/>
<path d="M10.3878 74.3018L19.54 82.2863L17.2206 84.165L15.199 83.8362L6.48552 76.2274L10.3878 74.3018Z" fill="#141516"/>
</svg>
