<svg width="49" height="48" viewBox="0 0 49 48" fill="none" xmlns="http://www.w3.org/2000/svg">
<circle cx="24.5" cy="24" r="24" fill="#436CFF"/>
<path d="M30.5 19.9892C31.2956 19.9892 32.0587 20.3053 32.6213 20.8679C33.1839 21.4305 33.5 22.1935 33.5 22.9892C33.5 23.7848 33.1839 24.5479 32.6213 25.1105C32.0587 25.6731 31.2956 25.9892 30.5 25.9892M22.5 19.9892V30.9892C22.5 31.2544 22.3946 31.5088 22.2071 31.6963C22.0196 31.8838 21.7652 31.9892 21.5 31.9892H20.5C20.2348 31.9892 19.9804 31.8838 19.7929 31.6963C19.6054 31.5088 19.5 31.2544 19.5 30.9892V25.9892M24.5 19.9892L29.024 16.2192C29.1555 16.1097 29.3154 16.04 29.4851 16.0181C29.6548 15.9963 29.8271 16.0232 29.982 16.0959C30.1369 16.1685 30.2679 16.2837 30.3597 16.4282C30.4514 16.5726 30.5001 16.7401 30.5 16.9112V29.0672C30.5001 29.2383 30.4514 29.4058 30.3597 29.5503C30.2679 29.6947 30.1369 29.8099 29.982 29.8826C29.8271 29.9552 29.6548 29.9821 29.4851 29.9603C29.3154 29.9385 29.1555 29.8687 29.024 29.7592L24.5 25.9892H16.5C16.2348 25.9892 15.9804 25.8838 15.7929 25.6963C15.6054 25.5088 15.5 25.2544 15.5 24.9892V20.9892C15.5 20.724 15.6054 20.4696 15.7929 20.2821C15.9804 20.0946 16.2348 19.9892 16.5 19.9892H24.5Z" stroke="white" stroke-width="2" stroke-linecap="round" stroke-linejoin="round"/>
</svg>
