<svg width="2137" height="388" viewBox="0 0 2137 388" fill="none" xmlns="http://www.w3.org/2000/svg">
<path d="M967.5 372.954C837.5 431.954 886.303 286.326 845.434 256.343C794.349 218.865 685.935 292.454 565.435 256.343C474.435 229.073 161 154.454 1 288.954" stroke="black" stroke-dasharray="6 6"/>
<path d="M1298.5 342.454C1308.67 321.121 1374 284.454 1504 276.954C1663.12 267.774 1742.5 314.454 1793.5 147.454C1832.64 19.2782 2115.5 -84.0459 2136.5 103.454" stroke="black" stroke-dasharray="6 6"/>
<path d="M562.232 169.133L532.273 184.875L505.222 167.704L535.181 151.962L562.232 169.133ZM532.971 177.121L548.794 168.812L534.483 159.746L518.66 168.054L532.971 177.121Z" fill="white"/>
<path d="M562.029 172.427L532.069 188.17L505.018 170.999L534.978 155.256L562.029 172.427ZM532.767 180.415L548.59 172.106L534.28 163.04L518.456 171.349L532.767 180.415Z" fill="#FABCBC"/>
<path d="M505.222 167.734L504.873 175.867L531.924 193.009L532.273 184.875L505.222 167.734Z" fill="white"/>
<path d="M562.232 169.133L561.883 177.266L531.924 193.009L532.273 184.875L562.232 169.133Z" fill="#141516"/>
<path d="M534.483 159.746L534.134 167.879L541.58 172.602L548.794 168.812L534.483 159.746Z" fill="white"/>
<path d="M518.66 168.054L534.483 159.746L534.134 167.879L525.524 172.398L518.66 168.054Z" fill="#141516"/>
<path d="M550.481 168.871L535.356 159.279L534.541 158.755L533.669 159.221L516.973 167.996L532.913 178.112L550.481 168.871ZM541.61 171.611L534.978 167.413L535.239 161.233L547.078 168.725L541.61 171.611ZM520.347 168.113L533.582 161.174L533.32 167.355L525.554 171.436L520.347 168.142V168.113ZM527.182 172.456L534.076 168.841L539.893 172.515L533 176.13L527.211 172.456H527.182Z" fill="#141516"/>
<path d="M532.738 193.534L562.698 177.791L563.047 169.658V168.666L562.261 168.142L535.21 151L505.251 166.742L504.378 167.209V168.171H504.349L504 176.304L531.051 193.475L531.865 194L532.738 193.534ZM561.33 170.561L561.069 176.742L532.854 191.58L533.116 185.4L544.169 179.569L561.33 170.561ZM506.909 167.792L535.123 152.953L560.545 169.075L543.297 178.141L532.302 183.913L509.876 169.687L506.88 167.792H506.909ZM505.716 175.401L505.978 169.22L518.456 177.121L531.4 185.342L531.138 191.522L505.716 175.401Z" fill="#141516"/>
<path d="M271.913 304.585L303.933 322.351L304.531 357.093L272.543 339.296L271.945 304.554L271.913 304.585ZM296.534 326.358L279.627 316.955L279.942 335.32L296.849 344.723L296.534 326.358Z" fill="white"/>
<path d="M275.03 302.787L307.049 320.552L307.648 355.295L275.628 337.529L275.03 302.787ZM299.651 324.56L282.744 315.156L283.058 333.522L299.966 342.925L299.651 324.56Z" fill="#FABCBC"/>
<path d="M304.562 357.093L312.118 352.581L311.489 317.838L303.932 322.351L304.562 357.093Z" fill="white"/>
<path d="M271.913 304.585L279.469 300.073L311.489 317.839L303.933 322.351L271.913 304.585Z" fill="#141516"/>
<path d="M279.942 335.32L287.498 330.808L287.34 321.246L279.627 316.955L279.942 335.32Z" fill="white"/>
<path d="M296.88 344.723L279.942 335.32L287.498 330.808L296.723 335.92L296.88 344.723Z" fill="#141516"/>
<path d="M278.682 315.377L279.028 334.783V335.856L279.973 336.361L297.825 346.27L297.478 325.79L278.714 315.377H278.682ZM286.427 321.783L286.585 330.271L280.854 333.711L280.571 318.532L286.427 321.783ZM295.935 343.146L281.799 335.288L287.529 331.849L295.81 336.456L295.935 343.146ZM295.778 334.342L288.411 330.239L288.285 322.792L295.652 326.895L295.778 334.342Z" fill="#141516"/>
<path d="M311.489 316.797L279.469 299L271.913 303.512L271 304.049V305.122L271.598 339.864L303.618 357.63L304.531 358.134L305.444 357.598L313 353.086L312.402 318.343V317.27L311.457 316.766L311.489 316.797ZM273.771 304.554L279.501 301.114L309.663 317.87L303.933 321.278L292.094 314.714L273.771 304.554ZM303.618 355.515L273.456 338.76L272.889 306.131L291.307 316.355L303.051 322.887L303.555 351.666L303.618 355.515ZM311.174 352.076L305.444 355.515L305.16 339.517L304.877 322.887L310.607 319.448L311.174 352.076Z" fill="#141516"/>
<path d="M1747.6 68.4089L1742.68 63.5965L1739.41 65.6437C1734.41 65.564 1728.32 67.3453 1722.55 70.9613C1716.79 74.5773 1712.53 79.2833 1710.43 83.8298L1707.29 85.7973L1709.31 92.338C1709.53 93.0027 1709.79 93.6674 1710.16 94.2789C1714.02 100.447 1725.85 99.9953 1736.54 93.2951C1747.23 86.595 1752.79 76.1459 1748.9 69.9775C1748.53 69.3926 1748.08 68.8874 1747.57 68.4089H1747.6Z" fill="white"/>
<path d="M1747.79 68.515L1742.87 63.7026L1739.6 65.7499C1734.6 65.6701 1728.51 67.4515 1722.74 71.0674C1721.46 71.8651 1720.27 72.7425 1719.15 73.6199C1716.25 76.3053 1714.05 79.2565 1712.72 82.128L1710.99 83.2181C1710.86 83.4574 1710.72 83.6967 1710.62 83.9094L1709.69 84.4943L1711.57 90.6361C1711.79 91.3008 1712.05 91.9655 1712.42 92.577C1716.28 98.7454 1728.11 98.2934 1738.8 91.5933C1740.05 90.7956 1741.25 89.9714 1742.34 89.094C1749.2 82.7661 1752.2 75.029 1749.06 70.0571C1748.69 69.4722 1748.24 68.967 1747.73 68.4884L1747.79 68.515Z" fill="#8EA7FF"/>
<path d="M1736.99 93.9863C1725.93 100.926 1713.57 101.271 1709.47 94.7308C1709.26 94.3851 1709.07 94.0129 1708.89 93.5875H1708.86L1708.52 92.5772L1706.31 85.425L1709.79 83.2448C1712.08 78.459 1716.55 73.7529 1722.13 70.2433C1727.71 66.7337 1733.91 64.7662 1739.2 64.7928L1742.81 62.5329L1748.21 67.7973C1748.82 68.3822 1749.3 68.9139 1749.67 69.4989C1753.77 76.0395 1748.11 87.0203 1737.05 93.9597L1736.99 93.9863ZM1709.77 91.0617L1710.11 92.0986C1710.32 92.7899 1710.56 93.3748 1710.86 93.8534C1714.47 99.623 1725.8 99.0646 1736.09 92.6038C1746.38 86.1429 1751.8 76.199 1748.19 70.4295C1747.89 69.9775 1747.52 69.5255 1746.99 69.0469L1742.52 64.6599L1739.6 66.4944H1739.36C1734.33 66.4147 1728.35 68.3024 1722.95 71.6791C1717.56 75.0557 1713.25 79.6289 1711.15 84.1754L1711.04 84.3881L1708.22 86.1429L1709.74 91.0351L1709.77 91.0617Z" fill="#141516"/>
<path d="M1743.64 64.7926C1747.2 70.4558 1742.1 80.0806 1732.26 86.249C1722.4 92.4174 1711.55 92.8428 1707.98 87.153C1704.42 81.4898 1709.53 71.865 1719.36 65.6966C1729.2 59.5282 1740.08 59.1028 1743.64 64.7926Z" fill="white"/>
<path d="M1743.83 64.6862C1742.6 62.7453 1740.5 61.5223 1737.9 60.9905C1733.32 60.9373 1727.77 62.5858 1722.48 65.8827C1712.64 72.0777 1707.53 81.7025 1711.1 87.3657C1712.32 89.3066 1714.42 90.5296 1717.02 91.0614C1721.6 91.1146 1727.15 89.4661 1732.45 86.1692C1742.28 80.0008 1747.39 70.376 1743.83 64.7128V64.6862Z" fill="white"/>
<path d="M1732.68 86.967C1722.45 93.3747 1711.04 93.6672 1707.24 87.6317C1703.44 81.5697 1708.68 71.4397 1718.89 65.0054C1729.12 58.5977 1740.53 58.3053 1744.3 64.3407C1748.11 70.4028 1742.87 80.5328 1732.66 86.967H1732.68ZM1719.79 66.4146C1710.35 72.3437 1705.35 81.4633 1708.68 86.7277C1712 92.0187 1722.37 91.487 1731.81 85.5579C1741.25 79.6288 1746.24 70.5091 1742.92 65.2447C1739.6 59.9537 1729.23 60.4855 1719.79 66.4146Z" fill="#141516"/>
<path d="M1734.44 69.7381C1736.11 72.3969 1733.4 77.103 1728.38 80.2403C1723.38 83.3777 1717.96 83.7765 1716.28 81.1177C1714.61 78.4589 1717.32 73.7529 1722.34 70.6155C1727.34 67.4782 1732.76 67.0793 1734.44 69.7381Z" fill="white"/>
<path d="M1722.42 70.5623C1721.23 71.3068 1720.19 72.131 1719.28 73.0084C1717.74 75.1886 1717.26 77.3954 1718.22 78.9375C1719.9 81.5963 1725.29 81.1975 1730.32 78.0601C1731.51 77.3156 1732.55 76.4914 1733.46 75.614C1735 73.4338 1735.48 71.227 1734.52 69.6849C1732.84 67.0261 1727.45 67.4249 1722.42 70.5623Z" fill="#F8A5A5"/>
<path d="M1728.83 80.9582C1723.35 84.388 1717.53 84.6539 1715.59 81.5697C1713.65 78.4855 1716.41 73.3541 1721.89 69.9242C1727.37 66.4944 1733.19 66.2285 1735.13 69.3127C1737.07 72.3969 1734.31 77.5284 1728.83 80.9582ZM1722.79 71.3334C1718.25 74.1783 1715.62 78.4589 1717 80.6923C1718.41 82.9257 1723.41 82.394 1727.95 79.5491C1732.5 76.7042 1735.13 72.4235 1733.75 70.1901C1732.34 67.9567 1727.34 68.4885 1722.79 71.3334Z" fill="#141516"/>
<path d="M1724.36 73.6994C1728.3 71.2267 1732.47 70.4557 1734.89 71.5458C1734.89 70.8811 1734.76 70.243 1734.41 69.7112C1732.74 67.0525 1727.34 67.4513 1722.32 70.5886C1717.32 73.726 1714.61 78.4321 1716.25 81.0909C1716.63 81.6758 1717.16 82.0746 1717.82 82.3671C1717.82 79.7083 1720.35 76.1987 1724.36 73.6994Z" fill="#141516"/>
<path d="M1718.65 82.3672L1717.48 83.1117C1716.63 82.7394 1715.99 82.2077 1715.54 81.5164C1713.59 78.4322 1716.36 73.3007 1721.84 69.8709C1727.31 66.4411 1733.14 66.1486 1735.08 69.2594C1735.48 69.9241 1735.69 70.6951 1735.69 71.5459L1734.39 73.6198L1734.52 72.2904C1732.26 71.3067 1728.35 72.1575 1724.76 74.3908C1721.17 76.6508 1718.65 79.9211 1718.62 82.3672H1718.65ZM1722.74 71.2801C1718.19 74.125 1715.56 78.4056 1716.94 80.639C1717 80.7454 1717.08 80.8517 1717.18 80.9315C1717.88 78.2195 1720.43 75.1885 1723.91 72.9817C1727.37 70.8015 1731.09 69.8443 1733.83 70.3495C1733.8 70.2697 1733.75 70.19 1733.7 70.1368C1732.29 67.9034 1727.29 68.4352 1722.74 71.2801Z" fill="#141516"/>
<path d="M1728.32 88.7219L1732.1 95.5816L1740.21 90.5033L1746.27 84.1222L1749.12 80.0011L1750.79 74.6303L1749.12 70.0838L1744.65 65.5107L1744.7 70.004L1743.37 74.0454L1739.2 80.5594L1732.26 86.2758L1728.32 88.7219Z" fill="#141516"/>
<path d="M1710.46 89.5991L1713.2 97.0703L1709.74 93.5607L1708.04 88.2165L1710.46 89.5991Z" fill="#141516"/>
<path d="M1809.4 286.409L1814.32 281.596L1817.59 283.644C1822.59 283.564 1828.68 285.345 1834.45 288.961C1840.21 292.577 1844.47 297.283 1846.57 301.83L1849.71 303.797L1847.69 310.338C1847.47 311.003 1847.21 311.667 1846.84 312.279C1842.98 318.447 1831.15 317.995 1820.46 311.295C1809.77 304.595 1804.21 294.146 1808.1 287.978C1808.47 287.393 1808.92 286.887 1809.43 286.409H1809.4Z" fill="white"/>
<path d="M1809.21 286.515L1814.13 281.703L1817.4 283.75C1822.4 283.67 1828.49 285.451 1834.26 289.067C1835.54 289.865 1836.73 290.742 1837.85 291.62C1840.75 294.305 1842.95 297.256 1844.28 300.128L1846.01 301.218C1846.14 301.457 1846.28 301.697 1846.38 301.909L1847.31 302.494L1845.43 308.636C1845.21 309.301 1844.95 309.966 1844.58 310.577C1840.72 316.745 1828.89 316.293 1818.2 309.593C1816.95 308.796 1815.75 307.971 1814.66 307.094C1807.8 300.766 1804.8 293.029 1807.94 288.057C1808.31 287.472 1808.76 286.967 1809.27 286.488L1809.21 286.515Z" fill="#8EA7FF"/>
<path d="M1820.01 311.986C1831.07 318.926 1843.43 319.271 1847.53 312.731C1847.74 312.385 1847.93 312.013 1848.11 311.587H1848.14L1848.48 310.577L1850.69 303.425L1847.21 301.245C1844.92 296.459 1840.45 291.753 1834.87 288.243C1829.29 284.734 1823.09 282.766 1817.8 282.793L1814.19 280.533L1808.79 285.797C1808.18 286.382 1807.7 286.914 1807.33 287.499C1803.23 294.039 1808.89 305.02 1819.95 311.96L1820.01 311.986ZM1847.23 309.062L1846.89 310.099C1846.68 310.79 1846.44 311.375 1846.14 311.853C1842.53 317.623 1831.2 317.065 1820.91 310.604C1810.62 304.143 1805.2 294.199 1808.81 288.429C1809.11 287.977 1809.48 287.525 1810.01 287.047L1814.48 282.66L1817.4 284.494H1817.64C1822.67 284.415 1828.65 286.302 1834.05 289.679C1839.44 293.056 1843.75 297.629 1845.85 302.175L1845.96 302.388L1848.78 304.143L1847.26 309.035L1847.23 309.062Z" fill="#141516"/>
<path d="M1813.36 282.793C1809.8 288.456 1814.9 298.081 1824.74 304.249C1834.6 310.417 1845.45 310.843 1849.02 305.153C1852.58 299.49 1847.47 289.865 1837.64 283.697C1827.8 277.528 1816.92 277.103 1813.36 282.793Z" fill="white"/>
<path d="M1813.17 282.686C1814.4 280.745 1816.5 279.522 1819.1 278.991C1823.68 278.937 1829.23 280.586 1834.52 283.883C1844.36 290.078 1849.47 299.702 1845.9 305.366C1844.68 307.307 1842.58 308.53 1839.98 309.061C1835.4 309.115 1829.85 307.466 1824.55 304.169C1814.72 298.001 1809.61 288.376 1813.17 282.713V282.686Z" fill="white"/>
<path d="M1824.32 304.967C1834.55 311.375 1845.96 311.667 1849.76 305.632C1853.56 299.57 1848.32 289.44 1838.11 283.005C1827.88 276.598 1816.47 276.305 1812.7 282.341C1808.89 288.403 1814.13 298.533 1824.34 304.967H1824.32ZM1837.21 284.415C1846.65 290.344 1851.65 299.463 1848.32 304.728C1845 310.019 1834.63 309.487 1825.19 303.558C1815.75 297.629 1810.76 288.509 1814.08 283.245C1817.4 277.954 1827.77 278.485 1837.21 284.415Z" fill="#141516"/>
<path d="M1822.56 287.738C1820.89 290.397 1823.6 295.103 1828.62 298.24C1833.62 301.378 1839.04 301.777 1840.72 299.118C1842.39 296.459 1839.68 291.753 1834.66 288.616C1829.66 285.478 1824.24 285.079 1822.56 287.738Z" fill="white"/>
<path d="M1834.58 288.562C1835.77 289.307 1836.81 290.131 1837.72 291.008C1839.26 293.189 1839.74 295.395 1838.78 296.938C1837.1 299.596 1831.71 299.197 1826.68 296.06C1825.49 295.316 1824.45 294.491 1823.54 293.614C1822 291.434 1821.52 289.227 1822.48 287.685C1824.16 285.026 1829.55 285.425 1834.58 288.562Z" fill="#F8A5A5"/>
<path d="M1828.17 298.958C1833.65 302.388 1839.47 302.654 1841.41 299.57C1843.35 296.486 1840.59 291.354 1835.11 287.924C1829.63 284.494 1823.81 284.229 1821.87 287.313C1819.93 290.397 1822.69 295.528 1828.17 298.958ZM1834.21 289.333C1838.75 292.178 1841.38 296.459 1840 298.692C1838.59 300.926 1833.59 300.394 1829.05 297.549C1824.5 294.704 1821.87 290.424 1823.25 288.19C1824.66 285.957 1829.66 286.488 1834.21 289.333Z" fill="#141516"/>
<path d="M1832.64 291.699C1828.7 289.227 1824.53 288.456 1822.11 289.546C1822.11 288.881 1822.24 288.243 1822.59 287.711C1824.26 285.052 1829.66 285.451 1834.68 288.589C1839.68 291.726 1842.39 296.432 1840.75 299.091C1840.37 299.676 1839.84 300.075 1839.18 300.367C1839.18 297.708 1836.65 294.199 1832.64 291.699Z" fill="#141516"/>
<path d="M1838.35 300.367L1839.52 301.112C1840.37 300.739 1841.01 300.208 1841.46 299.516C1843.41 296.432 1840.64 291.301 1835.16 287.871C1829.69 284.441 1823.86 284.149 1821.92 287.259C1821.52 287.924 1821.31 288.695 1821.31 289.546L1822.61 291.62L1822.48 290.29C1824.74 289.307 1828.65 290.157 1832.24 292.391C1835.83 294.651 1838.35 297.921 1838.38 300.367H1838.35ZM1834.26 289.28C1838.81 292.125 1841.44 296.406 1840.06 298.639C1840 298.745 1839.92 298.852 1839.82 298.931C1839.12 296.219 1836.57 293.188 1833.09 290.982C1829.63 288.801 1825.91 287.844 1823.17 288.349C1823.2 288.27 1823.25 288.19 1823.3 288.137C1824.71 285.903 1829.71 286.435 1834.26 289.28Z" fill="#141516"/>
<path d="M1828.68 306.722L1824.9 313.582L1816.79 308.503L1810.73 302.122L1807.88 298.001L1806.21 292.63L1807.88 288.084L1812.35 283.511L1812.3 288.004L1813.63 292.045L1817.8 298.559L1824.74 304.276L1828.68 306.722Z" fill="#141516"/>
<path d="M1846.54 307.599L1843.8 315.07L1847.26 311.561L1848.96 306.217L1846.54 307.599Z" fill="#141516"/>
</svg>
