<svg width="721" height="641" viewBox="0 0 721 641" fill="none" xmlns="http://www.w3.org/2000/svg">
<path d="M692.192 175.305L390.349 3.01319C386.555 0.857409 383.153 0.955399 380.706 2.86621L365.897 11.7343L376.863 27.3393V261.56C376.863 271.384 382.909 282.775 390.349 287.038L672.195 447.913L686.709 468.589L700.685 460.211C703.72 458.692 705.678 454.822 705.678 449.261V200.782C705.678 190.958 699.633 179.567 692.192 175.305Z" fill="white"/>
<path d="M620.77 162.86L369.912 22.3908L365.897 13.2042L377.034 6.51636C379.482 4.60555 382.909 4.50756 386.678 6.66334L688.52 178.955C692.657 181.306 696.353 185.887 698.825 191.179L699.192 192.698L681.3 203.428L620.721 162.884L620.77 162.86Z" fill="#B4C4FF"/>
<path d="M701.2 201.737L684.972 211.414L686.391 217.489L701.2 208.376V201.737Z" fill="white"/>
<path d="M379.825 1.73932C382.835 -0.612441 386.923 -0.587943 391.059 1.76382L692.902 174.055C700.734 178.538 707.098 190.518 707.098 200.782V449.236C707.098 455.165 704.993 459.623 701.42 461.412L686.318 470.476L671.216 448.991L389.64 288.287C381.807 283.804 375.444 271.825 375.444 261.56V27.8047L363.866 11.3179L379.825 1.76382V1.73932ZM378.307 26.8983V261.56C378.307 270.894 384.035 281.771 391.084 285.789L672.929 446.664L687.125 466.654L690.136 464.841L690.699 460.383L701.738 453.572C703.255 452.641 704.259 451.025 704.259 449.261V200.782C704.259 191.448 698.531 180.572 691.482 176.554L389.64 4.26257C386.507 2.47425 383.643 2.40076 381.44 4.11559L367.954 12.1998L378.283 26.9228L378.307 26.8983Z" fill="#141516"/>
<path d="M463.582 386.963L524.773 352.201C530.697 348.821 540.659 349.213 547.438 353.083L584.667 374.347L602.363 382.26V390.344H602.241C601.849 392.451 600.356 394.288 597.958 395.66L522.546 438.555C519.829 440.099 516.28 440.858 512.584 440.858C508.178 440.858 503.552 439.78 499.881 437.673L450.879 409.697C447.306 407.664 445.225 404.969 444.98 401.907C444.98 401.662 444.98 401.393 444.98 401.246V394.68L463.558 386.988L463.582 386.963Z" fill="#141516"/>
<path d="M597.297 388.188L521.885 431.059C516.427 434.17 506.93 433.778 500.639 430.177L451.638 402.201C445.347 398.6 444.662 393.186 450.12 390.075L525.532 347.179C530.99 344.068 540.487 344.46 546.777 348.061L595.779 376.038C602.069 379.639 602.755 385.053 597.297 388.164V388.188Z" fill="white"/>
<path d="M458.369 396.395L478.856 384.244C485.538 380.276 493.86 380.202 500.615 384.073L551.942 413.445L520.931 431.084C515.473 434.195 505.976 433.803 499.685 430.202L459.911 408.497C453.621 404.896 452.935 399.482 458.394 396.371L458.369 396.395Z" fill="#C7D3FF"/>
<path d="M512.633 434.636C516.329 434.636 519.878 433.876 522.595 432.333L598.007 389.462C600.846 387.845 602.412 385.518 602.412 382.946C602.412 379.933 600.258 376.993 596.489 374.837L547.487 346.861C540.707 342.99 530.746 342.598 524.822 345.979L449.411 388.874C446.571 390.491 445.005 392.818 445.005 395.391C445.005 398.404 447.159 401.344 450.928 403.499L499.93 431.476C503.626 433.582 508.227 434.66 512.633 434.66V434.636ZM596.587 386.963L521.175 429.834C516.133 432.725 507.224 432.333 501.349 428.977L452.348 401.001C449.509 399.384 447.869 397.326 447.869 395.391C447.869 393.455 449.484 392.132 450.83 391.373L526.242 348.478C531.309 345.587 540.193 345.979 546.068 349.36L595.069 377.336C597.909 378.953 599.549 381.011 599.549 382.946C599.549 384.881 597.933 386.204 596.587 386.963Z" fill="#141516"/>
<path d="M365.897 10.0195C368.81 8.32918 372.481 8.57415 376.202 10.6809L678.044 182.972C685.877 187.431 692.241 199.435 692.241 209.699V458.153C692.241 463.714 689.989 466.189 688.129 467.266C686.905 467.977 685.461 468.32 683.845 468.32C681.275 468.32 678.338 467.438 675.254 465.674L374.782 297.18C366.95 292.697 360.586 280.718 360.586 270.453V22.0233C360.586 16.3644 362.52 12.0038 365.922 10.0195H365.897Z" fill="#141516"/>
<path d="M362.006 241.595V271.702C362.006 280.84 368.492 291.937 376.496 296.518L676.307 467.658C684.311 472.215 690.797 468.516 690.797 459.378V429.271L362.006 241.595Z" fill="#B4C4FF"/>
<path d="M682.793 471.064C684.433 471.064 685.975 470.672 687.321 469.888C690.478 468.05 692.241 464.327 692.241 459.403V428.462L691.531 428.046L360.562 239.145V271.727C360.562 281.305 367.39 292.991 375.786 297.792L675.597 468.932C678.118 470.353 680.541 471.088 682.793 471.088V471.064ZM689.377 430.104V459.378C689.377 463.249 688.129 466.09 685.901 467.389C683.625 468.712 680.467 468.369 677.041 466.409L377.23 295.269C369.642 290.933 363.45 280.35 363.45 271.702V244.045L689.401 430.079L689.377 430.104Z" fill="#141516"/>
<path d="M671.191 399.31L381.636 234.025C379.017 232.531 376.888 228.513 376.888 225.035V35.2765C376.888 31.8223 379.017 30.23 381.636 31.7243L671.191 197.009C673.81 198.504 675.94 202.521 675.94 206V395.783C675.94 399.237 673.81 400.829 671.191 399.335V399.31Z" fill="white"/>
<path d="M673.076 401.319C673.761 401.319 674.422 401.147 675.034 400.805C676.527 399.947 677.384 398.11 677.384 395.783V205.975C677.384 202.007 674.985 197.499 671.901 195.76L382.321 30.475C380.706 29.5441 379.09 29.4706 377.769 30.23C376.276 31.0874 375.419 32.9247 375.419 35.252V225.059C375.419 229.052 377.818 233.535 380.902 235.275L670.481 400.56C671.363 401.074 672.244 401.319 673.076 401.319ZM379.727 32.5818C380.167 32.5818 380.632 32.8022 380.902 32.9492L670.481 198.234C672.66 199.484 674.52 203.036 674.52 205.975V395.758C674.52 397.007 674.177 397.987 673.614 398.306C673.076 398.624 672.317 398.306 671.925 398.061L382.346 232.776C380.167 231.526 378.307 227.974 378.307 225.035V35.2765C378.307 34.0271 378.65 33.0472 379.213 32.7287C379.384 32.6308 379.555 32.6063 379.727 32.6063V32.5818Z" fill="#141516"/>
<path d="M685.731 181.625C686.587 182.115 686.587 182.923 685.731 183.438C684.874 183.928 683.479 183.928 682.598 183.438C681.741 182.948 681.741 182.139 682.598 181.625C683.454 181.135 684.849 181.135 685.731 181.625Z" fill="#141516"/>
<path d="M677.556 176.921C678.412 177.411 678.412 178.22 677.556 178.734C676.699 179.224 675.304 179.224 674.423 178.734C673.566 178.244 673.566 177.436 674.423 176.921C675.279 176.431 676.675 176.431 677.556 176.921Z" fill="#141516"/>
<path d="M669.38 172.193C670.237 172.683 670.237 173.492 669.38 174.006C668.523 174.521 667.128 174.496 666.247 174.006C665.39 173.516 665.39 172.708 666.247 172.193C667.104 171.703 668.499 171.703 669.38 172.193Z" fill="#141516"/>
<path d="M661.23 167.465C662.086 167.955 662.086 168.764 661.23 169.278C660.373 169.768 658.978 169.768 658.097 169.278C657.24 168.788 657.24 167.98 658.097 167.465C658.953 166.975 660.348 166.975 661.23 167.465Z" fill="#141516"/>
<path d="M653.055 162.762C653.911 163.252 653.911 164.06 653.055 164.575C652.198 165.065 650.803 165.065 649.922 164.575C649.065 164.085 649.065 163.276 649.922 162.762C650.778 162.247 652.174 162.272 653.055 162.762Z" fill="#141516"/>
<path d="M644.806 157.985C645.663 158.475 645.663 159.283 644.806 159.798C643.949 160.312 642.554 160.288 641.673 159.798C640.792 159.308 640.817 158.499 641.673 157.985C642.53 157.495 643.925 157.495 644.806 157.985Z" fill="#141516"/>
<path d="M636.655 153.257C637.512 153.747 637.512 154.555 636.655 155.07C635.799 155.56 634.404 155.56 633.522 155.07C632.666 154.58 632.666 153.771 633.522 153.257C634.379 152.767 635.774 152.767 636.655 153.257Z" fill="#141516"/>
<path d="M628.481 148.553C629.337 149.043 629.337 149.852 628.481 150.366C627.624 150.856 626.229 150.856 625.348 150.366C624.491 149.876 624.491 149.068 625.348 148.553C626.204 148.063 627.599 148.063 628.481 148.553Z" fill="#141516"/>
<path d="M620.305 143.825C621.161 144.315 621.161 145.124 620.305 145.638C619.448 146.128 618.053 146.128 617.172 145.638C616.315 145.148 616.315 144.34 617.172 143.825C618.028 143.335 619.424 143.335 620.305 143.825Z" fill="#141516"/>
<path d="M612.13 139.097C612.987 139.587 612.987 140.396 612.13 140.91C611.273 141.4 609.878 141.4 608.997 140.91C608.14 140.42 608.14 139.612 608.997 139.097C609.854 138.607 611.249 138.607 612.13 139.097Z" fill="#141516"/>
<path d="M603.98 134.394C604.836 134.884 604.836 135.692 603.98 136.206C603.123 136.696 601.728 136.696 600.847 136.206C599.99 135.716 599.99 134.908 600.847 134.394C601.703 133.904 603.098 133.904 603.98 134.394Z" fill="#141516"/>
<path d="M595.805 129.666C596.661 130.156 596.661 130.964 595.805 131.478C594.948 131.968 593.553 131.968 592.672 131.478C591.815 130.988 591.815 130.18 592.672 129.666C593.528 129.176 594.924 129.176 595.805 129.666Z" fill="#141516"/>
<path d="M587.629 124.938C588.486 125.428 588.486 126.236 587.629 126.75C586.772 127.24 585.377 127.24 584.496 126.75C583.639 126.26 583.639 125.452 584.496 124.938C585.353 124.448 586.748 124.448 587.629 124.938Z" fill="#141516"/>
<path d="M579.405 120.185C580.262 120.675 580.262 121.483 579.405 121.998C578.549 122.488 577.154 122.488 576.272 121.998C575.416 121.508 575.416 120.699 576.272 120.185C577.129 119.695 578.524 119.695 579.405 120.185Z" fill="#141516"/>
<path d="M571.231 115.457C572.087 115.947 572.087 116.755 571.231 117.27C570.374 117.76 568.979 117.76 568.098 117.27C567.241 116.78 567.241 115.971 568.098 115.457C568.954 114.967 570.349 114.967 571.231 115.457Z" fill="#141516"/>
<path d="M563.055 110.729C563.911 111.219 563.911 112.027 563.055 112.542C562.198 113.032 560.803 113.032 559.922 112.542C559.065 112.052 559.065 111.243 559.922 110.729C560.778 110.239 562.174 110.239 563.055 110.729Z" fill="#141516"/>
<path d="M554.88 106.001C555.737 106.491 555.737 107.299 554.88 107.814C554.023 108.304 552.628 108.304 551.747 107.814C550.89 107.324 550.89 106.515 551.747 106.001C552.604 105.511 553.999 105.511 554.88 106.001Z" fill="#141516"/>
<path d="M432.89 36.9178C433.746 37.4078 433.746 38.2162 432.89 38.7306C432.033 39.2206 430.638 39.2206 429.757 38.7306C428.9 38.2407 428.9 37.4323 429.757 36.9178C430.613 36.4279 432.009 36.4279 432.89 36.9178Z" fill="#141516"/>
<path d="M424.715 32.1898C425.572 32.6797 425.572 33.4882 424.715 34.0026C423.858 34.4926 422.463 34.4926 421.582 34.0026C420.725 33.5127 420.725 32.7042 421.582 32.1898C422.439 31.6998 423.834 31.6998 424.715 32.1898Z" fill="#141516"/>
<path d="M416.564 27.4618C417.42 27.9517 417.42 28.7601 416.564 29.2746C415.707 29.7645 414.312 29.7645 413.431 29.2746C412.574 28.7846 412.574 27.9762 413.431 27.4618C414.287 26.9718 415.682 26.9718 416.564 27.4618Z" fill="#141516"/>
<path d="M408.389 22.7582C409.245 23.2482 409.245 24.0566 408.389 24.5711C407.532 25.061 406.137 25.061 405.256 24.5711C404.399 24.0811 404.399 23.2727 405.256 22.7582C406.112 22.2683 407.508 22.2683 408.389 22.7582Z" fill="#141516"/>
<path d="M400.214 18.0302C401.071 18.5202 401.071 19.3286 400.214 19.843C399.357 20.333 397.962 20.333 397.081 19.843C396.224 19.3531 396.224 18.5447 397.081 18.0302C397.938 17.5403 399.333 17.5403 400.214 18.0302Z" fill="#141516"/>
<path d="M391.965 13.2532C392.822 13.7431 392.822 14.5515 391.965 15.066C391.109 15.5559 389.714 15.5559 388.832 15.066C387.951 14.576 387.976 13.7676 388.832 13.2532C389.689 12.7632 391.084 12.7632 391.965 13.2532Z" fill="#141516"/>
<path d="M383.815 8.54965C384.671 9.0396 384.671 9.84802 383.815 10.3625C382.958 10.8524 381.563 10.8524 380.682 10.3625C379.825 9.87252 379.825 9.0641 380.682 8.54965C381.538 8.0597 382.933 8.0597 383.815 8.54965Z" fill="#141516"/>
<path d="M512.976 427.752C513.833 428.242 513.833 429.05 512.976 429.565C512.119 430.055 510.724 430.055 509.843 429.565C508.962 429.075 508.986 428.266 509.843 427.752C510.7 427.262 512.095 427.262 512.976 427.752Z" fill="#141516"/>
<path d="M521.151 423.024C522.008 423.514 522.008 424.322 521.151 424.837C520.295 425.327 518.9 425.327 518.018 424.837C517.162 424.347 517.162 423.538 518.018 423.024C518.875 422.534 520.27 422.534 521.151 423.024Z" fill="#141516"/>
<path d="M529.326 418.296C530.183 418.786 530.183 419.594 529.326 420.109C528.47 420.599 527.074 420.599 526.193 420.109C525.337 419.619 525.337 418.81 526.193 418.296C527.05 417.806 528.445 417.806 529.326 418.296Z" fill="#141516"/>
<path d="M537.478 413.592C538.334 414.082 538.334 414.891 537.478 415.405C536.621 415.895 535.226 415.895 534.345 415.405C533.488 414.915 533.488 414.107 534.345 413.592C535.201 413.102 536.596 413.102 537.478 413.592Z" fill="#141516"/>
<path d="M545.652 408.864C546.509 409.354 546.509 410.163 545.652 410.677C544.796 411.192 543.401 411.167 542.519 410.677C541.663 410.187 541.663 409.379 542.519 408.864C543.376 408.374 544.771 408.374 545.652 408.864Z" fill="#141516"/>
<path d="M553.827 404.136C554.684 404.626 554.684 405.435 553.827 405.949C552.971 406.439 551.575 406.439 550.694 405.949C549.838 405.459 549.838 404.651 550.694 404.136C551.551 403.646 552.946 403.646 553.827 404.136Z" fill="#141516"/>
<path d="M504.801 423.024C505.658 423.514 505.658 424.322 504.801 424.837C503.944 425.327 502.549 425.327 501.668 424.837C500.811 424.347 500.811 423.538 501.668 423.024C502.525 422.534 503.92 422.534 504.801 423.024Z" fill="#141516"/>
<path d="M512.977 418.296C513.833 418.786 513.833 419.594 512.977 420.109C512.12 420.599 510.725 420.599 509.844 420.109C508.987 419.619 508.987 418.81 509.844 418.296C510.7 417.806 512.095 417.806 512.977 418.296Z" fill="#141516"/>
<path d="M521.151 413.592C522.008 414.082 522.008 414.891 521.151 415.405C520.295 415.895 518.9 415.895 518.018 415.405C517.162 414.915 517.162 414.107 518.018 413.592C518.875 413.102 520.27 413.102 521.151 413.592Z" fill="#141516"/>
<path d="M529.326 408.864C530.183 409.354 530.183 410.163 529.326 410.677C528.47 411.167 527.074 411.167 526.193 410.677C525.337 410.187 525.337 409.379 526.193 408.864C527.05 408.374 528.445 408.374 529.326 408.864Z" fill="#141516"/>
<path d="M537.478 404.136C538.334 404.626 538.334 405.435 537.478 405.949C536.621 406.439 535.226 406.439 534.345 405.949C533.488 405.459 533.488 404.651 534.345 404.136C535.201 403.646 536.596 403.646 537.478 404.136Z" fill="#141516"/>
<path d="M545.652 399.433C546.509 399.923 546.509 400.731 545.652 401.246C544.796 401.735 543.401 401.735 542.519 401.246C541.663 400.756 541.663 399.947 542.519 399.433C543.376 398.918 544.771 398.943 545.652 399.433Z" fill="#141516"/>
<path d="M496.65 418.296C497.507 418.786 497.507 419.594 496.65 420.109C495.794 420.599 494.399 420.599 493.518 420.109C492.661 419.619 492.661 418.81 493.518 418.296C494.374 417.806 495.769 417.806 496.65 418.296Z" fill="#141516"/>
<path d="M504.801 413.592C505.658 414.082 505.658 414.891 504.801 415.405C503.944 415.895 502.549 415.895 501.668 415.405C500.811 414.915 500.811 414.107 501.668 413.592C502.525 413.102 503.92 413.102 504.801 413.592Z" fill="#141516"/>
<path d="M512.977 408.864C513.833 409.354 513.833 410.163 512.977 410.677C512.12 411.167 510.725 411.167 509.844 410.677C508.987 410.187 508.987 409.379 509.844 408.864C510.7 408.374 512.095 408.374 512.977 408.864Z" fill="#141516"/>
<path d="M521.151 404.136C522.008 404.626 522.008 405.435 521.151 405.949C520.295 406.439 518.9 406.439 518.018 405.949C517.162 405.459 517.162 404.651 518.018 404.136C518.875 403.646 520.27 403.646 521.151 404.136Z" fill="#141516"/>
<path d="M529.326 399.433C530.183 399.923 530.183 400.731 529.326 401.246C528.47 401.735 527.074 401.735 526.193 401.246C525.337 400.756 525.337 399.947 526.193 399.433C527.05 398.918 528.445 398.943 529.326 399.433Z" fill="#141516"/>
<path d="M537.478 394.705C538.334 395.195 538.334 396.003 537.478 396.518C536.621 397.007 535.226 397.007 534.345 396.518C533.488 396.028 533.488 395.219 534.345 394.705C535.201 394.215 536.596 394.215 537.478 394.705Z" fill="#141516"/>
<path d="M521.151 394.705C522.008 395.195 522.008 396.003 521.151 396.518C520.295 397.032 518.9 397.007 518.018 396.518C517.162 396.028 517.162 395.219 518.018 394.705C518.875 394.215 520.27 394.215 521.151 394.705Z" fill="#141516"/>
<path d="M529.326 389.977C530.183 390.467 530.183 391.275 529.326 391.789C528.47 392.279 527.074 392.279 526.193 391.789C525.337 391.299 525.337 390.491 526.193 389.977C527.05 389.487 528.445 389.487 529.326 389.977Z" fill="#141516"/>
<path d="M512.903 389.928C513.76 390.418 513.76 391.226 512.903 391.741C512.047 392.23 510.652 392.23 509.77 391.741C508.914 391.251 508.914 390.442 509.77 389.928C510.627 389.438 512.022 389.438 512.903 389.928Z" fill="#141516"/>
<path d="M521.078 385.224C521.935 385.714 521.935 386.523 521.078 387.037C520.222 387.527 518.826 387.527 517.945 387.037C517.089 386.547 517.089 385.739 517.945 385.224C518.802 384.71 520.197 384.734 521.078 385.224Z" fill="#141516"/>
<path d="M504.752 385.224C505.609 385.714 505.609 386.523 504.752 387.037C503.895 387.527 502.5 387.527 501.619 387.037C500.762 386.547 500.762 385.739 501.619 385.224C502.476 384.71 503.871 384.734 504.752 385.224Z" fill="#141516"/>
<path d="M512.903 380.496C513.76 380.986 513.76 381.794 512.903 382.309C512.047 382.799 510.652 382.799 509.77 382.309C508.914 381.819 508.914 381.011 509.77 380.496C510.627 380.006 512.022 380.006 512.903 380.496Z" fill="#141516"/>
<path d="M496.577 380.496C497.434 380.986 497.434 381.794 496.577 382.309C495.721 382.799 494.325 382.799 493.444 382.309C492.588 381.819 492.588 381.011 493.444 380.496C494.301 380.006 495.696 380.006 496.577 380.496Z" fill="#141516"/>
<path d="M504.752 375.768C505.609 376.258 505.609 377.066 504.752 377.581C503.895 378.071 502.5 378.071 501.619 377.581C500.762 377.091 500.762 376.283 501.619 375.768C502.476 375.278 503.871 375.278 504.752 375.768Z" fill="#141516"/>
<path d="M508.922 528.23L374.114 606.061H374.094L188.057 498.654C188.057 498.654 188.057 498.634 188.057 498.614L322.865 426.929H322.885L508.922 528.19C508.922 528.19 508.922 528.21 508.922 528.23Z" fill="#F78F8F"/>
<path d="M374.075 607.279L373.516 606.92L187.02 499.253V498.075L187.499 497.756L322.905 425.752L323.424 426.091L509.921 527.591V528.809L509.402 529.128L374.035 607.279H374.075ZM190.133 498.694L374.095 604.904L506.847 528.25L322.846 428.107L190.113 498.694H190.133Z" fill="#141516"/>
<path d="M508.922 493.665L374.114 571.496H374.094L188.057 464.089C188.057 464.089 188.057 464.069 188.057 464.049L322.865 386.217H322.885L508.922 493.625C508.922 493.625 508.922 493.645 508.922 493.665Z" fill="#F8A5A5"/>
<path d="M374.075 572.694L373.516 572.334L187.02 464.668V463.49L187.499 463.171L322.885 385L323.444 385.359L509.901 493.006L509.98 494.204L509.422 494.543L374.055 572.694H374.075ZM190.073 464.069L374.095 570.319L506.907 493.645L322.865 387.395L190.073 464.069Z" fill="#141516"/>
<path d="M503.834 496.598L374.115 571.496H374.095L188.058 464.089H188.018V469.158L374.075 576.605H374.095L503.774 501.727H503.814V531.144L374.095 606.041H374.075L188.038 498.634H187.998V503.703L374.055 611.15H374.075L508.903 533.299V493.625C508.903 493.625 508.903 493.605 508.863 493.625L503.774 496.558L503.834 496.598Z" fill="#4F5157"/>
<path d="M374.075 612.388L373.516 612.029L187.599 504.701L187 504.501V498.075L188.058 497.476L188.597 497.796L374.115 604.904L502.816 530.605V503.523L374.095 577.843L373.536 577.483L187.02 469.796V463.51L188.078 462.911L188.616 463.231L374.135 570.339L508.943 492.507L510.001 493.066V533.898L509.542 534.217L374.095 612.408L374.075 612.388ZM189.056 503.164L374.115 610.013L507.945 532.74V495.401L374.095 572.674L373.536 572.314L189.056 465.805V468.559L374.115 575.388L503.814 500.51L504.852 501.109V531.722L504.353 532.022L374.095 607.239L373.536 606.88L189.056 500.37V503.124V503.164Z" fill="#141516"/>
<path d="M503.794 531.144L496.19 525.995V506.018L503.794 501.727H503.834V531.104C503.834 531.104 503.834 531.124 503.794 531.104V531.144Z" fill="white"/>
<path d="M503.814 532.341L503.215 532.002L495.173 526.554V505.479L495.632 505.16L503.814 500.55L504.852 501.149V531.722L503.834 532.341H503.814ZM497.208 525.476L502.796 529.268V503.504L497.208 506.657V525.496V525.476Z" fill="#141516"/>
<path d="M192.908 472.052V495.8L373.298 600.114H373.318L499.045 527.951V504.441C499.045 504.441 499.045 504.421 499.005 504.441L374.076 576.645H374.056L192.908 472.072H192.868L192.908 472.052Z" fill="#B4C4FF"/>
<path d="M373.277 601.312L372.738 600.953L191.909 496.399V471.433L192.987 470.834L193.526 471.173L374.115 575.428L499.044 503.224L500.082 503.823V528.469L499.623 528.789L373.277 601.292V601.312ZM193.925 495.221L373.297 598.937L498.026 527.352V506.178L374.055 577.823L373.496 577.463L193.905 473.788V495.221H193.925Z" fill="#141516"/>
<path d="M487.27 499.093L373.596 564.731H373.576L208.653 469.856C208.653 469.856 208.653 469.836 208.653 469.816L322.327 404.178H322.347L487.27 499.053C487.27 499.053 487.27 499.073 487.27 499.093Z" fill="white"/>
<path d="M373.596 560.041L373.257 559.941L207.636 464.688V463.53L208.095 463.211L322.387 397.234L322.946 397.593L488.328 492.727V493.924L487.809 494.244L373.936 559.961L373.616 560.061L373.596 560.041ZM210.669 464.069L373.596 557.786L485.255 493.306L322.327 399.588L210.669 464.069Z" fill="#141516"/>
<path d="M374.075 586.025L373.516 585.666L199.034 484.924L200.072 483.148L374.095 583.63L491.76 515.637L492.778 517.413L374.075 586.025Z" fill="#141516"/>
<path d="M374.075 593.09L373.516 592.73L199.034 491.988L200.072 490.232L374.095 590.695L491.76 522.702L492.778 524.478L374.075 593.09Z" fill="#141516"/>
<path d="M373.382 571.496L373.358 576.026L374.895 576.034L374.919 571.504L373.382 571.496Z" fill="white"/>
<path d="M373.38 606.083L373.356 610.613L374.893 610.621L374.917 606.091L373.38 606.083Z" fill="white"/>
<path d="M548.337 612.426L546.002 599.434C554.064 597.958 577.115 591.092 577.115 579.238C577.115 575.127 575.678 574.089 575.199 573.73C572.105 571.475 564.502 572.413 560.331 573.77L556.22 561.237C557.916 560.678 573.143 555.968 582.922 563.053C586.295 565.488 590.306 570.277 590.306 579.258C590.306 604.164 552.628 611.668 548.337 612.446V612.426Z" fill="#B4C4FF"/>
<path d="M562.905 573.111L561.688 569.419C563.384 568.86 578.611 564.151 588.39 571.235C588.47 571.295 588.53 571.355 588.609 571.415C587.153 567.344 584.718 564.729 582.523 563.153C572.744 556.068 557.517 560.778 555.82 561.337L559.931 573.87C560.79 573.59 561.827 573.331 562.905 573.111Z" fill="white"/>
<path d="M551.489 607.617C559.552 606.14 582.602 599.275 582.602 587.42C582.602 583.309 581.165 582.271 580.686 581.912C579.708 581.194 578.251 580.835 576.615 580.675C574.959 591.691 553.365 598.097 545.622 599.514L547.957 612.506C548.636 612.386 550.152 612.087 552.208 611.588L551.489 607.597V607.617Z" fill="white"/>
<path d="M582.783 563.033C582.544 562.873 582.304 562.734 582.065 562.574C583.981 565.348 585.477 569.24 585.477 574.708C585.477 596.042 557.877 604.603 547.24 607.098L548.198 612.406C552.489 611.628 590.167 604.144 590.167 579.218C590.167 570.238 586.156 565.448 582.783 563.013V563.033Z" fill="#4F5157"/>
<path d="M547.479 613.663L544.765 598.576L545.822 598.377C555.681 596.58 576.057 589.536 576.057 579.238C576.057 576.863 575.558 575.307 574.58 574.608C571.926 572.692 564.682 573.51 560.67 574.788L559.652 575.107L554.883 560.538L555.901 560.199C557.657 559.62 573.323 554.731 583.581 562.155C587.153 564.729 591.404 569.798 591.404 579.218C591.404 604.982 552.947 612.666 548.556 613.444L547.499 613.624L547.479 613.663ZM547.239 600.272L549.195 611.169C556.519 609.712 589.228 601.869 589.228 579.238C589.228 570.716 585.457 566.186 582.283 563.911C573.941 557.884 561.409 560.818 557.557 561.935L561.009 572.453C565.6 571.175 572.624 570.557 575.817 572.872C576.396 573.291 578.172 574.568 578.172 579.238C578.172 591.412 556.759 598.337 547.239 600.272Z" fill="#4F5157"/>
<path d="M566.04 547.507H466.096C466.096 547.507 465.497 575.107 473.919 590.873C481.483 605.022 483.479 619.152 483.818 621.926C483.818 622.065 483.858 622.225 483.878 622.365V622.444C484.456 627.054 487.989 631.565 494.435 634.937C507.666 641.842 528.082 641.284 540.016 633.7C545.085 630.467 547.779 626.496 548.218 622.464V622.385C548.238 622.265 548.258 622.125 548.278 622.005C548.578 619.431 550.553 605.142 558.197 590.873C566.639 575.107 566.02 547.507 566.02 547.507H566.04Z" fill="#B4C4FF"/>
<path d="M491.541 627.054V626.975C491.521 626.835 491.501 626.675 491.481 626.536C491.142 623.762 489.146 609.612 481.583 595.483C473.141 579.717 473.76 552.117 473.76 552.117H566C566.08 549.343 566.04 547.666 566.04 547.666H466.096C466.096 547.666 465.497 575.267 473.919 591.032C481.483 605.182 483.479 619.311 483.818 622.085C483.818 622.225 483.858 622.385 483.878 622.524V622.604C484.456 627.214 487.989 631.724 494.435 635.097C495.373 635.596 496.351 636.035 497.368 636.434C493.916 633.62 491.96 630.367 491.541 627.054Z" fill="white"/>
<path d="M566.039 547.646H508.902L539.676 562.215C539.676 562.215 540.274 589.815 531.853 605.581C524.209 619.85 522.253 634.139 521.934 636.714C521.934 636.833 521.894 636.953 521.894 637.093V637.173C521.794 638.011 521.595 638.849 521.295 639.687C528.28 639.048 534.926 637.093 540.035 633.86C545.104 630.627 547.798 626.655 548.237 622.624V622.544C548.257 622.424 548.277 622.285 548.297 622.165C548.596 619.591 550.572 605.302 558.216 591.032C566.657 575.267 566.039 547.666 566.039 547.666V547.646Z" fill="#4F5157"/>
<path d="M516.167 640.845C508.244 640.845 500.281 639.208 493.955 635.915C487.828 632.722 483.957 628.352 482.979 623.542H482.919L482.759 622.025C482.44 619.411 480.464 605.361 472.98 591.392C464.519 575.566 464.998 548.624 465.018 547.487V546.449H567.077V547.487C567.117 548.624 567.616 575.546 559.134 591.392C551.61 605.441 549.654 619.471 549.335 622.145V622.385C548.776 627.154 545.783 631.325 540.594 634.618C534.108 638.749 525.167 640.845 516.167 640.845ZM484.895 622.025L484.935 622.325C485.493 626.775 489.046 630.926 494.933 633.999C507.845 640.725 527.822 640.206 539.437 632.802C544.067 629.848 546.741 626.236 547.16 622.345L547.28 621.387C547.758 617.715 549.934 604.044 557.258 590.374C564.542 576.743 564.961 553.733 564.961 548.584H467.153C467.153 553.753 467.572 576.763 474.856 590.374C482.52 604.683 484.535 619.072 484.875 621.806V622.025H484.895Z" fill="#4F5157"/>
<path d="M553.186 566.885C534.706 578.639 503.095 579.517 482.579 568.821C462.064 558.124 460.407 539.923 478.887 528.169C497.367 516.414 528.979 515.536 549.494 526.233C570.01 536.93 571.666 555.13 553.186 566.885Z" fill="white"/>
<path d="M516.246 577.342C504.073 577.342 491.839 574.848 482.1 569.759C471.443 564.211 465.376 556.527 465.017 548.145C464.678 540.362 469.408 532.938 478.348 527.251C497.088 515.336 529.238 514.438 550.013 525.275C560.67 530.823 566.737 538.506 567.096 546.888C567.435 554.671 562.706 562.095 553.765 567.783C543.806 574.129 530.056 577.342 516.246 577.342ZM515.827 519.807C502.436 519.807 489.125 522.92 479.486 529.067C471.224 534.315 466.853 541.061 467.152 548.046C467.472 555.629 473.139 562.674 483.098 567.863C503.274 578.38 534.467 577.542 552.627 565.987C560.89 560.738 565.26 553.993 564.961 547.008C564.641 539.424 558.974 532.379 549.015 527.191C539.556 522.261 527.661 519.827 515.827 519.827V519.807Z" fill="#4F5157"/>
<path d="M545.804 563.013C530.996 572.433 505.69 573.131 489.246 564.57C472.822 556.008 471.504 541.42 486.292 532.02C501.1 522.601 526.405 521.902 542.85 530.464C559.274 539.025 560.592 553.614 545.804 563.013Z" fill="#4F5157"/>
<path d="M516.207 571.615C506.408 571.615 496.589 569.599 488.746 565.528C480.145 561.037 475.235 554.831 474.936 548.026C474.657 541.719 478.488 535.712 485.713 531.102C500.78 521.523 526.624 520.805 543.328 529.506C551.929 533.996 556.839 540.203 557.138 547.008C557.418 553.314 553.586 559.321 546.362 563.931C538.359 569.02 527.303 571.615 516.187 571.615H516.207ZM515.868 525.534C505.191 525.534 494.574 528.029 486.87 532.918C480.324 537.089 476.852 542.418 477.091 547.946C477.351 553.953 481.841 559.521 489.744 563.632C505.849 572.014 530.735 571.355 545.224 562.135C551.77 557.964 555.242 552.636 555.003 547.108C554.743 541.101 550.253 535.533 542.35 531.422C534.807 527.49 525.307 525.534 515.868 525.534Z" fill="#4F5157"/>
<path d="M486.311 549.103C483.038 551.179 480.624 553.514 478.907 555.968C481.102 559.142 484.535 562.115 489.245 564.57C505.669 573.131 530.994 572.433 545.802 563.033C549.075 560.958 551.49 558.623 553.206 556.168C551.011 552.995 547.579 550.021 542.869 547.567C526.444 539.005 501.119 539.704 486.311 549.123V549.103Z" fill="#F78F8F"/>
<path d="M516.206 571.615C506.407 571.615 496.588 569.599 488.745 565.528C484.035 563.073 480.423 560.06 478.028 556.587L477.609 555.968L478.028 555.35C479.884 552.676 482.479 550.261 485.732 548.185C500.799 538.606 526.643 537.888 543.347 546.589C548.057 549.043 551.669 552.057 554.064 555.529L554.483 556.148L554.064 556.767C552.188 559.461 549.613 561.856 546.361 563.931C538.358 569.02 527.302 571.615 516.186 571.615H516.206ZM480.224 555.988C482.419 558.922 485.612 561.496 489.743 563.632C505.848 572.034 530.734 571.355 545.223 562.135C547.977 560.379 550.212 558.383 551.889 556.168C549.693 553.234 546.5 550.68 542.369 548.525C526.264 540.143 501.378 540.801 486.889 550.021C484.135 551.777 481.9 553.793 480.224 555.988Z" fill="#4F5157"/>
<path d="M529.337 548.105C531.273 546.868 532.929 545.571 534.426 544.214C518.64 539.464 498.783 541.121 486.31 549.043C483.037 551.119 480.623 553.454 478.906 555.909C479.046 556.108 479.246 556.308 479.385 556.507C496.927 559.221 516.345 556.348 529.317 548.105H529.337Z" fill="white"/>
<path d="M530.097 547.746C515.249 544.613 498.027 546.649 486.811 553.793C485.194 554.811 483.797 555.909 482.58 557.046C499.264 558.982 517.205 555.988 529.419 548.225C529.658 548.066 529.858 547.906 530.097 547.746Z" fill="#F78F8F"/>
<path d="M492.518 558.583C488.107 558.583 483.637 558.243 479.226 557.565L478.807 557.505L478.368 556.946C478.249 556.807 478.129 556.667 478.049 556.527L477.63 555.909L478.049 555.29C479.905 552.616 482.499 550.201 485.752 548.125C498.126 540.242 518.262 538.207 534.746 543.176L536.562 543.715L535.165 544.992C533.469 546.529 531.773 547.846 529.937 549.003C520.198 555.19 506.627 558.583 492.538 558.583H492.518ZM480.484 555.589C498.185 558.124 516.605 554.931 528.759 547.207C529.957 546.449 531.094 545.611 532.212 544.693C516.685 540.602 498.305 542.677 486.89 549.941C484.275 551.618 482.12 553.514 480.484 555.589Z" fill="#4F5157"/>
<path d="M528.721 566.446C521.636 566.446 516.068 563.253 516.068 559.181C516.068 555.11 521.616 551.917 528.721 551.917C535.826 551.917 541.374 555.11 541.374 559.181C541.374 563.253 535.826 566.446 528.721 566.446ZM528.721 554.092C522.554 554.092 518.264 556.767 518.264 559.161C518.264 561.556 522.554 564.23 528.721 564.23C534.888 564.23 539.158 561.556 539.158 559.161C539.158 556.767 534.868 554.092 528.721 554.092Z" fill="white"/>
<path d="M511.718 567.264C507.507 567.264 504.354 565.348 504.354 562.813C504.354 560.279 507.527 558.363 511.718 558.363C515.909 558.363 519.082 560.279 519.082 562.813C519.082 565.348 515.909 567.264 511.718 567.264ZM511.718 560.558C508.564 560.558 506.549 561.895 506.549 562.813C506.549 563.731 508.564 565.069 511.718 565.069C514.871 565.069 516.886 563.731 516.886 562.813C516.886 561.895 514.871 560.558 511.718 560.558Z" fill="white"/>
<path d="M516.767 583.389C508.964 583.389 503.655 582.391 503.296 582.311L503.695 580.216C503.835 580.236 518.084 582.91 534.189 579.458L534.628 581.553C528.062 582.97 521.876 583.389 516.767 583.389Z" fill="white"/>
<path d="M498.905 581.733C494.335 581.114 488.507 578.42 488.248 578.3L489.146 576.364C489.146 576.364 494.934 579.038 499.184 579.617L498.905 581.733Z" fill="white"/>
<path d="M502.838 498.792C499.705 489.432 499.784 479.155 503.057 469.855C506.29 460.675 506.27 450.557 502.958 441.396L504.953 440.678C508.426 450.297 508.466 460.914 505.053 470.573C501.92 479.434 501.86 489.213 504.833 498.134L502.818 498.812L502.838 498.792Z" fill="white"/>
<path d="M516.727 533.118C513.594 523.758 513.674 513.48 516.947 504.18C520.18 495 520.14 484.882 516.847 475.722L518.843 475.004C522.315 484.623 522.355 495.24 518.943 504.899C515.829 513.76 515.75 523.539 518.723 532.459L516.708 533.138L516.727 533.118Z" fill="white"/>
<path d="M530.477 470.114C527.344 460.754 527.424 450.477 530.697 441.177C533.93 431.997 533.91 421.879 530.597 412.718L532.593 412C536.065 421.619 536.105 432.236 532.693 441.895C529.559 450.756 529.5 460.535 532.473 469.456L530.457 470.134L530.477 470.114Z" fill="white"/>
<path d="M713.461 318.272V276.235L654.008 241.742V283.78C654.008 283.78 654.865 304.921 645.907 309.919L636.973 314.916L696.426 349.409L705.36 344.411C714.293 339.414 713.461 318.272 713.461 318.272Z" fill="#B4C4FF"/>
<path d="M720.976 331.207V289.169L661.523 254.677V296.714C661.523 296.714 662.38 317.856 653.421 322.853L644.487 327.851L703.94 362.343L712.874 357.346C721.808 352.348 720.976 331.207 720.976 331.207Z" fill="white"/>
<path d="M696.402 351.246L633.767 314.916L645.124 308.547C651.757 304.823 652.638 289.463 652.418 283.853V238.998L715.028 275.304V318.223C715.077 319.497 715.713 340.418 706.119 345.783L696.377 351.221L696.402 351.246ZM640.155 314.965L696.426 347.596L704.577 343.039C711.21 339.316 712.091 323.956 711.871 318.346V277.141L655.575 244.486V283.78C655.6 284.613 656.358 305.877 646.666 311.29L640.13 314.941L640.155 314.965Z" fill="#141516"/>
<path d="M685.387 303.574L689.401 287.43C688.104 286.303 686.782 285.323 685.387 284.515C676.281 279.248 668.89 283.51 668.89 294.044C668.89 304.578 676.281 317.366 685.387 322.633C694.492 327.9 701.884 323.637 701.884 313.103C701.884 311.658 701.737 310.188 701.468 308.694L685.387 303.574Z" fill="#7C99FF"/>
<path d="M690.185 301.565L706.265 306.685C704.919 298.895 700.22 290.639 694.199 285.421L690.185 301.565Z" fill="#7C99FF"/>
<path d="M704.992 302.912L685.387 296.665L690.282 276.969L692.044 278.488C698.359 283.951 703.157 292.427 704.576 300.585L704.968 302.912H704.992ZM688.813 294.755L701.272 298.723C699.73 292.77 696.254 286.67 691.922 282.261L688.813 294.755Z" fill="#141516"/>
<path d="M688.618 321.555C686.121 321.555 683.356 320.722 680.541 319.105C671.044 313.618 663.334 300.242 663.334 289.292C663.334 283.682 665.292 279.444 668.866 277.361C672.439 275.304 677.09 275.696 681.96 278.513C683.356 279.321 684.775 280.35 686.195 281.575L686.856 282.138L682.964 297.841L698.604 302.814L698.751 303.672C699.045 305.313 699.192 306.881 699.192 308.326C699.192 313.936 697.234 318.174 693.66 320.257C692.167 321.114 690.478 321.555 688.667 321.555H688.618ZM673.883 278.905C672.562 278.905 671.338 279.199 670.285 279.811C667.617 281.354 666.173 284.711 666.173 289.267C666.173 299.336 673.247 311.584 681.96 316.631C685.901 318.909 689.548 319.326 692.192 317.782C694.835 316.239 696.304 312.883 696.304 308.326C696.304 307.273 696.23 306.17 696.059 305.019L679.537 299.752L683.649 283.167C682.597 282.31 681.544 281.55 680.516 280.962C678.142 279.591 675.866 278.905 673.859 278.905H673.883Z" fill="#141516"/>
<path d="M207.076 241.658L206.856 110.523H146.057L146.252 241.119C146.252 241.315 146.252 241.487 146.252 241.683C146.399 242.761 147.231 243.839 148.725 244.72L171.414 257.827C174.449 259.566 179.026 259.762 181.645 258.243L205.314 244.573C206.636 243.814 207.199 242.761 207.052 241.683L207.076 241.658Z" fill="white"/>
<path d="M177.19 260.374C174.988 260.374 172.687 259.835 170.851 258.782L148.162 245.676C146.399 244.647 145.322 243.275 145.126 241.805C145.102 241.536 145.102 241.266 145.126 240.972L144.931 111.307C144.931 110.253 145.787 109.371 146.84 109.371H206.048C207.101 109.371 207.957 110.229 207.957 111.282L208.178 241.56C208.349 243.104 207.517 244.549 205.877 245.48L182.208 259.15C180.837 259.933 179.051 260.325 177.19 260.325V260.374ZM147.182 111.65L147.378 241.119C147.378 241.364 147.378 241.462 147.378 241.536C147.476 242.271 148.186 243.079 149.312 243.741L172.002 256.847C174.669 258.39 178.83 258.586 181.107 257.263L204.775 243.594C205.387 243.251 206.073 242.663 205.975 241.83V241.683L205.754 111.674H147.182V111.65Z" fill="#141516"/>
<path d="M205.143 113.585L181.474 127.255C178.855 128.774 174.278 128.578 171.243 126.838L148.554 113.732C145.519 111.993 145.2 109.322 147.819 107.828L171.488 94.1585C174.107 92.6396 178.684 92.8356 181.719 94.5749L204.409 107.681C207.444 109.42 207.762 112.091 205.143 113.585Z" fill="white"/>
<path d="M177.019 129.41C174.816 129.41 172.516 128.872 170.68 127.818L147.99 114.712C146.032 113.585 144.931 112.017 144.931 110.4C144.931 108.979 145.763 107.73 147.256 106.873L170.925 93.1786C173.911 91.4637 178.904 91.6352 182.282 93.595L204.971 106.701C206.929 107.828 208.031 109.396 208.031 111.013C208.031 112.434 207.199 113.683 205.705 114.565L182.037 128.235C180.666 129.018 178.879 129.41 177.019 129.41ZM175.918 94.232C174.449 94.232 173.054 94.5259 172.05 95.0894L148.382 108.784C147.819 109.102 147.182 109.641 147.182 110.376C147.182 111.16 147.917 112.042 149.116 112.752L171.806 125.858C174.474 127.402 178.659 127.598 180.911 126.275L204.58 112.605C205.142 112.287 205.779 111.748 205.779 111.013C205.779 110.229 205.045 109.347 203.845 108.637L181.156 95.5303C179.687 94.6729 177.729 94.232 175.918 94.232Z" fill="#141516"/>
<path d="M174.156 111.797L175.404 102.978C175.404 102.978 175.331 103.002 175.306 103.027L159.005 112.434C158.858 112.507 158.736 112.605 158.613 112.703L174.156 111.797Z" fill="#F78F8F"/>
<path d="M157.047 111.013L158.418 109.911C158.564 109.813 158.711 109.69 158.883 109.592L176.163 99.5971L176.089 100.675L174.792 109.96L157.047 110.988V111.013ZM174.817 101.679L161.012 109.641L173.813 108.882L174.841 101.655L174.817 101.679Z" fill="#141516"/>
<path d="M177.534 113.683L158.639 114.785C158.639 114.785 158.786 114.908 158.859 114.957L172.003 122.551C173.178 123.237 175.136 123.188 176.384 122.453L192.685 113.046C193.934 112.311 194.007 111.184 192.857 110.523L179.713 102.929C179.517 102.831 179.321 102.733 179.101 102.659L177.534 113.683Z" fill="#F78F8F"/>
<path d="M174.156 121.253C173.3 121.253 172.467 121.057 171.831 120.689L158.687 113.095C158.687 113.095 158.516 112.973 158.442 112.924L157.268 112.017L158.687 111.895L177.142 110.817L178.733 99.5724L179.37 99.7684C179.663 99.8664 179.884 99.9644 180.104 100.087L193.248 107.681C193.958 108.098 194.349 108.686 194.349 109.347C194.349 110.057 193.884 110.719 193.076 111.184L176.775 120.591C176.041 121.032 175.086 121.228 174.156 121.228V121.253ZM160.596 112.899L172.394 119.709C173.397 120.273 175.135 120.248 176.212 119.611L192.514 110.204C192.954 109.959 193.223 109.616 193.223 109.347C193.223 109.028 192.881 108.784 192.685 108.661L179.663 101.14L178.146 111.895L160.596 112.924V112.899Z" fill="#141516"/>
<path d="M176.921 128.284L176.578 259.223L181.645 258.219L207.1 243.545L206.855 112.85L186.491 123.996L179.344 128.039L176.921 128.284Z" fill="#141516"/>
<path d="M166.544 264.563L166.372 191.144H117.126L117.273 264.098C117.273 264.245 117.273 264.392 117.273 264.539C117.395 265.396 118.056 266.278 119.28 266.989L137.662 277.596C140.109 279.017 143.83 279.164 145.959 277.939L165.124 266.866C166.201 266.254 166.642 265.396 166.544 264.539V264.563Z" fill="white"/>
<path d="M142.361 279.923C140.55 279.923 138.641 279.482 137.123 278.601L118.741 267.993C117.248 267.136 116.343 265.96 116.171 264.71C116.147 264.514 116.147 264.27 116.171 264L116 191.904C116 190.875 116.832 190.017 117.885 190.017H165.614C166.642 190.017 167.498 190.85 167.498 191.904L167.67 264.49C167.816 265.837 167.107 267.062 165.687 267.871L146.522 278.944C145.396 279.605 143.903 279.923 142.361 279.923ZM118.423 264.416C118.497 264.955 119.035 265.568 119.892 266.033L138.273 276.641C140.378 277.866 143.658 278.013 145.445 276.984L164.61 265.911C165.051 265.666 165.54 265.249 165.467 264.686V264.539L165.295 192.247H118.301L118.448 264.074V264.392L118.423 264.416Z" fill="#141516"/>
<path d="M164.977 193.619L145.812 204.691C143.682 205.916 139.986 205.769 137.514 204.348L119.133 193.741C116.685 192.32 116.416 190.189 118.545 188.964L137.71 177.891C139.84 176.666 143.535 176.813 146.008 178.234L164.389 188.842C166.837 190.262 167.106 192.394 164.977 193.619Z" fill="white"/>
<path d="M142.214 206.651C140.403 206.651 138.494 206.21 136.976 205.328L118.594 194.721C116.955 193.766 116 192.443 116 191.046C116 189.821 116.71 188.744 118.007 187.984L137.172 176.911C139.644 175.49 143.781 175.637 146.571 177.254L164.953 187.862C166.593 188.817 167.547 190.164 167.547 191.536C167.547 192.761 166.837 193.839 165.54 194.598L146.375 205.671C145.249 206.333 143.756 206.651 142.214 206.651ZM141.333 178.161C140.183 178.161 139.106 178.381 138.298 178.847L119.133 189.919C118.815 190.115 118.252 190.507 118.252 191.022C118.252 191.536 118.815 192.222 119.72 192.761L138.102 203.369C140.207 204.593 143.487 204.74 145.274 203.712L164.439 192.639C164.757 192.443 165.32 192.051 165.32 191.536C165.32 191.022 164.757 190.336 163.851 189.797L145.47 179.189C144.295 178.504 142.777 178.161 141.333 178.161Z" fill="#141516"/>
<path d="M133.598 189.307C129.095 191.904 129.095 196.142 133.598 198.739C138.102 201.335 145.421 201.335 149.949 198.739C154.452 196.142 154.452 191.904 149.949 189.307L141.774 194.035L133.598 189.307Z" fill="#F78F8F"/>
<path d="M141.774 198.837C138.714 198.837 135.655 198.151 133.33 196.828C130.955 195.456 129.658 193.619 129.658 191.61C129.658 189.601 130.955 187.764 133.33 186.392L133.599 186.22L141.774 190.948L149.949 186.22L150.218 186.392C152.593 187.764 153.89 189.601 153.89 191.61C153.89 193.619 152.593 195.456 150.218 196.828C147.893 198.175 144.834 198.837 141.774 198.837ZM133.599 187.543C131.763 188.67 130.76 190.115 130.76 191.61C130.76 193.178 131.861 194.696 133.868 195.848C138.225 198.371 145.299 198.371 149.655 195.848C151.662 194.696 152.764 193.178 152.764 191.61C152.764 190.042 151.76 188.67 149.925 187.543L141.75 192.271L133.574 187.543H133.599Z" fill="#141516"/>
<path d="M133.6 186.098L141.775 190.826L149.95 186.098C145.446 183.501 138.128 183.501 133.6 186.098Z" fill="#F78F8F"/>
<path d="M141.921 189.944L132.62 184.579L133.452 184.089C138.103 181.394 145.69 181.394 150.365 184.089L151.198 184.579L141.897 189.944H141.921ZM134.921 184.603L141.921 188.646L148.921 184.603C144.858 182.717 138.984 182.717 134.921 184.603Z" fill="#141516"/>
<path d="M141.92 205.524L141.847 278.797L148.92 276.249L166.568 265.274V192.614L144.931 205.524H141.92Z" fill="#141516"/>
<path d="M129.636 564.615L129.807 519.417H73.4379L73.2666 564.101C73.2666 564.272 73.2666 564.444 73.2666 564.615C73.389 565.595 74.1722 566.624 75.5674 567.432L96.5926 579.583C99.4073 581.2 103.642 581.371 106.089 579.975L128.045 567.285C129.268 566.575 129.807 565.62 129.66 564.615H129.636Z" fill="white"/>
<path d="M101.928 582.18C99.848 582.18 97.6696 581.665 95.9562 580.661L74.931 568.51C73.2422 567.53 72.1897 566.207 72.0184 564.787C71.9939 564.517 71.9939 564.272 72.0184 563.978L72.1897 518.168H129.318C130.297 518.168 131.08 518.952 131.08 519.932L130.908 564.542C131.08 566.06 130.248 567.457 128.657 568.363L106.701 581.053C105.404 581.812 103.715 582.18 101.928 582.18ZM74.4905 564.468C74.5639 565.081 75.2003 565.791 76.1793 566.354L97.2045 578.505C99.6277 579.902 103.397 580.073 105.429 578.897L127.384 566.207C127.898 565.913 128.461 565.424 128.387 564.787V564.615L128.534 520.666H74.6863L74.5149 564.101V564.444L74.4905 564.468Z" fill="#141516"/>
<path d="M128.216 522.259L106.261 534.949C103.838 536.345 99.579 536.173 96.7643 534.557L75.7391 522.406C72.9243 520.789 72.6306 518.339 75.0537 516.918L97.009 504.229C99.4322 502.832 103.691 503.004 106.506 504.621L127.531 516.771C130.346 518.388 130.64 520.838 128.216 522.259Z" fill="white"/>
<path d="M102.125 537.153C100.045 537.153 97.8662 536.639 96.1528 535.634L75.1277 523.484C73.243 522.406 72.166 520.862 72.166 519.295C72.166 517.898 72.9737 516.673 74.4423 515.816L96.3976 503.126C99.2124 501.485 103.936 501.656 107.143 503.518L128.168 515.669C130.053 516.747 131.13 518.29 131.13 519.858C131.13 521.254 130.322 522.479 128.853 523.312L106.898 536.002C105.601 536.761 103.912 537.129 102.15 537.129L102.125 537.153ZM101.122 504.547C99.7998 504.547 98.5515 504.817 97.6459 505.331L75.6906 518.021C75.3235 518.241 74.6871 518.707 74.6871 519.319C74.6871 519.932 75.3479 520.74 76.376 521.328L97.4011 533.479C99.8243 534.875 103.594 535.047 105.625 533.871L127.58 521.181C127.972 520.96 128.584 520.495 128.584 519.883C128.584 519.27 127.923 518.462 126.895 517.874L105.87 505.723C104.524 504.939 102.761 504.547 101.122 504.547Z" fill="#141516"/>
<path d="M99.0894 520.324L100.24 512.141C100.24 512.141 100.166 512.166 100.142 512.19L85.04 520.911C84.8931 520.985 84.7952 521.083 84.6729 521.156L99.0649 520.299L99.0894 520.324Z" fill="#7C99FF"/>
<path d="M83.3018 520.03L84.7948 518.805C84.9172 518.707 85.0641 518.609 85.2354 518.511L101.414 509.251L101.365 510.378L100.141 519.05L83.3018 520.03ZM99.9457 511.456L87.732 518.511L99.0401 517.85L99.9457 511.456Z" fill="#141516"/>
<path d="M102.222 522.087L84.6973 523.116C84.6973 523.116 84.8196 523.214 84.9176 523.263L97.0823 530.294C98.1593 530.931 99.995 530.882 101.145 530.221L116.247 521.499C117.422 520.838 117.471 519.785 116.394 519.148L104.229 512.117C104.058 512.019 103.862 511.945 103.666 511.872L102.222 522.087Z" fill="#7C99FF"/>
<path d="M99.481 529.486C98.6733 529.486 97.89 529.314 97.2781 528.947L85.1134 521.916C85.1134 521.916 84.942 521.793 84.8441 521.744L83.5469 520.715L85.1623 520.593L102.173 519.589L103.642 509.128L104.352 509.373C104.645 509.471 104.866 509.569 105.037 509.667L117.202 516.698C117.912 517.114 118.279 517.678 118.279 518.339C118.279 519.025 117.838 519.687 117.055 520.128L101.953 528.849C101.243 529.265 100.338 529.461 99.481 529.461V529.486ZM87.2673 521.72L97.89 527.869C98.7712 528.383 100.362 528.334 101.341 527.795L116.443 519.074C116.81 518.854 117.055 518.584 117.055 518.364C117.055 518.168 116.884 517.972 116.59 517.8L104.67 510.916L103.275 520.813L87.2918 521.744L87.2673 521.72Z" fill="#141516"/>
<path d="M102.173 535.904V580.931L106.065 579.975L130.002 566.036L129.293 521.328L103.837 535.904H102.173Z" fill="#141516"/>
<path d="M674.299 507.467L674.005 490.588H534.882L535.078 507.026C535.029 507.442 535.078 507.026 535.127 507.467C535.445 509.917 537.354 512.415 540.805 514.4L592.719 544.385C599.646 548.378 610.122 548.819 616.143 545.365L670.309 514.057C673.32 512.317 674.642 509.917 674.299 507.467Z" fill="white"/>
<path d="M605.986 548.868C601.164 548.868 596.097 547.692 592.132 545.414L540.218 515.429C536.595 513.346 534.368 510.603 533.952 507.712C533.829 507.418 533.854 507.124 533.878 506.903L533.683 489.388L675.352 491.739L675.499 507.369C675.866 510.382 674.177 513.199 670.897 515.086L616.731 546.393C613.843 548.059 610 548.868 605.961 548.868H605.986ZM536.302 507.05C536.302 507.05 536.326 507.197 536.351 507.295C536.62 509.427 538.48 511.631 541.442 513.346L593.356 543.331C599.94 547.128 609.902 547.569 615.581 544.311L669.747 513.003C672.219 511.582 673.418 509.672 673.149 507.614V507.491L672.855 491.813H536.13L536.302 507.075V507.05Z" fill="#141516"/>
<path d="M670.089 497.619L615.923 528.927C609.926 532.405 599.45 531.964 592.499 527.947L540.585 497.962C533.658 493.969 532.899 487.893 538.896 484.439L593.062 453.131C599.059 449.653 609.535 450.094 616.486 454.111L668.4 484.096C675.327 488.089 676.086 494.165 670.089 497.619Z" fill="white"/>
<path d="M668.425 491.788L616.51 461.803C609.583 457.81 599.108 457.369 593.086 460.824L538.92 492.131C537.696 492.842 536.766 493.675 536.105 494.557V501.71C537.085 503.131 538.578 504.503 540.609 505.679L592.523 535.664C599.45 539.657 609.926 540.098 615.947 536.643L670.114 505.336C676.11 501.857 675.351 495.806 668.425 491.813V491.788Z" fill="#FABCBC"/>
<path d="M605.766 532.43C600.944 532.43 595.877 531.254 591.912 528.976L539.998 498.991C535.983 496.663 533.658 493.503 533.658 490.294C533.658 487.575 535.323 485.101 538.309 483.386L592.475 452.078C598.79 448.428 609.829 448.869 617.098 453.058L669.012 483.043C673.027 485.37 675.352 488.53 675.352 491.739C675.352 494.459 673.687 496.933 670.701 498.648L616.535 529.956C613.647 531.621 609.804 532.43 605.766 532.43ZM603.269 451.955C599.671 451.955 596.244 452.666 593.699 454.16L539.533 485.468C537.305 486.742 536.081 488.481 536.081 490.294C536.081 492.621 537.942 495.022 541.221 496.908L593.136 526.893C599.72 530.691 609.682 531.131 615.36 527.873L669.526 496.565C671.754 495.267 672.978 493.552 672.978 491.739C672.978 489.412 671.117 487.011 667.838 485.125L615.923 455.14C612.301 453.058 607.65 451.98 603.269 451.98V451.955Z" fill="#141516"/>
<path d="M598.545 494.385L601.409 474.199C601.409 474.199 601.262 474.273 601.189 474.297L563.911 495.831C563.569 496.027 563.3 496.222 563.03 496.443L598.57 494.361L598.545 494.385Z" fill="white"/>
<path d="M560.362 491.666L563.202 489.314C563.52 489.069 563.862 488.824 564.254 488.579L601.776 466.923L603.759 466.042L603.563 468.124L600.577 489.265L560.387 491.617L560.362 491.666ZM600.822 470.231L568.758 488.775L598.448 487.036L600.822 470.255V470.231Z" fill="#141516"/>
<path d="M606.231 498.746L562.981 501.294C563.153 501.416 563.3 501.563 563.52 501.661L593.577 519.03C596.245 520.573 600.748 520.475 603.612 518.809L640.89 497.276C643.753 495.61 643.925 493.013 641.257 491.47L611.2 474.101C610.784 473.856 610.294 473.66 609.805 473.513L606.231 498.746Z" fill="white"/>
<path d="M599.231 515.11C597.297 515.11 595.412 514.694 593.944 513.861L563.887 496.492C563.691 496.369 563.52 496.247 563.348 496.124L560.827 494.165L563.887 493.871L606.157 491.396L609.78 465.723L611.151 466.164C611.811 466.384 612.325 466.605 612.79 466.85L642.847 484.219C644.463 485.15 645.344 486.472 645.344 487.967C645.344 489.535 644.291 491.054 642.48 492.107L605.203 513.64C603.514 514.62 601.36 515.11 599.255 515.11H599.231ZM567.925 496.026L595.143 511.754C597.444 513.077 601.482 512.979 603.979 511.533L641.256 490C642.309 489.388 642.921 488.628 642.921 487.942C642.921 487.354 642.456 486.766 641.624 486.276L611.738 469.006L608.262 493.65L567.925 496.026Z" fill="#141516"/>
<path d="M605.423 531.254V548.206L611.199 547.692L618.395 544.458L673.149 512.685L674.299 507.467L675.009 493.846L613.378 530.054L606.549 531.254H605.423Z" fill="#141516"/>
<path d="M613.329 524.664C614.186 525.154 614.186 525.963 613.329 526.477C612.473 526.967 611.077 526.967 610.196 526.477C609.34 525.987 609.34 525.179 610.196 524.664C611.053 524.174 612.448 524.174 613.329 524.664Z" fill="#141516"/>
<path d="M621.504 519.961C622.361 520.451 622.361 521.259 621.504 521.773C620.647 522.263 619.252 522.263 618.371 521.773C617.514 521.283 617.514 520.475 618.371 519.961C619.228 519.471 620.623 519.471 621.504 519.961Z" fill="#141516"/>
<path d="M629.679 515.233C630.536 515.723 630.536 516.531 629.679 517.045C628.822 517.535 627.427 517.535 626.546 517.045C625.689 516.555 625.689 515.747 626.546 515.233C627.402 514.743 628.798 514.743 629.679 515.233Z" fill="#141516"/>
<path d="M637.829 510.505C638.686 510.994 638.686 511.803 637.829 512.317C636.973 512.807 635.577 512.807 634.696 512.317C633.84 511.827 633.84 511.019 634.696 510.505C635.553 510.015 636.948 510.015 637.829 510.505Z" fill="#141516"/>
<path d="M646.005 505.801C646.862 506.291 646.862 507.099 646.005 507.614C645.148 508.104 643.753 508.104 642.872 507.614C642.015 507.124 642.015 506.316 642.872 505.801C643.729 505.311 645.124 505.311 646.005 505.801Z" fill="#141516"/>
<path d="M654.18 501.073C655.036 501.563 655.036 502.371 654.18 502.886C653.323 503.376 651.928 503.376 651.047 502.886C650.19 502.396 650.19 501.587 651.047 501.073C651.903 500.583 653.299 500.583 654.18 501.073Z" fill="#141516"/>
<path d="M662.355 496.345C663.211 496.835 663.211 497.643 662.355 498.158C661.498 498.648 660.103 498.648 659.222 498.158C658.365 497.668 658.365 496.859 659.222 496.345C660.078 495.855 661.473 495.855 662.355 496.345Z" fill="#141516"/>
<path d="M670.506 491.641C671.363 492.131 671.363 492.94 670.506 493.454C669.649 493.944 668.254 493.944 667.373 493.454C666.516 492.964 666.516 492.156 667.373 491.641C668.23 491.151 669.625 491.151 670.506 491.641Z" fill="#141516"/>
<path d="M597.003 524.664C597.86 525.154 597.86 525.963 597.003 526.477C596.146 526.967 594.751 526.967 593.87 526.477C593.013 525.987 593.013 525.179 593.87 524.664C594.727 524.174 596.122 524.174 597.003 524.664Z" fill="#141516"/>
<path d="M605.178 519.961C606.034 520.451 606.034 521.259 605.178 521.773C604.321 522.263 602.926 522.263 602.045 521.773C601.188 521.283 601.188 520.475 602.045 519.961C602.902 519.471 604.297 519.471 605.178 519.961Z" fill="#141516"/>
<path d="M613.329 515.233C614.186 515.723 614.186 516.531 613.329 517.045C612.473 517.535 611.077 517.535 610.196 517.045C609.34 516.555 609.34 515.747 610.196 515.233C611.053 514.743 612.448 514.743 613.329 515.233Z" fill="#141516"/>
<path d="M621.504 510.505C622.361 510.994 622.361 511.803 621.504 512.317C620.647 512.807 619.252 512.807 618.371 512.317C617.514 511.827 617.514 511.019 618.371 510.505C619.228 510.015 620.623 510.015 621.504 510.505Z" fill="#141516"/>
<path d="M629.679 505.801C630.536 506.291 630.536 507.099 629.679 507.614C628.822 508.104 627.427 508.104 626.546 507.614C625.689 507.124 625.689 506.316 626.546 505.801C627.402 505.311 628.798 505.311 629.679 505.801Z" fill="#141516"/>
<path d="M637.829 501.073C638.686 501.563 638.686 502.371 637.829 502.886C636.973 503.376 635.577 503.376 634.696 502.886C633.84 502.396 633.84 501.587 634.696 501.073C635.553 500.583 636.948 500.583 637.829 501.073Z" fill="#141516"/>
<path d="M646.005 496.345C646.862 496.835 646.862 497.643 646.005 498.158C645.148 498.648 643.753 498.648 642.872 498.158C642.015 497.668 642.015 496.859 642.872 496.345C643.729 495.855 645.124 495.855 646.005 496.345Z" fill="#141516"/>
<path d="M654.18 491.641C655.036 492.131 655.036 492.94 654.18 493.454C653.323 493.944 651.928 493.944 651.047 493.454C650.19 492.964 650.19 492.156 651.047 491.641C651.903 491.151 653.299 491.151 654.18 491.641Z" fill="#141516"/>
<path d="M564.327 477.31C565.184 477.8 565.184 478.609 564.327 479.123C563.471 479.613 562.075 479.613 561.194 479.123C560.338 478.633 560.338 477.825 561.194 477.31C562.051 476.82 563.446 476.82 564.327 477.31Z" fill="#141516"/>
<path d="M572.502 472.607C573.359 473.097 573.359 473.905 572.502 474.42C571.645 474.91 570.25 474.91 569.369 474.42C568.512 473.93 568.512 473.121 569.369 472.607C570.226 472.092 571.621 472.117 572.502 472.607Z" fill="#141516"/>
<path d="M580.653 467.879C581.51 468.369 581.51 469.177 580.653 469.692C579.797 470.182 578.402 470.182 577.52 469.692C576.664 469.202 576.664 468.393 577.52 467.879C578.377 467.389 579.772 467.389 580.653 467.879Z" fill="#141516"/>
<path d="M588.828 463.151C589.684 463.641 589.684 464.449 588.828 464.964C587.971 465.454 586.576 465.454 585.695 464.964C584.814 464.474 584.838 463.665 585.695 463.151C586.551 462.661 587.947 462.661 588.828 463.151Z" fill="#141516"/>
<path d="M597.003 458.447C597.86 458.937 597.86 459.746 597.003 460.26C596.146 460.75 594.751 460.75 593.87 460.26C593.013 459.77 593.013 458.962 593.87 458.447C594.727 457.957 596.122 457.957 597.003 458.447Z" fill="#141516"/>
<path d="M30.6105 447.408H20.9668V443.268C20.9668 434.008 27.2572 423.107 35.261 418.477L42.2612 414.435C46.9117 411.74 51.7336 411.446 55.4785 413.602C59.2233 415.757 61.3773 420.094 61.3773 425.483C61.3773 427.492 61.9157 428.717 62.4542 429.011C62.9927 429.329 64.3144 429.182 66.0522 428.178L73.7378 423.744C78.7799 420.828 83.2102 413.136 83.2102 407.306C83.2102 398.046 89.5006 387.144 97.5044 382.514L104.162 378.668C108.812 375.973 113.634 375.679 117.379 377.835C121.124 379.991 123.278 384.327 123.278 389.717C123.278 391.725 123.816 392.95 124.355 393.244C124.893 393.563 126.215 393.416 127.953 392.411L133.558 389.178C138.6 386.262 143.055 378.57 143.055 372.74C143.055 363.48 149.345 352.578 157.349 347.948L164.007 344.102C168.657 341.407 173.479 341.113 177.224 343.269C180.969 345.425 183.123 349.761 183.123 355.151V360.515H173.503V355.151C173.503 353.142 172.965 351.917 172.426 351.623C171.888 351.304 170.566 351.451 168.828 352.456L162.171 356.302C157.129 359.217 152.699 366.909 152.699 372.74C152.699 382 146.408 392.901 138.404 397.531L132.799 400.765C128.149 403.46 123.327 403.754 119.582 401.598C115.837 399.442 113.683 395.106 113.683 389.717C113.683 387.708 113.145 386.483 112.606 386.189C112.068 385.895 110.746 386.017 109.008 387.022L102.351 390.868C97.3085 393.783 92.8539 401.475 92.8539 407.306C92.8539 416.566 86.5634 427.467 78.5597 432.097L70.8741 436.531C66.2236 439.226 61.4017 439.52 57.6569 437.364C53.912 435.209 51.7581 430.872 51.7581 425.483C51.7581 423.474 51.2196 422.249 50.6811 421.955C50.1426 421.661 48.8209 421.784 47.0831 422.788L40.0828 426.83C35.0407 429.746 30.586 437.438 30.586 443.268V447.408H30.6105Z" fill="white"/>
<path d="M173.062 338.223L186.157 422.592L392.077 227.126L173.062 338.223Z" fill="#B4C4FF"/>
<path d="M185.178 424.944L171.594 337.463L172.45 337.022L391.489 225.877L393.129 227.935L186.989 423.597L185.154 424.944H185.178ZM174.506 338.958L187.063 419.873L384.563 232.393L174.482 338.958H174.506Z" fill="#4F5157"/>
<path d="M212.444 362.573L184.762 422.298L185.178 424.944L246.344 380.064L212.444 362.573Z" fill="#4F5157"/>
<path d="M392.077 227.126L106.193 297.287L173.063 338.223L392.077 227.126Z" fill="#B4C4FF"/>
<path d="M392.077 227.126L297.329 412.524L214.795 362.451L392.077 227.126Z" fill="#B4C4FF"/>
<path d="M392.053 240.355L299.654 421.122L217.12 371.049L390.29 238.861C391.294 238.101 392.616 239.228 392.053 240.33V240.355Z" fill="white"/>
<path d="M171.593 337.488L174.506 338.982L175.338 344.274L367.747 246.675L389.311 228.523L361.775 242.486L103.402 305.886L170.272 346.846L172.842 345.547L171.593 337.488Z" fill="white"/>
<path d="M393.13 227.959L391.49 225.901L171.912 279.796L105.851 296.013L102.767 296.773L172.989 339.766L253.933 298.708L376.975 236.288L379.814 234.818L319.309 280.996L213.963 361.397L212.421 362.573L297.843 414.386L311.844 386.973L393.13 227.935V227.959ZM173.112 336.704L109.571 297.802L177.64 281.094L249.894 297.728L173.112 336.679V336.704ZM253.59 295.866L183.367 279.698L331.767 243.27L381.185 231.144L253.59 295.866ZM296.791 410.637L217.145 362.304L272.437 320.094L310.277 384.254L296.815 410.613L296.791 410.637ZM311.697 381.485L274.542 318.502L345.645 264.216L388.234 231.707L311.697 381.485Z" fill="#4F5157"/>
<path d="M270.943 352.186L256.526 369.237L279.143 390.917L293.461 373.622L270.967 352.186H270.943ZM278.653 382.465L263.282 367.938L271.163 358.482L286.461 372.862L278.629 382.465H278.653Z" fill="#B4C4FF"/>
<path d="M278.604 382.465L261.177 365.807L270.82 354.391L288.174 370.902L278.604 382.49V382.465ZM262.988 365.709L278.482 380.53L286.363 371L270.918 356.326L262.988 365.709Z" fill="#4F5157"/>
<path d="M278.923 389.251L254.862 366.174L270.576 347.605L294.514 370.412L278.923 389.251ZM257.604 366.052L278.776 386.336L291.822 370.584L270.747 350.52L257.604 366.052Z" fill="#4F5157"/>
<path d="M291.92 335.454C291.92 348.267 280.538 358.703 266.538 358.703C254.569 358.703 244.534 351.084 241.866 340.868L240.568 341.848C243.652 352.407 254.104 360.221 266.538 360.221C281.37 360.221 293.437 349.1 293.437 335.454C293.437 325.631 287.171 317.155 278.164 313.162L276.793 314.215C285.703 317.841 291.92 325.998 291.92 335.454Z" fill="#4F5157"/>
<path d="M286.707 335.454C286.707 345.449 277.822 353.583 266.905 353.583C256.576 353.583 248.083 346.331 247.177 337.096L245.782 338.149C247.202 347.703 256.111 355.101 266.881 355.101C278.63 355.101 288.2 346.282 288.2 335.454C288.2 326.807 282.105 319.458 273.661 316.861L272.143 318.012C280.514 320.143 286.682 327.15 286.682 335.454H286.707Z" fill="#4F5157"/>
<path d="M41.4533 452.553H31.8096V448.413C31.8096 439.153 38.1 428.251 46.1038 423.621L53.104 419.579C57.7545 416.884 62.5763 416.59 66.3212 418.746C70.0661 420.902 72.22 425.238 72.22 430.628C72.22 432.636 72.7585 433.861 73.297 434.155C73.8355 434.474 75.1572 434.327 76.895 433.322L84.5806 428.888C89.6227 425.973 94.0529 418.281 94.0529 412.45C94.0529 403.19 100.343 392.289 108.347 387.659L115.005 383.813C119.655 381.118 124.477 380.824 128.222 382.98C131.967 385.136 134.121 389.472 134.121 394.861C134.121 396.87 134.659 398.095 135.198 398.389C135.736 398.707 137.058 398.56 138.796 397.556L144.401 394.322C149.443 391.407 153.898 383.715 153.898 377.884C153.898 368.624 160.188 357.723 168.192 353.093L174.849 349.247C179.5 346.552 184.322 346.258 188.067 348.414C191.812 350.57 193.965 354.906 193.965 360.295V365.66H184.346V360.295C184.346 358.286 183.808 357.061 183.269 356.767C182.731 356.449 181.409 356.596 179.671 357.6L173.014 361.446C167.972 364.362 163.541 372.054 163.541 377.884C163.541 387.144 157.251 398.046 149.247 402.676L143.642 405.909C138.992 408.604 134.17 408.898 130.425 406.742C126.68 404.587 124.526 400.251 124.526 394.861C124.526 392.852 123.988 391.627 123.449 391.333C122.911 391.039 121.589 391.162 119.851 392.166L113.193 396.012C108.151 398.928 103.697 406.62 103.697 412.45C103.697 421.71 97.4062 432.612 89.4024 437.242L81.7169 441.676C77.0664 444.371 72.2445 444.665 68.4996 442.509C64.7547 440.353 62.6008 436.017 62.6008 430.628C62.6008 428.619 62.0623 427.394 61.5239 427.1C60.9854 426.806 59.6637 426.928 57.9258 427.933L50.9256 431.975C45.8835 434.89 41.4288 442.582 41.4288 448.413V452.553H41.4533Z" fill="#4F5157"/>
<path d="M-10.7795 521.758H-18V519.799C-18 514.875 -14.7936 509.314 -10.5347 506.864L-7.20593 504.953C-4.56248 503.434 -1.79665 503.287 0.406218 504.561C2.60909 505.835 3.85739 508.309 3.85739 511.347C3.85739 511.445 3.85739 511.518 3.85739 511.616C3.93081 511.592 4.00424 511.543 4.07767 511.494L7.72465 509.387C9.73171 508.211 11.5674 505.051 11.5674 502.724C11.5674 497.8 14.7738 492.239 19.0327 489.789L22.1902 487.952C24.8336 486.433 27.5994 486.286 29.8023 487.56C32.0052 488.834 33.2535 491.308 33.2535 494.346C33.2535 494.444 33.2535 494.517 33.2535 494.591C33.3269 494.566 33.4003 494.517 33.4738 494.468L36.1417 492.925C38.1488 491.749 39.9845 488.589 39.9845 486.261C39.9845 481.337 43.1909 475.801 47.4498 473.327L50.6072 471.489C53.2507 469.971 56.0165 469.824 58.2194 471.097C60.4222 472.371 61.6705 474.846 61.6705 477.883V480.431H54.45V477.883C54.45 477.883 54.45 477.712 54.45 477.614C54.3766 477.638 54.3032 477.687 54.2297 477.736L51.0723 479.574C49.0652 480.749 47.2295 483.91 47.2295 486.237C47.2295 491.161 44.0231 496.722 39.7642 499.172L37.0963 500.715C34.4528 502.234 31.687 502.381 29.4841 501.107C27.2813 499.833 26.033 497.359 26.033 494.321C26.033 494.223 26.033 494.15 26.033 494.052C25.9595 494.076 25.8861 494.125 25.8127 494.174L22.6552 496.011C20.6482 497.187 18.8124 500.348 18.8124 502.675C18.8124 507.599 15.606 513.16 11.3471 515.61L7.70017 517.716C5.05672 519.235 2.2909 519.382 0.088026 518.108C-2.11485 516.834 -3.36314 514.36 -3.36314 511.322C-3.36314 511.224 -3.36314 511.151 -3.36314 511.053C-3.43657 511.077 -3.51 511.126 -3.58343 511.175L-6.91221 513.086C-8.91927 514.262 -10.755 517.422 -10.755 519.75V521.709L-10.7795 521.758Z" fill="white"/>
<path d="M242.624 238.297H237.337V236.68C237.337 232.736 239.907 228.253 243.334 226.293L246.075 224.701C248.155 223.501 250.309 223.378 252.023 224.383C253.736 225.362 254.715 227.322 254.715 229.699C254.715 230.09 254.764 230.311 254.813 230.433C254.838 230.36 255.082 230.286 255.4 230.09L258.436 228.351C260.198 227.347 261.789 224.579 261.789 222.545C261.789 218.601 264.359 214.118 267.786 212.134L270.404 210.615C272.485 209.415 274.639 209.292 276.352 210.296C278.066 211.276 279.045 213.212 279.045 215.612C279.045 216.004 279.094 216.225 279.143 216.347C279.167 216.274 279.412 216.2 279.73 216.004L281.933 214.731C283.695 213.726 285.286 210.958 285.286 208.925C285.286 204.98 287.856 200.497 291.283 198.513L293.902 196.994C295.982 195.794 298.136 195.671 299.85 196.676C301.563 197.656 302.542 199.616 302.542 201.992V204.099H297.255V201.992C297.255 201.6 297.206 201.379 297.157 201.257C297.133 201.33 296.888 201.404 296.57 201.6L293.951 203.119C292.188 204.123 290.597 206.891 290.597 208.925C290.597 212.869 288.027 217.352 284.601 219.312L282.398 220.585C280.317 221.786 278.163 221.908 276.45 220.904C274.737 219.924 273.758 217.964 273.758 215.588C273.758 215.196 273.709 214.975 273.66 214.853C273.635 214.926 273.391 215 273.072 215.196L270.453 216.715C268.691 217.719 267.1 220.487 267.1 222.521C267.1 226.465 264.53 230.948 261.103 232.908L258.068 234.647C256.012 235.847 253.834 235.97 252.121 234.966C250.407 233.986 249.428 232.026 249.428 229.65C249.428 229.258 249.379 229.037 249.33 228.915C249.306 228.988 249.061 229.062 248.718 229.258L245.977 230.85C244.215 231.854 242.624 234.623 242.624 236.656V238.273V238.297Z" fill="white"/>
<path d="M445.364 295.626L620.272 395.576C622.817 397.046 624.873 395.454 624.873 392.073L624.359 286.807C624.359 283.402 622.254 279.458 619.709 278.013L444.801 178.063C442.255 176.593 440.199 178.185 440.199 181.566L440.713 286.832C440.713 290.237 442.818 294.181 445.364 295.626Z" fill="#B4C4FF"/>
<path d="M437.165 300.428L612.073 400.378C614.618 401.848 616.674 400.256 616.674 396.875L616.16 291.609C616.16 288.204 614.055 284.26 611.51 282.814L436.602 182.864C434.056 181.394 432 182.987 432 186.367L432.514 291.633C432.514 295.039 434.619 298.983 437.165 300.428Z" fill="white"/>
<path d="M439.22 286.832L438.706 181.566C438.706 179.239 439.538 177.401 441.031 176.519C442.353 175.76 443.944 175.833 445.535 176.74L620.443 276.69C623.454 278.405 625.828 282.839 625.852 286.783L626.366 392.049C626.366 394.376 625.534 396.213 624.041 397.095C622.719 397.855 621.128 397.781 619.537 396.875L444.629 296.925C443.234 296.141 441.986 294.769 441.031 293.128C439.905 291.217 439.22 288.939 439.22 286.832ZM621.03 394.278C621.398 394.474 622.083 394.793 622.548 394.523C622.964 394.278 623.405 393.519 623.38 392.073L622.866 286.807C622.866 283.941 621.055 280.511 618.974 279.287L444.066 179.337C443.699 179.116 443.014 178.822 442.549 179.092C442.133 179.337 441.717 180.096 441.717 181.541L442.231 286.807C442.231 289.674 444.042 293.128 446.122 294.328L621.03 394.278Z" fill="#4F5157"/>
<path d="M439.343 178.675C439.832 177.548 440.689 176.74 441.766 176.372C442.671 176.078 444.14 175.931 446.025 177.034L620.247 276.592C622.328 277.768 624.188 280.07 625.216 282.716L625.828 284.309L543.783 304.886C536.832 306.626 527.58 301.506 520.8 292.148L439 179.483L439.343 178.7V178.675ZM618.779 279.189L444.556 179.63C443.846 179.214 443.161 179.067 442.72 179.214C442.696 179.214 442.623 179.239 442.574 179.288L523.223 290.384C529.318 298.762 537.297 303.441 543.073 301.971L621.692 282.251C620.908 280.928 619.856 279.801 618.779 279.189Z" fill="#4F5157"/>
<path d="M488.344 282.055L514.289 296.876L514.093 255.205L488.148 240.36L488.344 282.055Z" fill="#436CFF"/>
<path d="M487.022 238.425L515.219 254.544L515.44 298.811L487.243 282.692L487.022 238.425ZM512.967 255.842L489.274 242.295L489.47 281.393L513.163 294.94L512.967 255.842Z" fill="#4F5157"/>
<path d="M493.436 278.772L509.15 287.763L509.027 258.464L493.289 249.498L493.436 278.772Z" fill="white"/>
<path d="M492.163 247.562L510.129 257.827L510.276 289.698L492.31 279.434L492.163 247.562ZM507.901 259.125L494.415 251.433L494.537 278.111L508.024 285.803L507.901 259.101V259.125Z" fill="#4F5157"/>
<path d="M456.55 265.666L456.672 290.359L482.128 304.911L482.005 280.217L456.55 265.666ZM462.13 274.901L476.474 283.108L476.523 295.675L462.179 287.469L462.13 274.901Z" fill="#436CFF"/>
<path d="M461.005 272.966L477.6 282.447L477.673 297.611L461.078 288.13L461.005 272.966ZM475.372 283.745L463.281 276.837L463.33 286.832L475.421 293.74L475.372 283.745Z" fill="#4F5157"/>
<path d="M580.792 340.775C580.792 336.023 582.407 332.446 585.418 330.707C588.429 328.943 592.345 329.286 596.457 331.638C604.51 336.243 611.094 347.537 611.143 356.821C611.143 361.574 609.527 365.151 606.517 366.89C603.506 368.654 599.59 368.311 595.478 365.959C591.439 363.656 587.792 359.688 585.124 355.131C582.456 350.574 580.816 345.43 580.792 340.775ZM595.331 333.573C591.929 331.638 588.82 331.295 586.544 332.642C584.268 333.965 583.019 336.856 583.044 340.775C583.093 349.35 589.163 359.786 596.604 364.024C600.006 365.959 603.114 366.302 605.391 364.955C607.667 363.632 608.915 360.741 608.891 356.821C608.891 352.534 607.349 347.782 604.877 343.568C602.429 339.355 599.051 335.68 595.331 333.573Z" fill="#4F5157"/>
<path d="M585.026 343.201C585.026 339.771 586.201 337.174 588.404 335.876C590.607 334.602 593.446 334.823 596.432 336.513C602.135 339.771 606.81 347.782 606.859 354.372C606.859 357.801 605.684 360.398 603.482 361.696C601.279 362.97 598.439 362.75 595.453 361.059C592.59 359.418 589.995 356.601 588.11 353.367C586.226 350.133 585.051 346.483 585.026 343.201ZM595.331 338.473C593.079 337.174 591.023 336.954 589.53 337.811C588.061 338.669 587.254 340.579 587.254 343.176C587.278 349.056 591.439 356.184 596.53 359.1C598.782 360.398 600.838 360.618 602.331 359.761C603.8 358.904 604.632 356.993 604.607 354.396C604.607 351.456 603.555 348.198 601.866 345.332C600.177 342.466 597.876 339.942 595.331 338.473Z" fill="#4F5157"/>
<path d="M449.06 219.978C449.011 211.649 451.851 205.377 457.064 202.34C462.253 199.302 469.106 199.914 476.327 204.055C490.817 212.335 502.688 232.668 502.761 249.375C502.81 257.704 499.971 263.976 494.782 267.013C489.593 270.051 482.74 269.439 475.519 265.298C468.274 261.158 461.69 254.005 456.893 245.798C452.095 237.592 449.109 228.332 449.085 219.978H449.06ZM475.225 205.99C468.715 202.266 462.669 201.654 458.19 204.275C453.711 206.896 451.263 212.457 451.312 219.953C451.385 235.95 462.742 255.426 476.621 263.339C483.131 267.062 489.177 267.675 493.656 265.053C498.135 262.432 500.583 256.871 500.534 249.375C500.485 241.389 497.646 232.521 493.044 224.657C488.467 216.793 482.152 209.958 475.225 205.99Z" fill="#4F5157"/>
<path d="M455.571 223.702C455.546 217.357 457.7 212.604 461.69 210.277C465.655 207.95 470.868 208.415 476.375 211.551C487.292 217.798 496.201 233.084 496.275 245.651C496.299 251.996 494.145 256.749 490.156 259.076C486.19 261.403 480.977 260.938 475.47 257.802C470.012 254.691 465.067 249.302 461.445 243.128C457.847 236.955 455.595 229.973 455.571 223.702ZM475.249 213.511C470.477 210.791 466.071 210.326 462.815 212.237C459.56 214.148 457.798 218.214 457.822 223.702C457.871 235.558 466.291 249.987 476.596 255.867C481.369 258.586 485.799 259.052 489.03 257.141C492.285 255.23 494.047 251.163 494.023 245.676C493.998 239.748 491.869 233.182 488.467 227.352C485.065 221.521 480.39 216.45 475.249 213.511Z" fill="#4F5157"/>
<path d="M551.592 341.682H553.843V336.366C553.819 335.533 554.039 334.896 554.455 334.676C554.871 334.431 555.508 334.529 556.242 334.945L556.854 335.288C558.788 336.39 560.428 339.208 560.428 341.437V342C560.428 345.038 562.508 348.59 565.152 350.085L565.763 350.428C567.232 351.26 568.652 351.358 569.802 350.697C570.928 350.036 571.564 348.737 571.54 347.047V346.483C571.54 345.65 571.76 345.038 572.176 344.793C572.592 344.548 573.229 344.646 573.963 345.063L574.33 345.259C576.264 346.361 577.904 349.178 577.904 351.407V351.971C577.904 355.009 579.984 358.561 582.628 360.055C584.096 360.888 585.516 360.986 586.666 360.325C587.792 359.663 588.429 358.365 588.404 356.674V356.111C588.404 355.278 588.624 354.641 589.04 354.421C589.457 354.176 590.093 354.274 590.827 354.69L591.317 354.96C593.25 356.062 594.89 358.879 594.89 361.108V366.424H597.167V361.108C597.118 358.071 595.062 354.519 592.418 353.024L591.929 352.755C590.46 351.922 589.04 351.824 587.89 352.485C586.764 353.147 586.128 354.445 586.152 356.135V356.699C586.152 357.532 585.932 358.169 585.516 358.389C585.1 358.634 584.463 358.536 583.729 358.12C581.795 357.017 580.156 354.2 580.156 351.971V351.407C580.156 348.37 578.075 344.818 575.432 343.323L575.064 343.127C573.596 342.294 572.176 342.196 571.026 342.858C569.9 343.519 569.264 344.818 569.288 346.508V347.071C569.288 347.904 569.068 348.517 568.652 348.762C568.236 349.007 567.599 348.909 566.865 348.492L566.253 348.149C564.319 347.047 562.679 344.23 562.655 342V341.437C562.655 338.399 560.574 334.847 557.931 333.353L557.319 333.01C555.851 332.177 554.431 332.079 553.281 332.74C552.155 333.402 551.518 334.7 551.543 336.39V341.706L551.592 341.682Z" fill="#4F5157"/>
<path d="M455.424 263.731L483.131 279.556L483.253 306.846L455.546 291.021L455.424 263.731ZM480.879 280.854L457.676 267.601L457.774 289.722L480.977 302.976L480.879 280.854Z" fill="#4F5157"/>
<path d="M532.524 261.918H534.776V256.602C534.752 255.769 534.972 255.132 535.388 254.911C535.804 254.666 536.44 254.764 537.175 255.181L537.787 255.524C539.72 256.626 541.36 259.444 541.36 261.673V262.236C541.36 265.274 543.441 268.826 546.084 270.32L546.696 270.663C548.165 271.496 549.584 271.594 550.735 270.933C551.861 270.271 552.497 268.973 552.472 267.283V266.719C552.472 265.886 552.693 265.274 553.109 265.029C553.525 264.784 554.161 264.882 554.896 265.298L555.263 265.494C557.196 266.597 558.836 269.414 558.836 271.643V272.207C558.836 275.244 560.917 278.797 563.56 280.291C565.029 281.124 566.448 281.222 567.599 280.56C568.725 279.899 569.361 278.601 569.337 276.91V276.347C569.337 275.514 569.557 274.877 569.973 274.656C570.389 274.412 571.026 274.51 571.76 274.926L572.249 275.195C574.183 276.298 575.823 279.115 575.823 281.344V286.66H578.099V281.344C578.05 278.307 575.994 274.754 573.351 273.26L572.861 272.991C571.393 272.158 569.973 272.06 568.823 272.721C567.697 273.383 567.06 274.681 567.085 276.371V276.935C567.085 277.768 566.865 278.405 566.448 278.625C566.032 278.87 565.396 278.772 564.662 278.356C562.728 277.253 561.088 274.436 561.088 272.207V271.643C561.088 268.606 559.008 265.053 556.364 263.559L555.997 263.363C554.528 262.53 553.109 262.432 551.958 263.094C550.833 263.755 550.196 265.053 550.221 266.744V267.307C550.221 268.14 550 268.753 549.584 268.998C549.168 269.243 548.532 269.145 547.797 268.728L547.186 268.385C545.252 267.283 543.612 264.466 543.588 262.236V261.673C543.588 258.635 541.507 255.083 538.864 253.589L538.252 253.246C536.783 252.413 535.364 252.315 534.213 252.976C533.087 253.638 532.451 254.936 532.475 256.626V261.942L532.524 261.918Z" fill="#436CFF"/>
<path d="M549.591 222.654L617.293 261.581C622.335 264.471 626.398 261.385 626.374 254.672L626.153 142.621C626.153 135.908 622.041 128.118 617.024 125.227L549.322 86.3006C544.28 83.4099 540.217 86.4966 540.241 93.2089L540.462 205.261C540.462 211.973 544.574 219.763 549.591 222.654Z" fill="#B4C4FF"/>
<path d="M543.35 226.28L611.052 265.206C616.094 268.097 620.157 265.01 620.132 258.298L619.912 146.246C619.912 139.534 615.8 131.744 610.782 128.853L543.081 89.9263C538.039 87.0356 533.976 90.1222 534 96.8346L534.22 208.886C534.22 215.599 538.332 223.389 543.35 226.28Z" fill="white"/>
<path d="M539.238 205.261L539.018 93.2089C539.018 89.2403 540.364 86.1536 542.762 84.7818C544.794 83.6059 547.364 83.7529 549.934 85.2472L617.636 124.174C623.094 127.31 627.377 135.418 627.377 142.621L627.598 254.672C627.598 258.641 626.251 261.728 623.853 263.099C621.821 264.275 619.251 264.128 616.681 262.634L548.979 223.707C546.483 222.287 544.256 219.812 542.542 216.873C540.511 213.369 539.238 209.18 539.238 205.285V205.261ZM617.905 260.527C619.178 261.262 621.038 261.948 622.653 260.993C624.269 260.062 625.199 257.759 625.174 254.672L624.954 142.621C624.954 136.3 621.111 128.975 616.412 126.281L548.71 87.354C547.437 86.6191 545.577 85.9332 543.962 86.8886C542.346 87.8195 541.441 90.1223 541.441 93.2089L541.661 205.261C541.661 211.581 545.504 218.906 550.203 221.601L617.905 260.527Z" fill="#4F5157"/>
<path d="M554.512 195.021L577.838 208.421L577.789 185.761L554.463 172.361L554.512 195.021Z" fill="#436CFF"/>
<path d="M553.361 170.45L578.89 185.124L578.939 210.332L553.41 195.658L553.361 170.45ZM576.687 186.398L555.564 174.247L555.613 194.384L576.736 206.535L576.687 186.422V186.398Z" fill="#4F5157"/>
<path d="M559.603 192.375L572.746 199.945L572.722 188.406L559.578 180.837L559.603 192.375Z" fill="white"/>
<path d="M558.477 178.926L573.823 187.745V201.831L558.501 193.012V178.926H558.477ZM571.596 189.019L560.655 182.723V191.714L571.62 198.01V189.019H571.596Z" fill="#4F5157"/>
<path d="M567.998 207C567.998 201.856 569.76 197.985 572.991 196.099C576.222 194.212 580.457 194.604 584.911 197.177C593.796 202.272 601.017 214.766 601.041 225.006C601.041 230.15 599.279 234.021 596.048 235.907C592.817 237.794 588.583 237.402 584.128 234.829C579.698 232.282 575.659 227.872 572.746 222.85C569.834 217.804 568.023 212.12 567.998 207ZM584.055 198.671C580.138 196.417 576.516 196.05 573.848 197.593C571.18 199.136 569.711 202.493 569.711 207C569.711 216.701 576.589 228.509 584.985 233.359C588.901 235.613 592.523 235.981 595.191 234.437C597.859 232.894 599.328 229.538 599.328 225.03C599.328 220.18 597.59 214.815 594.824 210.038C592.058 205.261 588.24 201.096 584.055 198.695V198.671Z" fill="#4F5157"/>
<path d="M571.963 209.278C571.963 205.359 573.309 202.395 575.806 200.949C578.278 199.504 581.533 199.798 584.935 201.758C591.617 205.604 597.076 215.011 597.1 222.752C597.1 226.672 595.754 229.636 593.257 231.081C590.785 232.527 587.53 232.233 584.128 230.273C580.774 228.337 577.739 225.03 575.536 221.233C573.334 217.436 571.963 213.149 571.963 209.278ZM584.079 203.252C581.239 201.611 578.596 201.317 576.662 202.444C574.729 203.57 573.676 205.996 573.676 209.278C573.676 216.456 578.767 225.202 584.984 228.778C587.824 230.42 590.467 230.714 592.401 229.587C594.334 228.46 595.387 226.035 595.387 222.752C595.387 219.175 594.114 215.182 592.058 211.655C590.002 208.127 587.187 205.04 584.079 203.252Z" fill="#4F5157"/>
<path d="M569.54 175.521H571.4V171.111C571.4 170.425 571.596 169.911 571.914 169.715C572.257 169.519 572.795 169.592 573.407 169.96L573.921 170.254C575.512 171.185 576.883 173.512 576.883 175.349V175.815C576.883 178.313 578.596 181.278 580.774 182.527L581.264 182.821C582.488 183.507 583.663 183.605 584.593 183.041C585.523 182.503 586.061 181.425 586.061 180.028V179.563C586.061 178.877 586.257 178.362 586.6 178.166C586.943 177.97 587.481 178.044 588.093 178.411L588.387 178.583C589.978 179.514 591.348 181.841 591.348 183.678V184.144C591.348 186.643 593.062 189.607 595.24 190.856C596.439 191.542 597.639 191.64 598.569 191.077C599.499 190.538 600.037 189.46 600.013 188.063V187.598C600.013 186.912 600.209 186.398 600.551 186.202C600.894 186.006 601.433 186.079 602.044 186.447L602.436 186.667C604.027 187.598 605.398 189.925 605.398 191.763V196.172H607.258V191.763C607.258 189.264 605.545 186.3 603.366 185.05L602.975 184.83C601.775 184.144 600.576 184.046 599.646 184.609C598.691 185.148 598.177 186.226 598.177 187.623V188.088C598.177 188.774 597.981 189.288 597.639 189.484C597.296 189.68 596.758 189.607 596.146 189.239C594.555 188.308 593.184 185.981 593.184 184.144V183.678C593.184 181.18 591.471 178.215 589.292 176.966L588.999 176.795C587.799 176.109 586.6 176.011 585.67 176.574C584.74 177.113 584.201 178.191 584.201 179.587V180.053C584.201 180.739 584.005 181.253 583.663 181.449C583.32 181.645 582.782 181.572 582.17 181.204L581.68 180.91C580.089 179.979 578.718 177.652 578.718 175.815V175.349C578.718 172.85 577.005 169.886 574.827 168.637L574.313 168.343C573.113 167.657 571.914 167.559 570.984 168.122C570.054 168.661 569.515 169.739 569.54 171.136V175.545V175.521Z" fill="#436CFF"/>
<path d="M556.151 164.815H558.256V159.793C558.256 159.009 558.477 158.421 558.844 158.201C559.235 157.98 559.847 158.078 560.533 158.47L561.096 158.789C562.907 159.842 564.449 162.488 564.473 164.595V165.134C564.473 168 566.431 171.356 568.904 172.777L569.467 173.095C570.837 173.879 572.208 173.977 573.26 173.365C574.313 172.753 574.925 171.528 574.925 169.935V169.396C574.925 168.612 575.145 168.024 575.537 167.804C575.928 167.584 576.54 167.682 577.226 168.073L577.568 168.269C579.379 169.323 580.921 171.969 580.946 174.075V174.614C580.946 177.481 582.904 180.837 585.376 182.258C586.747 183.041 588.117 183.139 589.17 182.527C590.247 181.915 590.834 180.69 590.834 179.097V178.558C590.834 177.775 591.055 177.187 591.446 176.966C591.838 176.746 592.45 176.844 593.135 177.236L593.6 177.505C595.411 178.558 596.953 181.204 596.978 183.311V188.333H599.107V183.311C599.107 180.445 597.149 177.089 594.677 175.668L594.212 175.398C592.841 174.614 591.495 174.516 590.418 175.129C589.341 175.741 588.754 176.966 588.754 178.558V179.097C588.754 179.881 588.534 180.469 588.142 180.69C587.75 180.91 587.138 180.812 586.453 180.42C584.642 179.367 583.1 176.721 583.075 174.614V174.075C583.075 171.209 581.117 167.853 578.645 166.432L578.302 166.236C576.932 165.452 575.561 165.354 574.509 165.967C573.432 166.579 572.844 167.804 572.844 169.396V169.935C572.844 170.719 572.624 171.307 572.232 171.528C571.841 171.748 571.229 171.65 570.543 171.258L569.981 170.94C568.169 169.886 566.627 167.241 566.603 165.134V164.595C566.603 161.729 564.645 158.372 562.173 156.952L561.61 156.633C560.239 155.849 558.868 155.751 557.816 156.364C556.739 156.976 556.151 158.201 556.151 159.793V164.815Z" fill="#4F5157"/>
<path d="M290.938 62.0085L424.309 138.686C425.729 139.494 426.953 139.225 427.589 138.147L365.664 46.967C360.744 39.7402 354.185 35.9186 349.265 37.4864L287.389 56.9865C287.952 59.0688 289.322 61.1021 290.913 62.0085H290.938Z" fill="#B4C4FF"/>
<path d="M370.657 67.6674L329.047 44.3947L343.366 40.2546C346.205 39.4462 349.264 39.7647 351.859 41.1366L354.355 42.4594C356.754 43.7333 358.81 45.5706 360.352 47.8244L372.541 65.5851C373.398 66.8345 371.978 68.4023 370.657 67.6429V67.6674Z" fill="white"/>
<path d="M290.669 152.723L424.579 229.694C426.537 230.821 428.128 229.621 428.104 226.999L427.932 146.28C427.932 143.683 426.341 140.646 424.383 139.519L290.473 62.5719C288.515 61.445 286.924 62.6454 286.949 65.2666L287.12 145.986C287.12 148.583 288.711 151.621 290.669 152.747V152.723Z" fill="#B4C4FF"/>
<path d="M284.721 155.614L418.631 232.585C420.589 233.712 422.18 232.511 422.155 229.89L421.984 149.171C421.984 146.574 420.393 143.536 418.435 142.409L284.525 65.4381C282.567 64.3112 280.976 65.5116 281 68.1329L281.172 148.852C281.172 151.449 282.763 154.487 284.721 155.614Z" fill="white"/>
<path d="M286.067 145.202L285.896 64.4827C285.896 62.6944 286.532 61.2735 287.682 60.6121C288.686 60.0242 289.91 60.0977 291.133 60.7836L425.044 137.755C427.344 139.078 429.156 142.483 429.18 145.496L429.351 226.216C429.351 228.004 428.715 229.425 427.565 230.086C426.561 230.674 425.337 230.601 424.114 229.915L290.203 152.943C289.151 152.331 288.196 151.278 287.462 150.028C286.605 148.558 286.091 146.819 286.067 145.178V145.202ZM423.893 139.788L290.008 62.7924C289.738 62.6454 289.2 62.4004 288.833 62.6209C288.514 62.7924 288.196 63.3803 288.196 64.4827L288.368 145.202C288.368 147.407 289.738 150.053 291.354 150.959L425.264 227.93C425.533 228.102 426.072 228.322 426.439 228.126C426.757 227.955 427.1 227.367 427.075 226.265L426.904 145.545C426.904 144.32 426.488 142.948 425.827 141.822C425.313 140.915 424.652 140.18 423.918 139.764L423.893 139.788Z" fill="#4F5157"/>
<path d="M286.311 57.2804L286.018 56.227L348.946 36.384C354.331 34.6937 361.454 38.6868 366.643 46.33L428.984 138.122L428.592 138.759C427.589 140.401 425.655 140.793 423.746 139.69L290.374 63.0129C289.224 62.3514 288.171 61.2245 287.388 59.8527C286.923 59.0688 286.556 58.1868 286.311 57.2804ZM424.896 137.681C425.386 137.951 425.802 138.049 426.12 137.951L364.758 47.5794C360.132 40.7691 354.062 37.1434 349.656 38.5398L288.906 57.6969C289.518 59.1177 290.497 60.3916 291.549 61.0041L424.921 137.681H424.896Z" fill="#4F5157"/>
<path d="M384.755 180.503L406.123 192.776L406.049 158.406L384.682 146.133L384.755 180.503Z" fill="#436CFF"/>
<path d="M383.825 144.639L406.906 157.916L406.98 194.271L383.899 181.018L383.825 144.663V144.639ZM405.193 158.896L385.563 147.603L385.636 179.989L405.266 191.282L405.193 158.896Z" fill="#4F5157"/>
<path d="M388.965 177.808L401.913 185.231L401.84 161.101L388.916 153.654L388.965 177.808Z" fill="white"/>
<path d="M388.035 152.184L402.697 160.611L402.745 186.726L388.084 178.298L388.035 152.184ZM400.983 161.616L389.748 155.173L389.797 177.318L401.032 183.761L400.983 161.616Z" fill="#4F5157"/>
<path d="M358.835 180.822L377.045 191.307L376.996 173.595L358.811 163.134L358.835 180.822Z" fill="#436CFF"/>
<path d="M357.93 161.64L377.853 173.105L377.902 192.776L357.979 181.312L357.93 161.64ZM376.14 174.085L359.668 164.604V180.307L376.189 189.788V174.085H376.14Z" fill="#4F5157"/>
<path d="M362.8 178.764L373.055 184.668L373.031 175.653L362.775 169.773L362.8 178.764Z" fill="white"/>
<path d="M361.919 168.279L373.888 175.163V186.162L361.943 179.278V168.279H361.919ZM372.15 176.167L363.608 171.268V178.298L372.175 183.198V176.167H372.15Z" fill="#4F5157"/>
<path d="M398.585 189.91C398.585 187.313 399.491 185.354 401.131 184.398C402.77 183.443 404.924 183.639 407.152 184.913C411.557 187.436 415.131 193.634 415.156 198.705C415.156 201.302 414.25 203.261 412.61 204.217C410.97 205.172 408.816 204.976 406.564 203.702C404.361 202.428 402.354 200.248 400.91 197.749C399.466 195.251 398.561 192.433 398.561 189.886L398.585 189.91ZM406.54 185.991C404.68 184.937 402.991 184.741 401.742 185.476C400.494 186.211 399.809 187.779 399.809 189.91C399.809 194.589 403.138 200.322 407.201 202.649C409.061 203.702 410.75 203.898 411.998 203.163C413.246 202.428 413.932 200.861 413.932 198.729C413.932 196.378 413.1 193.781 411.753 191.478C410.407 189.175 408.571 187.167 406.54 185.991Z" fill="#4F5157"/>
<path d="M406.564 188.661C405.34 187.95 404.214 187.828 403.406 188.293C402.599 188.759 402.158 189.812 402.158 191.233C402.158 194.442 404.434 198.362 407.225 199.954C408.449 200.665 409.575 200.787 410.382 200.322C411.19 199.856 411.631 198.803 411.631 197.382C411.631 195.765 411.068 194.001 410.137 192.409C409.232 190.841 407.959 189.445 406.564 188.661Z" fill="#4F5157"/>
<path d="M300.704 101.425C300.704 96.2805 302.466 92.4099 305.697 90.5236C308.928 88.6373 313.163 89.0293 317.617 91.6015C326.502 96.697 333.723 109.191 333.747 119.431C333.747 124.575 331.985 128.446 328.754 130.332C325.523 132.218 321.289 131.826 316.834 129.254C312.404 126.706 308.365 122.297 305.453 117.275C302.54 112.228 300.704 106.545 300.704 101.425ZM316.761 93.0958C312.844 90.8421 309.222 90.4746 306.554 92.018C303.886 93.5613 302.417 96.9175 302.417 101.425C302.417 111.126 309.295 122.934 317.691 127.784C321.607 130.038 325.229 130.406 327.897 128.862C330.565 127.319 332.034 123.963 332.034 119.455C332.034 114.605 330.296 109.24 327.53 104.463C324.764 99.6857 320.946 95.5211 316.761 93.1203V93.0958Z" fill="#4F5157"/>
<path d="M304.645 103.703C304.645 99.7837 305.991 96.8195 308.487 95.3741C310.984 93.9288 314.215 94.2227 317.617 96.1826C324.299 100.029 329.757 109.436 329.782 117.152C329.782 121.072 328.436 124.036 325.939 125.482C323.467 126.927 320.211 126.633 316.809 124.673C313.456 122.738 310.421 119.431 308.218 115.634C306.015 111.836 304.645 107.549 304.645 103.679V103.703ZM316.76 97.6769C313.921 96.0356 311.278 95.7661 309.344 96.8685C307.41 97.9954 306.358 100.421 306.358 103.703C306.358 110.881 311.449 119.627 317.666 123.203C320.505 124.845 323.149 125.114 325.082 124.012C327.016 122.885 328.068 120.46 328.068 117.177C328.068 113.6 326.796 109.607 324.74 106.08C322.684 102.552 319.869 99.4652 316.76 97.6769Z" fill="#4F5157"/>
<path d="M315.609 76.1926L408.301 129.475L408.766 110.734C408.766 105.467 405.535 99.3427 401.595 97.089L323.222 52.0135C319.256 49.7352 316.074 52.1605 316.074 57.4274L315.609 76.1681V76.1926Z" fill="#436CFF"/>
<path d="M315.952 76.462L404.752 127.637L405.168 113.331C405.168 108.064 401.938 101.939 397.997 99.6857L323.515 56.7415C319.55 54.4632 316.368 56.8885 316.368 62.1555L315.952 76.462Z" fill="white"/>
<path d="M315.218 57.4519C315.218 54.3652 316.271 51.989 318.106 50.9111C319.673 50.0047 321.655 50.1272 323.638 51.2785L402.011 96.3295C406.197 98.7303 409.623 105.198 409.623 110.734L409.158 130.969L314.729 76.6825L315.194 57.4274L315.218 57.4519ZM407.91 110.734C407.91 105.737 404.875 99.9552 401.155 97.8239L322.781 52.7729C321.313 51.94 319.991 51.793 318.963 52.4054C317.666 53.1648 316.931 55.0022 316.931 57.4519L316.466 75.7026L407.445 128.005L407.91 110.734Z" fill="#4F5157"/>
<path d="M317.421 110.563H319.526V105.541C319.526 104.757 319.746 104.169 320.113 103.948C320.505 103.728 321.117 103.826 321.802 104.218L322.365 104.536C324.176 105.59 325.718 108.235 325.743 110.342V110.881C325.743 113.747 327.701 117.103 330.173 118.524L330.736 118.843C332.107 119.627 333.477 119.725 334.53 119.112C335.607 118.5 336.194 117.275 336.194 115.683V115.144C336.194 114.36 336.415 113.772 336.806 113.551C337.198 113.331 337.81 113.429 338.495 113.821L338.838 114.017C340.649 115.07 342.191 117.716 342.215 119.823V120.362C342.215 123.228 344.174 126.584 346.646 128.005C348.016 128.789 349.387 128.887 350.439 128.274C351.516 127.662 352.104 126.437 352.104 124.845V124.306C352.104 123.522 352.324 122.934 352.716 122.713C353.107 122.493 353.719 122.591 354.405 122.983L354.87 123.252C356.681 124.306 358.223 126.951 358.247 129.058V134.08H360.377V129.058C360.377 126.192 358.419 122.836 355.947 121.415L355.482 121.146C354.111 120.362 352.765 120.264 351.688 120.876C350.611 121.489 350.023 122.713 350.023 124.306V124.845C350.023 125.629 349.803 126.217 349.411 126.437C349.02 126.658 348.408 126.56 347.723 126.168C345.911 125.114 344.369 122.468 344.345 120.362V119.823C344.345 116.956 342.387 113.6 339.915 112.179L339.572 111.983C338.201 111.2 336.831 111.102 335.778 111.714C334.701 112.326 334.114 113.551 334.114 115.144V115.683C334.114 116.467 333.893 117.054 333.502 117.275C333.11 117.495 332.498 117.397 331.813 117.005L331.25 116.687C329.439 115.634 327.897 112.988 327.872 110.881V110.342C327.872 107.476 325.914 104.12 323.442 102.699L322.879 102.38C321.508 101.597 320.138 101.499 319.085 102.111C318.008 102.723 317.421 103.948 317.421 105.541V110.563Z" fill="#4F5157"/>
<path d="M299.749 142.826H301.609V138.416C301.609 137.73 301.781 137.216 302.123 137.02C302.466 136.824 303.004 136.897 303.616 137.265L304.13 137.559C305.721 138.49 307.092 140.817 307.092 142.654V143.12C307.092 145.619 308.805 148.583 310.984 149.832L311.473 150.126C312.697 150.812 313.872 150.91 314.802 150.347C315.732 149.808 316.271 148.73 316.271 147.333V146.868C316.271 146.182 316.466 145.668 316.809 145.472C317.152 145.276 317.69 145.349 318.302 145.717L318.596 145.888C320.187 146.819 321.557 149.146 321.557 150.984V151.449C321.557 153.948 323.271 156.912 325.449 158.161C326.649 158.847 327.848 158.945 328.778 158.382C329.708 157.843 330.247 156.765 330.222 155.369V154.903C330.222 154.217 330.418 153.703 330.761 153.507C331.103 153.311 331.642 153.384 332.254 153.752L332.645 153.972C334.236 154.903 335.607 157.23 335.607 159.068V163.477H337.467V159.068C337.467 156.569 335.754 153.605 333.575 152.355L333.184 152.135C331.984 151.449 330.785 151.351 329.855 151.914C328.9 152.453 328.386 153.531 328.411 154.928V155.393C328.411 156.079 328.215 156.594 327.872 156.79C327.53 156.985 326.991 156.912 326.379 156.545C324.788 155.614 323.418 153.286 323.418 151.449V150.984C323.418 148.485 321.704 145.521 319.526 144.271L319.232 144.1C318.033 143.414 316.834 143.316 315.903 143.879C314.973 144.418 314.435 145.496 314.459 146.892V147.358C314.459 148.044 314.264 148.558 313.921 148.754C313.578 148.95 313.04 148.877 312.428 148.509L311.938 148.215C310.347 147.284 308.977 144.957 308.977 143.12V142.654C308.977 140.156 307.263 137.191 305.085 135.942L304.571 135.648C303.372 134.962 302.172 134.864 301.242 135.428C300.312 135.967 299.773 137.044 299.798 138.441V142.85L299.749 142.826Z" fill="#436CFF"/>
<path d="M333.597 41.7377L332.653 43.4271L379.637 69.7082L380.58 68.0188L333.597 41.7377Z" fill="#4F5157"/>
</svg>
