<svg width="1924" height="992" viewBox="0 0 1924 992" fill="none" xmlns="http://www.w3.org/2000/svg">
<g opacity="0.5">
<line x1="62.5" y1="-2.18557e-08" x2="62.5" y2="992" stroke="#D9E2FF"/>
<line x1="122.5" y1="-2.18557e-08" x2="122.5" y2="992" stroke="#D9E2FF"/>
<line x1="182.5" y1="-2.18557e-08" x2="182.5" y2="992" stroke="#D9E2FF"/>
<line x1="242.5" y1="-2.18557e-08" x2="242.5" y2="992" stroke="#D9E2FF"/>
<line x1="302.5" y1="-2.18557e-08" x2="302.5" y2="992" stroke="#D9E2FF"/>
<line x1="362.5" y1="-2.18557e-08" x2="362.5" y2="992" stroke="#D9E2FF"/>
<line x1="422.5" y1="-2.18557e-08" x2="422.5" y2="992" stroke="#D9E2FF"/>
<line x1="482.5" y1="-2.18557e-08" x2="482.501" y2="992" stroke="#D9E2FF"/>
<line x1="542.5" y1="-2.18557e-08" x2="542.501" y2="992" stroke="#D9E2FF"/>
<line x1="602.5" y1="-2.18557e-08" x2="602.501" y2="992" stroke="#D9E2FF"/>
<line x1="662.5" y1="-2.18557e-08" x2="662.501" y2="992" stroke="#D9E2FF"/>
<line x1="722.5" y1="-2.18557e-08" x2="722.501" y2="992" stroke="#D9E2FF"/>
<line x1="782.5" y1="-2.18557e-08" x2="782.501" y2="992" stroke="#D9E2FF"/>
<line x1="842.5" y1="-2.18557e-08" x2="842.501" y2="992" stroke="#D9E2FF"/>
<line x1="902.5" y1="-2.18557e-08" x2="902.501" y2="992" stroke="#D9E2FF"/>
<line x1="962.501" y1="-2.18557e-08" x2="962.501" y2="992" stroke="#D9E2FF"/>
<line x1="1022.5" y1="-2.18557e-08" x2="1022.5" y2="992" stroke="#D9E2FF"/>
<line x1="1082.5" y1="-2.18557e-08" x2="1082.5" y2="992" stroke="#D9E2FF"/>
<line x1="1142.5" y1="-2.18557e-08" x2="1142.5" y2="992" stroke="#D9E2FF"/>
<line x1="1202.5" y1="-2.18557e-08" x2="1202.5" y2="992" stroke="#D9E2FF"/>
<line x1="1262.5" y1="-2.18557e-08" x2="1262.5" y2="992" stroke="#D9E2FF"/>
<line x1="1322.5" y1="-2.18557e-08" x2="1322.5" y2="992" stroke="#D9E2FF"/>
<line x1="1382.5" y1="-2.18557e-08" x2="1382.5" y2="992" stroke="#D9E2FF"/>
<line x1="1442.5" y1="-2.18557e-08" x2="1442.5" y2="992" stroke="#D9E2FF"/>
<line x1="1502.5" y1="-2.18557e-08" x2="1502.5" y2="992" stroke="#D9E2FF"/>
<line x1="1562.5" y1="-2.18557e-08" x2="1562.5" y2="992" stroke="#D9E2FF"/>
<line x1="1622.5" y1="-2.18557e-08" x2="1622.5" y2="992" stroke="#D9E2FF"/>
<line x1="1682.5" y1="-2.18557e-08" x2="1682.5" y2="992" stroke="#D9E2FF"/>
<line x1="1742.5" y1="-2.18557e-08" x2="1742.5" y2="992" stroke="#D9E2FF"/>
<line x1="1802.5" y1="-2.18557e-08" x2="1802.5" y2="992" stroke="#D9E2FF"/>
<line x1="1862.5" y1="-2.18557e-08" x2="1862.5" y2="992" stroke="#D9E2FF"/>
<line x1="1922.5" y1="-2.18557e-08" x2="1922.5" y2="992" stroke="#D9E2FF"/>
</g>
<g opacity="0.5">
<line x1="-4.37114e-08" y1="991.5" x2="1924" y2="991.5" stroke="#D9E2FF"/>
<line x1="-4.37114e-08" y1="931.5" x2="1924" y2="931.5" stroke="#D9E2FF"/>
<line x1="-4.37114e-08" y1="871.5" x2="1924" y2="871.5" stroke="#D9E2FF"/>
<line x1="-4.37114e-08" y1="811.5" x2="1924" y2="811.499" stroke="#D9E2FF"/>
<line x1="-4.37114e-08" y1="751.5" x2="1924" y2="751.499" stroke="#D9E2FF"/>
<line x1="-4.37114e-08" y1="691.5" x2="1924" y2="691.499" stroke="#D9E2FF"/>
<line x1="-4.37114e-08" y1="631.5" x2="1924" y2="631.499" stroke="#D9E2FF"/>
<line x1="-4.37114e-08" y1="571.5" x2="1924" y2="571.499" stroke="#D9E2FF"/>
<line x1="-4.37114e-08" y1="511.5" x2="1924" y2="511.499" stroke="#D9E2FF"/>
<line x1="-4.37114e-08" y1="451.499" x2="1924" y2="451.499" stroke="#D9E2FF"/>
<line x1="-4.37114e-08" y1="391.499" x2="1924" y2="391.499" stroke="#D9E2FF"/>
<line x1="-4.37114e-08" y1="331.499" x2="1924" y2="331.499" stroke="#D9E2FF"/>
<line x1="-4.37114e-08" y1="271.499" x2="1924" y2="271.499" stroke="#D9E2FF"/>
<line x1="-4.37114e-08" y1="211.499" x2="1924" y2="211.499" stroke="#D9E2FF"/>
<line x1="-4.37114e-08" y1="151.499" x2="1924" y2="151.499" stroke="#D9E2FF"/>
<line x1="-4.37114e-08" y1="91.499" x2="1924" y2="91.4989" stroke="#D9E2FF"/>
<line x1="-4.37114e-08" y1="31.499" x2="1924" y2="31.4989" stroke="#D9E2FF"/>
</g>
</svg>
