<svg width="477" height="652" viewBox="0 0 477 652" fill="none" xmlns="http://www.w3.org/2000/svg">
<path d="M334.187 119.043C348.785 143.268 407.389 208.782 450.443 184.241C493.497 159.699 476.752 125.071 436.495 131.18C404.06 136.102 297.768 191.128 263.081 212.304C235.493 229.147 205.37 262.27 170.744 299.043" stroke="black" stroke-dasharray="6 6"/>
<path d="M337.432 115.956L330.241 108.294L331.438 107.305L331.481 107.413L339.224 100.733C339.318 100.647 339.238 100.497 339.115 100.518L334.101 101.55C334.101 101.55 334.043 101.514 334.014 101.5L325.103 97.2929C324.646 97.0779 324.196 96.6551 323.913 96.1749L322.716 94.1395L322.803 94.2542L324.973 91.9894L320.561 82.1564C320.525 82.0776 320.423 82.0561 320.358 82.1134L316.164 85.7327C316.084 85.8044 316.018 85.8976 315.982 86.0194L314.125 91.5164L308.196 88.0118C308.116 87.9616 308.015 87.976 307.95 88.0333L304.06 91.3874L303.741 91.6669C303.342 92.0181 303.451 92.8853 304.155 93.6665L311.665 102.03C312.049 102.46 312.296 102.976 312.311 103.406L312.594 111.734C312.63 112.816 313.979 114.092 314.879 113.891L321.787 112.336C322.143 112.257 322.622 112.415 323.064 112.766L331.634 119.546C332.251 120.033 332.817 120.091 333.143 119.854L337.41 116.185C337.482 116.128 337.482 116.02 337.424 115.956H337.432Z" fill="#7C99FF"/>
<path d="M306.433 95.6087L306.752 95.3292L310.634 91.9751C310.707 91.9178 310.808 91.9034 310.881 91.9536L316.809 95.451L318.667 89.954C318.711 89.8322 318.769 89.739 318.848 89.6674L322.513 86.5068L320.561 82.1564C320.525 82.0776 320.423 82.0561 320.358 82.1134L316.164 85.7327C316.084 85.8044 316.018 85.8976 315.982 86.0194L314.125 91.5164L308.196 88.0118C308.116 87.9616 308.015 87.976 307.95 88.0333L304.06 91.3874L303.741 91.6669C303.342 92.0181 303.451 92.8853 304.155 93.6665L306.223 95.9742C306.259 95.8237 306.324 95.7019 306.426 95.6087H306.433Z" fill="white"/>
<path d="M314.995 107.355C314.981 106.925 314.741 106.409 314.349 105.979L312.31 103.714L312.586 111.741C312.622 112.823 313.972 114.099 314.872 113.898L315.205 113.819L314.988 107.362L314.995 107.355Z" fill="#7C99FF"/>
<path d="M312.942 113.326C312.514 112.846 312.253 112.272 312.231 111.749L311.948 103.421C311.933 103.077 311.723 102.654 311.396 102.267L303.886 93.9107C303.066 92.9934 302.914 91.9183 303.502 91.4023L307.71 87.7687C307.899 87.6038 308.167 87.5823 308.385 87.7113L313.929 90.9795L315.641 85.9053C315.699 85.7333 315.794 85.5828 315.932 85.4681L320.126 81.8417C320.242 81.7413 320.401 81.6983 320.554 81.7342C320.706 81.77 320.837 81.8703 320.895 82.0137L325.408 92.0617L323.246 94.3192L324.233 95.9963C324.479 96.4191 324.864 96.7846 325.263 96.971L334.166 101.171L339.043 100.167C339.26 100.124 339.478 100.225 339.58 100.425C339.681 100.626 339.63 100.855 339.463 100.999L331.351 108.001L331.3 107.886L330.77 108.323L337.7 115.705C337.795 115.798 337.845 115.949 337.838 116.085C337.831 116.221 337.765 116.357 337.657 116.451L333.39 120.12C332.868 120.5 332.12 120.378 331.409 119.819L322.839 113.039C322.491 112.767 322.114 112.623 321.867 112.681L314.959 114.236C314.495 114.344 313.951 114.179 313.428 113.777C313.247 113.641 313.087 113.491 312.942 113.326ZM311.955 101.816C312.383 102.303 312.652 102.891 312.673 103.4L312.956 111.728C312.971 112.208 313.348 112.817 313.871 113.218C314.212 113.476 314.56 113.598 314.8 113.548L321.707 111.993C322.179 111.885 322.752 112.072 323.289 112.494L331.859 119.274C332.345 119.661 332.759 119.704 332.933 119.575L337.025 116.064L329.718 108.28L331.576 106.747L331.619 106.84L338.302 101.07L334.05 101.945L333.862 101.844L324.951 97.6375C324.429 97.3867 323.921 96.9208 323.609 96.3761L322.411 94.3407L322.687 94.1616L322.549 94.0326L324.552 91.9398L320.358 82.587L316.403 85.9985C316.403 85.9985 316.345 86.0701 316.323 86.1275L314.328 92.0473L308.109 88.3779L303.981 91.9398C303.77 92.119 303.85 92.8142 304.43 93.4305L311.941 101.794L311.962 101.816H311.955Z" fill="#141516"/>
<path d="M322.775 83.11L328.246 92.4413C328.529 92.9215 328.972 93.3444 329.436 93.5594L338.347 97.7663C339.508 98.311 340.24 99.8806 339.587 100.418L334.573 104.561C334.312 104.776 334.261 105.191 334.428 105.671L337.665 114.996C338.085 116.207 337.084 116.687 335.967 115.805L327.397 109.026C326.954 108.674 326.475 108.517 326.12 108.596L319.212 110.151C318.312 110.351 316.963 109.083 316.926 107.993L316.643 99.6656C316.629 99.2355 316.389 98.7195 315.997 98.2895L308.48 89.9329C307.5 88.8436 307.667 87.5822 308.763 87.79L317.158 89.4169C317.594 89.5029 317.92 89.3452 318.036 88.9941L320.308 82.2787C320.605 81.4043 322.056 81.8917 322.768 83.11H322.775Z" fill="white"/>
<path d="M309.263 90.6426L316.077 98.2251C316.461 98.6552 316.708 99.1712 316.723 99.6012L317.006 107.929C317.042 109.011 318.392 110.287 319.291 110.086L326.199 108.531C326.555 108.452 327.034 108.61 327.476 108.961L333.963 114.085L331.823 107.922C331.656 107.442 331.707 107.026 331.968 106.811L334.486 104.733C334.529 104.64 334.58 104.554 334.653 104.489L337.163 102.418C337.439 101.751 336.75 100.49 335.741 100.017L326.831 95.8099C326.373 95.5949 325.923 95.1721 325.64 94.6919L320.169 85.3606C320.002 85.0811 319.799 84.8374 319.574 84.6367L318.123 88.9369C318.007 89.288 317.673 89.4385 317.245 89.3597L316.149 89.1447L315.438 91.2518C315.322 91.5958 314.988 91.7534 314.56 91.6746L309.263 90.6497V90.6426Z" fill="#F14C4C"/>
<path d="M317.267 109.592C316.839 109.112 316.578 108.538 316.556 108.015L316.273 99.6873C316.258 99.3433 316.048 98.8775 315.721 98.5334L308.211 90.1769C307.544 89.41 307.29 88.4998 307.631 87.9049C307.863 87.5108 308.298 87.3388 308.835 87.4463L317.231 89.0732C317.485 89.1233 317.637 89.0588 317.695 88.894L319.966 82.1643C320.097 81.7701 320.416 81.5264 320.83 81.4834C321.599 81.4046 322.55 82.0138 323.087 82.9311L328.558 92.2624C328.804 92.6853 329.189 93.0508 329.588 93.2371L338.499 97.4441C339.348 97.8454 340.066 98.7843 340.175 99.6228C340.233 100.074 340.102 100.454 339.812 100.698L334.798 104.833C334.66 104.948 334.646 105.227 334.762 105.557L337.998 114.881C338.23 115.555 338.114 116.128 337.679 116.429C337.178 116.773 336.431 116.644 335.727 116.085L327.157 109.305C326.809 109.033 326.432 108.89 326.185 108.947L319.277 110.502C318.813 110.61 318.268 110.445 317.746 110.043C317.565 109.907 317.405 109.757 317.26 109.592H317.267ZM316.28 98.0819C316.716 98.5693 316.977 99.157 316.999 99.6658L317.282 107.994C317.296 108.474 317.673 109.083 318.196 109.484C318.537 109.742 318.885 109.864 319.125 109.814L326.033 108.259C326.504 108.151 327.077 108.338 327.614 108.761L336.184 115.54C336.677 115.927 337.091 115.978 337.265 115.856C337.418 115.748 337.432 115.469 337.316 115.125L334.08 105.801C333.862 105.17 333.956 104.611 334.334 104.296L339.348 100.153C339.471 100.053 339.471 99.8593 339.457 99.7232C339.391 99.1856 338.898 98.4331 338.187 98.0963L329.276 93.8893C328.754 93.6385 328.246 93.1726 327.934 92.6279L322.455 83.2895C322.027 82.5584 321.316 82.1571 320.902 82.2001C320.772 82.2144 320.692 82.2718 320.648 82.3936L318.385 89.1162C318.21 89.6322 317.702 89.8973 317.093 89.7755L308.697 88.1486C308.473 88.1056 308.327 88.1486 308.262 88.2633C308.131 88.4855 308.175 89.1018 308.755 89.7038L316.266 98.0676L316.287 98.0891L316.28 98.0819Z" fill="#141516"/>
<path d="M317.688 109.527L313.363 113.261L314.386 113.87L322.412 112.408L326.918 108.517L325.561 108.681L319.205 110.158L318.312 110.229L317.688 109.527Z" fill="#141516"/>
<path d="M316.214 98.7754L311.904 102.497L312.381 103.037L316.692 99.3149L316.214 98.7754Z" fill="#141516"/>
<path d="M308.54 90.0937L304.23 93.8154L304.707 94.355L309.018 90.6333L308.54 90.0937Z" fill="#141516"/>
<path d="M152.72 335.278L160.485 327.004L159.192 325.936L159.145 326.052L150.784 318.839C150.683 318.746 150.769 318.584 150.902 318.607L156.317 319.721C156.317 319.721 156.379 319.683 156.411 319.667L166.033 315.124C166.527 314.892 167.013 314.435 167.318 313.917L168.611 311.719L168.517 311.843L166.174 309.397L170.938 298.779C170.978 298.694 171.087 298.67 171.158 298.732L175.687 302.641C175.773 302.718 175.844 302.819 175.883 302.95L177.889 308.886L184.291 305.102C184.377 305.048 184.487 305.063 184.557 305.125L188.757 308.747L189.102 309.049C189.533 309.428 189.415 310.365 188.655 311.208L180.545 320.24C180.13 320.704 179.863 321.262 179.848 321.726L179.542 330.719C179.503 331.888 178.045 333.265 177.074 333.049L169.614 331.369C169.23 331.284 168.713 331.454 168.235 331.834L158.981 339.155C158.315 339.681 157.703 339.743 157.351 339.488L152.743 335.525C152.665 335.463 152.665 335.347 152.728 335.278H152.72Z" fill="#7C99FF"/>
<path d="M186.196 313.305L185.851 313.003L181.659 309.381C181.581 309.319 181.471 309.303 181.393 309.357L174.991 313.134L172.985 307.198C172.938 307.067 172.875 306.966 172.789 306.889L168.832 303.476L170.94 298.778C170.979 298.693 171.088 298.669 171.159 298.731L175.688 302.64C175.774 302.717 175.845 302.818 175.884 302.949L177.89 308.885L184.292 305.101C184.378 305.047 184.488 305.062 184.558 305.124L188.758 308.746L189.103 309.048C189.534 309.427 189.417 310.364 188.657 311.207L186.423 313.699C186.384 313.537 186.314 313.405 186.204 313.305H186.196Z" fill="white"/>
<path d="M176.95 325.989C176.966 325.525 177.224 324.968 177.647 324.503L179.849 322.058L179.552 330.726C179.512 331.894 178.055 333.272 177.083 333.055L176.723 332.97L176.958 325.997L176.95 325.989Z" fill="#7C99FF"/>
<path d="M179.166 332.437C179.628 331.919 179.91 331.3 179.934 330.735L180.239 321.741C180.255 321.37 180.482 320.913 180.835 320.495L188.945 311.471C189.831 310.481 189.995 309.32 189.36 308.763L184.816 304.839C184.612 304.661 184.322 304.637 184.087 304.777L178.1 308.306L176.251 302.826C176.188 302.641 176.086 302.478 175.938 302.354L171.408 298.438C171.283 298.33 171.111 298.283 170.946 298.322C170.782 298.361 170.641 298.469 170.578 298.624L165.704 309.475L168.039 311.912L166.973 313.723C166.707 314.18 166.292 314.575 165.861 314.776L156.246 319.311L150.98 318.228C150.745 318.181 150.51 318.29 150.4 318.506C150.291 318.723 150.346 318.971 150.526 319.126L159.286 326.687L159.341 326.563L159.913 327.035L152.43 335.007C152.328 335.107 152.273 335.27 152.281 335.417C152.289 335.564 152.359 335.711 152.477 335.812L157.084 339.774C157.649 340.184 158.456 340.053 159.224 339.449L168.478 332.128C168.854 331.834 169.261 331.679 169.528 331.741L176.988 333.42C177.489 333.536 178.077 333.358 178.641 332.925C178.837 332.778 179.009 332.615 179.166 332.437ZM180.232 320.008C179.769 320.534 179.479 321.169 179.456 321.718L179.15 330.711C179.135 331.23 178.727 331.888 178.163 332.321C177.795 332.6 177.419 332.731 177.16 332.677L169.7 330.998C169.191 330.882 168.572 331.083 167.992 331.54L158.738 338.861C158.213 339.279 157.766 339.325 157.578 339.186L153.159 335.394L161.049 326.989L159.043 325.333L158.996 325.433L151.78 319.203L156.371 320.147L156.575 320.039L166.198 315.496C166.762 315.225 167.31 314.722 167.647 314.134L168.94 311.936L168.642 311.742L168.791 311.603L166.629 309.343L171.158 299.243L175.428 302.927C175.428 302.927 175.491 303.004 175.514 303.066L177.669 309.459L184.385 305.496L188.843 309.343C189.071 309.536 188.984 310.287 188.357 310.953L180.247 319.985L180.224 320.008H180.232Z" fill="#141516"/>
<path d="M168.548 299.807L162.64 309.883C162.334 310.402 161.856 310.859 161.355 311.091L151.733 315.634C150.479 316.222 149.687 317.917 150.393 318.497L155.807 322.971C156.089 323.203 156.144 323.652 155.964 324.17L152.469 334.239C152.015 335.547 153.096 336.066 154.303 335.114L163.557 327.792C164.035 327.413 164.552 327.243 164.936 327.328L172.396 329.007C173.367 329.224 174.825 327.854 174.864 326.678L175.17 317.685C175.185 317.22 175.444 316.663 175.867 316.199L183.985 307.175C185.043 305.998 184.863 304.636 183.679 304.861L174.613 306.617C174.143 306.71 173.791 306.54 173.665 306.161L171.213 298.909C170.891 297.965 169.324 298.491 168.556 299.807H168.548Z" fill="white"/>
<path d="M183.139 307.942L175.781 316.13C175.366 316.594 175.099 317.152 175.084 317.616L174.778 326.609C174.739 327.778 173.281 329.155 172.31 328.939L164.85 327.259C164.466 327.174 163.949 327.344 163.471 327.724L156.466 333.257L158.777 326.601C158.957 326.083 158.902 325.634 158.62 325.402L155.901 323.157C155.854 323.057 155.799 322.964 155.721 322.894L153.01 320.657C152.712 319.938 153.457 318.576 154.546 318.065L164.168 313.522C164.662 313.29 165.148 312.833 165.453 312.314L171.362 302.238C171.542 301.936 171.761 301.673 172.004 301.456L173.571 306.1C173.697 306.479 174.057 306.641 174.519 306.556L175.703 306.324L176.471 308.6C176.596 308.971 176.956 309.141 177.419 309.056L183.139 307.949V307.942Z" fill="#F14C4C"/>
<path d="M174.496 328.404C174.959 327.886 175.241 327.267 175.264 326.702L175.57 317.708C175.586 317.337 175.813 316.834 176.166 316.462L184.276 307.438C184.997 306.61 185.271 305.627 184.903 304.985C184.652 304.559 184.182 304.373 183.602 304.49L174.536 306.246C174.261 306.301 174.097 306.231 174.034 306.053L171.582 298.786C171.44 298.36 171.096 298.097 170.649 298.05C169.818 297.965 168.792 298.623 168.212 299.614L162.304 309.69C162.037 310.147 161.622 310.542 161.191 310.743L151.569 315.286C150.652 315.719 149.876 316.733 149.759 317.639C149.696 318.126 149.837 318.537 150.15 318.8L155.565 323.265C155.714 323.389 155.729 323.691 155.604 324.047L152.109 334.116C151.859 334.843 151.984 335.463 152.454 335.788C152.995 336.159 153.802 336.02 154.562 335.416L163.816 328.095C164.192 327.801 164.6 327.646 164.866 327.708L172.326 329.387C172.827 329.503 173.415 329.325 173.979 328.892C174.175 328.745 174.348 328.582 174.504 328.404H174.496ZM175.562 315.975C175.092 316.501 174.81 317.136 174.786 317.685L174.481 326.678C174.465 327.197 174.058 327.855 173.493 328.288C173.125 328.567 172.749 328.698 172.49 328.644L165.031 326.965C164.521 326.849 163.902 327.05 163.322 327.506L154.068 334.828C153.535 335.246 153.089 335.3 152.901 335.168C152.736 335.052 152.721 334.751 152.846 334.379L156.341 324.31C156.576 323.629 156.474 323.025 156.066 322.685L150.652 318.211C150.519 318.103 150.519 317.894 150.534 317.747C150.605 317.167 151.138 316.354 151.906 315.99L161.528 311.447C162.092 311.176 162.641 310.673 162.978 310.085L168.894 300.001C169.356 299.211 170.124 298.778 170.571 298.824C170.712 298.84 170.798 298.902 170.845 299.033L173.29 306.293C173.478 306.85 174.026 307.136 174.685 307.005L183.751 305.248C183.994 305.202 184.15 305.248 184.221 305.372C184.362 305.612 184.315 306.277 183.688 306.927L175.578 315.959L175.554 315.983L175.562 315.975Z" fill="#141516"/>
<path d="M174.042 328.334L178.712 332.367L177.607 333.024L168.941 331.446L164.075 327.243L165.54 327.421L172.404 329.015L173.368 329.093L174.042 328.334Z" fill="#141516"/>
<path d="M175.632 316.724L180.287 320.743L179.771 321.326L175.116 317.307L175.632 316.724Z" fill="#141516"/>
<path d="M183.919 307.348L188.574 311.367L188.058 311.95L183.404 307.931L183.919 307.348Z" fill="#141516"/>
<path d="M154.937 334.773L159.513 338.721L158.354 339.649L157.343 339.487L152.986 335.725L154.937 334.773Z" fill="#141516"/>
<path d="M201.818 1.04297C189.688 11.167 172.707 36.5025 201.818 56.8519C232.501 78.301 278.357 66.9513 307.744 89.043" stroke="black" stroke-dasharray="6 6"/>
<path d="M65.996 251.03L65.5963 250.674L60.737 246.406C60.6462 246.333 60.519 246.314 60.4282 246.378L53.0075 250.829L50.6823 243.833C50.6278 243.678 50.5551 243.56 50.4552 243.469L45.8684 239.446L48.3117 233.909C48.3571 233.809 48.4842 233.782 48.566 233.855L53.8159 238.461C53.9158 238.552 53.9975 238.671 54.0429 238.826L56.3682 245.822L63.7888 241.362C63.8887 241.298 64.0159 241.316 64.0976 241.389L68.966 245.658L69.3657 246.013C69.8652 246.46 69.729 247.564 68.848 248.558L66.2594 251.495C66.2139 251.304 66.1322 251.149 66.005 251.03H65.996Z" fill="white"/>
<path d="M57.8485 273.578C58.3844 272.967 58.7114 272.237 58.7387 271.571L59.0929 260.972C59.111 260.535 59.3745 259.996 59.7832 259.504L69.1839 248.868C70.2103 247.701 70.401 246.333 69.6653 245.676L64.3973 241.051C64.1611 240.842 63.825 240.814 63.5526 240.978L56.6133 245.138L54.4697 238.68C54.3971 238.461 54.279 238.269 54.1064 238.124L48.8565 233.508C48.7112 233.38 48.5114 233.326 48.3206 233.371C48.1299 233.417 47.9664 233.545 47.8937 233.727L42.2442 246.515L44.9509 249.388L43.7156 251.523C43.4068 252.061 42.9254 252.526 42.4259 252.763L31.2812 258.108L25.1776 256.831C24.9051 256.777 24.6326 256.904 24.5054 257.16C24.3783 257.415 24.4419 257.707 24.6508 257.889L34.8054 266.801L34.869 266.655L35.532 267.211L26.8579 276.606C26.7398 276.725 26.6762 276.916 26.6853 277.09C26.6944 277.263 26.7761 277.436 26.9124 277.555L32.2531 282.225C32.9071 282.708 33.8426 282.553 34.7327 281.842L45.4595 273.213C45.8955 272.866 46.3678 272.684 46.6766 272.757L55.3235 274.736C55.9048 274.873 56.586 274.663 57.24 274.153C57.4671 273.979 57.6669 273.788 57.8485 273.578ZM59.0838 258.929C58.5479 259.549 58.2118 260.297 58.1846 260.945L57.8304 271.544C57.8122 272.155 57.3399 272.93 56.6859 273.441C56.259 273.769 55.8231 273.925 55.5233 273.861L46.8765 271.881C46.2861 271.745 45.5685 271.982 44.8964 272.52L34.1696 281.149C33.561 281.641 33.0433 281.696 32.8253 281.532L27.7026 277.062L36.849 267.157L34.5238 265.205L34.4693 265.323L26.104 257.981L31.4266 259.093L31.6627 258.966L42.8164 253.611C43.4704 253.292 44.1062 252.699 44.4968 252.006L45.9954 249.416L45.6503 249.188L45.8229 249.023L43.316 246.36L48.5659 234.457L53.516 238.799C53.516 238.799 53.5887 238.89 53.6159 238.963L56.1137 246.497L63.8977 241.827L69.0658 246.36C69.3292 246.588 69.2293 247.473 68.5027 248.257L59.102 258.902L59.0747 258.929H59.0838Z" fill="#D3D4D5"/>
<path d="M45.5417 235.122L38.6933 246.998C38.339 247.609 37.785 248.147 37.2037 248.421L26.05 253.775C24.5967 254.468 23.6793 256.466 24.4968 257.15L30.773 262.422C31.1 262.696 31.1636 263.225 30.9547 263.836L26.9038 275.703C26.3769 277.244 27.6304 277.855 29.0291 276.733L39.756 268.105C40.31 267.658 40.9095 267.457 41.3545 267.557L50.0014 269.537C51.1277 269.792 52.8171 268.178 52.8625 266.791L53.2167 256.192C53.2349 255.645 53.5346 254.988 54.0251 254.441L63.4349 243.806C64.6611 242.419 64.4522 240.814 63.0807 241.078L52.5719 243.149C52.0269 243.258 51.6182 243.058 51.4728 242.611L48.6299 234.064C48.2575 232.951 46.4409 233.571 45.5508 235.122H45.5417Z" fill="white"/>
<path d="M52.4357 268.825C52.9716 268.214 53.2985 267.484 53.3258 266.819L53.68 256.22C53.6982 255.782 53.9616 255.189 54.3703 254.751L63.7711 244.116C64.6067 243.14 64.9246 241.981 64.4977 241.224C64.207 240.723 63.6621 240.504 62.9899 240.641L52.4811 242.711C52.1632 242.775 51.9724 242.693 51.8998 242.483L49.0569 233.918C48.8934 233.417 48.4937 233.106 47.976 233.052C47.0132 232.951 45.8234 233.727 45.1512 234.894L38.3028 246.77C37.994 247.308 37.5126 247.773 37.013 248.011L25.8593 253.365C24.7966 253.876 23.8974 255.07 23.7612 256.138C23.6885 256.712 23.852 257.196 24.2153 257.506L30.4915 262.769C30.6641 262.915 30.6823 263.27 30.5369 263.69L26.486 275.557C26.1954 276.414 26.3407 277.144 26.8856 277.527C27.5124 277.965 28.4479 277.801 29.3289 277.089L40.0558 268.46C40.4917 268.114 40.964 267.931 41.2729 268.004L49.9197 269.984C50.501 270.121 51.1822 269.911 51.8362 269.4C52.0633 269.227 52.2631 269.035 52.4448 268.825H52.4357ZM53.6709 254.177C53.126 254.797 52.799 255.545 52.7717 256.192L52.4175 266.791C52.3993 267.402 51.927 268.178 51.2731 268.689C50.8462 269.017 50.4102 269.172 50.1105 269.108L41.4636 267.129C40.8732 266.992 40.1557 267.229 39.4835 267.767L28.7567 276.396C28.1391 276.889 27.6214 276.952 27.4034 276.797C27.2126 276.66 27.1945 276.305 27.3398 275.867L31.3907 264C31.6632 263.197 31.5451 262.486 31.0728 262.085L24.7966 256.813C24.6422 256.685 24.6422 256.439 24.6604 256.265C24.7421 255.581 25.3597 254.623 26.2498 254.195L37.4036 248.841C38.0575 248.521 38.6933 247.928 39.0839 247.235L45.9414 235.35C46.4773 234.42 47.3674 233.909 47.8852 233.964C48.0487 233.982 48.1486 234.055 48.2031 234.21L51.0369 242.766C51.2549 243.423 51.8907 243.76 52.6537 243.605L63.1625 241.534C63.4441 241.48 63.6257 241.534 63.7075 241.68C63.871 241.963 63.8165 242.748 63.0898 243.514L53.6891 254.158L53.6619 254.186L53.6709 254.177Z" fill="#D3D4D5"/>
<path d="M51.9091 268.743L57.3224 273.495L56.0418 274.271L45.9962 272.41L40.3557 267.457L42.0542 267.667L50.0108 269.546L51.128 269.637L51.9091 268.743Z" fill="#D3D4D5"/>
<path d="M53.7534 255.059L59.1488 259.796L58.551 260.483L53.1556 255.746L53.7534 255.059Z" fill="#D3D4D5"/>
<path d="M63.3593 244.01L68.7547 248.747L68.1569 249.434L62.7615 244.697L63.3593 244.01Z" fill="#D3D4D5"/>
<path d="M29.7645 276.332L35.0689 280.984L33.7246 282.078L32.5529 281.887L27.5029 277.454L29.7645 276.332Z" fill="#D3D4D5"/>
<path d="M67.0088 265.949L67.2522 265.733L70.2119 263.133C70.2673 263.088 70.3447 263.077 70.4 263.116L74.9199 265.827L76.3361 261.566C76.3693 261.471 76.4136 261.399 76.4744 261.344L79.2682 258.894L77.78 255.521C77.7524 255.46 77.6749 255.444 77.6251 255.488L74.4275 258.294C74.3666 258.349 74.3168 258.421 74.2892 258.516L72.8729 262.777L68.3531 260.06C68.2923 260.021 68.2148 260.033 68.165 260.077L65.1997 262.677L64.9563 262.894C64.652 263.166 64.735 263.838 65.2717 264.444L66.8483 266.233C66.876 266.116 66.9258 266.021 67.0032 265.949H67.0088Z" fill="white"/>
<path d="M71.9709 279.683C71.6445 279.31 71.4453 278.866 71.4287 278.46L71.213 272.005C71.2019 271.738 71.0415 271.41 70.7925 271.11L65.0667 264.632C64.4415 263.921 64.3254 263.088 64.7735 262.688L67.9822 259.871C68.126 259.743 68.3307 259.727 68.4967 259.827L72.7233 262.36L74.0289 258.427C74.0732 258.293 74.1451 258.177 74.2502 258.088L77.4478 255.277C77.5363 255.199 77.658 255.165 77.7742 255.193C77.8904 255.221 77.99 255.299 78.0342 255.41L81.4753 263.199L79.8267 264.949L80.5791 266.249C80.7671 266.577 81.0604 266.86 81.3646 267.005L88.1527 270.26L91.8703 269.482C92.0363 269.449 92.2023 269.527 92.2797 269.682C92.3572 269.838 92.3184 270.016 92.1912 270.127L86.0062 275.555L85.9674 275.466L85.5636 275.805L90.8469 281.527C90.9188 281.599 90.9575 281.716 90.952 281.821C90.9464 281.927 90.8967 282.033 90.8137 282.105L87.5607 284.949C87.1624 285.244 86.5926 285.149 86.0504 284.716L79.5169 279.46C79.2513 279.249 78.9636 279.138 78.7755 279.183L73.5089 280.388C73.1548 280.471 72.7399 280.344 72.3416 280.033C72.2033 279.927 72.0816 279.81 71.9709 279.683ZM71.2185 270.76C71.5449 271.138 71.7496 271.594 71.7662 271.988L71.982 278.444C71.993 278.816 72.2807 279.288 72.679 279.599C72.939 279.799 73.2046 279.894 73.3872 279.855L78.6538 278.649C79.0134 278.566 79.4505 278.71 79.8599 279.038L86.3934 284.294C86.7641 284.594 87.0794 284.627 87.2122 284.527L90.3324 281.805L84.7614 275.771L86.1777 274.582L86.2109 274.655L91.306 270.182L88.0642 270.86L87.9203 270.782L81.1267 267.521C80.7284 267.327 80.3412 266.966 80.1033 266.543L79.1905 264.966L79.4007 264.827L79.2956 264.727L80.8225 263.104L77.6248 255.854L74.6098 258.499C74.6098 258.499 74.5655 258.554 74.5489 258.599L73.0276 263.188L68.2864 260.343L65.1386 263.104C64.9782 263.243 65.039 263.782 65.4816 264.26L71.2075 270.744L71.2241 270.76H71.2185Z" fill="#D3D4D5"/>
<path d="M79.467 256.26L83.6383 263.493C83.854 263.865 84.1915 264.193 84.5455 264.36L91.3391 267.621C92.2243 268.043 92.783 269.26 92.2851 269.677L88.4624 272.888C88.2632 273.054 88.2245 273.377 88.3517 273.749L90.8191 280.977C91.14 281.916 90.3765 282.288 89.5245 281.604L82.991 276.349C82.6535 276.077 82.2884 275.954 82.0173 276.016L76.7506 277.221C76.0646 277.377 75.0356 276.393 75.008 275.549L74.7922 269.093C74.7812 268.76 74.5986 268.36 74.2999 268.027L68.5685 261.549C67.8216 260.704 67.9489 259.726 68.7842 259.888L75.185 261.149C75.517 261.215 75.7659 261.093 75.8544 260.821L77.586 255.615C77.8128 254.937 78.9193 255.315 79.4614 256.26H79.467Z" fill="white"/>
<path d="M75.2681 276.788C74.9417 276.415 74.7426 275.971 74.726 275.565L74.5102 269.11C74.4991 268.843 74.3387 268.482 74.0898 268.215L68.3639 261.737C67.8549 261.143 67.6613 260.437 67.9213 259.976C68.0984 259.671 68.4303 259.537 68.8397 259.621L75.2405 260.882C75.4341 260.921 75.5503 260.871 75.5945 260.743L77.3261 255.526C77.4257 255.221 77.6691 255.032 77.9844 254.998C78.5709 254.937 79.2956 255.41 79.705 256.121L83.8763 263.354C84.0644 263.682 84.3576 263.965 84.6618 264.11L91.4554 267.371C92.1027 267.682 92.6504 268.41 92.7334 269.06C92.7776 269.41 92.678 269.704 92.4567 269.893L88.634 273.099C88.5289 273.188 88.5178 273.404 88.6063 273.66L91.0737 280.888C91.2507 281.41 91.1622 281.854 90.8303 282.088C90.4486 282.354 89.8787 282.254 89.3421 281.821L82.8085 276.565C82.543 276.354 82.2553 276.243 82.0672 276.288L76.8005 277.493C76.4465 277.577 76.0316 277.449 75.6332 277.138C75.4949 277.032 75.3732 276.915 75.2626 276.788H75.2681ZM74.5157 267.865C74.8477 268.243 75.0468 268.699 75.0634 269.093L75.2792 275.549C75.2903 275.921 75.5779 276.393 75.9762 276.704C76.2363 276.904 76.5018 276.999 76.6844 276.96L81.9511 275.754C82.3106 275.671 82.7477 275.815 83.1571 276.143L89.6906 281.399C90.0668 281.699 90.3822 281.738 90.5149 281.643C90.6311 281.56 90.6422 281.343 90.5537 281.077L88.0863 273.849C87.9203 273.36 87.9922 272.927 88.2799 272.682L92.1027 269.471C92.1967 269.393 92.1967 269.243 92.1857 269.138C92.1359 268.721 91.7597 268.138 91.2175 267.876L84.424 264.615C84.0256 264.421 83.6384 264.06 83.4005 263.637L79.2237 256.398C78.8973 255.832 78.3551 255.521 78.0398 255.554C77.9402 255.565 77.8793 255.61 77.8461 255.704L76.1201 260.915C75.9873 261.315 75.6001 261.521 75.1353 261.426L68.7346 260.165C68.5631 260.132 68.4524 260.165 68.4026 260.254C68.303 260.426 68.3362 260.904 68.7788 261.371L74.5047 267.854L74.5213 267.871L74.5157 267.865Z" fill="#D3D4D5"/>
<path d="M75.5893 276.737L72.2921 279.632L73.0722 280.104L79.1908 278.971L82.6263 275.954L81.5918 276.082L76.7456 277.226L76.0651 277.282L75.5893 276.737Z" fill="#D3D4D5"/>
<path d="M74.4659 268.403L71.1797 271.288L71.5438 271.706L74.83 268.821L74.4659 268.403Z" fill="#D3D4D5"/>
<path d="M68.6156 261.674L65.3294 264.559L65.6935 264.977L68.9798 262.092L68.6156 261.674Z" fill="#D3D4D5"/>
<path d="M89.0771 281.359L85.8463 284.193L86.6651 284.859L87.3787 284.743L90.4546 282.043L89.0771 281.359Z" fill="#D3D4D5"/>
<path d="M153.842 336.043C132.249 443.653 0.744019 472.138 0.744019 422.176C0.744019 372.214 48.1115 351.683 141.744 498.543C182.717 562.809 295.245 579.501 312.244 607.043" stroke="black" stroke-dasharray="6 6"/>
<path d="M332.544 646.069L324.197 637.175L325.586 636.027L325.637 636.152L334.625 628.398C334.734 628.298 334.642 628.123 334.498 628.148L328.678 629.346C328.678 629.346 328.61 629.304 328.577 629.288L318.233 624.404C317.702 624.154 317.18 623.664 316.851 623.106L315.461 620.743L315.562 620.876L318.081 618.247L312.96 606.833C312.917 606.741 312.8 606.716 312.724 606.783L307.855 610.984C307.762 611.067 307.686 611.176 307.644 611.317L305.488 617.698L298.606 613.63C298.513 613.572 298.395 613.588 298.32 613.655L293.805 617.549L293.434 617.873C292.971 618.281 293.097 619.287 293.914 620.194L302.632 629.903C303.079 630.403 303.365 631.002 303.382 631.501L303.711 641.168C303.753 642.425 305.319 643.906 306.364 643.673L314.383 641.867C314.796 641.776 315.352 641.959 315.866 642.367L325.814 650.237C326.53 650.803 327.187 650.869 327.566 650.595L332.519 646.335C332.603 646.269 332.603 646.144 332.536 646.069H332.544Z" fill="#7C99FF"/>
<path d="M296.559 622.449L296.93 622.124L301.436 618.231C301.52 618.164 301.638 618.148 301.723 618.206L308.605 622.266L310.761 615.885C310.812 615.743 310.879 615.635 310.972 615.552L315.225 611.883L312.96 606.833C312.917 606.741 312.8 606.716 312.724 606.783L307.855 610.984C307.762 611.067 307.686 611.176 307.644 611.317L305.488 617.698L298.606 613.63C298.513 613.572 298.395 613.588 298.32 613.655L293.805 617.549L293.434 617.873C292.971 618.281 293.097 619.287 293.914 620.194L296.315 622.873C296.357 622.699 296.433 622.557 296.551 622.449H296.559Z" fill="white"/>
<path d="M306.499 636.085C306.482 635.586 306.204 634.987 305.749 634.487L303.382 631.858L303.702 641.177C303.744 642.433 305.311 643.914 306.355 643.681L306.743 643.589L306.49 636.093L306.499 636.085Z" fill="#7C99FF"/>
<path d="M304.115 643.016C303.618 642.459 303.315 641.793 303.289 641.186L302.961 631.518C302.944 631.119 302.7 630.628 302.321 630.179L293.602 620.478C292.65 619.413 292.474 618.165 293.156 617.566L298.041 613.348C298.26 613.157 298.572 613.132 298.825 613.281L305.26 617.075L307.248 611.185C307.316 610.985 307.425 610.81 307.585 610.677L312.454 606.467C312.589 606.351 312.774 606.301 312.951 606.343C313.128 606.384 313.28 606.501 313.347 606.667L318.586 618.331L316.076 620.952L317.222 622.899C317.508 623.39 317.955 623.814 318.418 624.031L328.754 628.906L334.414 627.741C334.667 627.691 334.92 627.808 335.038 628.041C335.155 628.274 335.096 628.54 334.903 628.706L325.485 636.835L325.426 636.702L324.811 637.209L332.856 645.778C332.965 645.887 333.024 646.061 333.016 646.219C333.007 646.378 332.932 646.536 332.805 646.644L327.852 650.903C327.246 651.344 326.378 651.203 325.553 650.554L315.604 642.684C315.2 642.367 314.762 642.201 314.476 642.268L306.457 644.073C305.917 644.198 305.286 644.006 304.679 643.54C304.469 643.382 304.283 643.208 304.115 643.016ZM302.969 629.655C303.466 630.22 303.778 630.903 303.803 631.493L304.132 641.161C304.149 641.718 304.587 642.426 305.193 642.892C305.589 643.191 305.993 643.332 306.271 643.274L314.29 641.469C314.838 641.344 315.503 641.56 316.127 642.051L326.075 649.922C326.639 650.371 327.119 650.421 327.322 650.271L332.072 646.194L323.59 637.159L325.746 635.379L325.797 635.487L333.555 628.789L328.619 629.804L328.4 629.688L318.056 624.804C317.449 624.513 316.86 623.972 316.497 623.34L315.107 620.977L315.428 620.769L315.268 620.619L317.592 618.19L312.724 607.333L308.133 611.293C308.133 611.293 308.065 611.376 308.04 611.443L305.724 618.315L298.505 614.055L293.712 618.19C293.467 618.398 293.56 619.205 294.234 619.921L302.952 629.63L302.978 629.655H302.969Z" fill="#141516"/>
<path d="M315.529 607.939L321.88 618.772C322.208 619.329 322.722 619.82 323.261 620.07L333.605 624.953C334.953 625.586 335.804 627.408 335.046 628.032L329.225 632.841C328.922 633.09 328.863 633.573 329.057 634.13L332.814 644.954C333.302 646.36 332.14 646.918 330.843 645.894L320.894 638.024C320.381 637.616 319.825 637.433 319.412 637.525L311.393 639.33C310.348 639.563 308.781 638.09 308.739 636.826L308.411 627.158C308.394 626.659 308.116 626.06 307.661 625.561L298.934 615.86C297.797 614.595 297.991 613.131 299.263 613.372L309.009 615.261C309.514 615.361 309.893 615.178 310.028 614.77L312.665 606.974C313.01 605.959 314.695 606.525 315.52 607.939H315.529Z" fill="white"/>
<path d="M299.844 616.684L307.754 625.486C308.2 625.985 308.487 626.584 308.504 627.084L308.832 636.751C308.874 638.008 310.441 639.489 311.486 639.256L319.505 637.45C319.917 637.359 320.473 637.542 320.987 637.949L328.518 643.898L326.033 636.743C325.839 636.186 325.898 635.703 326.201 635.453L329.124 633.041C329.175 632.932 329.234 632.833 329.318 632.758L332.233 630.353C332.553 629.58 331.752 628.115 330.582 627.566L320.238 622.682C319.707 622.433 319.185 621.942 318.856 621.385L312.505 610.552C312.311 610.228 312.075 609.945 311.814 609.712L310.129 614.704C309.995 615.111 309.607 615.286 309.11 615.195L307.838 614.945L307.013 617.391C306.878 617.79 306.49 617.973 305.993 617.882L299.844 616.692V616.684Z" fill="#F14C4C"/>
<path d="M309.135 638.681C308.638 638.124 308.335 637.458 308.31 636.851L307.981 627.183C307.964 626.784 307.72 626.243 307.341 625.844L298.623 616.143C297.848 615.253 297.553 614.196 297.949 613.505C298.218 613.048 298.724 612.848 299.347 612.973L309.093 614.862C309.388 614.92 309.565 614.845 309.632 614.654L312.269 606.841C312.421 606.384 312.791 606.101 313.271 606.051C314.164 605.959 315.268 606.667 315.891 607.732L322.242 618.564C322.529 619.055 322.975 619.479 323.438 619.695L333.783 624.579C334.768 625.045 335.602 626.135 335.728 627.108C335.796 627.633 335.644 628.073 335.307 628.356L329.487 633.157C329.327 633.29 329.31 633.614 329.444 633.997L333.201 644.821C333.471 645.603 333.336 646.269 332.831 646.618C332.249 647.018 331.382 646.868 330.565 646.219L320.617 638.348C320.212 638.032 319.774 637.866 319.488 637.932L311.469 639.738C310.93 639.863 310.298 639.671 309.691 639.205C309.481 639.047 309.295 638.873 309.127 638.681H309.135ZM307.99 625.32C308.495 625.885 308.798 626.568 308.824 627.158L309.152 636.826C309.169 637.383 309.607 638.091 310.214 638.556C310.609 638.856 311.014 638.997 311.292 638.939L319.311 637.134C319.858 637.009 320.524 637.225 321.147 637.716L331.095 645.587C331.668 646.036 332.148 646.094 332.351 645.953C332.527 645.828 332.544 645.503 332.41 645.104L328.653 634.28C328.4 633.548 328.509 632.899 328.947 632.533L334.768 627.724C334.911 627.608 334.911 627.383 334.894 627.225C334.819 626.601 334.246 625.727 333.42 625.336L323.076 620.453C322.47 620.161 321.88 619.621 321.518 618.988L315.158 608.148C314.661 607.299 313.836 606.833 313.356 606.883C313.204 606.9 313.111 606.966 313.061 607.108L310.433 614.912C310.23 615.511 309.641 615.818 308.933 615.677L299.187 613.788C298.926 613.738 298.758 613.788 298.682 613.921C298.53 614.179 298.581 614.895 299.255 615.594L307.973 625.303L307.998 625.328L307.99 625.32Z" fill="#141516"/>
<path d="M309.624 638.607L304.604 642.941L305.791 643.648L315.108 641.951L320.339 637.434L318.764 637.625L311.385 639.339L310.349 639.422L309.624 638.607Z" fill="#141516"/>
<path d="M307.913 626.125L302.91 630.445L303.464 631.072L308.468 626.751L307.913 626.125Z" fill="#141516"/>
<path d="M299.005 616.047L294.001 620.367L294.555 620.994L299.559 616.673L299.005 616.047Z" fill="#141516"/>
<path d="M330.16 645.528L325.241 649.771L326.488 650.77L327.574 650.595L332.258 646.552L330.16 645.528Z" fill="#141516"/>
<path d="M371.852 544.622L371.867 544.237L372.068 539.573C372.075 539.489 372.128 539.397 372.205 539.357L378.073 535.827L375.659 531.974C375.606 531.887 375.582 531.799 375.584 531.702L375.778 527.303L371.783 527.132C371.71 527.13 371.634 527.207 371.631 527.285L371.41 532.321C371.408 532.418 371.428 532.512 371.485 532.594L373.899 536.446L368.026 539.973C367.945 540.02 367.893 540.111 367.89 540.19L367.684 544.859L367.67 545.244C367.653 545.726 368.279 545.996 369.211 545.729L371.96 544.951C371.885 544.858 371.846 544.752 371.848 544.628L371.852 544.622Z" fill="white"/>
<path d="M388.178 548.471C387.587 548.635 387.039 548.616 386.676 548.412L380.933 545.106C380.694 544.972 380.279 544.973 379.814 545.089L369.489 547.994C368.358 548.309 367.544 547.982 367.57 547.256L367.8 542.084C367.809 541.851 367.964 541.611 368.188 541.478L373.872 538.098L371.563 534.46C371.485 534.337 371.444 534.192 371.455 534.024L371.68 528.867C371.686 528.725 371.759 528.569 371.879 528.453C371.999 528.337 372.148 528.267 372.281 528.278L381.844 528.675L381.987 531.499L383.73 531.364C384.168 531.332 384.656 531.156 385.032 530.892L393.46 525.016L395.869 520.39C395.978 520.184 396.182 520.039 396.38 520.037C396.579 520.035 396.7 520.177 396.69 520.382L396.245 530.351L396.137 530.346L396.094 530.988L405.402 528.168C405.524 528.126 405.656 528.147 405.743 528.211C405.829 528.275 405.879 528.389 405.872 528.523L405.63 533.761C405.553 534.372 405 534.964 404.178 535.338L394.237 539.827C393.835 540.011 393.501 540.275 393.383 540.512L390.06 547.123C389.839 547.568 389.385 547.967 388.787 548.245C388.581 548.343 388.38 548.417 388.178 548.471ZM379.865 544.416C380.461 544.255 381.023 544.274 381.377 544.472L387.12 547.778C387.45 547.97 388.095 547.905 388.693 547.626C389.081 547.442 389.382 547.194 389.5 546.967L392.823 540.356C393.049 539.904 393.535 539.49 394.157 539.208L404.098 534.719C404.663 534.465 404.953 534.127 404.977 533.922L405.215 528.902L395.401 531.876L395.549 529.623L395.639 529.625L396.005 521.412L393.904 525.446L393.718 525.565L385.28 531.445C384.783 531.788 384.151 532.026 383.59 532.063L381.474 532.226L381.528 531.913L381.355 531.976L381.222 529.36L372.325 528.985L372.107 533.844C372.107 533.844 372.118 533.925 372.142 533.968L374.837 538.209L368.459 542L368.232 547.073C368.218 547.33 368.733 547.558 369.512 547.321L379.842 544.419L379.87 544.409L379.865 544.416Z" fill="#D3D4D5"/>
<path d="M373.639 527.172L383.343 526.438C383.843 526.399 384.406 526.198 384.843 525.89L393.294 520.005C394.393 519.237 395.907 519.275 395.853 520.067L395.453 526.157C395.432 526.474 395.678 526.695 396.105 526.756L404.39 527.946C405.467 528.1 405.155 529.168 403.858 529.755L393.901 534.248C393.386 534.479 392.978 534.825 392.806 535.165L389.477 541.783C389.042 542.644 387.34 543.266 386.588 542.832L380.837 539.522C380.54 539.351 380.044 539.337 379.508 539.491L369.162 542.404C367.814 542.784 367.075 542.102 367.907 541.246L374.306 534.704C374.639 534.366 374.74 534.017 374.578 533.767L371.522 528.944C371.125 528.314 372.369 527.271 373.634 527.178L373.639 527.172Z" fill="white"/>
<path d="M387.874 543.216C387.282 543.38 386.733 543.361 386.369 543.157L380.618 539.848C380.379 539.713 379.934 539.696 379.498 539.831L369.158 542.738C368.223 542.987 367.453 542.817 367.271 542.269C367.154 541.901 367.314 541.453 367.726 541.036L374.123 534.494C374.317 534.296 374.37 534.137 374.297 534.017L371.231 529.188C371.05 528.908 371.088 528.528 371.321 528.154C371.755 527.457 372.764 526.898 373.717 526.826L383.42 526.092C383.858 526.059 384.346 525.884 384.723 525.619L393.173 519.734C393.978 519.174 395.06 518.955 395.69 519.219C396.029 519.362 396.2 519.636 396.18 519.99L395.776 526.076C395.765 526.244 395.943 526.376 396.237 526.416L404.522 527.605C405.119 527.692 405.429 528.037 405.356 528.54C405.269 529.119 404.71 529.708 403.891 530.076L393.936 534.57C393.534 534.754 393.199 535.018 393.081 535.255L389.754 541.872C389.532 542.318 389.077 542.717 388.478 542.996C388.273 543.094 388.071 543.168 387.869 543.223L387.874 543.216ZM379.549 539.156C380.15 538.989 380.709 539.015 381.063 539.213L386.814 542.522C387.144 542.714 387.79 542.649 388.389 542.37C388.777 542.186 389.079 541.938 389.197 541.71L392.525 535.093C392.751 534.64 393.238 534.226 393.861 533.943L403.816 529.45C404.387 529.19 404.682 528.854 404.71 528.652C404.735 528.475 404.557 528.343 404.253 528.297L395.969 527.108C395.409 527.027 395.095 526.707 395.123 526.247L395.522 520.158C395.533 520.009 395.403 519.927 395.303 519.881C394.902 519.708 394.087 519.812 393.412 520.281L384.962 526.167C384.464 526.51 383.831 526.749 383.269 526.785L373.557 527.523C372.798 527.58 372.079 528.022 371.847 528.397C371.774 528.516 371.761 528.609 371.815 528.698L374.881 533.518C375.116 533.888 374.973 534.439 374.506 534.912L368.108 541.454C367.937 541.63 367.874 541.773 367.91 541.878C367.976 542.086 368.416 542.311 369.185 542.068L379.53 539.163L379.558 539.153L379.549 539.156Z" fill="#D3D4D5"/>
<path d="M390.233 543.399L390.093 548.45L391.056 547.87L394.721 540.749L394.867 535.485L394.196 536.655L391.491 542.427L391.027 543.181L390.233 543.399Z" fill="#D3D4D5"/>
<path d="M380.909 538.906L380.939 544.051L382.328 543.871L382.297 538.726L380.909 538.906Z" fill="#D3D4D5"/>
<path d="M370.196 540.434L370.226 545.579L371.614 545.4L371.584 540.255L370.196 540.434Z" fill="#D3D4D5"/>
<path d="M404.161 532.592L404.015 537.69L405.227 537.156L405.692 536.309L405.829 531.455L404.161 532.592Z" fill="#D3D4D5"/>
<path d="M389.849 560.342L389.629 560.148L386.952 557.822C386.902 557.782 386.832 557.772 386.782 557.807L382.695 560.232L381.415 556.42C381.385 556.335 381.345 556.271 381.29 556.221L378.763 554.029L380.109 551.012C380.134 550.958 380.204 550.943 380.249 550.982L383.141 553.492C383.196 553.542 383.241 553.607 383.266 553.691L384.546 557.504L388.633 555.073C388.688 555.038 388.758 555.048 388.803 555.088L391.485 557.414L391.705 557.608C391.98 557.851 391.905 558.453 391.42 558.995L389.994 560.595C389.969 560.491 389.924 560.406 389.854 560.342H389.849Z" fill="white"/>
<path d="M385.362 572.629C385.657 572.296 385.837 571.898 385.852 571.535L386.047 565.76C386.057 565.521 386.202 565.228 386.427 564.96L391.605 559.164C392.17 558.528 392.275 557.782 391.87 557.425L388.969 554.905C388.839 554.79 388.654 554.775 388.503 554.865L384.682 557.131L383.501 553.612C383.461 553.493 383.396 553.389 383.301 553.309L380.409 550.794C380.329 550.725 380.219 550.695 380.114 550.72C380.009 550.744 379.919 550.814 379.879 550.913L376.768 557.882L378.258 559.448L377.578 560.611C377.408 560.904 377.143 561.157 376.868 561.287L370.73 564.199L367.368 563.503C367.218 563.473 367.068 563.543 366.998 563.682C366.928 563.821 366.963 563.98 367.078 564.08L372.671 568.936L372.706 568.856L373.071 569.16L368.293 574.279C368.228 574.344 368.193 574.448 368.198 574.542C368.203 574.637 368.248 574.731 368.323 574.796L371.265 577.341C371.625 577.604 372.14 577.52 372.631 577.132L378.539 572.43C378.779 572.241 379.039 572.142 379.209 572.182L383.971 573.26C384.291 573.335 384.667 573.22 385.027 572.942C385.152 572.848 385.262 572.743 385.362 572.629ZM386.042 564.646C385.747 564.984 385.562 565.392 385.547 565.745L385.352 571.52C385.342 571.853 385.082 572.276 384.722 572.554C384.486 572.733 384.246 572.818 384.081 572.783L379.319 571.704C378.994 571.63 378.599 571.759 378.228 572.052L372.32 576.754C371.985 577.023 371.7 577.052 371.58 576.963L368.759 574.528L373.796 569.13L372.516 568.066L372.486 568.131L367.878 564.13L370.81 564.736L370.94 564.666L377.083 561.749C377.443 561.575 377.793 561.252 378.008 560.874L378.834 559.462L378.644 559.338L378.739 559.249L377.358 557.797L380.249 551.311L382.976 553.677C382.976 553.677 383.016 553.727 383.031 553.766L384.406 557.872L388.694 555.327L391.54 557.797C391.685 557.922 391.63 558.404 391.23 558.831L386.052 564.632L386.037 564.646H386.042Z" fill="#D3D4D5"/>
<path d="M378.585 551.674L374.813 558.145C374.618 558.478 374.312 558.772 373.992 558.921L367.849 561.838C367.049 562.216 366.544 563.305 366.994 563.677L370.451 566.55C370.631 566.699 370.666 566.988 370.551 567.321L368.32 573.787C368.029 574.627 368.72 574.96 369.49 574.349L375.398 569.647C375.703 569.403 376.033 569.294 376.278 569.349L381.041 570.427C381.661 570.566 382.592 569.687 382.617 568.931L382.812 563.156C382.822 562.857 382.987 562.499 383.257 562.201L388.439 556.406C389.115 555.65 389 554.776 388.244 554.92L382.457 556.048C382.156 556.108 381.931 555.998 381.851 555.755L380.285 551.097C380.08 550.491 379.08 550.829 378.59 551.674H378.585Z" fill="white"/>
<path d="M382.381 570.039C382.677 569.706 382.857 569.309 382.872 568.946L383.067 563.17C383.077 562.932 383.222 562.609 383.447 562.37L388.624 556.575C389.085 556.043 389.26 555.412 389.025 554.999C388.865 554.726 388.564 554.607 388.194 554.681L382.406 555.809C382.231 555.844 382.126 555.799 382.086 555.685L380.52 551.018C380.43 550.745 380.21 550.576 379.925 550.546C379.395 550.491 378.74 550.914 378.369 551.55L374.598 558.021C374.427 558.314 374.162 558.568 373.887 558.697L367.744 561.615C367.159 561.893 366.664 562.544 366.589 563.126C366.549 563.439 366.639 563.702 366.839 563.871L370.295 566.739C370.39 566.819 370.4 567.013 370.32 567.241L368.089 573.708C367.929 574.175 368.009 574.572 368.309 574.781C368.655 575.02 369.17 574.93 369.655 574.543L375.563 569.841C375.803 569.652 376.063 569.552 376.233 569.592L380.996 570.671C381.316 570.745 381.691 570.631 382.051 570.353C382.176 570.258 382.286 570.154 382.386 570.039H382.381ZM383.062 562.057C382.762 562.395 382.581 562.803 382.566 563.156L382.371 568.931C382.361 569.264 382.101 569.687 381.741 569.965C381.506 570.144 381.266 570.228 381.101 570.194L376.338 569.115C376.013 569.04 375.618 569.17 375.248 569.463L369.34 574.165C369 574.433 368.715 574.468 368.595 574.384C368.49 574.309 368.48 574.115 368.56 573.877L370.791 567.41C370.941 566.973 370.876 566.585 370.616 566.366L367.159 563.494C367.074 563.424 367.074 563.29 367.084 563.195C367.129 562.823 367.469 562.301 367.959 562.067L374.102 559.149C374.462 558.975 374.813 558.652 375.028 558.275L378.805 551.798C379.1 551.291 379.59 551.013 379.875 551.043C379.965 551.053 380.02 551.093 380.05 551.177L381.611 555.839C381.731 556.197 382.081 556.381 382.501 556.296L388.289 555.168C388.444 555.138 388.544 555.168 388.589 555.248C388.679 555.402 388.649 555.829 388.249 556.247L383.072 562.047L383.057 562.062L383.062 562.057Z" fill="#D3D4D5"/>
<path d="M382.091 569.995L385.072 572.584L384.367 573.007L378.834 571.993L375.728 569.294L376.663 569.408L381.045 570.432L381.661 570.482L382.091 569.995Z" fill="#D3D4D5"/>
<path d="M383.107 562.538L386.078 565.119L385.749 565.493L382.777 562.912L383.107 562.538Z" fill="#D3D4D5"/>
<path d="M388.397 556.518L391.368 559.099L391.039 559.473L388.068 556.892L388.397 556.518Z" fill="#D3D4D5"/>
<path d="M369.894 574.13L372.816 576.665L372.075 577.261L371.43 577.157L368.649 574.741L369.894 574.13Z" fill="#D3D4D5"/>
<path d="M395.639 553.538L395.766 553.426L397.318 552.077C397.347 552.054 397.388 552.048 397.417 552.068L399.787 553.475L400.53 551.264C400.547 551.215 400.57 551.177 400.602 551.149L402.067 549.878L401.287 548.128C401.272 548.096 401.232 548.088 401.206 548.111L399.529 549.566C399.497 549.595 399.471 549.633 399.456 549.682L398.714 551.892L396.344 550.483C396.312 550.463 396.271 550.468 396.245 550.491L394.69 551.84L394.562 551.953C394.403 552.094 394.446 552.443 394.728 552.757L395.555 553.685C395.569 553.625 395.595 553.576 395.636 553.538H395.639Z" fill="white"/>
<path d="M398.241 560.663C398.07 560.47 397.965 560.24 397.956 560.029L397.843 556.68C397.838 556.542 397.753 556.372 397.623 556.216L394.62 552.855C394.293 552.486 394.232 552.054 394.467 551.846L396.149 550.385C396.225 550.319 396.332 550.31 396.419 550.362L398.635 551.676L399.32 549.636C399.343 549.566 399.381 549.506 399.436 549.46L401.113 548.001C401.159 547.961 401.223 547.944 401.284 547.958C401.345 547.973 401.397 548.013 401.42 548.071L403.225 552.112L402.36 553.019L402.755 553.694C402.853 553.864 403.007 554.011 403.167 554.086L406.726 555.775L408.675 555.371C408.762 555.354 408.849 555.394 408.89 555.475C408.931 555.556 408.91 555.648 408.844 555.706L405.6 558.522L405.58 558.476L405.368 558.651L408.139 561.62C408.176 561.658 408.197 561.718 408.194 561.773C408.191 561.828 408.165 561.883 408.121 561.92L406.416 563.396C406.207 563.549 405.908 563.5 405.624 563.275L402.198 560.548C402.058 560.439 401.908 560.381 401.809 560.404L399.047 561.029C398.862 561.073 398.644 561.006 398.435 560.845C398.363 560.79 398.299 560.73 398.241 560.663ZM397.846 556.034C398.017 556.23 398.125 556.467 398.133 556.671L398.247 560.021C398.252 560.214 398.403 560.459 398.612 560.62C398.748 560.724 398.888 560.773 398.983 560.753L401.745 560.127C401.934 560.084 402.163 560.159 402.378 560.329L405.804 563.056C405.998 563.211 406.163 563.229 406.233 563.177L407.869 561.764L404.948 558.634L405.69 558.017L405.708 558.055L408.38 555.735L406.68 556.086L406.604 556.046L403.042 554.354C402.833 554.253 402.63 554.066 402.505 553.847L402.027 553.028L402.137 552.956L402.082 552.904L402.882 552.063L401.206 548.301L399.625 549.673C399.625 549.673 399.601 549.702 399.593 549.725L398.795 552.106L396.309 550.63L394.658 552.063C394.574 552.135 394.606 552.414 394.838 552.662L397.84 556.026L397.849 556.034H397.846Z" fill="#D3D4D5"/>
<path d="M402.171 548.511L404.359 552.264C404.472 552.457 404.649 552.627 404.834 552.714L408.397 554.406C408.861 554.625 409.154 555.256 408.893 555.472L406.888 557.138C406.784 557.224 406.763 557.392 406.83 557.585L408.124 561.335C408.292 561.822 407.892 562.015 407.445 561.66L404.019 558.934C403.842 558.792 403.651 558.729 403.509 558.761L400.747 559.386C400.387 559.467 399.848 558.957 399.833 558.519L399.72 555.169C399.714 554.996 399.618 554.789 399.462 554.616L396.456 551.255C396.065 550.817 396.132 550.31 396.57 550.393L399.926 551.048C400.1 551.082 400.231 551.019 400.277 550.878L401.185 548.177C401.304 547.825 401.884 548.021 402.168 548.511H402.171Z" fill="white"/>
<path d="M399.97 559.162C399.798 558.969 399.694 558.738 399.685 558.528L399.572 555.178C399.566 555.04 399.482 554.853 399.352 554.714L396.349 551.353C396.082 551.045 395.981 550.679 396.117 550.44C396.21 550.281 396.384 550.212 396.599 550.255L399.955 550.91C400.057 550.93 400.118 550.904 400.141 550.838L401.049 548.131C401.101 547.973 401.229 547.875 401.394 547.857C401.701 547.826 402.081 548.071 402.296 548.439L404.483 552.192C404.582 552.362 404.736 552.509 404.895 552.584L408.458 554.276C408.797 554.438 409.084 554.815 409.128 555.152C409.151 555.334 409.099 555.487 408.983 555.585L406.978 557.248C406.923 557.294 406.917 557.406 406.964 557.539L408.258 561.289C408.35 561.56 408.304 561.79 408.13 561.911C407.93 562.05 407.631 561.998 407.35 561.773L403.924 559.046C403.784 558.937 403.633 558.879 403.535 558.902L400.773 559.528C400.587 559.571 400.37 559.505 400.161 559.343C400.089 559.288 400.025 559.228 399.967 559.162H399.97ZM399.575 554.533C399.749 554.729 399.854 554.965 399.862 555.17L399.975 558.519C399.981 558.712 400.132 558.957 400.341 559.118C400.477 559.222 400.616 559.271 400.712 559.251L403.474 558.626C403.662 558.582 403.892 558.657 404.106 558.827L407.532 561.554C407.73 561.71 407.895 561.73 407.965 561.681C408.025 561.638 408.031 561.525 407.985 561.387L406.691 557.637C406.604 557.383 406.642 557.158 406.793 557.032L408.797 555.366C408.846 555.325 408.846 555.247 408.841 555.193C408.815 554.977 408.617 554.674 408.333 554.538L404.771 552.847C404.562 552.746 404.359 552.558 404.234 552.339L402.044 548.584C401.873 548.29 401.588 548.128 401.423 548.145C401.371 548.151 401.339 548.174 401.321 548.223L400.416 550.927C400.347 551.134 400.144 551.241 399.9 551.192L396.544 550.538C396.454 550.52 396.396 550.538 396.37 550.584C396.317 550.673 396.335 550.921 396.567 551.163L399.569 554.527L399.578 554.536L399.575 554.533Z" fill="#D3D4D5"/>
<path d="M400.138 559.136L398.409 560.638L398.818 560.883L402.026 560.295L403.828 558.729L403.285 558.796L400.744 559.39L400.387 559.418L400.138 559.136Z" fill="#D3D4D5"/>
<path d="M399.548 554.812L397.825 556.309L398.016 556.526L399.739 555.029L399.548 554.812Z" fill="#D3D4D5"/>
<path d="M396.481 551.321L394.757 552.817L394.948 553.034L396.671 551.538L396.481 551.321Z" fill="#D3D4D5"/>
<path d="M407.211 561.533L405.516 563.003L405.946 563.349L406.32 563.289L407.933 561.888L407.211 561.533Z" fill="#D3D4D5"/>
</svg>
