<svg width="429" height="740" viewBox="0 0 429 740" fill="none" xmlns="http://www.w3.org/2000/svg">
<path d="M21.7632 1C6.0948 15.9787 -15.841 53.463 21.7632 83.5702C61.3995 115.304 133.5 90.5 141 153" stroke="black" stroke-dasharray="6 6"/>
<path d="M250.5 233C245.165 274.244 375 333.5 412 320C449 306.5 426 192 294.335 299.757C261.885 326.314 242.835 331.257 218.335 342.756C103.072 396.858 171.5 420 186.5 449.5" stroke="black" stroke-dasharray="6 6"/>
<path d="M328.819 513C328.819 541.837 370.94 574.78 333.478 600.978C293.991 628.592 208.5 636 261 739" stroke="black" stroke-dasharray="6 6"/>
<path d="M389.609 244.673L410.955 256.356L411.354 279.204L390.028 267.5L389.63 244.652L389.609 244.673ZM406.022 258.992L394.751 252.808L394.961 264.885L406.232 271.069L406.022 258.992Z" fill="white"/>
<path d="M391.686 243.49L413.033 255.174L413.432 278.021L392.085 266.338L391.686 243.49ZM408.1 257.809L396.829 251.625L397.039 263.702L408.31 269.887L408.1 257.809Z" fill="#FABCBC"/>
<path d="M411.375 279.204L416.412 276.236L415.992 253.389L410.955 256.356L411.375 279.204Z" fill="white"/>
<path d="M389.609 244.673L394.646 241.705L415.992 253.388L410.955 256.356L389.609 244.673Z" fill="#141516"/>
<path d="M394.961 264.885L399.999 261.918L399.894 255.63L394.751 252.808L394.961 264.885Z" fill="white"/>
<path d="M406.253 271.07L394.961 264.886L399.998 261.919L406.148 265.281L406.253 271.07Z" fill="#141516"/>
<path d="M394.121 251.771L394.352 264.533V265.238L394.982 265.57L406.883 272.087L406.652 258.619L394.142 251.771H394.121ZM399.285 255.983L399.39 261.565L395.569 263.827L395.381 253.846L399.285 255.983ZM405.623 270.032L396.199 264.865L400.019 262.603L405.539 265.633L405.623 270.032ZM405.518 264.242L400.607 261.545L400.523 256.647L405.434 259.345L405.518 264.242Z" fill="#141516"/>
<path d="M415.993 252.704L394.646 241L389.609 243.968L389 244.32V245.026L389.399 267.874L410.745 279.557L411.354 279.889L411.963 279.536L417 276.569L416.601 253.721V253.015L415.972 252.683L415.993 252.704ZM390.847 244.652L394.667 242.39L414.775 253.41L410.955 255.651L403.063 251.334L390.847 244.652ZM410.745 278.166L390.637 267.147L390.259 245.69L402.538 252.413L410.367 256.709L410.703 275.635L410.745 278.166ZM415.783 275.905L411.963 278.166L411.774 267.645L411.585 256.709L415.405 254.447L415.783 275.905Z" fill="#141516"/>
</svg>
