<svg width="330" height="486" viewBox="0 0 330 486" fill="none" xmlns="http://www.w3.org/2000/svg">
<path d="M18.2038 1C5.22141 13.2195 -12.9539 43.7987 18.2038 68.3599C51.0453 94.2484 110.786 74.0132 117 125" stroke="black" stroke-dasharray="6 6"/>
<path d="M145.825 181C140.49 222.244 270.325 281.5 307.325 268C344.324 254.5 345.164 120.743 213.499 228.5C181.05 255.057 143 257.5 157 319" stroke="black" stroke-dasharray="6 6"/>
<path d="M284.934 175.673L306.28 187.356L306.679 210.204L285.354 198.5L284.955 175.652L284.934 175.673ZM301.348 189.992L290.076 183.808L290.286 195.885L301.558 202.069L301.348 189.992Z" fill="white"/>
<path d="M287.012 174.49L308.358 186.174L308.757 209.021L287.411 197.338L287.012 174.49ZM303.426 188.809L292.154 182.625L292.364 194.702L303.636 200.887L303.426 188.809Z" fill="#FABCBC"/>
<path d="M306.7 210.204L311.738 207.236L311.318 184.389L306.28 187.356L306.7 210.204Z" fill="white"/>
<path d="M284.934 175.673L289.971 172.705L311.318 184.388L306.28 187.356L284.934 175.673Z" fill="#141516"/>
<path d="M290.287 195.885L295.324 192.918L295.219 186.63L290.077 183.808L290.287 195.885Z" fill="white"/>
<path d="M301.579 202.07L290.286 195.886L295.324 192.919L301.474 196.281L301.579 202.07Z" fill="#141516"/>
<path d="M289.447 182.771L289.677 195.533V196.238L290.307 196.57L302.208 203.087L301.977 189.619L289.468 182.771H289.447ZM294.61 186.983L294.715 192.565L290.895 194.827L290.706 184.846L294.61 186.983ZM300.949 201.032L291.525 195.865L295.345 193.603L300.865 196.633L300.949 201.032ZM300.844 195.242L295.932 192.545L295.848 187.647L300.76 190.345L300.844 195.242Z" fill="#141516"/>
<path d="M311.318 183.704L289.972 172L284.934 174.968L284.325 175.32V176.026L284.724 198.874L306.071 210.557L306.679 210.889L307.288 210.536L312.325 207.569L311.927 184.721V184.015L311.297 183.683L311.318 183.704ZM286.173 175.652L289.993 173.39L310.101 184.41L306.28 186.651L298.388 182.334L286.173 175.652ZM306.071 209.166L285.963 198.147L285.585 176.69L297.864 183.413L305.693 187.709L306.029 206.635L306.071 209.166ZM311.108 206.905L307.288 209.166L307.099 198.645L306.91 187.709L310.73 185.447L311.108 206.905Z" fill="#141516"/>
<path d="M230.158 375C230.158 389.036 250.7 405.07 232.43 417.821C213.173 431.262 171.481 434.867 197.084 485" stroke="black" stroke-dasharray="6 6"/>
</svg>
