<svg width="48" height="48" viewBox="0 0 48 48" fill="none" xmlns="http://www.w3.org/2000/svg">
<circle cx="24" cy="24" r="24" fill="#436CFF"/>
<path d="M24 14C24.9889 14 25.9556 14.2932 26.7779 14.8427C27.6001 15.3921 28.241 16.173 28.6194 17.0866C28.9978 18.0002 29.0969 19.0055 28.9039 19.9755C28.711 20.9454 28.2348 21.8363 27.5355 22.5355C26.8363 23.2348 25.9454 23.711 24.9755 23.9039C24.0055 24.0969 23.0002 23.9978 22.0866 23.6194C21.173 23.241 20.3921 22.6001 19.8427 21.7779C19.2932 20.9556 19 19.9889 19 19L19.005 18.783C19.0609 17.4958 19.6116 16.2798 20.5422 15.3887C21.4728 14.4975 22.7115 14.0001 24 14Z" fill="white"/>
<path d="M26 26C27.3261 26 28.5979 26.5268 29.5355 27.4645C30.4732 28.4021 31 29.6739 31 31V32C31 32.5304 30.7893 33.0391 30.4142 33.4142C30.0391 33.7893 29.5304 34 29 34H19C18.4696 34 17.9609 33.7893 17.5858 33.4142C17.2107 33.0391 17 32.5304 17 32V31C17 29.6739 17.5268 28.4021 18.4645 27.4645C19.4021 26.5268 20.6739 26 22 26H26Z" fill="white"/>
<path d="M24 14C24.9889 14 25.9556 14.2932 26.7779 14.8427C27.6001 15.3921 28.241 16.173 28.6194 17.0866C28.9978 18.0002 29.0969 19.0055 28.9039 19.9755C28.711 20.9454 28.2348 21.8363 27.5355 22.5355C26.8363 23.2348 25.9454 23.711 24.9755 23.9039C24.0055 24.0969 23.0002 23.9978 22.0866 23.6194C21.173 23.241 20.3921 22.6001 19.8427 21.7779C19.2932 20.9556 19 19.9889 19 19L19.005 18.783C19.0609 17.4958 19.6116 16.2798 20.5422 15.3887C21.4728 14.4975 22.7115 14.0001 24 14Z" stroke="white"/>
<path d="M26 26C27.3261 26 28.5979 26.5268 29.5355 27.4645C30.4732 28.4021 31 29.6739 31 31V32C31 32.5304 30.7893 33.0391 30.4142 33.4142C30.0391 33.7893 29.5304 34 29 34H19C18.4696 34 17.9609 33.7893 17.5858 33.4142C17.2107 33.0391 17 32.5304 17 32V31C17 29.6739 17.5268 28.4021 18.4645 27.4645C19.4021 26.5268 20.6739 26 22 26H26Z" stroke="white"/>
</svg>
