<svg width="108" height="108" viewBox="0 0 108 108" fill="none" xmlns="http://www.w3.org/2000/svg">
<path d="M18.8582 14.6078L37.4603 3.57529C37.6242 3.46551 37.7881 3.38318 37.952 3.2734L38.2525 3.13617C44.8356 -0.376671 53.7406 0.25454 63.5744 5.96291C83.7608 17.6815 100.15 46.1685 100.15 69.6058C100.15 80.4736 96.5993 88.2952 90.8083 92.4392L90.1528 92.9058C89.7157 93.1802 89.2786 93.4547 88.8416 93.7017L71.5233 104.048L61.7169 87.5816C45.0542 76.0551 31.724 53.4686 29.1836 33.0228L27.8998 30.8547L18.8855 14.6353L18.8582 14.6078Z" fill="#E9EAEA"/>
<path d="M63.9831 5.63372C82.394 16.3095 97.5817 40.9268 100.122 62.937C99.9582 73.3932 96.4617 80.9677 90.8073 85.0295L90.1518 85.496C89.7147 85.7705 89.2776 86.0449 88.8406 86.2919L71.5223 96.6383L61.7159 80.1719C45.0532 68.6453 31.723 46.0589 29.1826 25.613L27.8988 23.4449L21.9439 12.7143L37.8691 3.27353C38.033 3.16375 38.1969 3.08142 38.3608 2.97164L38.6612 2.83441C45.2444 -0.678428 54.1494 -0.0472174 63.9831 5.66115V5.63372Z" fill="white"/>
<path d="M36.7225 10.4088C36.8864 10.299 37.0503 10.2167 37.2142 10.1069L37.5147 9.96966C44.0979 6.45682 53.0028 7.08805 62.8366 12.7964C75.4839 20.1514 86.6287 34.0656 93.1846 49.2147L48.7689 76.7137C37.8971 64.5559 29.9482 48.0621 28.0634 32.7483L26.7796 30.5802L20.8247 19.8495L36.7499 10.4088H36.7225Z" fill="#F3F3F3"/>
<path d="M71.1682 105.365L89.3333 94.5249C89.7703 94.3053 90.2347 94.0035 90.6718 93.729L91.3547 93.2625C97.6373 88.7616 101.106 80.3638 101.106 69.6331C101.106 45.9214 84.471 16.9954 64.0387 5.13951C54.2596 -0.541417 44.9176 -1.55685 37.7335 2.31277L36.9687 2.72442L17.4924 14.2784L28.1729 33.352C30.8226 54.1272 44.2347 76.6314 60.9247 88.2676L71.1409 105.393L71.1682 105.365ZM47.2941 1.95598C52.129 1.95598 57.5102 3.60264 63.0554 6.8136C82.9414 18.3401 99.1397 46.5252 99.1397 69.5782C99.1397 79.6502 95.971 87.4718 90.2074 91.5884L89.5791 92.0275C89.1967 92.2745 88.787 92.5215 88.3772 92.741L71.8511 102.593L62.2632 86.6759C45.8736 75.3415 32.6801 53.1941 30.1397 32.8031L30.0031 32.4189L28.7192 30.2508L20.1967 14.9096L38.6622 3.98684C41.2572 2.58719 44.1801 1.90111 47.3214 1.90111L47.2941 1.95598Z" fill="#BDBEC0"/>
<path d="M7.90459 38.3468C7.90459 61.7841 24.2668 90.271 44.4806 101.99C64.6671 113.708 81.0566 104.213 81.0566 80.7754C81.0566 57.3381 64.6944 28.8512 44.4806 17.1325C24.2941 5.41392 7.90459 14.9096 7.90459 38.3468Z" fill="#E9EAEA"/>
<path d="M52.8028 82.9815L59.0209 87.4934C60.1628 88.3145 61.2376 87.5978 61.413 85.892L62.9136 71.3012C63.0891 69.5954 62.3031 67.5043 61.1612 66.6831L54.9431 62.1712C53.8013 61.3501 52.7265 62.0668 52.5511 63.7726L51.0504 78.3634C50.875 80.0691 51.661 82.1603 52.8028 82.9815Z" fill="#E9EAEA"/>
<path d="M59.7699 88.7972C60.1187 88.8219 60.4783 88.7415 60.821 88.5806C61.642 88.1626 62.1905 87.2228 62.3204 85.9623L63.825 71.3623C64.036 69.3141 63.1034 66.9203 61.7034 65.8955L55.469 61.3807C54.7233 60.8254 53.8541 60.7374 53.1409 61.0836C52.32 61.5016 51.7715 62.4415 51.6416 63.7019L50.137 78.302C49.9259 80.3502 50.8586 82.7439 52.2585 83.7688L58.493 88.2835C58.9143 88.5779 59.3491 88.7409 59.7975 88.7727L59.7699 88.7972ZM53.9723 62.756C53.9723 62.756 54.2409 62.8279 54.3795 62.9435L60.6139 67.4583C61.501 68.103 62.1472 69.8681 62.0065 71.2335L60.5019 85.8336C60.4397 86.4376 60.2523 86.7946 60.0671 86.8873C59.962 86.9328 59.7433 86.8644 59.5326 86.7172L53.2982 82.2024C52.4111 81.5577 51.7649 79.7927 51.9057 78.4272L53.4102 63.8271C53.4725 63.2232 53.6598 62.8661 53.845 62.7734C53.8699 62.7752 53.9225 62.7525 53.9723 62.756Z" fill="#BDBEC0"/>
<path d="M55.1867 65.0095L53.5576 80.7177C53.4076 82.1649 52.6131 83.0101 51.5438 82.8554L48.9012 82.5369C48.4752 82.507 48.0182 82.2893 47.5721 81.9663L37.3342 74.5672C33.389 71.7188 30.2534 65.9324 29.5343 60.21L27.7616 45.9057C27.3112 42.2165 29.4285 40.2981 31.988 42.1479L39.8086 47.7869C40.606 48.3731 41.3121 47.8926 41.3237 46.8068L41.345 43.6808C41.3638 39.362 42.1381 35.5469 43.5904 32.4952L43.5986 32.4162C44.1697 31.2902 45.2996 31.1047 46.4761 31.9296C48.0487 33.0739 49.1399 35.695 48.835 37.6613L48.0883 42.671C47.9868 43.406 48.0248 44.2568 48.2381 45.1199L49.8336 51.8846C50.4291 54.4179 51.5089 56.9057 52.9303 59.02L53.9999 60.6324C54.874 61.9396 55.3536 63.6431 55.209 65.0376L55.1867 65.0095Z" fill="#E9EAEA"/>
<path d="M51.5517 83.8153C52.2036 83.8612 52.8049 83.6648 53.3027 83.2492C53.9394 82.7107 54.3582 81.8389 54.4674 80.7862L56.0974 65.0745C56.264 63.4692 55.7307 61.5495 54.7498 60.049L53.6796 58.4361C52.2993 56.4039 51.2831 54.0261 50.7014 51.5993L49.105 44.8331C48.9307 44.0786 48.8791 43.3592 48.9669 42.7556L49.7141 37.7449C50.0574 35.4097 48.8506 32.4352 46.9926 31.1116C46.1473 30.4955 45.2332 30.2987 44.4259 30.5335C43.7494 30.7245 43.1655 31.2402 42.8106 31.984C41.2352 35.2399 40.4413 39.24 40.4089 43.6914L40.3876 46.818C40.3657 47.0286 40.3548 47.1339 40.3521 47.1602L32.5181 41.3603C31.1316 40.3615 29.6576 40.2049 28.5172 40.973C27.1875 41.8603 26.562 43.7515 26.851 46.0782L28.6247 60.3856C29.3671 66.3759 32.6584 72.3865 36.7928 75.3812L47.0369 82.782C47.6005 83.1928 48.1804 83.4457 48.7544 83.5125L51.3986 83.831C51.3986 83.831 51.4988 83.8381 51.549 83.8416L51.5517 83.8153ZM45.0731 32.3287C45.3239 32.3463 45.6139 32.4727 45.8956 32.6781C47.2124 33.619 48.1391 35.8845 47.8946 37.5109L47.1475 42.5217C47.01 43.3603 47.0844 44.3464 47.3094 45.3431L48.9058 52.1093C49.5381 54.7782 50.6605 57.349 52.1471 59.5743L53.2174 61.1872C53.983 62.3279 54.3872 63.7878 54.2671 64.9458L52.637 80.6574C52.5824 81.1838 52.4134 81.5961 52.1909 81.7925C52.0519 81.9153 51.896 81.9573 51.6731 81.9151L49.0289 81.5966C48.7531 81.5773 48.4157 81.421 48.0866 81.1857L37.8425 73.7849C34.0846 71.0553 31.0952 65.5431 30.4013 60.0598L28.6275 45.7525C28.4294 44.254 28.761 43.0049 29.4119 42.5735C29.9015 42.2368 30.6427 42.3949 31.4183 42.9531L39.2436 48.5933C39.902 49.0637 40.6014 49.1394 41.219 48.7852C41.8367 48.431 42.2167 47.6889 42.212 46.7608L42.2333 43.6341C42.2581 39.5004 42.9968 35.7879 44.3835 32.8899C44.6054 32.4548 44.7891 32.3882 44.8393 32.3917C44.9145 32.397 44.9924 32.376 45.0677 32.3813L45.0731 32.3287Z" fill="#BDBEC0"/>
<path d="M60.7882 108C64.4486 108 67.8084 107.149 70.8132 105.42C78.0246 101.221 82.0127 92.4667 82.0127 80.7756C82.0127 57.0639 65.3773 28.1378 44.945 16.282C34.8654 10.4364 25.3322 9.53071 18.0934 13.7022C10.882 17.9012 6.89392 26.6558 6.89392 38.347C6.89392 62.0587 23.5293 90.9848 43.9616 102.841C49.8892 106.271 55.5982 108 60.7882 108ZM28.1184 13.0984C32.9533 13.0984 38.3345 14.7451 43.9616 17.9835C63.8476 29.51 80.046 57.6951 80.046 80.7481C80.046 91.6983 76.4129 99.8492 69.8298 103.664C63.2467 107.479 54.3963 106.573 44.945 101.084C25.059 89.5577 8.86065 61.3726 8.86065 38.3196C8.86065 27.3694 12.4937 19.2185 19.0768 15.4037C21.7538 13.8394 24.8132 13.071 28.1184 13.071V13.0984Z" fill="#BDBEC0"/>
</svg>
