<?xml version="1.0" standalone="no"?>
<!DOCTYPE svg PUBLIC "-//W3C//DTD SVG 20010904//EN"
 "http://www.w3.org/TR/2001/REC-SVG-20010904/DTD/svg10.dtd">
<svg version="1.0" xmlns="http://www.w3.org/2000/svg"
 width="70.000000pt" height="70.000000pt" viewBox="0 0 70.000000 70.000000"
 preserveAspectRatio="xMidYMid meet">
<metadata>
Created by potrace 1.14, written by Peter Selinger 2001-2017
</metadata>
<g transform="translate(0.000000,70.000000) scale(0.100000,-0.100000)"
fill="#000000" stroke="none">
<path d="M259 648 c-19 -5 -41 -11 -49 -14 -8 -3 -15 -4 -15 -3 0 1 -20 -10
-44 -25 -49 -32 -91 -70 -91 -85 0 -5 -5 -11 -10 -13 -6 -2 -19 -26 -29 -54
-26 -67 -23 -171 6 -236 35 -76 126 -151 217 -176 40 -10 201 -5 231 8 17 7
36 14 43 16 18 3 82 52 110 83 68 75 91 222 49 311 -24 50 -30 58 -72 101 -34
34 -130 84 -157 82 -10 -1 -18 1 -18 5 0 10 -130 9 -171 0z m211 -191 c0 -8
-14 -56 -31 -108 -17 -52 -32 -99 -33 -106 -1 -7 -5 -16 -9 -19 -4 -4 -7 -15
-7 -25 0 -17 -26 -34 -33 -21 -3 4 -10 38 -18 76 -7 37 -18 70 -24 72 -10 4
-18 5 -92 19 -62 11 -62 30 0 51 29 10 57 19 62 20 6 1 42 14 80 28 80 29 105
32 105 13z"/>
</g>
</svg>
