<svg width="18" height="18" viewBox="0 0 18 18" fill="none" xmlns="http://www.w3.org/2000/svg">
<g id="info-circle-filled">
<path id="Vector" d="M12.75 2.50492C13.8812 3.15806 14.8222 4.09531 15.4799 5.22389C16.1375 6.35248 16.489 7.63325 16.4996 8.93942C16.5101 10.2456 16.1794 11.5319 15.54 12.6709C14.9007 13.81 13.9749 14.7623 12.8544 15.4337C11.7339 16.105 10.4575 16.472 9.15157 16.4985C7.84562 16.5249 6.55541 16.2098 5.40867 15.5844C4.26192 14.9589 3.2984 14.0448 2.6135 12.9326C1.9286 11.8203 1.54606 10.5485 1.50375 9.24292L1.5 8.99992L1.50375 8.75692C1.54575 7.46166 1.92266 6.19939 2.59773 5.09316C3.2728 3.98694 4.22299 3.07451 5.35567 2.44483C6.48835 1.81515 7.76486 1.48972 9.06075 1.50025C10.3566 1.51078 11.6277 1.85692 12.75 2.50492ZM9 8.24992H8.25L8.16225 8.25517C7.97243 8.27775 7.79839 8.37195 7.6757 8.51855C7.55301 8.66513 7.49092 8.85304 7.50212 9.04387C7.51332 9.2347 7.59697 9.41406 7.73597 9.54528C7.87498 9.67651 8.05884 9.74971 8.25 9.74992V11.9999L8.25525 12.0877C8.27674 12.2701 8.36444 12.4383 8.50172 12.5604C8.639 12.6825 8.8163 12.7499 9 12.7499H9.75L9.83775 12.7447C10.0202 12.7232 10.1884 12.6355 10.3105 12.4982C10.4325 12.3609 10.5 12.1836 10.5 11.9999L10.4948 11.9122C10.475 11.7448 10.3994 11.5889 10.2802 11.4697C10.161 11.3505 10.0052 11.2749 9.83775 11.2552L9.75 11.2499V8.99992L9.74475 8.91217C9.72326 8.72973 9.63556 8.56152 9.49828 8.43946C9.361 8.31739 9.1837 8.24994 9 8.24992ZM9.0075 5.24992L8.91225 5.25517C8.72243 5.27775 8.54839 5.37196 8.4257 5.51855C8.30301 5.66513 8.24092 5.85304 8.25212 6.04387C8.26332 6.2347 8.34697 6.41406 8.48597 6.54528C8.62498 6.67651 8.80884 6.74971 9 6.74992L9.09525 6.74467C9.28507 6.72209 9.45911 6.62788 9.5818 6.48129C9.70449 6.3347 9.76658 6.1468 9.75538 5.95597C9.74418 5.76513 9.66053 5.58578 9.52153 5.45456C9.38252 5.32333 9.19866 5.25013 9.0075 5.24992Z" fill="#BDBEC0"/>
</g>
</svg>
