<svg width="28" height="24" viewBox="0 0 28 24" fill="none" xmlns="http://www.w3.org/2000/svg">
	<path fill-rule="evenodd" clip-rule="evenodd" d="M23.5714 23.0009L28 0.850121L27.9998 0.850507C27.9998 -0.624176 25.9559 0.266706 25.9559 0.266706L1.08919 9.94419C1.08919 9.94419 -0.0877445 10.3435 0.00523238 11.0809C0.0982093 11.8182 1.0582 12.156 1.0582 12.156L7.31153 14.2446L22.3298 4.78292C22.3298 4.78292 23.197 4.26061 23.166 4.78292C23.166 4.78292 23.3208 4.87516 22.8561 5.30522C22.3918 5.73548 11.0577 15.8428 11.0577 15.8428L11.0354 16.0315L21.2489 23.7997C22.9521 24.5371 23.5714 23.0009 23.5714 23.0009Z" fill="#000"/>
	<path d="M14.9473 19.0072L10.9053 22.6633C10.9053 22.6633 10.5892 22.9012 10.2437 22.7521L11.0177 15.9609" fill="#000"/>
</svg>
