<svg xmlns="http://www.w3.org/2000/svg" width="24" height="24" viewBox="0 0 24 24" fill="none">
  <path fill-rule="evenodd" clip-rule="evenodd" d="M1.25 7C1.25 3.82436 3.82436 1.25 7 1.25H17C20.1756 1.25 22.75 3.82436 22.75 7V17C22.75 20.1756 20.1756 22.75 17 22.75H7C3.82436 22.75 1.25 20.1756 1.25 17V7ZM7 2.75C4.65279 2.75 2.75 4.65279 2.75 7V17C2.75 19.3472 4.65279 21.25 7 21.25H17C19.3472 21.25 21.25 19.3472 21.25 17V7C21.25 4.65279 19.3472 2.75 17 2.75H7Z" fill="#EE1F1F"/>
  <path fill-rule="evenodd" clip-rule="evenodd" d="M14.6523 9.34858C14.9452 9.64147 14.9452 10.1163 14.6523 10.4092L10.4096 14.6519C10.1168 14.9448 9.64188 14.9448 9.34899 14.6519C9.05609 14.359 9.05609 13.8841 9.34899 13.5912L13.5916 9.34858C13.8845 9.05568 14.3594 9.05568 14.6523 9.34858Z" fill="#EE1F1F"/>
  <path fill-rule="evenodd" clip-rule="evenodd" d="M14.6524 14.6519C14.3595 14.9448 13.8846 14.9448 13.5917 14.6519L9.3491 10.4093C9.05621 10.1164 9.05621 9.64151 9.3491 9.34862C9.64199 9.05573 10.1169 9.05573 10.4098 9.34862L14.6524 13.5913C14.9453 13.8842 14.9453 14.359 14.6524 14.6519Z" fill="#EE1F1F"/>
</svg>