<svg width="24" height="24" viewBox="0 0 24 24" fill="none" xmlns="http://www.w3.org/2000/svg">
<path fill-rule="evenodd" clip-rule="evenodd" d="M1.25 7C1.25 3.82436 3.82436 1.25 7 1.25H17C20.1756 1.25 22.75 3.82436 22.75 7V17C22.75 20.1756 20.1756 22.75 17 22.75H7C3.82436 22.75 1.25 20.1756 1.25 17V7ZM7 2.75C4.65279 2.75 2.75 4.65279 2.75 7V17C2.75 19.3472 4.65279 21.25 7 21.25H17C19.3472 21.25 21.25 19.3472 21.25 17V7C21.25 4.65279 19.3472 2.75 17 2.75H7Z" fill="#141516"/>
<path fill-rule="evenodd" clip-rule="evenodd" d="M14.6513 9.34858C14.9442 9.64147 14.9442 10.1163 14.6513 10.4092L10.4087 14.6519C10.1158 14.9448 9.6409 14.9448 9.34801 14.6519C9.05512 14.359 9.05512 13.8841 9.34801 13.5912L13.5907 9.34858C13.8835 9.05568 14.3584 9.05568 14.6513 9.34858Z" fill="#141516"/>
<path fill-rule="evenodd" clip-rule="evenodd" d="M14.6514 14.6519C14.3585 14.9448 13.8837 14.9448 13.5908 14.6519L9.34812 10.4093C9.05523 10.1164 9.05523 9.64151 9.34812 9.34862C9.64102 9.05573 10.1159 9.05573 10.4088 9.34862L14.6514 13.5913C14.9443 13.8842 14.9443 14.359 14.6514 14.6519Z" fill="#141516"/>
</svg>
