<svg width="24" height="24" viewBox="0 0 24 24" fill="none" xmlns="http://www.w3.org/2000/svg">
<path fill-rule="evenodd" clip-rule="evenodd" d="M1.25 7C1.25 3.82436 3.82436 1.25 7 1.25H17C20.1756 1.25 22.75 3.82436 22.75 7V17C22.75 20.1756 20.1756 22.75 17 22.75H7C3.82436 22.75 1.25 20.1756 1.25 17V7ZM7 2.75C4.65279 2.75 2.75 4.65279 2.75 7V17C2.75 19.3472 4.65279 21.25 7 21.25H17C19.3472 21.25 21.25 19.3472 21.25 17V7C21.25 4.65279 19.3472 2.75 17 2.75H7Z" fill="#141516"/>
<path fill-rule="evenodd" clip-rule="evenodd" d="M9.75 12.5C9.75 12.0858 10.0858 11.75 10.5 11.75L17.5 11.75C17.9142 11.75 18.25 12.0858 18.25 12.5C18.25 12.9142 17.9142 13.25 17.5 13.25L10.5 13.25C10.0858 13.25 9.75 12.9142 9.75 12.5Z" fill="#141516"/>
<path fill-rule="evenodd" clip-rule="evenodd" d="M17.5 13.25C17.0858 13.25 16.75 12.9142 16.75 12.5L16.75 10.5C16.75 10.0858 17.0858 9.75 17.5 9.75C17.9142 9.75 18.25 10.0858 18.25 10.5L18.25 12.5C18.25 12.9142 17.9142 13.25 17.5 13.25Z" fill="#141516"/>
<path fill-rule="evenodd" clip-rule="evenodd" d="M15 13.25C15.4142 13.25 15.75 12.9142 15.75 12.5L15.75 10.5C15.75 10.0858 15.4142 9.75 15 9.75C14.5858 9.75 14.25 10.0858 14.25 10.5L14.25 12.5C14.25 12.9142 14.5858 13.25 15 13.25Z" fill="#141516"/>
<path fill-rule="evenodd" clip-rule="evenodd" d="M8.5 11.25C9.19036 11.25 9.75 11.8096 9.75 12.5C9.75 13.1904 9.19036 13.75 8.5 13.75C7.80964 13.75 7.25 13.1904 7.25 12.5C7.25 11.8096 7.80964 11.25 8.5 11.25ZM11.25 12.5C11.25 10.9812 10.0188 9.75 8.5 9.75C6.98122 9.75 5.75 10.9812 5.75 12.5C5.75 14.0188 6.98122 15.25 8.5 15.25C10.0188 15.25 11.25 14.0188 11.25 12.5Z" fill="#141516"/>
</svg>
