<svg width="24" height="24" viewBox="0 0 24 24" fill="none" xmlns="http://www.w3.org/2000/svg">
<path fill-rule="evenodd" clip-rule="evenodd" d="M4.53818 3.12085C5.73532 1.92372 7.67419 1.97928 8.86821 3.1733L10.8613 5.16639C12.0553 6.36041 12.1109 8.29928 10.9137 9.49642L10.6374 9.7728C10.4291 9.98103 10.4067 10.3187 10.6046 10.5585C11.0218 11.064 11.4692 11.5647 11.9522 12.0478C12.4353 12.5309 12.936 12.9783 13.4415 13.3954C13.6814 13.5933 14.019 13.5709 14.2272 13.3627L14.5036 13.0863C15.7008 11.8892 17.6396 11.9447 18.8337 13.1387L20.8267 15.1318C22.0208 16.3259 22.0763 18.2647 20.8792 19.4619L19.5924 20.7486C18.2847 22.0563 16.1453 21.9505 14.0638 21.1868C11.9173 20.3993 9.52188 18.816 7.35299 16.6471C5.18409 14.4782 3.60079 12.0827 2.81323 9.93622C2.04952 7.85473 1.9437 5.71534 3.25142 4.40762L4.53818 3.12085ZM7.80755 4.23396C7.16698 3.59339 6.17837 3.60199 5.59884 4.18151L4.31208 5.46828C4.31208 5.46828 4.31208 5.46828 4.31208 5.46828C3.66548 6.11488 3.50067 7.45511 4.22144 9.41954C4.91835 11.319 6.36299 13.5357 8.41365 15.5864C10.4643 17.6371 12.6811 19.0817 14.5805 19.7786C16.5449 20.4994 17.8852 20.3346 18.5318 19.688L19.8185 18.4012C20.3981 17.8217 20.4067 16.8331 19.7661 16.1925L17.773 14.1994C17.1324 13.5588 16.1438 13.5674 15.5643 14.147L15.2879 14.4233C14.5369 15.1743 13.3271 15.2458 12.4868 14.5524C11.9505 14.1098 11.4135 13.6303 10.8916 13.1085C10.3697 12.5866 9.89027 12.0496 9.44768 11.5132C8.75428 10.673 8.82569 9.46315 9.5767 8.71214L9.85309 8.43576C10.4326 7.85623 10.4412 6.86762 9.80064 6.22705L7.80755 4.23396Z" fill="#EE1F1F"/>
</svg>
