<svg width="24" height="25" viewBox="0 0 24 25" fill="none" xmlns="http://www.w3.org/2000/svg">
<g id="Icon">
<g id="Group 2079">
<path id="Vector" d="M22.5 4.13759L19.1785 20.7507C19.1785 20.7507 18.7141 21.9028 17.4367 21.3498L9.77219 15.5203L6.9852 14.1839L2.29365 12.617C2.29365 12.617 1.57366 12.3636 1.50392 11.8106C1.43419 11.2576 2.31689 10.9581 2.31689 10.9581L20.9669 3.70003C20.9669 3.70003 22.4999 3.03187 22.4999 4.13788" fill="#40B3E0"/>
<path id="Vector_2" d="M9.18143 20.5641C9.18143 20.5641 8.9577 20.5434 8.67877 19.6677C8.40028 18.7921 6.9834 14.1839 6.9834 14.1839L18.2478 7.08719C18.2478 7.08719 18.8982 6.69546 18.875 7.08719C18.875 7.08719 18.9911 7.15637 18.6426 7.47892C18.2943 7.80161 9.79377 15.3821 9.79377 15.3821" fill="white"/>
<path id="Vector_3" d="M12.7104 17.7554L9.67888 20.4975C9.67888 20.4975 9.44179 20.6759 9.18262 20.5641L9.76314 15.4707" fill="#B5CFE4"/>
</g>
</g>
</svg>
